<?xml version="1.0" encoding="UTF-8" standalone="no"?>
<!-- Created with Inkscape (http://www.inkscape.org/) -->

<svg
   version="1.1"
   id="svg13201"
   width="595.63867"
   height="595.41736"
   viewBox="0 0 595.63867 595.41735"
   sodipodi:docname="17088562_Set_of_cute_fruits.eps"
   xmlns:inkscape="http://www.inkscape.org/namespaces/inkscape"
   xmlns:sodipodi="http://sodipodi.sourceforge.net/DTD/sodipodi-0.dtd"
   xmlns="http://www.w3.org/2000/svg"
   xmlns:svg="http://www.w3.org/2000/svg">
  <g
     id="g13209"
     inkscape:groupmode="layer"
     inkscape:label="Page 1"
     transform="matrix(1.3333333,0,0,-1.3333333,-4496.688,1534.6371)">
    <g
       id="g13211"
       transform="scale(0.1)">
      <path
         d="m 34947,10752.6 c -135.5,-421.2 -181.8,-866.2 -133.2,-1306.3 12,-107.6 178.7,-86.4 166.8,21.2 -45.4,410.2 -4.6,828.1 121.9,1221.1 13.9,43.2 -1.4,91.5 -45.8,109.8 -39.4,16.2 -95.7,-2.4 -109.7,-45.8"
         style="fill:#83c274;fill-opacity:1;fill-rule:nonzero;stroke:none"
         id="path13313" />
      <path
         d="m 33734.1,9705.6 c 38.1,0.7 361.8,-186.8 680.1,-162.5 0,0 -173.1,440.1 -32.5,674.7 27.1,45.2 18.2,-294.2 600.7,-558 0,0 492.8,332.6 552.7,629.3 16.7,82.8 243,-296 -159.2,-803 -402.2,-507 -819.2,-333.2 -1060.9,-296.5 -434.8,66 -636.1,514.9 -580.9,516"
         style="fill:#597e4c;fill-opacity:1;fill-rule:nonzero;stroke:none"
         id="path13315" />
      <path
         d="m 36074.1,8637.1 c 83,69.7 123.8,183 95.7,295.3 -25.1,99.9 -98.8,174.8 -189.6,205.8 14.8,44.6 17.5,93.7 5.2,142.7 -31.1,124.4 -148.2,204.6 -272.1,193.2 -67,108.7 -199,166.6 -329.4,133.9 -67.2,-16.8 -123.4,-55 -163.1,-105.5 -74.3,59.2 -174.3,84.4 -273.5,59.6 -100.7,-25.2 -177.8,-96.3 -214.7,-185.3 -71.7,66.5 -174.5,96.7 -276.4,71.2 -115.3,-28.9 -198,-121 -220.4,-230.1 -35.8,5.7 -73.3,4.5 -110.6,-4.9 -142.5,-35.7 -231.1,-176.4 -203.8,-318.9 -74.1,-61.1 -110.8,-161.4 -85.9,-260.7 8.1,-32.6 22.3,-62.1 40.8,-87.8 -54.5,-66.2 -78.1,-156.5 -55.6,-246.1 26.9,-107.4 112.6,-184.5 214.1,-205.8 -10.2,-42.1 -10.7,-87.1 0.6,-131.9 30,-120 134.4,-201.8 251.7,-208.6 -5.4,-37.4 -3.9,-76.5 5.9,-115.4 37.9,-151.1 184.5,-246.3 335.5,-222.9 -0.2,-23.3 2.4,-47 8.3,-70.6 37.1,-147.9 187,-237.8 335,-200.7 34.4,8.6 65.7,23.4 93,42.9 59.1,-106.9 184.5,-165.1 308.6,-134 109.4,27.4 186.9,116.6 205,221 39.2,-6.5 80.3,-5.3 121.2,5 156.5,39.2 252.9,195 220,351.5 152.9,43.3 244.7,200.5 205.9,355.7 -12.6,50 -37.2,93.8 -70,129.1 123.8,59.4 193.1,199.5 158.4,337.9 -20.4,81.1 -72.5,145.9 -139.8,184.4"
         style="fill:#ff77a5;fill-opacity:1;fill-rule:nonzero;stroke:none"
         id="path13317" />
      <path
         d="m 34097.1,8508.9 c -104.9,-26.3 -64.2,-189.3 40.9,-163 104.9,26.3 64.2,189.3 -40.9,163"
         style="fill:#ffaeca;fill-opacity:1;fill-rule:nonzero;stroke:none"
         id="path13319" />
      <path
         d="m 34484.4,9262.7 c -145.7,-36.5 -89.2,-262.9 56.7,-226.4 145.7,36.5 89.2,263 -56.7,226.4"
         style="fill:#ffaeca;fill-opacity:1;fill-rule:nonzero;stroke:none"
         id="path13321" />
      <path
         d="m 34994.7,9338.3 c -134.1,-33.6 -82.1,-242 52.2,-208.3 134,33.6 82,241.9 -52.2,208.3"
         style="fill:#ffaeca;fill-opacity:1;fill-rule:nonzero;stroke:none"
         id="path13323" />
      <path
         d="m 34759.2,8608.8 c -71,-17.8 -123.5,-97.4 -101.8,-169.9 21.7,-72.8 93.7,-120.9 169.9,-101.8 71,17.8 123.5,97.3 101.8,169.9 -21.7,72.8 -93.7,120.9 -169.9,101.8"
         style="fill:#ffaeca;fill-opacity:1;fill-rule:nonzero;stroke:none"
         id="path13325" />
      <path
         d="m 35508.5,8684.5 c -68.6,-17.2 -112.2,-90.1 -95.1,-158.6 17.3,-68.8 89.8,-112.3 158.6,-95 68.5,17.1 112.2,90 95,158.5 -17.2,68.8 -89.8,112.3 -158.5,95.1"
         style="fill:#de558a;fill-opacity:1;fill-rule:nonzero;stroke:none"
         id="path13327" />
      <path
         d="m 35743.7,9337.6 c -70.9,-17.7 -116.2,-93.2 -98.4,-164.2 17.8,-71.2 93,-116.3 164.2,-98.4 71,17.8 116.2,93.2 98.4,164.2 -17.8,71.2 -93,116.3 -164.2,98.4"
         style="fill:#de558a;fill-opacity:1;fill-rule:nonzero;stroke:none"
         id="path13329" />
      <path
         d="m 35953.8,8406 c -145.7,-36.5 -89.2,-263 56.7,-226.4 145.7,36.5 89.2,263 -56.7,226.4"
         style="fill:#de558a;fill-opacity:1;fill-rule:nonzero;stroke:none"
         id="path13331" />
      <path
         d="m 35471.6,8047.9 c -68.5,-17.2 -112.2,-90.1 -95,-158.6 17.2,-68.8 89.8,-112.2 158.6,-95 68.5,17.1 112.2,90 95,158.5 -17.2,68.8 -89.8,112.3 -158.6,95.1"
         style="fill:#de558a;fill-opacity:1;fill-rule:nonzero;stroke:none"
         id="path13333" />
      <path
         d="m 35658,7542.4 c -145.7,-36.5 -89.2,-263 56.8,-226.4 145.7,36.5 89.2,263 -56.8,226.4"
         style="fill:#de558a;fill-opacity:1;fill-rule:nonzero;stroke:none"
         id="path13335" />
      <path
         d="m 34918.7,7461.2 c -68.5,-17.2 -112.2,-90 -95,-158.6 17.2,-68.7 89.8,-112.2 158.5,-95 68.6,17.2 112.2,90.1 95.1,158.6 -17.3,68.8 -89.8,112.2 -158.6,95"
         style="fill:#de558a;fill-opacity:1;fill-rule:nonzero;stroke:none"
         id="path13337" />
      <path
         d="m 37594,11478.2 c -174.3,-324.1 -279.2,-681 -305.7,-1048.2 -6.5,-89.9 133,-97.7 139.5,-7.9 24.7,342.4 121.1,678 283.8,980.4 17.8,33.2 12.6,75 -20.9,96.6 -29.9,19.3 -78.7,12.5 -96.7,-20.9"
         style="fill:#83c274;fill-opacity:1;fill-rule:nonzero;stroke:none"
         id="path13339" />
      <path
         d="m 38184.9,10706.1 c -31.7,-0.4 -260.9,-71.7 -526.1,-59.5 0,0 39.7,236.3 -68.4,411 -23,37.2 -146.7,-244.2 -378.7,-330.1 0,0 -417.4,132.4 -542.5,253.2 -50.5,48.7 -10.7,-249 187.2,-425.9 401.4,-358.6 650.7,-281.4 850.8,-244.7 359.7,65.8 523.6,396.5 477.7,396"
         style="fill:#597e4c;fill-opacity:1;fill-rule:nonzero;stroke:none"
         id="path13341" />
      <path
         d="m 36185.9,9674.7 c -25.3,-116 35.8,-230.6 140.2,-276.9 -26.4,-30.1 -45.8,-67.2 -54.9,-109.1 -28.4,-130 51.9,-258.3 180.1,-290.5 -23.4,-130.9 60.6,-257.9 191.7,-286.6 34.3,-7.5 68.5,-7.5 100.9,-1.1 17.6,-86.3 84.3,-158.5 175.9,-178.5 103.9,-22.7 206.7,28.8 253.2,119.1 23.2,-15.5 49.5,-27 78.4,-33.3 123.9,-27.1 246.3,51.4 273.4,175.3 4.3,19.8 5.9,39.5 5.1,58.9 126.1,-15.7 245.6,67.1 273.3,193.7 7.1,32.6 7.4,65.1 2,96.1 97.3,8.6 182,79.2 204,179.7 8.2,37.6 6.6,75 -2.9,109.7 83.9,20.2 153.1,86.5 172.8,176.5 16.4,75 -5.4,149.5 -52.4,203.1 14.7,21.8 25.7,46.7 31.7,74 18.2,83.2 -14.9,165.7 -78,214.6 19.1,119.1 -58.1,233.9 -177.5,260 -31.2,6.8 -62.4,6.9 -92,1.2 -21.4,90.1 -92.5,164.6 -189,185.7 -85.4,18.7 -170.1,-9 -227.9,-66.1 -33,73 -98.9,130.2 -183.2,148.6 -83.1,18.1 -165.6,-5.3 -225.8,-56.4 -34.4,40.9 -82,71.3 -138.3,83.6 -109.2,23.9 -217.4,-27.6 -270.4,-119.6 -103.3,6.3 -198.6,-63.3 -221.4,-167.5 -8.9,-41 -5.4,-81.8 8,-118.5 -74.7,-28 -134.1,-92.1 -152.4,-175.9 -20.6,-94 16.2,-187.1 87,-243 -55,-33.7 -96.7,-88.8 -111.6,-156.8"
         style="fill:#66b6de;fill-opacity:1;fill-rule:nonzero;stroke:none"
         id="path13343" />
      <path
         d="m 38053.1,9978.5 c 87.8,-19.2 58.1,-155.8 -29.9,-136.5 -87.8,19.2 -58.2,155.8 29.9,136.5"
         style="fill:#3983bf;fill-opacity:1;fill-rule:nonzero;stroke:none"
         id="path13345" />
      <path
         d="m 37456.8,9722.3 c 122,-26.7 80.8,-216.4 -41.4,-189.6 -122.1,26.6 -80.8,216.3 41.4,189.6"
         style="fill:#3983bf;fill-opacity:1;fill-rule:nonzero;stroke:none"
         id="path13347" />
      <path
         d="m 37783.6,9460 c 59.5,-13 105.1,-77.8 88.9,-138.7 -16.2,-61 -74.9,-102.8 -138.6,-88.9 -59.6,13 -105.1,77.8 -89,138.7 16.3,61 74.9,102.8 138.7,88.9"
         style="fill:#3983bf;fill-opacity:1;fill-rule:nonzero;stroke:none"
         id="path13349" />
      <path
         d="m 37179.1,10601.4 c 53,-11.6 88.3,-66.6 76.7,-119.6 -11.7,-53.3 -66.4,-88.4 -119.7,-76.7 -53,11.6 -88.3,66.5 -76.7,119.6 11.7,53.2 66.4,88.4 119.7,76.7"
         style="fill:#b0e9ff;fill-opacity:1;fill-rule:nonzero;stroke:none"
         id="path13351" />
      <path
         d="m 36543.4,10488.7 c 46.2,-10.1 77,-58.1 66.9,-104.3 -10.2,-46.5 -57.9,-77.1 -104.3,-66.9 -46.3,10.1 -77,58 -66.9,104.3 10.1,46.4 57.9,77 104.3,66.9"
         style="fill:#b0e9ff;fill-opacity:1;fill-rule:nonzero;stroke:none"
         id="path13353" />
      <path
         d="m 36980.9,10270.8 c 57.4,-12.6 95.5,-72.1 83,-129.4 -12.6,-57.6 -71.9,-95.6 -129.5,-83 -57.3,12.5 -95.5,72 -82.9,129.4 12.5,57.6 71.8,95.6 129.4,83"
         style="fill:#b0e9ff;fill-opacity:1;fill-rule:nonzero;stroke:none"
         id="path13355" />
      <path
         d="m 36673.9,9893.4 c 122,-26.6 80.7,-216.3 -41.5,-189.6 -122,26.7 -80.8,216.4 41.5,189.6"
         style="fill:#b0e9ff;fill-opacity:1;fill-rule:nonzero;stroke:none"
         id="path13357" />
      <path
         d="m 36713.2,9046 c 57.3,-12.6 95.5,-72 82.9,-129.4 -12.5,-57.6 -71.8,-95.6 -129.4,-83 -57.4,12.5 -95.5,72 -83,129.4 12.6,57.6 71.9,95.6 129.5,83"
         style="fill:#3983bf;fill-opacity:1;fill-rule:nonzero;stroke:none"
         id="path13359" />
      <path
         d="m 37040.4,8782.5 c 122.1,-26.7 80.8,-216.3 -41.4,-189.6 -122,26.7 -80.8,216.3 41.4,189.6"
         style="fill:#3983bf;fill-opacity:1;fill-rule:nonzero;stroke:none"
         id="path13361" />
      <path
         d="m 37319.6,9220 c 57.4,-12.5 95.5,-72 83,-129.4 -12.6,-57.6 -71.8,-95.6 -129.4,-83 -57.4,12.6 -95.5,72 -83,129.4 12.6,57.6 71.8,95.6 129.4,83"
         style="fill:#3983bf;fill-opacity:1;fill-rule:nonzero;stroke:none"
         id="path13363" />
    </g>
  </g>
</svg>
