<?xml version="1.0" encoding="UTF-8" standalone="no"?>
<!-- Created with Inkscape (http://www.inkscape.org/) -->

<svg
   version="1.1"
   id="svg26267"
   width="651.91797"
   height="687.82715"
   viewBox="0 0 651.91797 687.82716"
   sodipodi:docname="fruit_set.eps"
   xmlns:inkscape="http://www.inkscape.org/namespaces/inkscape"
   xmlns:sodipodi="http://sodipodi.sourceforge.net/DTD/sodipodi-0.dtd"
   xmlns="http://www.w3.org/2000/svg"
   xmlns:svg="http://www.w3.org/2000/svg">
  <g
     id="g26275"
     inkscape:groupmode="layer"
     inkscape:label="Page 1"
     transform="matrix(1.3333333,0,0,-1.3333333,-4000.6587,1022.4698)">
    <g
       id="g26277"
       transform="scale(0.1)">
      <path
         d="m 34622.5,3717.1 c 401.4,746.7 347.6,1687.1 -91.1,2533.9 4.2,1.7 8.4,3.4 12.5,5.4 62.4,28.9 99.4,81.4 82.7,117.3 -13.4,28.9 -57.6,38.2 -106.9,25.5 12.1,43.9 5.3,83.3 -20.4,97.7 -24.5,13.9 -59.6,1.1 -90,-28.9 -242.8,398.9 -573.5,770.3 -984,1082.4 v 0 c -149.4,113.5 -370.6,112.6 -632.3,17.3 3.6,52.1 -15.6,95.6 -46.5,100.4 -27.3,4.2 -55.3,-23.2 -69.9,-64.8 -25.8,29.9 -57.5,43.9 -80.3,32.4 -30.6,-15.5 -33.6,-71.2 -6.7,-124.3 4.6,-9.1 9.7,-17.4 15.3,-25 C 32117,7244.6 31527.5,6727 31004,6038.3 30112.1,4864.7 29750.1,3639 30195.5,3300.6 c 342.5,-260.3 710,-455.9 1083.3,-587.5 -23,-25 -32.6,-52.8 -22.5,-74.5 13.4,-28.9 57.6,-38.1 106.8,-25.5 -12.1,-43.9 -5.2,-83.2 20.5,-97.7 34.4,-19.4 89.7,13.4 123.4,73.3 8.8,15.5 15.2,31.4 19.3,46.7 1113.2,-306.8 2240.5,-50 2881,755.1 39.6,-48.5 90,-74.6 123.5,-60.1 31,13.3 38.8,57.2 23.4,108.4 58.3,-27 113.7,-27.5 133.2,2.3 19.2,29.2 -2.1,78.6 -48.4,121 49.4,3.7 85,24.3 87.8,55.6 3.4,37.5 -41.1,78.3 -104.3,99.4"
         style="fill:#835330;fill-opacity:1;fill-rule:nonzero;stroke:none"
         id="path26543" />
      <path
         d="m 34708.3,4581.1 c 0,0 -39.7,595.3 -308.7,1133.2 -269,538 -692.3,784.9 -692.3,784.9 0,0 489.5,-515.9 718.8,-1027.4 229.3,-511.5 282.2,-890.7 282.2,-890.7"
         style="fill:#6f4324;fill-opacity:1;fill-rule:nonzero;stroke:none"
         id="path26545" />
      <path
         d="m 33791,4933.8 c -242.6,211.7 -553.4,320.7 -553.4,320.7 0,0 392.4,-274.4 1247.9,-1050.5 0,0 -452,518.2 -694.5,729.8"
         style="fill:#6f4324;fill-opacity:1;fill-rule:nonzero;stroke:none"
         id="path26547" />
      <path
         d="m 34622.5,3717.1 c 113.9,211.8 191.2,439.2 233.4,675.7 -271.9,-376.8 -652.4,-691.8 -1080.5,-930.2 -881.7,536.8 -1220.7,804.3 -1220.7,804.3 0,0 194.1,-266.2 466.7,-437.4 183.8,-115.5 528.7,-282 733.7,-378.2 -430.4,-236.4 -907.6,-395.4 -1370.6,-462.2 -442.3,141.6 -840.3,368.5 -840.3,368.5 0,0 226.7,-234.2 628.5,-392.7 -248.7,-20.7 -490.5,-13.5 -715.4,24.3 -1279.9,215 -1186.3,540.9 -1186.3,540.9 -69.7,258.3 -143.3,471.5 -219.8,645.1 -90.8,-408.9 -50.5,-726.6 144.3,-874.6 342.5,-260.3 710,-455.9 1083.3,-587.5 -23,-25 -32.6,-52.8 -22.5,-74.5 13.4,-28.9 57.6,-38.1 106.8,-25.5 -12.1,-43.9 -5.2,-83.2 20.5,-97.7 34.4,-19.4 89.7,13.4 123.4,73.3 8.8,15.5 15.2,31.4 19.3,46.7 1113.2,-306.8 2240.5,-50 2881,755.1 39.6,-48.5 90,-74.6 123.5,-60.1 31,13.3 38.8,57.2 23.4,108.4 58.3,-27 113.7,-27.5 133.2,2.3 19.2,29.2 -2.1,78.6 -48.4,121 49.4,3.7 85,24.3 87.8,55.6 3.4,37.5 -41.1,78.2 -104.3,99.4"
         style="fill:#6f4324;fill-opacity:1;fill-rule:nonzero;stroke:none"
         id="path26549" />
      <path
         d="m 33363.1,7422.5 c 422.7,-321.2 79.1,-1484.7 -767.5,-2598.6 C 31749,3710 30720.1,3067.5 30297.4,3388.7 c -422.7,321.3 -79.1,1484.7 767.5,2598.6 846.5,1113.9 1875.5,1756.5 2298.2,1435.2"
         style="fill:#f9f9f9;fill-opacity:1;fill-rule:nonzero;stroke:none"
         id="path26551" />
      <path
         d="m 33116.7,7240.3 c 294.7,-223.9 -73,-1203.6 -821.3,-2188.2 -748.3,-984.6 -1593.7,-1601.2 -1888.4,-1377.2 -294.7,223.9 73.1,1203.6 821.3,2188.2 748.3,984.5 1593.8,1601.1 1888.4,1377.2"
         style="fill:#e5e5e5;fill-opacity:1;fill-rule:nonzero;stroke:none"
         id="path26553" />
      <path
         d="m 32432.7,5632.4 c -661.5,-870.3 -1496.9,-1402.1 -2081.2,-1381.3 -73.9,-279.7 -61.4,-487.4 55.5,-576.2 294.7,-224 1140.1,392.6 1888.4,1377.2 665.3,875.4 1029.7,1746.9 895.3,2086.8 -114.2,-466.8 -372.9,-999.7 -758,-1506.5"
         style="fill:#cecece;fill-opacity:1;fill-rule:nonzero;stroke:none"
         id="path26555" />
      <path
         d="m 33872.7,5696.7 c -18.3,0 -33.1,-14.8 -33.1,-33.1 0,-18.2 14.8,-33.1 33.1,-33.1 18.2,0 33.1,14.9 33.1,33.1 0,18.3 -14.9,33.1 -33.1,33.1"
         style="fill:#6f4324;fill-opacity:1;fill-rule:nonzero;stroke:none"
         id="path26557" />
      <path
         d="m 34275.1,4805.9 c -14,0 -25.4,-11.3 -25.4,-25.3 0,-14 11.4,-25.4 25.4,-25.4 14,0 25.3,11.4 25.3,25.4 0,14 -11.3,25.3 -25.3,25.3"
         style="fill:#6f4324;fill-opacity:1;fill-rule:nonzero;stroke:none"
         id="path26559" />
      <path
         d="m 33594.9,4673.7 c -13.4,0 -24.3,-10.9 -24.3,-24.3 0,-13.4 10.9,-24.2 24.3,-24.2 13.4,0 24.2,10.8 24.2,24.2 0,13.4 -10.8,24.3 -24.2,24.3"
         style="fill:#6f4324;fill-opacity:1;fill-rule:nonzero;stroke:none"
         id="path26561" />
      <path
         d="m 34070,4091.6 c -15.2,0 -27.5,-12.3 -27.5,-27.6 0,-15.2 12.3,-27.5 27.5,-27.5 15.2,0 27.6,12.3 27.6,27.5 0,15.3 -12.4,27.6 -27.6,27.6"
         style="fill:#6f4324;fill-opacity:1;fill-rule:nonzero;stroke:none"
         id="path26563" />
      <path
         d="m 32674.4,3778.5 c -16.5,0 -29.8,-13.3 -29.8,-29.8 0,-16.4 13.3,-29.7 29.8,-29.7 16.4,0 29.7,13.3 29.7,29.7 0,16.5 -13.3,29.8 -29.7,29.8"
         style="fill:#6f4324;fill-opacity:1;fill-rule:nonzero;stroke:none"
         id="path26565" />
      <path
         d="m 33861.5,6885.2 c 0,18.2 -14.8,33 -33,33 -18.2,0 -33,-14.8 -33,-33 0,-18.3 14.8,-33 33,-33 18.2,0 33,14.7 33,33"
         style="fill:#6f4324;fill-opacity:1;fill-rule:nonzero;stroke:none"
         id="path26567" />
      <path
         d="m 31264.4,3284.6 c -17,0 -30.9,-13.8 -30.9,-30.8 0,-17.1 13.9,-30.9 30.9,-30.9 17,0 30.9,13.8 30.9,30.9 0,17 -13.9,30.8 -30.9,30.8"
         style="fill:#6f4324;fill-opacity:1;fill-rule:nonzero;stroke:none"
         id="path26569" />
    </g>
  </g>
</svg>
