<?xml version="1.0" encoding="UTF-8" standalone="no"?>
<!-- Created with Inkscape (http://www.inkscape.org/) -->

<svg
   version="1.1"
   id="svg26267"
   width="634.4668"
   height="784.68823"
   viewBox="0 0 634.4668 784.68824"
   sodipodi:docname="fruit_set.eps"
   xmlns:inkscape="http://www.inkscape.org/namespaces/inkscape"
   xmlns:sodipodi="http://sodipodi.sourceforge.net/DTD/sodipodi-0.dtd"
   xmlns="http://www.w3.org/2000/svg"
   xmlns:svg="http://www.w3.org/2000/svg">
  <g
     id="g26275"
     inkscape:groupmode="layer"
     inkscape:label="Page 1"
     transform="matrix(1.3333333,0,0,-1.3333333,-4994.8931,1070.9017)">
    <g
       id="g26277"
       transform="scale(0.1)">
      <path
         d="m 39776,6478.3 c 0,0 168.3,920.5 363.7,1328.4 0,0 -90.1,381.4 -324.8,151.2 -234.6,-230.2 -174.5,-1414.3 -174.5,-1414.3 l 135.6,-65.3"
         style="fill:#72362a;fill-opacity:1;fill-rule:nonzero;stroke:none"
         id="path26727" />
      <path
         d="m 39706.6,6511.7 69.4,-33.4 c 0,0 168.3,920.5 363.7,1328.4 0,0 -30.3,128.1 -101.4,191 -72.3,-169.1 -191.5,-487 -260,-879.9 -60.1,-344.7 -72.1,-519.9 -71.7,-606.1"
         style="fill:#59241b;fill-opacity:1;fill-rule:nonzero;stroke:none"
         id="path26729" />
      <path
         d="m 39740.1,6597.2 c 0,0 69.5,704.9 691.4,933.4 621.9,228.5 1723.7,12.8 1723.7,12.8 0,0 -45.2,-634.2 -730.9,-939.4 -685.6,-305.1 -1271.9,-163.4 -1684.2,-6.8"
         style="fill:#69b200;fill-opacity:1;fill-rule:nonzero;stroke:none"
         id="path26731" />
      <path
         d="m 39878.7,6547.9 c -9.6,3.2 -19.2,6.4 -28.6,9.6 l -1.3,0.5 c -9.7,3.3 -19.3,6.6 -28.9,10 -1.3,0.5 -2.7,0.9 -4,1.4 -8.8,3.1 -17.4,6.2 -26,9.3 l -1.6,0.6 v 0 c -14.4,5.3 -28.5,10.5 -42.5,15.8 19.8,6.1 42.9,13.1 68.7,20.6 61.2,77.9 191.7,204.5 464.1,358.8 461.8,261.6 1355.4,297.8 1355.4,297.8 0,0 -455.6,-88.1 -1000.4,-231.6 -298.6,-78.6 -497.3,-240.2 -616,-370.2 296.9,73.6 718.1,148.7 1005.3,77 295.4,-73.7 604.6,33.5 802,129.2 -100.3,-101.3 -230.8,-197.1 -400.6,-272.7 -595.2,-264.9 -1115.4,-193 -1512,-67 v 0 l -0.3,0.1 c -10.3,3.3 -20.5,6.6 -30.6,9.9 l -2.7,0.9"
         style="fill:#578900;fill-opacity:1;fill-rule:nonzero;stroke:none"
         id="path26733" />
      <path
         d="m 41365.5,7500.2 c 0,0 -509.4,22.3 -780,-115 -270.6,-137.2 -427.2,-285.9 -427.2,-285.9 0,0 66.8,577.7 1207.2,400.9"
         style="fill:#95ce32;fill-opacity:1;fill-rule:nonzero;stroke:none"
         id="path26735" />
      <path
         d="m 42220.2,4397.9 c 0,-1243.4 -1065.2,-2251.3 -2379.3,-2251.3 -1314,0 -2379.2,1007.9 -2379.2,2251.3 0,1243.4 1065.2,2251.3 2379.2,2251.3 1314.1,0 2379.3,-1007.9 2379.3,-2251.3"
         style="fill:#ff9100;fill-opacity:1;fill-rule:nonzero;stroke:none"
         id="path26737" />
      <path
         d="m 41197.3,6247.8 c 402.1,-387.3 650.2,-918.3 650.2,-1504.1 0,-1185.4 -1015.5,-2146.3 -2268.2,-2146.3 -885.7,0 -1652.8,480.3 -2026.3,1180.7 284.5,-942 1201.1,-1631.5 2287.9,-1631.5 1314.1,0 2379.3,1007.9 2379.3,2251.3 0,766.3 -404.7,1443.3 -1022.9,1849.9"
         style="fill:#f47a00;fill-opacity:1;fill-rule:nonzero;stroke:none"
         id="path26739" />
      <path
         d="m 41385.4,5830 c -41.1,0 -74.5,-33.3 -74.5,-74.5 0,-41.1 33.4,-74.5 74.5,-74.5 41.2,0 74.5,33.4 74.5,74.5 0,41.2 -33.3,74.5 -74.5,74.5"
         style="fill:#f47a00;fill-opacity:1;fill-rule:nonzero;stroke:none"
         id="path26741" />
      <path
         d="m 40095.8,4324.2 c 18.7,0 33.9,15.2 33.9,34 0,18.7 -15.2,33.9 -33.9,33.9 -18.7,0 -33.9,-15.2 -33.9,-33.9 0,-18.8 15.2,-34 33.9,-34"
         style="fill:#f47a00;fill-opacity:1;fill-rule:nonzero;stroke:none"
         id="path26743" />
      <path
         d="m 40902.8,4582.1 c 26.5,0 47.9,21.5 47.9,47.9 0,26.4 -21.4,47.9 -47.9,47.9 -26.4,0 -47.8,-21.5 -47.8,-47.9 0,-26.4 21.4,-47.9 47.8,-47.9"
         style="fill:#f47a00;fill-opacity:1;fill-rule:nonzero;stroke:none"
         id="path26745" />
      <path
         d="m 40557.4,5364.7 c 33.3,0 60.3,27 60.3,60.3 0,33.3 -27,60.2 -60.3,60.2 -33.3,0 -60.3,-26.9 -60.3,-60.2 0,-33.3 27,-60.3 60.3,-60.3"
         style="fill:#f47a00;fill-opacity:1;fill-rule:nonzero;stroke:none"
         id="path26747" />
      <path
         d="m 39810.5,5830 c 18.5,0 33.5,15 33.5,33.5 0,18.5 -15,33.5 -33.5,33.5 -18.5,0 -33.5,-15 -33.5,-33.5 0,-18.5 15,-33.5 33.5,-33.5"
         style="fill:#f47a00;fill-opacity:1;fill-rule:nonzero;stroke:none"
         id="path26749" />
      <path
         d="m 40724.6,3782.1 c 22.3,0 40.2,18 40.2,40.2 0,22.2 -17.9,40.2 -40.2,40.2 -22.1,0 -40.1,-18 -40.1,-40.2 0,-22.2 18,-40.2 40.1,-40.2"
         style="fill:#f47a00;fill-opacity:1;fill-rule:nonzero;stroke:none"
         id="path26751" />
      <path
         d="m 38977.7,3850.1 c 35.8,0 64.8,29 64.8,64.7 0,35.8 -29,64.8 -64.8,64.8 -35.8,0 -64.8,-29 -64.8,-64.8 0,-35.7 29,-64.7 64.8,-64.7"
         style="fill:#f47a00;fill-opacity:1;fill-rule:nonzero;stroke:none"
         id="path26753" />
      <path
         d="m 39570.5,3216.1 c 27,0 48.9,21.8 48.9,48.8 0,27 -21.9,48.9 -48.9,48.9 -27,0 -48.8,-21.9 -48.8,-48.9 0,-27 21.8,-48.8 48.8,-48.8"
         style="fill:#f47a00;fill-opacity:1;fill-rule:nonzero;stroke:none"
         id="path26755" />
      <path
         d="m 38624.9,2988.2 c 21,0 38,17 38,37.9 0,21 -17,38 -38,38 -21,0 -38,-17 -38,-38 0,-20.9 17,-37.9 38,-37.9"
         style="fill:#f47a00;fill-opacity:1;fill-rule:nonzero;stroke:none"
         id="path26757" />
      <path
         d="m 40393.6,3119.4 c 16.3,0 29.6,13.3 29.6,29.7 0,16.3 -13.3,29.6 -29.6,29.6 -16.4,0 -29.7,-13.3 -29.7,-29.6 0,-16.4 13.3,-29.7 29.7,-29.7"
         style="fill:#f47a00;fill-opacity:1;fill-rule:nonzero;stroke:none"
         id="path26759" />
      <path
         d="m 41414.6,4184.4 c -16.1,0 -29.2,-13.1 -29.2,-29.2 0,-16.1 13.1,-29.1 29.2,-29.1 16.1,0 29.1,13 29.1,29.1 0,16.1 -13,29.2 -29.1,29.2"
         style="fill:#f47a00;fill-opacity:1;fill-rule:nonzero;stroke:none"
         id="path26761" />
      <path
         d="m 38331.5,3119.4 c -20.7,0 -39.9,7.1 -52.6,18.7 -24.4,22.2 -47.5,45.1 -70.5,68.2 -11.6,11.5 -22.6,23.3 -33.9,35 -5.6,5.9 -11.5,11.7 -16.8,17.7 l -15.4,18.1 c -20.7,24.2 -40.9,48.7 -60.9,73.4 l -15,18.6 -7.4,9.3 -6.8,9.6 -27.1,38.2 c -17.9,25.6 -35.7,51.4 -53,77.3 -15.8,26.4 -31.5,52.9 -46.9,79.6 -7.8,13.3 -15.3,26.7 -22.9,40.2 -7.2,13.5 -13.8,27.1 -20.5,40.8 -13.4,27.3 -26.6,54.7 -39.5,82.3 -96.6,221.7 -148.4,456.6 -150.7,691.6 -1.1,117.5 7.9,235.2 31,351.2 23.4,116 58.4,230.4 106.3,341.6 11.2,27.9 25.1,55.3 38.2,82.7 12.9,27.5 28.2,54.4 42.9,81.3 7.1,13.6 15.4,26.8 23.3,40.1 8,13.3 16.2,26.5 24.4,39.7 8.2,13.2 17.2,26.2 25.9,39.2 8.8,13 17.3,25.9 26.9,38.7 18.5,25.6 37.6,51 57.9,75.8 9.9,12.5 20.4,24.9 31,37.1 10.9,12.2 21,24.5 32.4,36.4 11.2,12 22.3,23.9 34,35.7 12,11.7 23.5,23.4 35.8,34.9 12.3,11.5 24.9,22.8 37.9,34 6.4,5.5 13.2,11.1 19.9,16.6 l 10.4,8.3 11.1,8.6 c 13.3,10.4 31.1,15.6 49,15.6 17,0 34.1,-4.8 47.3,-14.4 15.7,-11.4 22.5,-27.1 20.4,-42.3 l -1.3,-8.4 c -0.4,-2.8 -1.2,-6.2 -2,-9.5 l -2.5,-10.1 c -1.7,-6.7 -3.5,-13.3 -5.1,-20.2 l -5.2,-20.1 c -1.6,-6.8 -3.2,-13.6 -5,-20.3 -6.9,-26.8 -13.2,-53.8 -19.9,-80.4 -12.8,-53.5 -25.8,-106.4 -37.4,-159.1 -24,-105.5 -44.2,-210 -62.1,-313.8 -17.5,-103.8 -32.1,-207.1 -42.8,-310.2 -10.2,-103.1 -16.9,-206 -19,-309.1 -4.4,-206.2 14.4,-412.2 49.1,-620.2 5.3,-25.9 10.2,-51.9 15,-78 2.6,-13 4.4,-26.2 7.1,-39.2 3.1,-13 6.2,-26 9,-39.1 5.9,-26 11.5,-52.3 16.9,-78.7 6.7,-26.1 13.7,-52.3 20.1,-78.7 l 9.4,-39.8 2.4,-9.9 2.8,-9.9 5.7,-19.8 c 7.4,-26.4 14.7,-53 21.5,-79.9 6.2,-27.1 15.4,-53.4 22.8,-80.4 7.6,-27.1 15.1,-54.3 21.2,-82.2 l 0.6,-2.5 c 6.2,-28 -19,-54.5 -56.2,-59.2 -3.8,-0.4 -7.5,-0.7 -11.2,-0.7"
         style="fill:#ffbd66;fill-opacity:1;fill-rule:nonzero;stroke:none"
         id="path26763" />
    </g>
  </g>
</svg>
