<?xml version="1.0" encoding="UTF-8" standalone="no"?>
<!-- Created with Inkscape (http://www.inkscape.org/) -->

<svg
   version="1.1"
   id="svg2"
   width="94.742882"
   height="107.83775"
   viewBox="0 0 94.742882 107.83775"
   sodipodi:docname="13756344_5340472.eps"
   xmlns:inkscape="http://www.inkscape.org/namespaces/inkscape"
   xmlns:sodipodi="http://sodipodi.sourceforge.net/DTD/sodipodi-0.dtd"
   xmlns="http://www.w3.org/2000/svg"
   xmlns:svg="http://www.w3.org/2000/svg">
  <g
     id="g10"
     inkscape:groupmode="layer"
     inkscape:label="Page 1"
     transform="matrix(1.3333333,0,0,-1.3333333,-80.64112,493.51465)">
    <g
       id="g12"
       transform="scale(0.1)">
      <path
         d="m 1248.16,3635.18 c -10.98,-14.19 -22.51,-26.75 -34.8,-39.04 -12.28,-12.18 -25.25,-23.6 -38.84,-34.2 -13.58,-10.62 -28.11,-19.98 -43.09,-28.31 -15.08,-8.22 -31.05,-14.6 -47.33,-19.48 15.75,6.47 30.79,14.28 44.74,23.76 13.85,9.6 27.03,20.05 39.19,31.64 12.16,11.56 23.59,23.83 34.26,36.71 10.56,12.83 20.75,26.49 29.29,40.1 l 0.17,0.28 c 2.95,4.68 9.13,6.09 13.82,3.16 4.68,-2.94 6.1,-9.13 3.16,-13.81 l -0.57,-0.81"
         style="fill:#387f34;fill-opacity:1;fill-rule:nonzero;stroke:none"
         id="path192" />
      <path
         d="m 1038.05,3701.36 c 0,0 -14.73,-90.58 56.39,-181.48 l -89.51,68.5 c 0,0 -50.266,84.09 33.12,112.98"
         style="fill:#479e38;fill-opacity:1;fill-rule:nonzero;stroke:none"
         id="path194" />
      <path
         d="m 1018.37,3597.68 c -7.64,4.39 -15.26,8.43 -22.874,12.07 -8.781,26.21 -13.711,69.64 38.374,90 -30.17,-28.01 -26.79,-68.29 -15.5,-102.07"
         style="fill:#3b8836;fill-opacity:1;fill-rule:nonzero;stroke:none"
         id="path196" />
      <path
         d="m 1130.36,3657.49 c 0,0 -49.46,-71.35 -13.77,-177.16 l -62.58,94.05 c 0,0 -17.59,91.69 76.35,83.11"
         style="fill:#479e38;fill-opacity:1;fill-rule:nonzero;stroke:none"
         id="path198" />
      <path
         d="m 1070.77,3562.71 c -5.63,4.23 -11.25,8.31 -16.86,12.24 -1.23,7.39 -11.96,83.04 64.58,83.04 2.29,0 4.66,-0.07 7.11,-0.21 -46.65,-13.57 -55.81,-58.39 -54.83,-95.07"
         style="fill:#3b8836;fill-opacity:1;fill-rule:nonzero;stroke:none"
         id="path200" />
      <path
         d="m 1161.01,3604 c 0,0 -49.47,-71.35 -13.77,-177.16 l -62.59,94.05 c 0,0 -17.59,91.7 76.36,83.11"
         style="fill:#479e38;fill-opacity:1;fill-rule:nonzero;stroke:none"
         id="path202" />
      <path
         d="m 1102.94,3537.19 c -6.18,5.15 -12.34,10.15 -18.5,15 3.58,23.74 17.66,52.31 64.69,52.31 2.29,0 4.66,-0.07 7.11,-0.21 -35.17,-10.24 -49.02,-38.22 -53.3,-67.1"
         style="fill:#3b8836;fill-opacity:1;fill-rule:nonzero;stroke:none"
         id="path204" />
      <path
         d="m 1315.38,3452.16 c 0,0 -83.38,-28.89 -180.01,30.94 l 78.24,-82.23 c 0,0 87.05,-39.29 101.77,51.29"
         style="fill:#479e38;fill-opacity:1;fill-rule:nonzero;stroke:none"
         id="path206" />
      <path
         d="m 1253.88,3392.43 c -2.85,0 -5.64,0.15 -8.35,0.41 -5.31,7.34 -10.97,14.66 -16.93,21.93 6.38,-0.92 12.88,-1.46 19.34,-1.46 25.46,0 50.49,8.32 66.55,34.29 -8.92,-44.63 -36.53,-55.17 -60.61,-55.17"
         style="fill:#3b8836;fill-opacity:1;fill-rule:nonzero;stroke:none"
         id="path208" />
      <path
         d="m 1260,3541 c 0,0 -59.97,-61.91 -165.35,-40.96 l 98.32,-50.53 c 0,0 89.32,-4.36 67.03,91.49"
         style="fill:#479e38;fill-opacity:1;fill-rule:nonzero;stroke:none"
         id="path210" />
      <path
         d="m 1197.67,3449.55 c -5.07,5.31 -10.28,10.61 -15.61,15.9 34.21,5 73.29,21.65 78.94,70.67 15.52,-77.81 -45.6,-85.86 -63.33,-86.57"
         style="fill:#3b8836;fill-opacity:1;fill-rule:nonzero;stroke:none"
         id="path212" />
      <path
         d="m 1204.83,3564.63 c 0,0 -59.97,-61.92 -165.35,-40.97 l 98.32,-50.52 c 0,0 89.31,-4.37 67.03,91.49"
         style="fill:#479e38;fill-opacity:1;fill-rule:nonzero;stroke:none"
         id="path214" />
      <path
         d="m 1168.99,3478.18 c -1.86,1.78 -3.74,3.56 -5.62,5.34 -3.98,3.75 -8.02,7.51 -12.1,11.26 26.32,8.88 50.23,27.44 54.55,64.96 10.55,-52.85 -14.27,-73.52 -36.83,-81.56"
         style="fill:#3b8836;fill-opacity:1;fill-rule:nonzero;stroke:none"
         id="path216" />
      <path
         d="m 1233.57,3108.59 c -128.54,-156.53 -426.297,-289.72 -560.011,-169.57 -133.719,120.16 -52.766,448.14 75.777,604.68 128.539,156.53 255.994,82.34 389.704,-37.82 133.72,-120.15 223.07,-240.75 94.53,-397.29"
         style="fill:#e12324;fill-opacity:1;fill-rule:nonzero;stroke:none"
         id="path218" />
      <path
         d="m 923.949,3532.75 c -8.683,-10.57 -30.82,-18.9 -30.82,-18.9 0,0 4.527,24.15 13.211,34.72 8.683,10.58 13.379,7.95 18.238,3.59 4.863,-4.37 8.055,-8.83 -0.629,-19.41"
         style="fill:#271413;fill-opacity:1;fill-rule:nonzero;stroke:none"
         id="path220" />
      <path
         d="m 1049.72,3406.43 c -8.68,-10.58 -30.82,-18.91 -30.82,-18.91 0,0 4.53,24.15 13.21,34.73 8.69,10.57 13.38,7.95 18.25,3.58 4.85,-4.37 8.05,-8.83 -0.64,-19.4"
         style="fill:#271413;fill-opacity:1;fill-rule:nonzero;stroke:none"
         id="path222" />
      <path
         d="m 1199.39,3271.94 c -8.68,-10.58 -30.82,-18.9 -30.82,-18.9 0,0 4.53,24.14 13.22,34.73 8.68,10.57 13.38,7.94 18.24,3.57 4.86,-4.37 8.05,-8.82 -0.64,-19.4"
         style="fill:#271413;fill-opacity:1;fill-rule:nonzero;stroke:none"
         id="path224" />
      <path
         d="m 1013.25,3492.45 c -8.68,-10.58 -30.82,-18.9 -30.82,-18.9 0,0 4.535,24.14 13.215,34.72 8.685,10.57 13.375,7.95 18.245,3.58 4.86,-4.37 8.05,-8.83 -0.64,-19.4"
         style="fill:#271413;fill-opacity:1;fill-rule:nonzero;stroke:none"
         id="path226" />
      <path
         d="m 1137.78,3420.5 c -8.69,-10.58 -30.82,-18.91 -30.82,-18.91 0,0 4.52,24.15 13.21,34.73 8.68,10.57 13.37,7.94 18.24,3.57 4.86,-4.36 8.05,-8.82 -0.63,-19.39"
         style="fill:#271413;fill-opacity:1;fill-rule:nonzero;stroke:none"
         id="path228" />
      <path
         d="m 1159.15,3334.73 c -8.69,-10.58 -30.82,-18.9 -30.82,-18.9 0,0 4.53,24.14 13.21,34.72 8.69,10.58 13.38,7.95 18.24,3.58 4.86,-4.37 8.06,-8.83 -0.63,-19.4"
         style="fill:#271413;fill-opacity:1;fill-rule:nonzero;stroke:none"
         id="path230" />
      <path
         d="m 819.941,3443.08 c -8.687,-10.58 -30.82,-18.9 -30.82,-18.9 0,0 4.527,24.15 13.207,34.72 8.688,10.58 13.379,7.95 18.242,3.58 4.864,-4.37 8.051,-8.83 -0.629,-19.4"
         style="fill:#271413;fill-opacity:1;fill-rule:nonzero;stroke:none"
         id="path232" />
      <path
         d="m 935.242,3322.92 c -8.683,-10.58 -30.816,-18.9 -30.816,-18.9 0,0 4.523,24.14 13.211,34.72 8.687,10.57 13.379,7.95 18.238,3.58 4.863,-4.37 8.055,-8.83 -0.633,-19.4"
         style="fill:#271413;fill-opacity:1;fill-rule:nonzero;stroke:none"
         id="path234" />
      <path
         d="m 1150.54,3136.19 c -8.69,-10.57 -30.82,-18.9 -30.82,-18.9 0,0 4.52,24.15 13.21,34.72 8.68,10.58 13.37,7.95 18.24,3.58 4.86,-4.36 8.05,-8.82 -0.63,-19.4"
         style="fill:#271413;fill-opacity:1;fill-rule:nonzero;stroke:none"
         id="path236" />
      <path
         d="m 921.453,3403.69 c -8.683,-10.58 -30.816,-18.9 -30.816,-18.9 0,0 4.523,24.15 13.211,34.72 8.687,10.58 13.375,7.95 18.238,3.58 4.863,-4.37 8.055,-8.82 -0.633,-19.4"
         style="fill:#271413;fill-opacity:1;fill-rule:nonzero;stroke:none"
         id="path238" />
      <path
         d="m 1032.9,3288.23 c -8.69,-10.58 -30.83,-18.9 -30.83,-18.9 0,0 4.53,24.14 13.21,34.72 8.69,10.58 13.38,7.95 18.25,3.58 4.86,-4.37 8.05,-8.83 -0.63,-19.4"
         style="fill:#271413;fill-opacity:1;fill-rule:nonzero;stroke:none"
         id="path240" />
      <path
         d="m 922.652,3214.42 c -8.683,-10.58 -30.82,-18.9 -30.82,-18.9 0,0 4.523,24.14 13.211,34.72 8.687,10.58 13.379,7.95 18.242,3.58 4.86,-4.37 8.055,-8.82 -0.633,-19.4"
         style="fill:#271413;fill-opacity:1;fill-rule:nonzero;stroke:none"
         id="path242" />
      <path
         d="m 912.574,3090.35 c -8.683,-10.58 -30.82,-18.9 -30.82,-18.9 0,0 4.523,24.15 13.211,34.72 8.687,10.58 13.379,7.95 18.242,3.58 4.863,-4.37 8.055,-8.82 -0.633,-19.4"
         style="fill:#271413;fill-opacity:1;fill-rule:nonzero;stroke:none"
         id="path244" />
      <path
         d="m 788.043,3069.12 c -8.688,-10.57 -30.82,-18.89 -30.82,-18.89 0,0 4.523,24.14 13.211,34.72 8.683,10.57 13.375,7.94 18.238,3.58 4.863,-4.37 8.058,-8.83 -0.629,-19.41"
         style="fill:#271413;fill-opacity:1;fill-rule:nonzero;stroke:none"
         id="path246" />
      <path
         d="m 713.852,3295.54 c -8.688,-10.58 -30.821,-18.91 -30.821,-18.91 0,0 4.528,24.15 13.215,34.72 8.684,10.58 13.379,7.95 18.234,3.59 4.868,-4.37 8.059,-8.83 -0.628,-19.4"
         style="fill:#271413;fill-opacity:1;fill-rule:nonzero;stroke:none"
         id="path248" />
      <path
         d="m 1030.42,3140.97 c -8.69,-10.58 -30.826,-18.9 -30.826,-18.9 0,0 4.526,24.14 13.216,34.72 8.68,10.58 13.38,7.95 18.24,3.58 4.86,-4.37 8.05,-8.83 -0.63,-19.4"
         style="fill:#271413;fill-opacity:1;fill-rule:nonzero;stroke:none"
         id="path250" />
      <path
         d="m 832.094,3309.1 c -8.68,-10.58 -30.821,-18.9 -30.821,-18.9 0,0 4.528,24.15 13.215,34.72 8.688,10.58 13.379,7.95 18.242,3.58 4.856,-4.37 8.051,-8.82 -0.636,-19.4"
         style="fill:#271413;fill-opacity:1;fill-rule:nonzero;stroke:none"
         id="path252" />
      <path
         d="m 794.34,3169.96 c -8.68,-10.57 -30.82,-18.9 -30.82,-18.9 0,0 4.531,24.15 13.214,34.73 8.688,10.57 13.379,7.94 18.243,3.57 4.863,-4.37 8.05,-8.82 -0.637,-19.4"
         style="fill:#271413;fill-opacity:1;fill-rule:nonzero;stroke:none"
         id="path254" />
      <path
         d="m 930.172,2981.35 c -8.684,-10.58 -30.82,-18.9 -30.82,-18.9 0,0 4.527,24.15 13.211,34.72 8.687,10.58 13.378,7.95 18.242,3.58 4.863,-4.37 8.054,-8.82 -0.633,-19.4"
         style="fill:#271413;fill-opacity:1;fill-rule:nonzero;stroke:none"
         id="path256" />
      <path
         d="m 702.516,3132.66 c -8.688,-10.57 -30.821,-18.9 -30.821,-18.9 0,0 4.528,24.15 13.207,34.72 8.688,10.58 13.379,7.95 18.243,3.58 4.863,-4.36 8.05,-8.82 -0.629,-19.4"
         style="fill:#271413;fill-opacity:1;fill-rule:nonzero;stroke:none"
         id="path258" />
      <path
         d="m 1028.3,3026.31 c -8.69,-10.58 -30.831,-18.9 -30.831,-18.9 0,0 4.531,24.14 13.211,34.72 8.69,10.58 13.38,7.95 18.25,3.58 4.86,-4.37 8.05,-8.82 -0.63,-19.4"
         style="fill:#271413;fill-opacity:1;fill-rule:nonzero;stroke:none"
         id="path260" />
      <path
         d="m 1126.44,3257.63 c -8.69,-10.58 -30.82,-18.91 -30.82,-18.91 0,0 4.52,24.15 13.21,34.73 8.68,10.57 13.38,7.94 18.24,3.57 4.86,-4.36 8.05,-8.82 -0.63,-19.39"
         style="fill:#271413;fill-opacity:1;fill-rule:nonzero;stroke:none"
         id="path262" />
      <path
         d="m 1295.94,3257.73 c 0,47.41 -19.24,91.94 -50.39,135.07 v 0 c 31.15,-43.13 50.39,-87.66 50.39,-135.07"
         style="fill:#eb575d;fill-opacity:1;fill-rule:nonzero;stroke:none"
         id="path264" />
      <path
         d="m 1245.55,3392.8 v 0 c -0.01,0.02 -0.01,0.02 -0.02,0.04 v 0 c 0.01,-0.02 0.01,-0.02 0.02,-0.04 m -16.95,21.97 v 0 c -9.57,11.67 -19.92,23.25 -30.93,34.77 v 0 c 11.01,-11.52 21.36,-23.1 30.93,-34.77"
         style="fill:#413f18;fill-opacity:1;fill-rule:nonzero;stroke:none"
         id="path266" />
      <path
         d="m 1245.53,3392.84 v 0 c -5.31,7.34 -10.97,14.66 -16.93,21.93 v 0 c 5.96,-7.27 11.62,-14.59 16.93,-21.93"
         style="fill:#343719;fill-opacity:1;fill-rule:nonzero;stroke:none"
         id="path268" />
      <path
         d="m 1197.67,3449.54 v 0.01 -0.01 m -15.61,15.91 c -4.28,4.24 -8.62,8.47 -13.05,12.7 v 0 c 4.43,-4.23 8.77,-8.46 13.05,-12.7 v 0"
         style="fill:#413f18;fill-opacity:1;fill-rule:nonzero;stroke:none"
         id="path270" />
      <path
         d="m 1197.67,3449.55 c -5.07,5.31 -10.28,10.61 -15.61,15.9 v 0 c 5.33,-5.29 10.54,-10.59 15.61,-15.9 v 0"
         style="fill:#343719;fill-opacity:1;fill-rule:nonzero;stroke:none"
         id="path272" />
      <path
         d="m 811.461,2892.66 c -35.934,0 -69.453,6.3 -98.531,20.26 61.523,7.19 127.672,30.02 189.613,62.41 -2.113,-7.12 -3.191,-12.88 -3.191,-12.88 0,0 22.136,8.32 30.82,18.9 4.504,5.49 5.812,9.32 5.355,12.36 62.953,37.29 119.553,83.86 159.683,132.72 60.38,73.53 72.68,139.13 54.88,200.49 3.52,2.37 6.76,5.01 9.06,7.81 8.69,10.57 5.49,15.03 0.63,19.4 -2.35,2.11 -4.66,3.82 -7.41,3.82 -2.9,0 -6.29,-1.91 -10.72,-7.27 -7.55,17.98 -17.57,35.63 -29.58,53.04 7.07,3.13 19.66,9.41 25.71,16.78 8.68,10.57 5.49,15.03 0.63,19.39 -2.36,2.12 -4.67,3.82 -7.41,3.82 -2.93,0 -6.35,-1.94 -10.83,-7.39 -5.68,-6.92 -9.58,-19.64 -11.6,-27.62 -24.46,34.3 -56.5,67.69 -92.46,100.95 -0.66,0.75 -1.42,1.48 -2.22,2.2 -0.62,0.55 -1.23,1.08 -1.85,1.55 -3.75,3.44 -7.53,6.87 -11.36,10.31 -47.426,42.62 -94.063,79.38 -140.246,102.19 14.992,4.53 29.976,6.64 45.004,6.64 76.679,0 154.042,-55.16 233.602,-126.66 8.29,-7.45 16.42,-14.9 24.33,-22.36 1.88,-1.78 3.76,-3.56 5.62,-5.34 0,-0.01 0.02,-0.02 0.02,-0.03 4.43,-4.23 8.77,-8.46 13.05,-12.7 5.33,-5.29 10.54,-10.59 15.61,-15.9 v -0.01 c 11.01,-11.52 21.36,-23.1 30.93,-34.77 5.96,-7.27 11.62,-14.59 16.93,-21.93 0.01,-0.02 0.01,-0.02 0.02,-0.04 31.15,-43.13 50.39,-87.66 50.39,-135.07 -0.01,-46.46 -18.5,-95.7 -62.37,-149.13 -93.79,-114.22 -277.613,-215.95 -422.109,-215.94 m 210.049,156.87 c -2.92,0 -6.34,-1.94 -10.83,-7.4 -8.68,-10.58 -13.211,-34.72 -13.211,-34.72 0,0 22.141,8.32 30.831,18.9 8.68,10.58 5.49,15.03 0.63,19.4 -2.36,2.12 -4.67,3.82 -7.42,3.82 m 122.25,109.88 c -2.93,0 -6.35,-1.94 -10.83,-7.4 -8.69,-10.57 -13.21,-34.72 -13.21,-34.72 0,0 22.13,8.33 30.82,18.9 8.68,10.58 5.49,15.04 0.63,19.4 -2.36,2.12 -4.67,3.82 -7.41,3.82 m 48.86,135.75 c -2.93,0 -6.35,-1.94 -10.83,-7.39 -8.69,-10.59 -13.22,-34.73 -13.22,-34.73 0,0 22.14,8.32 30.82,18.9 8.69,10.58 5.5,15.03 0.64,19.4 -2.35,2.12 -4.67,3.82 -7.41,3.82"
         style="fill:#cf1e25;fill-opacity:1;fill-rule:nonzero;stroke:none"
         id="path274" />
      <path
         d="m 1168.57,3253.04 c 0,0 4.53,24.14 13.22,34.73 4.48,5.45 7.9,7.39 10.83,7.39 2.74,0 5.06,-1.7 7.41,-3.82 4.86,-4.37 8.05,-8.82 -0.64,-19.4 -8.68,-10.58 -30.82,-18.9 -30.82,-18.9"
         style="fill:#241312;fill-opacity:1;fill-rule:nonzero;stroke:none"
         id="path276" />
      <path
         d="m 1016.11,3509.65 c -1.35,1.24 -2.71,2.5 -4.07,3.75 0.62,-0.47 1.23,-1 1.85,-1.55 0.8,-0.72 1.56,-1.45 2.22,-2.2"
         style="fill:#241312;fill-opacity:1;fill-rule:nonzero;stroke:none"
         id="path278" />
      <path
         d="m 1112.07,3403.72 c -1.15,1.66 -2.32,3.33 -3.5,4.98 2.02,7.98 5.92,20.7 11.6,27.62 4.48,5.45 7.9,7.39 10.83,7.39 2.74,0 5.05,-1.7 7.41,-3.82 4.86,-4.36 8.05,-8.82 -0.63,-19.39 -6.05,-7.37 -18.64,-13.65 -25.71,-16.78"
         style="fill:#241312;fill-opacity:1;fill-rule:nonzero;stroke:none"
         id="path280" />
      <path
         d="m 1150.09,3326.92 c -2.31,7.99 -5.14,15.91 -8.44,23.76 4.43,5.36 7.82,7.27 10.72,7.27 2.75,0 5.06,-1.71 7.41,-3.82 4.86,-4.37 8.06,-8.83 -0.63,-19.4 -2.3,-2.8 -5.54,-5.44 -9.06,-7.81"
         style="fill:#241312;fill-opacity:1;fill-rule:nonzero;stroke:none"
         id="path282" />
      <path
         d="m 1119.72,3117.29 c 0,0 4.52,24.15 13.21,34.72 4.48,5.46 7.9,7.4 10.83,7.4 2.74,0 5.05,-1.7 7.41,-3.82 4.86,-4.36 8.05,-8.82 -0.63,-19.4 -8.69,-10.57 -30.82,-18.9 -30.82,-18.9"
         style="fill:#241312;fill-opacity:1;fill-rule:nonzero;stroke:none"
         id="path284" />
      <path
         d="m 899.352,2962.45 c 0,0 1.078,5.76 3.191,12.88 11.148,5.83 22.16,11.97 32.984,18.38 0.457,-3.04 -0.851,-6.87 -5.355,-12.36 -8.684,-10.58 -30.82,-18.9 -30.82,-18.9"
         style="fill:#241312;fill-opacity:1;fill-rule:nonzero;stroke:none"
         id="path286" />
      <path
         d="m 997.469,3007.41 c 0,0 4.531,24.14 13.211,34.72 4.49,5.46 7.91,7.4 10.83,7.4 2.75,0 5.06,-1.7 7.42,-3.82 4.86,-4.37 8.05,-8.82 -0.63,-19.4 -8.69,-10.58 -30.831,-18.9 -30.831,-18.9"
         style="fill:#241312;fill-opacity:1;fill-rule:nonzero;stroke:none"
         id="path288" />
      <path
         d="m 712.57,3115.32 c -8.215,0 -16.707,2.2 -24.617,6.14 5.488,3.12 11.098,6.98 14.563,11.2 8.679,10.58 5.492,15.04 0.629,19.4 -2.352,2.12 -4.665,3.82 -7.411,3.82 -2.929,0 -6.347,-1.94 -10.832,-7.4 -3.918,-4.77 -6.988,-12.3 -9.179,-19.14 -14.778,11.96 -24.95,30.5 -22.618,51.37 3.641,32.58 10.833,67.88 23.922,102.34 13.09,34.47 30.614,64.2 48.758,88.96 8.211,11.2 19.813,16.05 32.016,16.05 28.371,0 59.988,-26.22 59.793,-59.74 -0.981,-0.94 -2.012,-2.06 -3.106,-3.4 -8.687,-10.57 -13.215,-34.72 -13.215,-34.72 0,0 5.567,2.09 12.207,5.51 -4.179,-24.65 -10.585,-50.24 -20.136,-75.38 -4.145,-10.9 -8.731,-21.33 -13.637,-31.28 -0.937,-0.91 -1.926,-2 -2.973,-3.26 -4.011,-4.9 -7.14,-12.68 -9.343,-19.65 -7.282,-12.5 -14.985,-24.09 -22.805,-34.76 -8.211,-11.2 -19.813,-16.06 -32.016,-16.06 m -5.496,203.44 c -2.926,0 -6.347,-1.94 -10.828,-7.41 -8.687,-10.57 -13.215,-34.72 -13.215,-34.72 0,0 22.133,8.33 30.821,18.91 8.687,10.57 5.496,15.03 0.628,19.4 -2.347,2.11 -4.66,3.82 -7.406,3.82"
         style="fill:#ea2a22;fill-opacity:1;fill-rule:nonzero;stroke:none"
         id="path290" />
      <path
         d="m 683.031,3276.63 c 0,0 4.528,24.15 13.215,34.72 4.481,5.47 7.902,7.41 10.828,7.41 2.746,0 5.059,-1.71 7.406,-3.82 4.868,-4.37 8.059,-8.83 -0.628,-19.4 -8.688,-10.58 -30.821,-18.91 -30.821,-18.91"
         style="fill:#661816;fill-opacity:1;fill-rule:nonzero;stroke:none"
         id="path292" />
      <path
         d="m 801.273,3290.2 c 0,0 4.528,24.15 13.215,34.72 1.094,1.34 2.125,2.46 3.106,3.4 -0.012,-1.86 -0.121,-3.74 -0.332,-5.64 -0.985,-8.81 -2.231,-17.83 -3.782,-26.97 -6.64,-3.42 -12.207,-5.51 -12.207,-5.51"
         style="fill:#661816;fill-opacity:1;fill-rule:nonzero;stroke:none"
         id="path294" />
      <path
         d="m 767.391,3166.14 c 2.203,6.97 5.332,14.75 9.343,19.65 1.047,1.26 2.036,2.35 2.973,3.26 -3.922,-7.94 -8.047,-15.58 -12.316,-22.91"
         style="fill:#661816;fill-opacity:1;fill-rule:nonzero;stroke:none"
         id="path296" />
      <path
         d="m 687.953,3121.46 c -4.293,2.14 -8.414,4.79 -12.23,7.88 2.191,6.84 5.261,14.37 9.179,19.14 4.485,5.46 7.903,7.4 10.832,7.4 2.746,0 5.059,-1.7 7.411,-3.82 4.863,-4.36 8.05,-8.82 -0.629,-19.4 -3.465,-4.22 -9.075,-8.08 -14.563,-11.2"
         style="fill:#661816;fill-opacity:1;fill-rule:nonzero;stroke:none"
         id="path298" />
    </g>
  </g>
</svg>
