<?xml version="1.0" encoding="UTF-8" standalone="no"?>
<!-- Created with Inkscape (http://www.inkscape.org/) -->

<svg
   version="1.1"
   id="svg26267"
   width="716.28412"
   height="853.51697"
   viewBox="0 0 716.28412 853.51698"
   sodipodi:docname="fruit_set.eps"
   xmlns:inkscape="http://www.inkscape.org/namespaces/inkscape"
   xmlns:sodipodi="http://sodipodi.sourceforge.net/DTD/sodipodi-0.dtd"
   xmlns="http://www.w3.org/2000/svg"
   xmlns:svg="http://www.w3.org/2000/svg">
  <g
     id="g26275"
     inkscape:groupmode="layer"
     inkscape:label="Page 1"
     transform="matrix(1.3333333,0,0,-1.3333333,-121.3339,3059.2189)">
    <g
       id="g26277"
       transform="scale(0.1)">
      <path
         d="m 6222.8,19643.6 c -329.12,1929.8 -2179.25,2109.3 -2626.74,2079.4 -447.48,29.9 -2297.61,-149.6 -2626.72,-2079.4 -419.57,-2460.2 1519.1,-2788.1 1645.56,-2827.4 216.92,-67.3 344.08,-164.5 605.87,-246.8 261.79,-82.3 375.29,52.4 375.29,52.4 0,0 113.51,-134.7 375.3,-52.4 261.81,82.3 388.95,179.5 605.87,246.8 126.46,39.3 2065.14,367.2 1645.57,2827.4"
         style="fill:#9ad160;fill-opacity:1;fill-rule:nonzero;stroke:none"
         id="path26951" />
      <path
         d="m 6222.8,19643.6 c -62.79,368.2 -180.97,672.5 -334.17,924 81.45,-412.8 118.32,-1020.5 -4.99,-1583.7 -284.79,-1300.9 -1072.47,-1598.5 -1457.33,-1798.6 -384.86,-200.1 -508.02,-87.3 -646.56,-184.8 -138.55,-97.5 -359.21,97.5 -549.07,56.5 -189.86,-41.1 -121.88,-197.6 -595.26,-143.7 -200.34,22.8 -456.79,71.7 -666.36,143.2 320.36,-174.7 600.35,-226.2 645.84,-240.3 216.92,-67.3 344.07,-164.5 605.87,-246.8 261.79,-82.3 375.29,52.4 375.29,52.4 0,0 113.52,-134.7 375.31,-52.4 261.79,82.3 388.95,179.5 605.87,246.8 126.45,39.3 2065.13,367.2 1645.56,2827.4"
         style="fill:#7fb842;fill-opacity:1;fill-rule:nonzero;stroke:none"
         id="path26953" />
      <path
         d="m 1742.42,17609.8 c -13.47,0 -26.57,4.4 -37.19,12.1 -64.45,47.9 -118.74,108.4 -165.42,173 -24.33,32.1 -44.39,66 -65.06,100.2 l -28.31,52.1 c -4.81,8.7 -8.94,17.6 -13.21,26.4 l -12.67,26.6 -12.51,26.8 -11.36,27 c -7.28,18.1 -15.28,36.2 -21.99,54.4 l -19.84,55 c -6.71,18.4 -11.93,36.8 -17.95,55.3 -11.88,37 -21.51,74.1 -31.34,111.5 -4.68,18.7 -8.89,37.3 -13.09,56.1 l -6.31,28.1 -5.61,28.1 -10.63,56.4 c -3.25,18.8 -5.97,37.6 -8.93,56.5 -6.36,37.7 -10.02,75.3 -14.86,113.1 -7.5,75.3 -13.58,150.9 -15.41,226.2 -5.07,150.9 1.62,301.2 16.74,450.7 15.83,149.5 40.13,298.3 76.49,446.4 4.49,18.5 9.62,37.1 14.41,55.6 4.69,18.5 10.05,37.1 15.57,55.5 l 8.16,27.8 8.78,27.9 c 5.86,18.6 11.73,36.9 19.04,55.9 l 21.07,56.3 10.78,28 5.4,14 6.17,13.6 c 8.17,18.3 16.6,36.4 25,54.5 l 12.62,27 6.31,13.5 c 2.24,4.5 4.68,8.8 7.04,13.2 72.99,141.3 165,270.7 271.62,383.8 l 19.87,21.2 20.86,20.4 c 13.9,13.5 27.76,26.9 41.92,40.1 14.46,12.9 29.14,25.5 43.65,38.2 7.15,6.4 14.72,12.4 22.37,18.4 l 22.71,17.9 c 7.61,5.9 15.01,12 22.75,17.7 7.76,5.8 15.73,11.3 23.55,16.9 l 23.57,16.6 c 8.06,5.4 16.05,10.8 24.22,16 16.1,10.4 32.76,20.5 49.51,30.2 l 25.7,14.1 c 4.23,2.3 8.9,4.6 13.31,6.8 l 14.2,7.1 c 8.7,4.3 17.95,6.4 27.06,6.4 22.33,0 43.82,-12.4 54.45,-33.7 9.76,-19.6 7.96,-42 -2.82,-59.3 l -4.69,-7.5 c -8.11,-12.9 -18.53,-28.2 -27.8,-42.4 -9.26,-15 -19.05,-29 -28,-44.1 -4.51,-7.4 -9.19,-14.7 -13.81,-21.9 l -13.38,-22.4 c -8.81,-14.9 -17.84,-29.4 -26.25,-44.5 -17.42,-29.5 -33.27,-60 -49.7,-89.6 l -23.15,-45.3 -11.56,-22.4 -10.79,-22.9 c -58.05,-121.1 -106.21,-243.3 -142.11,-366.8 l -3.6,-11.5 -2.99,-11.7 -6,-23.3 c -3.99,-15.5 -7.97,-30.9 -12.21,-46.3 l -3.15,-11.5 -2.37,-11.7 -4.77,-23.4 -10,-46.4 c -3.7,-15.1 -6.1,-31.6 -9.19,-47.7 l -4.45,-24.2 -3.99,-24.5 c -5.47,-32.5 -10.58,-65.7 -15.34,-98.7 -19.12,-132.8 -34.05,-268 -46.22,-403.5 -11.35,-135.5 -21.01,-271.3 -26.87,-406.8 l -2.32,-50.9 -1.74,-50.7 c -1.64,-34 -1.79,-67.6 -3.06,-101.5 l -0.79,-50.6 -0.53,-25.4 -0.11,-25.2 -0.38,-50.6 0.4,-50.4 0.03,-25.3 0.56,-25.1 0.92,-50.4 c 1.56,-33.3 1.77,-67.1 4.05,-100.2 1.18,-33.6 3.97,-66.6 6.1,-100 1.21,-16.7 2.94,-33 4.39,-49.7 l 2.14,-24.9 2.96,-24.6 c 2.19,-16.3 3.29,-33.3 5.89,-49.5 l 7.02,-49.3 c 5.56,-32.4 10.81,-65.6 17.97,-97.8 13.96,-64.9 31.55,-129.2 55.31,-194.3 l 1.12,-3.1 c 11.73,-32.1 -4.81,-67.7 -36.95,-79.4 -6.89,-2.6 -13.99,-3.7 -20.98,-3.7"
         style="fill:#b8df90;fill-opacity:1;fill-rule:nonzero;stroke:none"
         id="path26955" />
      <path
         d="m 5156.17,20589.8 c -27.88,0 -50.49,-22.6 -50.49,-50.5 0,-27.9 22.61,-50.5 50.49,-50.5 27.89,0 50.49,22.6 50.49,50.5 0,27.9 -22.6,50.5 -50.49,50.5"
         style="fill:#91c455;fill-opacity:1;fill-rule:nonzero;stroke:none"
         id="path26957" />
      <path
         d="m 4219.32,19860.5 c -14.46,0 -26.18,-11.7 -26.18,-26.2 0,-14.4 11.72,-26.1 26.18,-26.1 14.46,0 26.18,11.7 26.18,26.1 0,14.5 -11.72,26.2 -26.18,26.2"
         style="fill:#91c455;fill-opacity:1;fill-rule:nonzero;stroke:none"
         id="path26959" />
      <path
         d="m 4956.33,19134.3 c 18.78,0 34.01,15.2 34.01,34 0,18.8 -15.23,34 -34.01,34 -18.78,0 -34.01,-15.2 -34.01,-34 0,-18.8 15.23,-34 34.01,-34"
         style="fill:#91c455;fill-opacity:1;fill-rule:nonzero;stroke:none"
         id="path26961" />
      <path
         d="m 4948.61,18170.1 c -28.92,0 -52.36,-23.5 -52.36,-52.4 0,-28.9 23.44,-52.3 52.36,-52.3 28.91,0 52.36,23.4 52.36,52.3 0,28.9 -23.45,52.4 -52.36,52.4"
         style="fill:#91c455;fill-opacity:1;fill-rule:nonzero;stroke:none"
         id="path26963" />
      <path
         d="m 3749,18555.2 c -21.15,0 -38.31,-17.2 -38.31,-38.3 0,-21.2 17.16,-38.3 38.31,-38.3 21.16,0 38.3,17.1 38.3,38.3 0,21.1 -17.14,38.3 -38.3,38.3"
         style="fill:#91c455;fill-opacity:1;fill-rule:nonzero;stroke:none"
         id="path26965" />
      <path
         d="m 3609.72,17549.3 c -20.66,0 -37.4,-16.8 -37.4,-37.4 0,-20.7 16.74,-37.5 37.4,-37.5 20.65,0 37.39,16.8 37.39,37.5 0,20.6 -16.74,37.4 -37.39,37.4"
         style="fill:#91c455;fill-opacity:1;fill-rule:nonzero;stroke:none"
         id="path26967" />
      <path
         d="m 2288.59,17654 c -20.14,0 -36.46,-16.4 -36.46,-36.5 0,-20.1 16.32,-36.5 36.46,-36.5 20.14,0 36.46,16.4 36.46,36.5 0,20.1 -16.32,36.5 -36.46,36.5"
         style="fill:#91c455;fill-opacity:1;fill-rule:nonzero;stroke:none"
         id="path26969" />
      <path
         d="m 5510.99,19808.2 c -28.15,0 -50.97,-22.9 -50.97,-51 0,-28.1 22.82,-51 50.97,-51 28.15,0 50.96,22.9 50.96,51 0,28.1 -22.81,51 -50.96,51"
         style="fill:#91c455;fill-opacity:1;fill-rule:nonzero;stroke:none"
         id="path26971" />
      <path
         d="m 3080.05,20539.3 c -25.56,0 -46.28,-20.7 -46.28,-46.3 0,-25.5 20.72,-46.2 46.28,-46.2 25.56,0 46.28,20.7 46.28,46.2 0,25.6 -20.72,46.3 -46.28,46.3"
         style="fill:#91c455;fill-opacity:1;fill-rule:nonzero;stroke:none"
         id="path26973" />
      <path
         d="m 4716.73,22293.9 -0.96,-0.3 -0.6,-0.1 0.25,0.5 0.71,0.3 1.53,0.8 1.65,0.3 0.48,0.2 h -0.03 c -1.07,-0.5 -2.07,-1 -3.03,-1.7 m 1367.8,294.2 c -10.6,28.4 -42.27,42.9 -70.71,32.3 l -32.07,-12 c -0.91,-0.3 -1,-0.6 -2.04,-1.4 -1.53,-0.9 -2.65,-1.8 -4.29,-3 -2.01,-1.1 -3.96,-2.3 -5.89,-3.5 l -7.02,-3.6 c -9.9,-4.6 -21.09,-9.2 -33.21,-12.6 -23.97,-7.3 -50.01,-12 -76.14,-13.9 -26.16,-2 -52.52,-1.4 -78.25,1.7 l -19.2,2.8 -27.63,3.5 c -9.79,0.5 -19.4,1.3 -29.46,1.3 -10.39,-0.6 -20.43,-0.3 -31.23,-2.1 -21.23,-2.2 -43.14,-8.6 -62.44,-16.2 -19.79,-7.9 -35.55,-16.9 -49.82,-24.7 l -19.81,-11.1 c -6.41,-3.5 -12.05,-6.3 -18.06,-9.5 -11.59,-5.6 -22.85,-10.8 -34.45,-14.9 -5.78,-2.1 -11.49,-4.3 -17.55,-6 -5.68,-1.6 -13.09,-4.1 -14.96,-4 -6.27,-1.1 -14.14,-1.4 -23.65,-0.6 -9.43,0.6 -20.59,2.7 -32.47,5.5 -11.88,2.7 -24.55,6.3 -37.9,10.5 -26.64,8.3 -55.3,18.6 -86.32,28.4 -30.93,9.8 -64.41,19.4 -101.54,25.3 -36.95,5.9 -78.49,7.8 -121.52,0 -21.5,-3.7 -42.93,-10.5 -63.52,-18.9 -20.17,-8.6 -40.54,-20 -57.65,-32.2 -34.68,-24.4 -60.73,-51.3 -84.2,-77.2 -23.07,-25.9 -43,-51.1 -61.81,-74 -9.27,-11.2 -18.4,-22.2 -26.94,-31.6 -4.36,-5 -8.42,-8.9 -12.53,-13.3 l -5.82,-5.6 c -1.97,-1.9 -3.75,-3.4 -5.45,-4.8 l -1.21,-1 -0.16,0.1 -4.05,4.2 c -1.42,1.6 -2.71,2.3 -4.32,4.4 -3.16,3.9 -6.29,7 -9.64,11.3 l -10.44,13.6 -14.84,19.6 -15.43,19.6 c -21.16,26.2 -43.57,52.7 -71.53,79.3 -7.22,6.6 -14.04,13.2 -22.13,19.8 -3.95,3.3 -7.73,6.6 -11.89,9.8 l -12.91,9.7 c -17.81,12.7 -37.43,25.2 -60.98,35.4 -23.2,10.1 -49.38,18.3 -76.75,21.8 -27.25,3.5 -54.54,2.7 -79.8,-0.9 -24.86,-3.9 -47.75,-10.2 -68.44,-17.6 -10.22,-3.8 -20.09,-7.8 -29.57,-11.9 -9.07,-4.2 -18.72,-8.5 -27.06,-12.9 -34.69,-17.8 -64.71,-37 -93.04,-56.4 -28.21,-19.4 -54.76,-39.2 -80.22,-59.1 -12.95,-10.2 -25.04,-19.6 -38.05,-30.4 l -39.08,-33.5 -9.76,-8.5 c -3.17,-2.8 -6.17,-5.8 -9.26,-8.7 l -18.43,-17.7 c -12.21,-11.8 -24.82,-23.4 -36.12,-35.9 l -34.76,-36.9 -32.93,-38 c -11.19,-12.6 -21.35,-25.8 -31.76,-38.9 -9.86,-12.4 -19.89,-24.8 -29.15,-37.6 l 31.47,739.6 c -393.94,286.7 -478.7,-139.6 -478.7,-139.6 81.11,-121.7 168.8,-663.9 198.73,-862.1 -177.67,-14.8 -494.75,-50.1 -754.74,-127.8 -383.97,-114.7 -573.45,-281.7 -147.11,-361.5 426.35,-79.8 425.21,-179.5 398.37,-339.1 -26.87,-159.6 80.34,-249.3 521.65,-37.4 l 1.27,0.6 c 73.23,35.1 158.6,35.1 231.84,0 l 1.26,-0.6 c 441.31,-211.9 548.53,-122.2 521.67,37.4 -26.86,159.6 -28,259.3 398.35,339.1 426.36,79.8 236.86,246.8 -147.1,361.5 -198.16,59.2 -429.48,93.8 -606.97,113.5 20.09,37.2 41.56,73.6 64.6,108.7 7.32,12 15.4,23.2 23.26,34.6 7.91,11.4 15.61,23 24.08,33.8 l 24.88,33.1 26.11,31.6 c 8.5,10.8 17.88,20.5 26.97,30.5 l 13.68,15.1 c 2.3,2.5 4.53,5.1 6.87,7.5 l 7.18,7 28.69,28.2 c 9.82,9.4 21.23,19.6 31.75,29 21.45,19.2 42.84,37.3 63.91,54 21,16.6 41.8,31.6 60.77,43.1 4.88,3.2 9.2,5.2 13.75,7.9 4.36,2.3 8.54,4.3 12.51,6.2 7.82,3.5 14.39,5.7 19.59,7.3 10.15,2 12.8,3.2 22.99,0.3 9.83,-2.7 26.2,-12.6 43.56,-26.9 17.51,-14.3 36.21,-33.2 54.76,-53.4 l 13.96,-15.5 13.95,-16.1 19.08,-21.5 c 6.58,-7.3 14.55,-14.7 21.84,-22 3.51,-3.6 8.39,-7.4 12.56,-11 4.38,-3.7 8.65,-7.3 13.18,-10.9 5.1,-3.7 10.27,-7.4 15.47,-10.9 l 7.83,-5.3 9.2,-5.2 c 22.96,-13.5 56.03,-26.1 92.89,-27.4 4.58,-0.1 9.14,-0.4 13.71,-0.2 4.58,0.3 9.17,0.7 13.74,1.2 4.57,0.5 9.13,1.1 13.63,1.8 4.27,1 8.54,2 12.77,3.2 4.24,1.1 8.46,2.3 12.63,3.6 4.11,1.3 7.6,2.8 11.39,4.4 7.34,3.1 15.16,6.4 21.07,10 l 9.42,5.4 c 3.12,1.9 6.31,3.8 8.8,5.6 5.32,3.8 10.59,7.6 15.79,11.5 9.03,7.6 18.17,15.5 25.38,22.9 3.89,3.8 7.65,7.6 10.85,11.2 l 9.98,11.1 c 5.94,7.1 12.23,14.4 17.45,21.3 11.14,14 20.6,27.2 30,40.2 18.31,25.6 34.86,49.5 51.14,70.3 16.15,20.6 32.21,38.6 46.79,50.4 3.61,2.8 7.18,5.8 10.5,7.9 3.22,2.5 7.06,4.2 10.62,6.4 7.48,3.6 15.03,7 23.58,9.1 16.9,4.5 37.31,5.9 60.85,3.8 23.49,-2.1 49.49,-7.3 77.29,-14.2 27.79,-6.8 57.28,-15.3 89.59,-23 16.09,-4 33.14,-7.7 51.25,-10.6 18.12,-2.9 37.31,-5.3 58.45,-5.3 20.99,-0.1 43.84,1.9 67.22,8.3 13.06,3.5 19.91,6.6 28.7,9.8 8.51,3 16.87,6.8 25.21,10.5 16.72,7.3 32.75,16 48.08,24.8 7.25,4.5 14.97,9.1 21.63,13.4 l 19.45,12.6 c 12.03,7.7 22.53,14.4 30.98,18.4 8.81,4 16.23,7.3 25.39,8.8 4.21,1.3 9.54,1.2 14.37,2 5.19,0.4 10.87,0.3 16.34,0.5 l 17.97,-1 26.36,-2.1 c 35.18,-1.9 70.19,-0.2 104.73,4.7 34.58,5 68.61,13.3 102.38,26.1 16.86,6.2 33.72,14 50.76,23.7 4.3,2.6 8.53,5.1 12.84,7.8 l 13.08,9.4 c 4.46,3.4 9.06,7.6 13.46,11.4 4.59,4.4 9.47,10 13.89,15.1 12.62,14.7 17.13,35.7 9.89,55.1"
         style="fill:#7fb842;fill-opacity:1;fill-rule:nonzero;stroke:none"
         id="path26975" />
      <path
         d="m 4013.12,21972.3 c 7.91,11.4 15.61,23 24.08,33.8 l 24.88,33.1 26.11,31.6 c 8.5,10.8 17.88,20.5 26.96,30.5 l 13.69,15.1 c 2.3,2.5 4.52,5.1 6.87,7.5 l 7.19,7 28.69,28.2 c 9.81,9.4 21.23,19.5 31.74,29 21.45,19.2 42.85,37.3 63.91,54 21,16.6 41.8,31.6 60.77,43.1 4.88,3.2 9.2,5.2 13.75,7.9 4.36,2.3 8.54,4.3 12.51,6.2 7.82,3.5 14.39,5.7 19.58,7.3 10.15,2 12.82,3.2 23.01,0.3 9.81,-2.7 26.19,-12.6 43.56,-26.9 17.5,-14.3 36.2,-33.2 54.75,-53.4 l 13.96,-15.5 13.96,-16.1 19.07,-21.5 c 6.59,-7.3 14.54,-14.7 21.85,-22 3.5,-3.6 8.38,-7.4 12.55,-11 4.38,-3.7 8.65,-7.3 13.18,-10.9 5.1,-3.7 10.27,-7.4 15.47,-10.9 l 7.83,-5.3 9.2,-5.2 c 22.96,-13.5 56.04,-26.1 92.89,-27.4 4.58,-0.1 9.14,-0.4 13.71,-0.2 4.58,0.3 9.17,0.7 13.74,1.2 4.57,0.5 9.13,1.1 13.64,1.8 4.26,1 8.53,2 12.76,3.2 4.24,1.1 8.46,2.3 12.63,3.6 4.11,1.3 7.59,2.8 11.39,4.4 7.34,3.1 15.15,6.4 21.07,10 l 9.42,5.4 c 3.12,1.9 6.31,3.8 8.8,5.6 5.33,3.8 10.59,7.6 15.78,11.5 9.04,7.6 18.18,15.5 25.39,22.9 3.89,3.8 7.64,7.6 10.85,11.2 l 9.97,11.1 c 5.95,7.1 12.23,14.4 17.46,21.3 11.14,14 20.6,27.2 30,40.2 18.31,25.6 34.86,49.5 51.14,70.3 16.15,20.6 32.21,38.6 46.79,50.4 3.61,2.8 7.18,5.8 10.51,7.8 3.21,2.6 7.05,4.3 10.61,6.5 7.48,3.6 15.03,7 23.58,9.1 16.9,4.5 37.31,5.9 60.84,3.8 23.5,-2.1 49.5,-7.3 77.3,-14.2 27.78,-6.8 57.28,-15.3 89.6,-23.1 16.08,-3.9 33.13,-7.6 51.24,-10.5 18.12,-2.9 37.31,-5.3 58.45,-5.3 12.19,-0.1 25.05,0.8 38.22,2.6 -74.11,-3.1 -154.33,52.4 -305.72,91 -190.74,48.6 -201.95,-93.5 -332.85,-220.7 -130.9,-127.1 -134.64,-74.8 -314.16,93.9 -179.51,168.6 -317.89,-4.1 -474.96,-164.9 -157.08,-160.9 -107.07,-301.7 -107.07,-301.7 20.1,37.2 41.56,73.6 64.6,108.7 7.33,12 15.39,23.2 23.26,34.6"
         style="fill:#6da032;fill-opacity:1;fill-rule:nonzero;stroke:none"
         id="path26977" />
      <path
         d="m 3524.95,20977.5 1.26,0.6 c 73.24,35.1 158.6,35.1 231.84,0 l 1.27,-0.6 c 441.31,-211.9 548.52,-122.2 521.66,37.4 -26.85,159.6 -28,259.3 398.36,339.1 426.34,79.8 236.86,246.8 -147.11,361.5 -117.03,35 -245.58,61.3 -367.84,81.1 51.5,-48.4 102.31,-129.5 88.59,-256.9 -26.18,-243 -519.85,-549.7 -1148.15,-523.5 -35.45,1.4 -68.9,2.8 -100.66,4.1 -0.29,-1.8 -0.59,-3.6 -0.89,-5.4 -26.85,-159.6 80.36,-249.3 521.67,-37.4"
         style="fill:#6da032;fill-opacity:1;fill-rule:nonzero;stroke:none"
         id="path26979" />
      <path
         d="m 2742.52,21712.7 h 0.02 -0.02 m 5.58,1.6 c 0.06,0.1 0.14,0.1 0.2,0.1 -0.07,0 -0.13,0 -0.2,-0.1 m 1.91,0.6 c 0.08,0 0.18,0.1 0.25,0.1 -0.09,0 -0.15,-0.1 -0.25,-0.1 m 558.03,990.5 v 0 0 m 0,0 c 0.01,0 0.01,0 0.01,0 0,0 0,0 -0.01,0 m 0.03,0.1 c 0,0 0,0 0,0 0,0 0,0 0,0"
         style="fill:#ffffff;fill-opacity:1;fill-rule:nonzero;stroke:none"
         id="path26981" />
      <path
         d="m 2452.28,21395.8 c -209.72,86.5 -29.69,219.8 290.24,316.9 h 0.02 c 1.85,0.5 3.7,1.1 5.56,1.6 0.07,0.1 0.13,0.1 0.2,0.1 0.58,0.2 1.14,0.3 1.71,0.5 0.1,0 0.16,0.1 0.25,0.1 0.6,0.2 1.18,0.3 1.77,0.5 259.99,77.7 577.07,113 754.74,127.8 v 0 0 c -29.93,198.2 -117.62,740.4 -198.73,862.1 v 0 0 c 0,0 0,0 0,0 0.01,0 0.01,0 0.01,0 0,0 0.01,0.1 0.02,0.1 0,0 0,0 0,0 1.31,6.4 38.25,180.8 169.07,227.3 -44,-60.8 -81.47,-135.6 -73.11,-207.5 18.69,-160.8 183.25,-867.7 134.63,-912.5 -48.63,-44.9 -661.97,-52.4 -927.51,-194.5 -115.77,-62 -153.33,-146.7 -158.87,-222.5"
         style="fill:#a6cd7b;fill-opacity:1;fill-rule:nonzero;stroke:none"
         id="path26983" />
    </g>
  </g>
</svg>
