<?xml version="1.0" encoding="UTF-8" standalone="no"?>
<!-- Created with Inkscape (http://www.inkscape.org/) -->

<svg
   version="1.1"
   id="svg2"
   width="121.45139"
   height="128.71823"
   viewBox="0 0 121.45139 128.71823"
   sodipodi:docname="13756344_5340472.eps"
   xmlns:inkscape="http://www.inkscape.org/namespaces/inkscape"
   xmlns:sodipodi="http://sodipodi.sourceforge.net/DTD/sodipodi-0.dtd"
   xmlns="http://www.w3.org/2000/svg"
   xmlns:svg="http://www.w3.org/2000/svg">
  <g
     id="g10"
     inkscape:groupmode="layer"
     inkscape:label="Page 1"
     transform="matrix(1.3333333,0,0,-1.3333333,-13.609118,134.29425)">
    <g
       id="g12"
       transform="scale(0.1)">
      <path
         d="m 641.418,848.449 c 0,0 174.301,185.351 342.523,63.641 0,0 -159.839,-206.871 -342.523,-63.641"
         style="fill:#479e38;fill-opacity:1;fill-rule:nonzero;stroke:none"
         id="path26" />
      <path
         d="M 641.418,848.449 C 641.609,848.66 740.281,953.5 860.77,953.5 740.297,953.48 641.609,848.66 641.418,848.449 m 342.523,63.641 c -0.586,0.422 -1.164,0.832 -1.75,1.25 0.586,-0.418 1.164,-0.828 1.75,-1.25 M 860.824,953.5 c -0.011,0 -0.011,0 -0.019,0 v 0 c 0.008,0 0.008,0 0.019,0"
         style="fill:#b9dfaa;fill-opacity:1;fill-rule:nonzero;stroke:none"
         id="path28" />
      <path
         d="m 641.418,848.449 v 0 c 0.191,0.211 98.879,105.031 219.352,105.051 0.007,0 0.023,0 0.035,0 0.008,0 0.008,0 0.019,0 39.028,-0.008 80.379,-11.031 121.367,-40.16 0.586,-0.418 1.164,-0.828 1.75,-1.25 v 0 0 c 0,0 -252,-1.899 -342.523,-63.641"
         style="fill:#398235;fill-opacity:1;fill-rule:nonzero;stroke:none"
         id="path30" />
      <path
         d="m 810.234,761.09 c -68.855,13.832 -138.687,-9.059 -197.468,-57.738 -31.86,-26.391 -78.657,-26.391 -110.508,0 -58.781,48.679 -128.613,71.57 -197.473,57.738 C 158.477,731.699 72.0313,547.75 111.703,350.23 151.379,152.719 302.145,16.4219 448.457,45.8086 c 28.297,5.6836 54.344,17.1719 77.68,33.4023 18.972,13.211 43.781,13.211 62.746,0 23.332,-16.2304 49.383,-27.7187 77.68,-33.4023 C 812.875,16.4219 963.641,152.719 1003.32,350.23 1042.99,547.75 956.543,731.699 810.234,761.09"
         style="fill:#95d33c;fill-opacity:1;fill-rule:nonzero;stroke:none"
         id="path32" />
      <path
         d="m 566.621,645.152 c -26.062,0 -47.187,7.039 -47.187,15.739 0,8.691 21.125,15.73 47.187,15.73 26.059,0 47.188,-7.039 47.188,-15.73 0,-8.7 -21.129,-15.739 -47.188,-15.739"
         style="fill:#79c32a;fill-opacity:1;fill-rule:nonzero;stroke:none"
         id="path34" />
      <path
         d="m 754.781,956.219 c -12.703,-13.727 -26.015,-29.809 -38.32,-45.578 -6.27,-7.93 -12.227,-16.129 -18.375,-24.211 L 680.398,861.621 C 657.297,828.129 636.156,793.16 617.02,757.031 597.621,720.98 581.086,683.379 566.938,644.75 l -10.25,-29.16 -8.563,-29.719 -4.27,-14.93 -3.304,-15.14 -6.633,-30.41 2.934,31.019 1.476,15.582 2.465,15.43 4.992,30.949 6.77,30.641 c 9.562,40.769 21.781,81.16 37.136,120.386 15.098,39.352 32.477,77.954 52.184,115.473 l 15.211,27.938 c 5.359,9.16 10.535,18.461 16.094,27.55 11.136,18.411 22.234,35.871 35.597,54.371 9.723,13.47 28.524,16.51 41.989,6.78 13.468,-9.721 16.5,-28.518 6.777,-41.979 -0.688,-0.949 -1.414,-1.851 -2.188,-2.699 l -0.574,-0.613"
         style="fill:#664323;fill-opacity:1;fill-rule:nonzero;stroke:none"
         id="path36" />
      <path
         d="m 515.496,664.82 c 0,0 51.125,-35.39 101.34,0 38.121,26.871 -82.918,-180.73 -82.918,-180.73 l -18.422,180.73"
         style="fill:#95d33c;fill-opacity:1;fill-rule:nonzero;stroke:none"
         id="path38" />
      <path
         d="m 848.844,91.6797 v 0 C 922.141,145.16 980.727,237.77 1003.32,350.23 c 0.03,0.18 0.07,0.352 0.1,0.532 -0.03,-0.172 -0.07,-0.364 -0.1,-0.532 C 980.727,237.77 922.141,145.16 848.844,91.6797"
         style="fill:#d6eda7;fill-opacity:1;fill-rule:nonzero;stroke:none"
         id="path40" />
      <path
         d="m 706.664,41.8203 c -13.336,0 -26.75,1.3086 -40.101,3.9883 -28.297,5.6836 -54.348,17.1719 -77.68,33.4023 -9.485,6.6094 -20.426,9.9102 -31.371,9.9102 -10.946,0 -21.891,-3.3008 -31.375,-9.9102 -23.336,-16.2304 -49.383,-27.7187 -77.68,-33.4023 -11.898,-2.3867 -23.82,-3.6875 -35.715,-3.9375 11.895,0.25 23.821,1.5508 35.715,3.9375 28.297,5.6836 54.344,17.1719 77.68,33.4023 9.484,6.6094 20.429,9.9102 31.375,9.9102 10.945,0 21.886,-3.3008 31.371,-9.9102 23.332,-16.2304 49.383,-27.7187 77.68,-33.4023 13.351,-2.6797 26.765,-3.9883 40.101,-3.9883 49.602,0 98.496,17.9805 142.18,49.8594 v 0 C 805.16,59.8008 756.266,41.8203 706.664,41.8203"
         style="fill:#aec288;fill-opacity:1;fill-rule:nonzero;stroke:none"
         id="path42" />
      <path
         d="m 1003.45,350.891 c 0.03,0.148 0.05,0.281 0.08,0.418 -0.03,-0.137 -0.05,-0.27 -0.08,-0.418 m 0.11,0.55 c 0.07,0.36 0.14,0.707 0.21,1.071 -0.07,-0.364 -0.14,-0.711 -0.21,-1.071 m 0.23,1.161 c 0.03,0.16 0.06,0.32 0.09,0.468 -0.03,-0.148 -0.06,-0.308 -0.09,-0.468 m 0.1,0.558 c 0.08,0.371 0.15,0.742 0.22,1.11 -0.07,-0.368 -0.14,-0.739 -0.22,-1.11 m 0.23,1.141 c 0.03,0.168 0.06,0.359 0.1,0.531 -0.04,-0.184 -0.07,-0.363 -0.1,-0.531 m 0.11,0.578 c 1.69,8.84 3.12,17.66 4.31,26.43 -1.19,-8.778 -2.62,-17.579 -4.31,-26.43 m 4.32,26.5 c 0.03,0.18 0.05,0.34 0.08,0.519 -0.03,-0.168 -0.05,-0.347 -0.08,-0.519 m 0.08,0.543 c 0.02,0.18 0.05,0.367 0.07,0.547 -0.02,-0.18 -0.05,-0.367 -0.07,-0.547 m 0.08,0.629 c 0.02,0.14 0.04,0.301 0.06,0.449 -0.02,-0.148 -0.04,-0.309 -0.06,-0.449 m 0.08,0.578 c 0.02,0.141 0.04,0.281 0.05,0.422 -0.01,-0.141 -0.03,-0.27 -0.05,-0.422 m 0.07,0.543 c 0.02,0.168 0.04,0.34 0.07,0.508 -0.03,-0.168 -0.05,-0.34 -0.07,-0.508 m 0.08,0.637 c 0.02,0.121 0.04,0.261 0.05,0.382 -0.01,-0.132 -0.03,-0.25 -0.05,-0.382 m 0.08,0.582 c 0.01,0.101 0.03,0.218 0.04,0.32 -0.01,-0.102 -0.03,-0.219 -0.04,-0.32 m 0.06,0.531 c 0.02,0.117 0.04,0.258 0.05,0.379 -0.01,-0.129 -0.03,-0.262 -0.05,-0.379 m 0.1,0.75 c 0.01,0.058 0.02,0.129 0.02,0.187 0,-0.07 -0.01,-0.129 -0.02,-0.187 m 0.06,0.5 c 0.01,0.047 0.02,0.117 0.02,0.16 0,-0.043 -0.01,-0.113 -0.02,-0.16 m 0.16,1.308 c 0.01,0.02 0.01,0.051 0.01,0.071 0,-0.02 0,-0.039 -0.01,-0.071 m 0.06,0.442 c 0,0.039 0.01,0.07 0.01,0.098 0,-0.028 -0.01,-0.059 -0.01,-0.098"
         style="fill:#d6eda7;fill-opacity:1;fill-rule:nonzero;stroke:none"
         id="path44" />
      <path
         d="m 706.664,41.8203 c -13.336,0 -26.75,1.3086 -40.101,3.9883 -28.297,5.6836 -54.348,17.1719 -77.68,33.4023 -9.485,6.6094 -20.426,9.9102 -31.371,9.9102 -10.946,0 -21.891,-3.3008 -31.375,-9.9102 -23.336,-16.2304 -49.383,-27.7187 -77.68,-33.4023 -11.894,-2.3867 -23.82,-3.6875 -35.715,-3.9375 -1.461,-0.0313 -2.914,-0.0508 -4.375,-0.0508 -106.84,0 -210.394,83.4887 -265.59,209.5707 60.028,-63.801 134.43,-101.262 207.379,-101.25 22.102,0 44.086,3.441 65.481,10.629 27.355,9.199 51.754,23.859 72.859,42.91 10.375,9.359 23.473,14.199 36.734,14.199 8.672,0 17.418,-2.078 25.516,-6.309 25.192,-13.179 52.477,-21.3 81.266,-23.379 4.914,-0.359 9.808,-0.531 14.683,-0.531 142.774,0 267.078,150.57 281.125,344.879 4.696,64.941 -3.562,126.762 -21.828,181.141 77.969,-66.7 119.738,-190.5 103.478,-325.16 0,-0.028 -0.01,-0.059 -0.01,-0.098 -0.02,-0.113 -0.03,-0.25 -0.05,-0.371 0,-0.02 0,-0.051 -0.01,-0.071 -0.04,-0.39 -0.09,-0.761 -0.14,-1.148 0,-0.043 -0.01,-0.113 -0.02,-0.16 -0.01,-0.102 -0.02,-0.211 -0.04,-0.313 0,-0.058 -0.01,-0.129 -0.02,-0.187 -0.02,-0.121 -0.03,-0.25 -0.05,-0.371 -0.01,-0.121 -0.03,-0.262 -0.05,-0.379 0,-0.082 -0.01,-0.133 -0.02,-0.211 -0.01,-0.102 -0.03,-0.219 -0.04,-0.32 -0.01,-0.071 -0.02,-0.141 -0.03,-0.2 -0.01,-0.121 -0.03,-0.261 -0.05,-0.382 0,-0.039 -0.01,-0.079 -0.01,-0.129 -0.03,-0.168 -0.05,-0.34 -0.07,-0.508 -0.01,-0.043 -0.01,-0.082 -0.02,-0.121 -0.01,-0.141 -0.03,-0.281 -0.05,-0.422 -0.01,-0.039 -0.01,-0.09 -0.02,-0.129 -0.02,-0.148 -0.04,-0.309 -0.06,-0.449 0,-0.031 0,-0.051 -0.01,-0.082 -0.02,-0.18 -0.05,-0.367 -0.07,-0.547 0,-0.012 0,-0.012 0,-0.024 -0.03,-0.179 -0.05,-0.339 -0.08,-0.519 0,-0.027 0,-0.047 -0.01,-0.07 -1.19,-8.77 -2.62,-17.59 -4.31,-26.43 -0.01,-0.02 -0.01,-0.039 -0.01,-0.047 -0.04,-0.172 -0.07,-0.363 -0.1,-0.531 -0.01,-0.012 -0.01,-0.02 -0.01,-0.031 -0.07,-0.368 -0.14,-0.739 -0.22,-1.11 0,-0.031 -0.01,-0.058 -0.01,-0.09 -0.03,-0.148 -0.06,-0.308 -0.09,-0.468 -0.01,-0.02 -0.02,-0.063 -0.02,-0.09 -0.07,-0.364 -0.14,-0.711 -0.21,-1.071 -0.01,-0.039 -0.02,-0.089 -0.03,-0.132 -0.03,-0.137 -0.05,-0.27 -0.08,-0.418 -0.01,-0.051 -0.02,-0.082 -0.03,-0.129 -0.03,-0.18 -0.07,-0.352 -0.1,-0.532 C 980.727,237.77 922.141,145.16 848.844,91.6797 805.16,59.8008 756.266,41.8203 706.664,41.8203"
         style="fill:#79c32a;fill-opacity:1;fill-rule:nonzero;stroke:none"
         id="path46" />
      <path
         d="m 202.965,459.379 c -9.961,0 -19.305,2.281 -27.625,7.082 -41.125,23.738 -41.461,100.168 -0.75,170.68 32.484,56.269 81.285,91.789 120.574,91.789 9.961,0 19.309,-2.289 27.625,-7.09 41.133,-23.75 41.469,-100.16 0.75,-170.688 -32.484,-56.261 -81.281,-91.773 -120.574,-91.773"
         style="fill:#b0dd51;fill-opacity:1;fill-rule:nonzero;stroke:none"
         id="path48" />
    </g>
  </g>
</svg>
