<?xml version="1.0" encoding="UTF-8" standalone="no"?>
<!-- Created with Inkscape (http://www.inkscape.org/) -->

<svg
   version="1.1"
   id="svg26267"
   width="560.9585"
   height="741.26379"
   viewBox="0 0 560.9585 741.2638"
   sodipodi:docname="fruit_set.eps"
   xmlns:inkscape="http://www.inkscape.org/namespaces/inkscape"
   xmlns:sodipodi="http://sodipodi.sourceforge.net/DTD/sodipodi-0.dtd"
   xmlns="http://www.w3.org/2000/svg"
   xmlns:svg="http://www.w3.org/2000/svg">
  <g
     id="g26275"
     inkscape:groupmode="layer"
     inkscape:label="Page 1"
     transform="matrix(1.3333333,0,0,-1.3333333,-5509.6504,2013.3466)">
    <g
       id="g26277"
       transform="scale(0.1)">
      <path
         d="m 43520,13360.2 c 0,0 238.9,877.6 493,1270.9 0,0 -97,357.9 -392.9,131.6 -295.8,-226.3 -264,-1345.5 -264,-1345.5 l 163.9,-57"
         style="fill:#72362a;fill-opacity:1;fill-rule:nonzero;stroke:none"
         id="path26507" />
      <path
         d="m 43436.1,13389.4 83.9,-29.2 c 0,0 238.9,877.6 493,1270.9 0,0 -32.6,120.2 -117.6,177.2 -94.6,-162.6 -252.1,-468 -350,-842.4 -85.9,-328.6 -106.8,-494.9 -109.3,-576.5"
         style="fill:#59241b;fill-opacity:1;fill-rule:nonzero;stroke:none"
         id="path26509" />
      <path
         d="m 43385.3,13472.6 c 0,0 142,699.7 -389.6,1104.2 -531.5,404.5 -1657,523.3 -1657,523.3 0,0 -144.4,-624.6 425.8,-1121.8 570.2,-497.2 1177.1,-534.5 1620.8,-505.7"
         style="fill:#69b200;fill-opacity:1;fill-rule:nonzero;stroke:none"
         id="path26511" />
      <path
         d="m 43237.1,13466.1 c 10.2,0.2 20.4,0.5 30.4,0.8 l 1.4,0.1 c 10.4,0.3 20.6,0.6 30.8,1.1 1.4,0 2.9,0.1 4.3,0.1 9.4,0.4 18.6,0.9 27.8,1.3 l 1.8,0.1 v 0 c 15.3,0.8 30.5,1.6 45.6,2.6 -17.3,11.8 -37.5,25.3 -60.1,40.2 -35.9,93.2 -124.1,253.8 -340.8,483.3 -367.4,388.9 -1217.8,688.6 -1217.8,688.6 0,0 412.9,-219.8 895.3,-519.6 264.4,-164.3 408,-378.9 483.9,-539.3 -264.4,158.9 -647.9,356.1 -945.9,372.2 -306.5,16.5 -572.6,211.4 -734.4,362.1 66.6,-127.3 163.9,-258.3 305.1,-381.4 495,-431.6 1017.6,-516.6 1437.1,-512.7 h 0.3 c 10.8,0.1 21.6,0.2 32.3,0.5 1,0 1.9,0 2.9,0"
         style="fill:#578900;fill-opacity:1;fill-rule:nonzero;stroke:none"
         id="path26513" />
      <path
         d="m 42086.7,14824.4 c 0,0 497.5,-129.6 717.5,-342 220.1,-212.4 326.9,-402.1 326.9,-402.1 0,0 106.9,576.4 -1044.4,744.1"
         style="fill:#95ce32;fill-opacity:1;fill-rule:nonzero;stroke:none"
         id="path26515" />
      <path
         d="m 45487.3,12384 c -131.1,662.4 -625,1047.1 -1149.6,1247.9 -524.4,200.9 -909.1,-179.5 -909.1,-179.5 0,0 -384.6,380.4 -909.1,179.5 -524.5,-200.8 -1018.4,-585.5 -1149.5,-1247.9 -131.1,-662.4 35,-1500.1 607.5,-2188.2 572.6,-688 424,-679.5 852.3,-641 428.4,38.4 498.3,123.9 598.8,123.9 100.6,0 170.5,-85.5 598.8,-123.9 428.4,-38.5 279.8,-47 852.3,641 572.6,688.1 738.7,1525.8 607.6,2188.2"
         style="fill:#db0303;fill-opacity:1;fill-rule:nonzero;stroke:none"
         id="path26517" />
      <path
         d="m 44879.7,10195.8 c 572.6,688.1 738.7,1525.8 607.6,2188.2 -105.6,533.4 -446.5,886.7 -849.1,1108.9 250.6,-301.4 612.5,-876.4 487.5,-1579 -185.9,-1045 -666.7,-1923.2 -942.4,-2057.8 -275.6,-134.7 -534,122.5 -754.7,-57.7 -204.6,-167.3 -748.3,-189.7 -1081.8,-69.2 167.1,-212.9 191,-200.7 483,-174.4 428.4,38.4 498.3,123.9 598.8,123.9 100.6,0 170.5,-85.5 598.8,-123.9 428.4,-38.5 279.8,-47 852.3,641"
         style="fill:#bc0202;fill-opacity:1;fill-rule:nonzero;stroke:none"
         id="path26519" />
      <path
         d="m 42090.2,10687.4 c -17.4,0 -33.7,7.7 -44.8,20.3 -31.6,36.2 -61.1,74 -89.9,112.5 l -20.4,29.6 -19.9,29.9 c -13.2,20.1 -26.7,40 -39,60.7 -12.1,20.7 -24,41.6 -35.8,62.6 -11.6,21.1 -23.7,42 -34,63.9 -10.6,21.6 -21.1,43.4 -31.5,65.3 -5,11 -10.5,21.8 -15.1,33 l -13.9,33.7 c -9.3,22.4 -18.1,45.1 -27.2,67.7 -8.1,22.9 -16,46 -23.7,69.2 l -11.5,34.8 c -4.1,11.6 -6.9,23.5 -10.3,35.2 -6.6,23.6 -12.9,47.4 -19.2,71.1 -3.4,11.8 -5.7,23.9 -8.4,35.9 l -7.6,36.2 c -5.2,24.1 -10.1,48.2 -13.7,72.7 l -11.1,73.4 -7.3,74.1 c -8.1,99 -8.9,199.1 0.7,298.8 9.8,99.6 28.8,198.6 58.3,294.6 1.8,6 3.5,12 5.4,17.9 l 6.2,17.9 c 4.1,11.8 8.1,23.7 12.4,35.4 8.5,23.6 18.5,46.8 27.9,69.9 20.5,45.9 42.5,90.8 68.3,133.9 12.4,21.7 26.5,42.7 40.3,63.5 14.6,20.5 29.1,40.9 45,60.4 7.7,9.9 16.2,19.4 24.2,29 8.3,9.5 17.2,18.7 25.7,27.9 9.1,9.1 17.8,18.1 27.4,26.9 4.7,4.3 9.5,8.6 14.5,13 l 16.2,13.6 c 10.5,8.7 23.2,13 35.8,13 16,0 31.8,-6.8 42.8,-19.9 8.9,-10.5 13.1,-23.4 13.1,-36.2 l -0.2,-27.3 c 0,-1.5 -0.9,-4.4 -1.6,-6.8 l -2.1,-7.7 c -1.6,-5 -3.1,-10.3 -4.5,-15.6 -3.1,-10.4 -6,-21.2 -8.9,-31.7 -2.9,-10.7 -5.9,-21.1 -8.5,-31.9 -2.7,-10.7 -5.7,-21 -8.1,-31.8 -10.7,-42.2 -19.8,-84.7 -28.1,-126.9 -8.7,-42 -15.4,-84.3 -22.2,-126 l -4.3,-31.6 c -1.5,-10.4 -3.4,-20.8 -4.4,-31.3 -2.1,-21.1 -5.5,-41.8 -7.2,-62.8 -8.8,-83.7 -14,-167.1 -15.9,-250.7 -1.4,-83.6 0.6,-167.4 5.5,-251.5 l 4.3,-63.1 6.3,-63.2 c 1,-10.5 1.5,-21.1 3.1,-31.7 l 4.1,-31.6 c 2.7,-21.1 4.8,-42.4 8,-63.5 7,-42.2 11.9,-84.9 20.3,-127.4 3.9,-21.2 7.1,-42.6 11,-64 4.3,-21.3 8.8,-42.6 12.8,-64 7.6,-43.1 18.3,-85.7 27,-129.1 4.1,-21.8 9.8,-43.1 14.9,-64.8 5,-21.7 10,-43.5 14.7,-65.5 2.3,-11 5.3,-21.7 8,-32.7 2.8,-10.8 5.3,-21.9 8,-32.8 l 7.9,-33.1 7.3,-33.4 c 11.3,-44.1 22.3,-88.7 30.9,-135 l 0.5,-2.6 c 6,-32.3 -15.3,-63.3 -47.6,-69.3 -3.6,-0.7 -7.3,-1 -10.9,-1"
         style="fill:#e96868;fill-opacity:1;fill-rule:nonzero;stroke:none"
         id="path26521" />
      <path
         d="m 44119.6,13258.7 c 0,-15.3 -12.4,-27.8 -27.8,-27.8 -15.3,0 -27.8,12.5 -27.8,27.8 0,15.3 12.5,27.8 27.8,27.8 15.4,0 27.8,-12.5 27.8,-27.8"
         style="fill:#bc0202;fill-opacity:1;fill-rule:nonzero;stroke:none"
         id="path26523" />
      <path
         d="m 42587,12957 c 0,-39.8 -32.2,-72.1 -72,-72.1 -39.8,0 -72.1,32.3 -72.1,72.1 0,39.8 32.3,72 72.1,72 39.8,0 72,-32.2 72,-72"
         style="fill:#bc0202;fill-opacity:1;fill-rule:nonzero;stroke:none"
         id="path26525" />
      <path
         d="m 44777.3,12701.3 c 0,-23 -18.6,-41.6 -41.6,-41.6 -23.1,0 -41.7,18.6 -41.7,41.6 0,23.1 18.6,41.7 41.7,41.7 23,0 41.6,-18.6 41.6,-41.7"
         style="fill:#bc0202;fill-opacity:1;fill-rule:nonzero;stroke:none"
         id="path26527" />
      <path
         d="m 44027,12189.8 c 0,-37.8 -30.7,-68.5 -68.5,-68.5 -37.8,0 -68.4,30.7 -68.4,68.5 0,37.8 30.6,68.4 68.4,68.4 37.8,0 68.5,-30.6 68.5,-68.4"
         style="fill:#bc0202;fill-opacity:1;fill-rule:nonzero;stroke:none"
         id="path26529" />
      <path
         d="m 43192.2,12386.9 c 0,-27.3 -22.1,-49.4 -49.4,-49.4 -27.3,0 -49.4,22.1 -49.4,49.4 0,27.3 22.1,49.4 49.4,49.4 27.3,0 49.4,-22.1 49.4,-49.4"
         style="fill:#bc0202;fill-opacity:1;fill-rule:nonzero;stroke:none"
         id="path26531" />
      <path
         d="m 43798.7,10571.2 c 0,-20.4 -16.6,-37 -37.1,-37 -20.5,0 -37,16.6 -37,37 0,20.5 16.5,37.1 37,37.1 20.5,0 37.1,-16.6 37.1,-37.1"
         style="fill:#bc0202;fill-opacity:1;fill-rule:nonzero;stroke:none"
         id="path26533" />
      <path
         d="m 42863.3,10157.5 c 0,-39.3 -31.8,-71.1 -71,-71.1 -39.3,0 -71.1,31.8 -71.1,71.1 0,39.2 31.8,71 71.1,71 39.2,0 71,-31.8 71,-71"
         style="fill:#bc0202;fill-opacity:1;fill-rule:nonzero;stroke:none"
         id="path26535" />
      <path
         d="m 42507.8,11047.8 c 0,-24.5 -19.9,-44.3 -44.3,-44.3 -24.4,0 -44.3,19.8 -44.3,44.3 0,24.4 19.9,44.3 44.3,44.3 24.4,0 44.3,-19.9 44.3,-44.3"
         style="fill:#bc0202;fill-opacity:1;fill-rule:nonzero;stroke:none"
         id="path26537" />
      <path
         d="m 43533.6,11378.2 c 0,-26.9 -21.9,-48.7 -48.8,-48.7 -26.9,0 -48.7,21.8 -48.7,48.7 0,26.9 21.8,48.7 48.7,48.7 26.9,0 48.8,-21.8 48.8,-48.7"
         style="fill:#bc0202;fill-opacity:1;fill-rule:nonzero;stroke:none"
         id="path26539" />
      <path
         d="m 44666.3,11509 c 0,-23 -18.6,-41.6 -41.6,-41.6 -23,0 -41.6,18.6 -41.6,41.6 0,23 18.6,41.6 41.6,41.6 23,0 41.6,-18.6 41.6,-41.6"
         style="fill:#bc0202;fill-opacity:1;fill-rule:nonzero;stroke:none"
         id="path26541" />
    </g>
  </g>
</svg>
