<?xml version="1.0" encoding="UTF-8" standalone="no"?>
<!-- Created with Inkscape (http://www.inkscape.org/) -->

<svg
   version="1.1"
   id="svg26267"
   width="560.2002"
   height="779.92896"
   viewBox="0 0 560.20019 779.92897"
   sodipodi:docname="fruit_set.eps"
   xmlns:inkscape="http://www.inkscape.org/namespaces/inkscape"
   xmlns:sodipodi="http://sodipodi.sourceforge.net/DTD/sodipodi-0.dtd"
   xmlns="http://www.w3.org/2000/svg"
   xmlns:svg="http://www.w3.org/2000/svg">
  <defs
     id="defs26271" />
  <sodipodi:namedview
     id="namedview26269"
     pagecolor="#ffffff"
     bordercolor="#000000"
     borderopacity="0.25"
     inkscape:showpageshadow="2"
     inkscape:pageopacity="0.0"
     inkscape:pagecheckerboard="0"
     inkscape:deskcolor="#d1d1d1"
     showgrid="false" />
  <g
     id="g26275"
     inkscape:groupmode="layer"
     inkscape:label="Page 1"
     transform="matrix(1.3333333,0,0,-1.3333333,-4511.1865,2032.6754)">
    <g
       id="g26277"
       transform="scale(0.1)">
      <path
         d="m 36405.5,13948 c 0,0 16,782.9 146.1,1164.5 0,0 -155.9,278.7 -355.7,27.9 -199.8,-250.9 60.7,-1179.1 60.7,-1179.1 l 148.9,-13.3"
         style="fill:#72362a;fill-opacity:1;fill-rule:nonzero;stroke:none"
         id="path26455"
         inkscape:export-filename="../individual fruits/path26455.svg"
         inkscape:export-xdpi="96"
         inkscape:export-ydpi="96" />
      <path
         d="m 36329.3,13954.8 76.2,-6.8 c 0,0 16,782.9 146.1,1164.5 0,0 -52.4,93.6 -135.3,123.5 -45,-155.6 -112.7,-443.6 -116.2,-776.8 -3.1,-292.4 14.2,-435.7 29.2,-504.4"
         style="fill:#59241b;fill-opacity:1;fill-rule:nonzero;stroke:none"
         id="path26457" />
      <path
         d="m 36299.3,14232.3 c 0,0 -431.5,535.6 -1058.3,390.2 -626.8,-145.3 -1407.1,-906.9 -1407.1,-906.9 0,0 374.3,-491.1 1093.7,-374.1 719.3,117 1120.2,544.1 1371.7,890.8"
         style="fill:#69b200;fill-opacity:1;fill-rule:nonzero;stroke:none"
         id="path26459" />
      <path
         d="m 36213,14118.4 c 6.1,7.7 12.2,15.4 18.1,23.1 l 0.9,1.1 c 6.1,7.8 12.1,15.6 18,23.4 0.9,1.1 1.7,2.3 2.6,3.4 5.4,7.1 10.8,14.3 16.1,21.4 l 1,1.3 v 0 c 8.9,11.9 17.6,23.7 26.2,35.4 -19.4,-5.6 -41.9,-12.2 -66.8,-19.8 -91.2,30.7 -264.5,64.1 -567.9,44.5 -514.4,-33.3 -1259.6,-479.5 -1259.6,-479.5 0,0 416.9,170.9 935.9,344.3 284.4,95.1 531.9,69.6 697.4,27.2 -280.4,-98.3 -662.4,-261.5 -857.6,-472.6 -200.7,-217.1 -509,-294.5 -720.2,-321.8 135.4,-29 292.3,-37.3 470.5,-8.3 624.4,101.5 1008.8,436.8 1263.9,750.2 l 0.2,0.3 c 6.6,8.1 13.1,16.2 19.6,24.3 l 1.7,2.1"
         style="fill:#578900;fill-opacity:1;fill-rule:nonzero;stroke:none"
         id="path26461" />
      <path
         d="m 34498.4,14100.7 c 0,0 401.9,289.2 694.8,321.8 292.9,32.5 499.2,-4.9 499.2,-4.9 0,0 -361.7,433.7 -1194,-316.9"
         style="fill:#95ce32;fill-opacity:1;fill-rule:nonzero;stroke:none"
         id="path26463" />
      <path
         d="m 37554.7,12824.8 c -90.4,459 -334.3,1392.3 -1246.8,1456.5 -9.3,0.7 -18.8,0.7 -28.1,0 -912.5,-64.2 -1156.4,-997.5 -1246.8,-1456.5 -141,-716.4 -480.7,-957.3 -480.7,-1970.1 0,-621.5 361.1,-989.4 754.5,-1205.9 613.6,-337.6 1360.5,-337.6 1974.1,0 393.4,216.5 754.5,584.4 754.5,1205.9 0,1012.8 -339.7,1253.7 -480.7,1970.1"
         style="fill:#78991d;fill-opacity:1;fill-rule:nonzero;stroke:none"
         id="path26465" />
      <path
         d="m 36293.9,9519.1 c -324,0 -644.7,82.3 -927.6,237.9 -458.2,252.2 -690.5,621.5 -690.5,1097.7 0,609.3 125.3,922.1 257.9,1253.3 81.3,203 165.4,413 220.5,692.9 43.9,223.3 122.7,552.7 298.7,834.8 93.1,149.2 203.8,268.1 329.2,353.3 145.4,98.8 315.7,155.7 506.3,169.1 1.8,0.1 3.6,0.2 5.5,0.2 1.8,0 3.6,-0.1 5.4,-0.2 190.6,-13.4 360.9,-70.3 506.3,-169.1 125.4,-85.2 236.2,-204.1 329.2,-353.3 176,-282.1 254.8,-611.5 298.7,-834.8 55.1,-279.9 139.2,-489.9 220.5,-692.9 132.6,-331.2 257.9,-644 257.9,-1253.3 0,-476.2 -232.3,-845.5 -690.5,-1097.7 -282.9,-155.6 -603.6,-237.9 -927.5,-237.9"
         style="fill:#c6e055;fill-opacity:1;fill-rule:nonzero;stroke:none"
         id="path26467" />
      <path
         d="m 36267.4,14280.4 h 0.1 -0.1 m 7.9,0.6 c 0.2,0 0.5,0 0.8,0 -0.3,0 -0.5,0 -0.8,0"
         style="fill:#612e24;fill-opacity:1;fill-rule:nonzero;stroke:none"
         id="path26469" />
      <path
         d="m 36293.9,9395.6 c -86.6,0 -173.3,5.5 -259.4,16.5 161.2,20.5 320.4,60.2 474.2,119.1 249.6,28.1 492.6,104.7 712.7,225.8 458.2,252.2 690.5,621.5 690.5,1097.7 0,609.3 -125.3,922.1 -257.9,1253.3 -81.3,203 -165.4,413 -220.5,692.9 -43.9,223.3 -122.7,552.7 -298.7,834.8 -93,149.2 -203.8,268.1 -329.2,353.3 -145.4,98.8 -315.7,155.7 -506.3,169.1 -1.8,0.1 -3.6,0.2 -5.4,0.2 -1.9,0 -3.7,-0.1 -5.5,-0.2 -12.9,-0.9 -25.7,-2 -38.5,-3.3 -66.1,34.6 -137.8,63.4 -215.4,84.9 72.3,20.1 149.8,34.1 232.9,40.7 h 0.1 c 2.6,0.2 5.2,0.4 7.8,0.6 0.3,0 0.5,0 0.8,0 1.2,0.1 2.4,0.2 3.7,0.3 4.6,0.3 9.3,0.5 14.1,0.5 4.7,0 9.4,-0.2 14,-0.5 912.5,-64.2 1156.4,-997.5 1246.8,-1456.5 141,-716.4 480.7,-957.3 480.7,-1970.1 0,-621.5 -361.1,-989.4 -754.5,-1205.9 v 0 c -306.8,-168.8 -646.8,-253.2 -987,-253.2"
         style="fill:#668219;fill-opacity:1;fill-rule:nonzero;stroke:none"
         id="path26471" />
      <path
         d="m 36508.7,9531.2 c 86.4,33.1 171.2,72.3 253.5,117.6 393.3,216.5 754.4,584.4 754.4,1205.9 0,1012.8 -339.6,1253.7 -480.7,1970.1 -72.7,369.6 -245.1,1046.7 -786,1330 12.8,1.3 25.6,2.4 38.5,3.3 1.8,0.1 3.6,0.2 5.5,0.2 1.8,0 3.6,-0.1 5.4,-0.2 190.6,-13.4 360.9,-70.3 506.3,-169.1 125.4,-85.2 236.2,-204.1 329.2,-353.3 176,-282.1 254.8,-611.5 298.7,-834.8 55.1,-279.9 139.2,-489.9 220.5,-692.9 132.6,-331.2 257.9,-644 257.9,-1253.3 0,-476.2 -232.3,-845.5 -690.5,-1097.7 -220.1,-121.1 -463.1,-197.7 -712.7,-225.8"
         style="fill:#a8bf48;fill-opacity:1;fill-rule:nonzero;stroke:none"
         id="path26473" />
      <path
         d="m 36195,9868.4 c -611.5,0 -1107.3,516.7 -1107.3,1154 0,265.2 85.9,509.5 230.2,704.4 -83.8,-162.5 -131.3,-348.3 -131.3,-545.7 0,-637.3 495.7,-1153.9 1107.3,-1153.9 357,0 674.6,176.1 877.1,449.5 -186.8,-362.1 -553.8,-608.3 -976,-608.3"
         style="fill:#9eb344;fill-opacity:1;fill-rule:nonzero;stroke:none"
         id="path26475" />
      <path
         d="m 35329.6,12173.2 c 0,0 -330.4,-419.9 -355.1,-1019 -24.7,-599 186.4,-818.3 181.2,-895.5 -5.2,-77.1 -335.1,-30.6 -351.1,589.8 -21.6,843 302.7,1296.9 525,1324.7"
         style="fill:#e3f288;fill-opacity:1;fill-rule:nonzero;stroke:none"
         id="path26477" />
      <path
         d="m 36107.7,13982.7 c 0,0 -364.3,-95.7 -546.5,-441.6 -182.2,-345.8 -210.9,-555.8 -191.9,-577.4 19,-21.6 151.7,194.6 247.5,432.3 95.7,237.8 521.8,497.2 521.8,497.2 0,0 148.2,111.1 -30.9,89.5"
         style="fill:#e3f288;fill-opacity:1;fill-rule:nonzero;stroke:none"
         id="path26479" />
      <path
         d="m 36119.6,13586.5 c 0,-17.9 -14.6,-32.4 -32.5,-32.4 -17.9,0 -32.4,14.5 -32.4,32.4 0,17.9 14.5,32.5 32.4,32.5 17.9,0 32.5,-14.6 32.5,-32.5"
         style="fill:#b4ce49;fill-opacity:1;fill-rule:nonzero;stroke:none"
         id="path26481" />
      <path
         d="m 36054.7,13007.6 c 0,-11.2 -9,-20.3 -20.2,-20.3 -11.2,0 -20.3,9.1 -20.3,20.3 0,11.1 9.1,20.2 20.3,20.2 11.2,0 20.2,-9.1 20.2,-20.2"
         style="fill:#b4ce49;fill-opacity:1;fill-rule:nonzero;stroke:none"
         id="path26483" />
      <path
         d="m 36721.1,13195.1 c 0,-32.8 -26.7,-59.4 -59.5,-59.4 -32.8,0 -59.4,26.6 -59.4,59.4 0,32.9 26.6,59.5 59.4,59.5 32.8,0 59.5,-26.6 59.5,-59.5"
         style="fill:#b4ce49;fill-opacity:1;fill-rule:nonzero;stroke:none"
         id="path26485" />
      <path
         d="m 36425.6,12686.4 c 0,-17.9 -14.5,-32.4 -32.4,-32.4 -17.9,0 -32.4,14.5 -32.4,32.4 0,17.9 14.5,32.4 32.4,32.4 17.9,0 32.4,-14.5 32.4,-32.4"
         style="fill:#b4ce49;fill-opacity:1;fill-rule:nonzero;stroke:none"
         id="path26487" />
      <path
         d="m 35632.7,12596.7 c 0,-25.5 -20.7,-46.1 -46.2,-46.1 -25.4,0 -46.1,20.6 -46.1,46.1 0,25.4 20.7,46.1 46.1,46.1 25.5,0 46.2,-20.7 46.2,-46.1"
         style="fill:#b4ce49;fill-opacity:1;fill-rule:nonzero;stroke:none"
         id="path26489" />
      <path
         d="m 37085.2,12352.5 c 0,-13.9 -11.3,-25.1 -25.1,-25.1 -13.9,0 -25.2,11.2 -25.2,25.1 0,13.9 11.3,25.1 25.2,25.1 13.8,0 25.1,-11.2 25.1,-25.1"
         style="fill:#b4ce49;fill-opacity:1;fill-rule:nonzero;stroke:none"
         id="path26491" />
      <path
         d="m 37401.2,11181.1 c 0,-637.3 -495.8,-1153.9 -1107.3,-1153.9 -611.6,0 -1107.3,516.6 -1107.3,1153.9 0,637.3 495.7,1153.9 1107.3,1153.9 611.5,0 1107.3,-516.6 1107.3,-1153.9"
         style="fill:#af6c2f;fill-opacity:1;fill-rule:nonzero;stroke:none"
         id="path26493" />
      <path
         d="m 36293.9,12335 c -15.4,0 -30.6,-0.4 -45.8,-1 416.8,-202.1 705.8,-642.3 705.8,-1152.9 0,-510.6 -289,-950.8 -705.8,-1152.9 15.2,-0.6 30.4,-1 45.8,-1 611.5,0 1107.3,516.6 1107.3,1153.9 0,637.3 -495.8,1153.9 -1107.3,1153.9"
         style="fill:#995925;fill-opacity:1;fill-rule:nonzero;stroke:none"
         id="path26495" />
      <path
         d="m 35661,10498.6 c -14.9,0 -28.8,6.7 -38.3,17.6 -19.1,22.3 -37.4,45.4 -54.7,69.2 -8.4,12.1 -16.5,24.4 -24.6,36.8 -8.1,12.3 -16.3,24.6 -23.4,37.6 -7.5,12.8 -14.5,25.8 -21.7,38.8 -3.5,6.5 -7.4,12.9 -10.6,19.6 l -9.6,20.2 c -6.3,13.4 -12.9,26.9 -18.9,40.5 -5.9,13.7 -11.2,27.7 -16.8,41.7 -43.8,111.6 -68.5,232.6 -72.7,355.1 -3.7,122.5 14.5,246.6 56.7,361.8 21.2,57.5 48,112.8 80.8,164.2 3.9,6.5 8.5,12.8 12.7,19.1 4.2,6.3 8.5,12.6 13.1,18.8 9,12.2 18.3,24.4 28.1,36.1 l 15.1,17.4 15.8,16.8 c 5.5,5.5 11,11 16.8,16.4 l 8.8,8 4.7,4 c 1.7,1.4 3.2,2.6 5.3,4.5 8.9,8.1 20.1,12.1 31.2,12.1 12.7,0 25.2,-5.1 34.4,-15.2 8.3,-9.1 12.3,-20.7 12.1,-32.1 l -0.6,-26.6 c 0,-0.7 -0.6,-2.3 -1.1,-3.7 l -1.5,-4.5 -3.2,-9.1 -6.5,-18.5 c -4.4,-12.4 -8.5,-24.9 -12.6,-37.4 -1.9,-6.3 -3.9,-12.6 -5.9,-18.8 -2.1,-6.1 -3.8,-12.5 -5.7,-18.8 -4,-12.3 -7.2,-25.1 -10.8,-37.5 -13.6,-50.2 -25.3,-100.1 -34.2,-150.3 -17.9,-100.1 -26.1,-200.2 -24.7,-301.1 2.2,-100.9 13.5,-202.4 34.1,-304.7 2.5,-12.8 4.7,-25.7 7.5,-38.5 3.2,-12.7 5.9,-25.7 8.8,-38.6 5.2,-25.9 12.7,-51.4 18.7,-77.6 6.4,-26.1 14.3,-51.9 20.7,-78.5 7.4,-26.3 15.1,-52.7 21.3,-80.2 l 0.7,-3 c 6.1,-27.2 -10.9,-54.2 -38.2,-60.3 -3.7,-0.9 -7.4,-1.3 -11.1,-1.3"
         style="fill:#cfa782;fill-opacity:1;fill-rule:nonzero;stroke:none"
         id="path26497" />
      <path
         d="m 36764.1,11438.9 c 0,-15.3 -12.5,-27.8 -27.8,-27.8 -15.4,0 -27.8,12.5 -27.8,27.8 0,15.4 12.4,27.8 27.8,27.8 15.3,0 27.8,-12.4 27.8,-27.8"
         style="fill:#a05f2a;fill-opacity:1;fill-rule:nonzero;stroke:none"
         id="path26499" />
      <path
         d="m 36076.7,11164.1 c 0,-23.3 -18.9,-42.2 -42.2,-42.2 -23.3,0 -42.2,18.9 -42.2,42.2 0,23.3 18.9,42.2 42.2,42.2 23.3,0 42.2,-18.9 42.2,-42.2"
         style="fill:#a05f2a;fill-opacity:1;fill-rule:nonzero;stroke:none"
         id="path26501" />
      <path
         d="m 36567.3,10575.9 c 0,-16.2 -13.2,-29.4 -29.4,-29.4 -16.2,0 -29.3,13.2 -29.3,29.4 0,16.2 13.1,29.3 29.3,29.3 16.2,0 29.4,-13.1 29.4,-29.3"
         style="fill:#a05f2a;fill-opacity:1;fill-rule:nonzero;stroke:none"
         id="path26503" />
      <path
         d="m 36498.5,11854.4 c 0,-16.1 -13,-29.1 -29.1,-29.1 -16.1,0 -29.1,13 -29.1,29.1 0,16.1 13,29.2 29.1,29.2 16.1,0 29.1,-13.1 29.1,-29.2"
         style="fill:#a05f2a;fill-opacity:1;fill-rule:nonzero;stroke:none"
         id="path26505" />
    </g>
  </g>
</svg>
