<?xml version="1.0" encoding="UTF-8" standalone="no"?>
<!-- Created with Inkscape (http://www.inkscape.org/) -->

<svg
   version="1.1"
   id="svg13201"
   width="597.80371"
   height="610.85986"
   viewBox="0 0 597.80371 610.85985"
   sodipodi:docname="17088562_Set_of_cute_fruits.eps"
   xmlns:inkscape="http://www.inkscape.org/namespaces/inkscape"
   xmlns:sodipodi="http://sodipodi.sourceforge.net/DTD/sodipodi-0.dtd"
   xmlns="http://www.w3.org/2000/svg"
   xmlns:svg="http://www.w3.org/2000/svg">
  <defs
     id="defs13205" />
  <sodipodi:namedview
     id="namedview13203"
     pagecolor="#ffffff"
     bordercolor="#000000"
     borderopacity="0.25"
     inkscape:showpageshadow="2"
     inkscape:pageopacity="0.0"
     inkscape:pagecheckerboard="0"
     inkscape:deskcolor="#d1d1d1"
     showgrid="false" />
  <g
     id="g13209"
     inkscape:groupmode="layer"
     inkscape:label="Page 1"
     transform="matrix(1.3333333,0,0,-1.3333333,-3645.3721,791.96745)">
    <g
       id="g13211"
       transform="scale(0.1)">
      <path
         d="m 30785.8,5822.5 c -32,-246.4 10.1,-704.2 2.3,-782.4 -7.8,-78.3 -206.9,-418.4 -474.7,-831.2 -181.7,-280.2 -406.7,-537 -685,-721.6 -278.5,-184.8 -826.3,-338.5 -1147.5,-431.2 -456.1,-131.6 -566.3,-293.6 -899.5,-393.7 -83.8,-25.2 -182.2,-69.9 -210.2,-84.4 -58.7,-30.3 -29.4,-261.3 50.9,-279.2 80.4,-17.9 190.5,-25.1 273.9,-71.3 83.5,-46.3 359,-245.5 794.2,-257.4 435.3,-11.8 839.8,-18 1355.2,202.8 515.4,220.8 1137.5,606.7 1416,1158.8 278.6,552 146.5,1226.1 24.2,1438.2 -122.3,212 -263.7,451.2 -212.8,744.5 22.1,127.4 44.6,234.8 48.1,277.9 3.5,43.2 -113.9,99.3 -169.3,101 -55.4,1.6 -160.2,-27.5 -165.8,-70.8"
         style="fill:#febe4a;fill-opacity:1;fill-rule:nonzero;stroke:none"
         id="path13665" />
      <path
         d="m 30769.4,5816.2 c 11.2,-262.9 49.6,-570.2 144,-815.9 -95,-340.6 -224.4,-540.4 -344.9,-953 -99.2,-339.4 -327.2,-633.8 -584.2,-876.8 -257.2,-243.2 -800.9,-502.6 -1119.2,-657.4 -452.1,-219.8 -468.2,-373.1 -797.6,-537.8 -83,-41.5 -292.7,-126.5 -289.5,-208.5 1.3,-33.5 32.3,-231.2 119.4,-235.4 87.1,-4.1 203.3,8.3 298.7,-24.8 95.4,-33.2 365,-199.1 821.3,-132.8 456.3,66.4 933.3,141.1 1431,464.6 497.8,323.5 1124.1,763.2 1314.9,1389.6 190.9,626.3 -116.1,1381.3 -282,1580.4 -165.9,199.1 -356.7,423 -356.7,738.3 0,136.9 4.1,253 0,298.7 -4.2,45.6 -136.9,82.9 -195,74.6 -58.1,-8.3 -162.2,-57.6 -160.2,-103.8"
         style="fill:#ffe063;fill-opacity:1;fill-rule:nonzero;stroke:none"
         id="path13667" />
      <path
         d="m 30925.4,5766.6 c -20.7,-489.5 224,-742.5 302.9,-896 78.8,-153.5 154,-433.7 33.1,-846.2 -170,-580.7 -410.6,-887.7 -750.7,-1165.6 -274.1,-224 -1017.4,-641.6 -1335.7,-796.4 -452.1,-219.9 -654.2,-176.3 -987.2,-277.9 -88.7,-27.1 -286.2,-78.8 -302.8,-107.9 -16.6,-29 -74.7,-141 12.4,-145.2 87.1,-4.1 203.3,8.3 298.7,-24.8 95.4,-33.2 369.1,-145.2 825.4,-78.8 456.3,66.3 916.7,145.1 1414.5,468.7 497.8,323.5 1095.1,709.3 1285.9,1335.6 190.8,626.4 -99.6,1339.8 -265.5,1538.9 -165.9,199.1 -331.8,460.4 -331.8,775.7 0,136.9 4.1,253 0,298.7 -4.2,45.6 -136.9,82.9 -195,74.6 -58.1,-8.3 -2.2,-107.3 -4.2,-153.4"
         style="fill:#ffc42a;fill-opacity:1;fill-rule:nonzero;stroke:none"
         id="path13669" />
      <path
         d="m 27816.5,1809.9 c -22.8,3.6 -49.8,-14 -37.3,-121.3 12.4,-107.4 71.6,-161.8 105.8,-155.6 34.2,6.2 35.8,144.7 9.3,196 -26.4,51.3 -55,77.2 -77.8,80.9"
         style="fill:#ab7530;fill-opacity:1;fill-rule:nonzero;stroke:none"
         id="path13671" />
      <path
         d="m 30944.6,5939.7 c -54.4,2 -178.8,-49.7 -182,-96.4 -3.1,-46.7 31.7,-92.8 162.8,-76.7 131.2,16 189.3,37.3 199.2,78.8 9.8,41.4 -96,91.2 -180,94.3"
         style="fill:#ab7530;fill-opacity:1;fill-rule:nonzero;stroke:none"
         id="path13673" />
      <path
         d="m 30094.2,1904.5 c 26.3,-13.6 153.4,10.3 178.3,51.8 24.9,41.5 -49.8,72.6 -114.1,31.1 -64.2,-41.5 -83.1,-73.2 -64.2,-82.9"
         style="fill:#ab7530;fill-opacity:1;fill-rule:nonzero;stroke:none"
         id="path13675" />
      <path
         d="m 29634.3,1916.1 c 16.2,-10.6 89.2,5.1 139,39.3 39.9,27.4 14,55.9 -63.7,27.9 -72,-25.9 -93.1,-55.6 -75.3,-67.2"
         style="fill:#ab7530;fill-opacity:1;fill-rule:nonzero;stroke:none"
         id="path13677" />
      <path
         d="m 28693.1,1942.2 c 41.1,-8 122.1,33.1 144.6,66.2 22.5,33.1 -55,52.9 -106.6,22.8 -51.5,-30.1 -74.9,-81.8 -38,-89"
         style="fill:#ab7530;fill-opacity:1;fill-rule:nonzero;stroke:none"
         id="path13679" />
      <path
         d="m 29664.5,1782.4 c -87,-39.6 -155,-139 20,-76.7 174.9,62.2 98.2,130.6 -20,76.7"
         style="fill:#ab7530;fill-opacity:1;fill-rule:nonzero;stroke:none"
         id="path13681" />
      <path
         d="m 31442,3220.8 c -16.5,-32.9 -37.3,-76.3 -19.4,-93.7 18,-17.4 63.6,1.3 85,60.2 21.4,58.9 18.7,96.4 0,100.5 -18.8,4 -45,-25.8 -65.6,-67"
         style="fill:#ab7530;fill-opacity:1;fill-rule:nonzero;stroke:none"
         id="path13683" />
      <path
         d="m 31457.6,3462.4 c -37.2,-75.4 -4.6,-130.9 50.1,-23 24.2,47.7 -15.2,93.5 -50.1,23"
         style="fill:#ab7530;fill-opacity:1;fill-rule:nonzero;stroke:none"
         id="path13685" />
      <path
         d="m 29391.9,1705.6 c 94.9,20.9 115.3,91.3 -21.7,62.8 -60.6,-12.7 -67,-82.3 21.7,-62.8"
         style="fill:#ab7530;fill-opacity:1;fill-rule:nonzero;stroke:none"
         id="path13687" />
      <path
         d="m 31266,4331.3 c -6.7,-77.5 -12,-194.4 44.1,-203.7 56.2,-9.4 70.9,99.5 65.6,171.1 -5.4,71.5 -99,157.1 -109.7,32.6"
         style="fill:#ab7530;fill-opacity:1;fill-rule:nonzero;stroke:none"
         id="path13689" />
      <path
         d="m 31001.6,4038.7 c -115.9,0 -116.1,-180 0,-180 115.8,0 116,180 0,180"
         style="fill:#ffc42a;fill-opacity:1;fill-rule:nonzero;stroke:none"
         id="path13691" />
      <path
         d="m 30654.4,3290.4 c -92.7,0 -92.8,-144 0,-144 92.6,0 92.8,144 0,144"
         style="fill:#ffc42a;fill-opacity:1;fill-rule:nonzero;stroke:none"
         id="path13693" />
      <path
         d="m 29457.2,2416.5 c -77.2,0 -77.3,-120 0,-120 77.2,0 77.4,120 0,120"
         style="fill:#ffc42a;fill-opacity:1;fill-rule:nonzero;stroke:none"
         id="path13695" />
      <path
         d="m 30834,3649.6 c -77.3,0 -77.4,-120 0,-120 77.2,0 77.3,120 0,120"
         style="fill:#ffc42a;fill-opacity:1;fill-rule:nonzero;stroke:none"
         id="path13697" />
      <path
         d="m 30977.6,4810.8 c -61.8,0 -61.9,-96 0,-96 61.8,0 61.9,96 0,96"
         style="fill:#ffc42a;fill-opacity:1;fill-rule:nonzero;stroke:none"
         id="path13699" />
      <path
         d="m 30810,4355.8 c -61.8,0 -61.9,-96 0,-96 61.8,0 61.9,96 0,96"
         style="fill:#ffc42a;fill-opacity:1;fill-rule:nonzero;stroke:none"
         id="path13701" />
      <path
         d="m 31157.2,4559.4 c -61.8,0 -61.9,-96.1 0,-96.1 61.8,0 61.9,96.1 0,96.1"
         style="fill:#ffc42a;fill-opacity:1;fill-rule:nonzero;stroke:none"
         id="path13703" />
      <path
         d="m 31037.5,4331.9 c -61.8,0 -61.9,-96 0,-96 61.7,0 61.8,96 0,96"
         style="fill:#ffc42a;fill-opacity:1;fill-rule:nonzero;stroke:none"
         id="path13705" />
      <path
         d="m 28319.9,2021.4 c -61.7,0 -61.8,-96 0,-96 61.8,0 61.9,96 0,96"
         style="fill:#ffc42a;fill-opacity:1;fill-rule:nonzero;stroke:none"
         id="path13707" />
      <path
         d="m 28523.5,2248.9 c -61.8,0 -61.9,-96 0,-96 61.7,0 61.8,96 0,96"
         style="fill:#ffc42a;fill-opacity:1;fill-rule:nonzero;stroke:none"
         id="path13709" />
      <path
         d="m 28559.4,2081.2 c -46.4,0 -46.4,-72 0,-72 46.3,0 46.4,72 0,72"
         style="fill:#ffc42a;fill-opacity:1;fill-rule:nonzero;stroke:none"
         id="path13711" />
      <path
         d="m 28810.8,2284.8 c -92.7,0 -92.8,-144 0,-144 92.6,0 92.8,144 0,144"
         style="fill:#ffc42a;fill-opacity:1;fill-rule:nonzero;stroke:none"
         id="path13713" />
    </g>
  </g>
</svg>
