<?xml version="1.0" encoding="UTF-8" standalone="no"?>
<!-- Created with Inkscape (http://www.inkscape.org/) -->

<svg
   version="1.1"
   id="svg8459"
   width="66.57663"
   height="64.761719"
   viewBox="0 0 66.57663 64.761719"
   sodipodi:docname="13802625_5367797.eps"
   xmlns:inkscape="http://www.inkscape.org/namespaces/inkscape"
   xmlns:sodipodi="http://sodipodi.sourceforge.net/DTD/sodipodi-0.dtd"
   xmlns="http://www.w3.org/2000/svg"
   xmlns:svg="http://www.w3.org/2000/svg">
  <g
     id="g8467"
     inkscape:groupmode="layer"
     inkscape:label="Page 1"
     transform="matrix(1.3333333,0,0,-1.3333333,-350.65537,242.4217)">
    <g
       id="g8469"
       transform="scale(0.1)">
      <path
         d="m 3113.51,1654.08 c -13.69,44.94 -39.37,86.61 -75.42,116.75 -36.04,30.13 -82.62,48.21 -129.59,47.3 -89.15,-2.38 -188.61,-42.63 -237.61,-117.14 -38.26,-58.18 -53.26,-133.76 -29.69,-199.29 9.27,-25.8 51.31,-99.15 98.97,-130.28 113.82,-60.3 215.38,-41.49 280.84,-4.86 43.97,24.61 84.06,83.68 99.75,131.56 15.69,47.88 7.44,107.76 -7.25,155.96"
         style="fill:#3d4998;fill-opacity:1;fill-rule:nonzero;stroke:none"
         id="path8659"
         inkscape:export-filename="individual fruits/blueberry.svg"
         inkscape:export-xdpi="96"
         inkscape:export-ydpi="96" />
      <path
         d="m 2817.97,1556.46 c -10.42,36.01 1.46,68.63 19.52,101.48 -55.49,16.01 -81.75,60.76 -81.75,60.76 0,0 48.99,17.16 85.37,17.16 8.26,0 15.88,-0.89 22.12,-3.06 6.01,25.45 12.02,53.5 31.58,70.85 23.51,-11.79 41.24,-43.73 46.99,-69.39 7.5,2.65 17.1,3.65 27.29,3.65 30.65,0 66.61,-9 66.61,-9 0,0 -25.59,-52.04 -59.15,-67.39 18.07,-24.25 34.39,-55.51 30.85,-85.53 -5.27,-0.85 -10.59,-1.27 -15.91,-1.27 -35.15,0 -70.21,18.19 -89.58,47.68 -14.22,-34.36 -47.2,-60.26 -83.94,-65.94 m 90.3,166.19 c -0.17,0 -0.34,0 -0.51,-0.01 -13.63,-0.36 -28.85,-6.52 -36.35,-17.92 -5.85,-8.89 -8.14,-20.46 -4.54,-30.49 1.42,-3.94 7.85,-15.16 15.14,-19.93 8.09,-4.29 15.78,-5.96 22.69,-5.96 7.97,0 14.91,2.22 20.28,5.22 6.73,3.76 12.86,12.8 15.26,20.13 2.39,7.32 1.13,16.48 -1.11,23.85 -2.1,6.88 -6.03,13.26 -11.55,17.87 -5.37,4.5 -12.3,7.24 -19.31,7.24"
         style="fill:#2b377e;fill-opacity:1;fill-rule:nonzero;stroke:none"
         id="path8661" />
      <path
         d="m 2904.7,1648.34 c -6.91,0 -14.6,1.67 -22.69,5.96 -7.29,4.77 -13.72,15.99 -15.14,19.93 -3.6,10.03 -1.31,21.6 4.54,30.49 7.5,11.4 22.72,17.56 36.35,17.92 0.17,0.01 0.34,0.01 0.51,0.01 7.01,0 13.94,-2.74 19.31,-7.24 5.52,-4.61 9.45,-10.99 11.55,-17.87 2.24,-7.37 3.5,-16.53 1.11,-23.85 -2.4,-7.33 -8.53,-16.37 -15.26,-20.13 -5.37,-3 -12.31,-5.22 -20.28,-5.22"
         style="fill:#232a57;fill-opacity:1;fill-rule:nonzero;stroke:none"
         id="path8663" />
      <path
         d="m 2703.32,1703.21 c -3.69,-0.29 -5.82,-2.21 -8.32,-4.8 -2.59,-2.69 -5.01,-5.44 -7.29,-8.39 -4.1,-5.33 -7.78,-10.82 -11.14,-16.65 -7.1,-12.32 -12.28,-26.01 -16.47,-39.58 -8.23,-26.64 -11.18,-55.49 -9.29,-83.28 0.53,-8.03 1.51,-16.05 2.83,-23.99 0.63,-3.81 1.37,-7.61 2.2,-11.38 1.06,-4.82 2.11,-9.43 6,-12.82 4.71,-4.09 11.37,-2.37 13.42,3.54 2.41,6.95 -1.09,15.17 -2.36,22.16 -1.29,7.04 -1.83,11.18 -2.43,18.29 -1.13,13.3 -1.08,26.68 0.12,39.97 2.14,23.78 9.54,50.88 19.2,73.3 2.83,6.58 5.77,13.37 8.98,20.32 1.62,3.52 3.23,7.05 4.82,10.58 1.61,3.57 3.43,6.64 2.46,10.65 -0.27,1.12 -1.53,2.18 -2.73,2.08"
         style="fill:#ffffff;fill-opacity:1;fill-rule:nonzero;stroke:none"
         id="path8665" />
      <path
         d="m 2680.25,1483.28 c -2.12,-1.6 -3.53,-3.44 -3.9,-6.15 -0.13,-1 -0.08,-1.8 0.01,-2.8 l 0.34,2.41 c -0.87,-2.57 -0.4,-5 0.38,-7.47 l -0.37,2.71 c 0.1,-1.66 0.3,-3.19 0.9,-4.71 0.62,-1.55 1.27,-3.08 1.93,-4.62 0.64,-1.51 1.46,-2.92 2.31,-4.33 0.83,-1.39 1.69,-2.78 2.62,-4.12 0.85,-1.25 2.12,-2.89 3.24,-4.09 1.24,-1.32 2.86,-2.37 4.41,-3.34 0.97,-0.41 1.95,-0.82 2.93,-1.23 1.63,-0.51 3.26,-0.58 4.89,-0.22 2.57,0.35 5.22,1.4 7.04,3.38 1.43,1.56 2.5,3.39 3.14,5.41 0.99,3.01 0.27,6.74 -1.23,9.44 -2.08,3.77 -5.14,6.38 -8.13,9.36 -1.11,1.1 -2.16,2.26 -3.31,3.33 -1.73,1.59 -3.32,3.4 -5.42,4.53 l 2.06,-1.59 c -1.84,1.7 -3.62,3.46 -6.23,3.9 l 2.17,-0.92 c -0.81,0.55 -1.5,1.02 -2.41,1.41 -1.17,0.49 -2.47,0.78 -3.76,0.68 -1.15,-0.08 -2.65,-0.25 -3.61,-0.97"
         style="fill:#ffffff;fill-opacity:1;fill-rule:nonzero;stroke:none"
         id="path8667" />
      <path
         d="m 3113.51,1654.08 c -0.02,0.06 -0.04,0.13 -0.06,0.2 0.02,-0.07 0.04,-0.13 0.06,-0.2"
         style="fill:#c7c8de;fill-opacity:1;fill-rule:nonzero;stroke:none"
         id="path8669" />
      <path
         d="m 2888.55,1332.45 c -45.21,0.01 -95.48,10.94 -148.38,38.97 v 0 c -17.72,11.58 -34.66,29 -49.42,47.63 40.45,-17.25 82.4,-28.57 124.43,-28.57 6.48,0 12.97,0.27 19.45,0.82 95.15,8.21 188.52,59.95 238.54,144.57 22.96,38.84 35.24,84.52 36.28,130.12 1.38,-3.89 2.79,-7.77 4,-11.71 0.02,-0.07 0.04,-0.14 0.06,-0.2 v 0 c 9.1,-29.84 15.72,-64.16 15.73,-97.34 0,-20.41 -2.51,-40.38 -8.48,-58.62 -15.69,-47.88 -55.78,-106.95 -99.75,-131.56 -35.03,-19.61 -80.4,-34.11 -132.46,-34.11"
         style="fill:#303e88;fill-opacity:1;fill-rule:nonzero;stroke:none"
         id="path8671" />
    </g>
  </g>
</svg>
