<?xml version="1.0" encoding="UTF-8" standalone="no"?>
<!-- Created with Inkscape (http://www.inkscape.org/) -->

<svg
   version="1.1"
   id="svg26267"
   width="675.79248"
   height="730.42529"
   viewBox="0 0 675.79248 730.4253"
   sodipodi:docname="fruit_set.eps"
   xmlns:inkscape="http://www.inkscape.org/namespaces/inkscape"
   xmlns:sodipodi="http://sodipodi.sourceforge.net/DTD/sodipodi-0.dtd"
   xmlns="http://www.w3.org/2000/svg"
   xmlns:svg="http://www.w3.org/2000/svg">
  <g
     id="g26275"
     inkscape:groupmode="layer"
     inkscape:label="Page 1"
     transform="matrix(1.3333333,0,0,-1.3333333,-596.05896,2007.9212)">
    <g
       id="g26277"
       transform="scale(0.1)">
      <path
         d="m 8155.44,11493.7 c -30.63,0 -60.59,15.2 -78.25,42.9 -212.3,333.8 -351.05,719.5 -412.37,1146.5 -48.74,339.4 -48.9,705.4 -0.49,1087.9 41.28,326.2 110.15,606.4 169.52,807 -288.57,-262.8 -553.78,-550.3 -791.01,-857.9 -245.04,-317.7 -461.01,-657.4 -641.93,-1009.7 -246.8,-480.6 -376.19,-890.1 -410.13,-1039.5 -11.33,-49.9 -60.93,-81.2 -110.8,-69.9 -49.88,11.3 -81.17,60.9 -69.91,110.7 4.15,18.4 105.24,457.1 422.85,1077.1 186,363.2 408.18,713.3 660.39,1040.8 315.21,409.2 678.47,784 1079.7,1113.8 32.84,27 79.85,28.2 114,2.9 34.15,-25.4 46.69,-70.7 30.4,-110 -1.89,-4.5 -191.37,-467.6 -269.9,-1093.5 -45.84,-365.3 -45.46,-713.9 1.11,-1036.2 57.76,-399.7 187.26,-759.9 384.9,-1070.5 27.46,-43.2 14.72,-100.4 -28.44,-127.9 -15.42,-9.8 -32.63,-14.5 -49.64,-14.5"
         style="fill:#5b9b00;fill-opacity:1;fill-rule:nonzero;stroke:none"
         id="path26281" />
      <path
         d="m 6170.05,11814.2 c -14.49,52.7 -64.35,72.5 -113.96,64.7 -45.23,-7.1 -87.77,-24.6 -128.65,-45.2 -6.99,6.5 -13.97,13 -20.96,19.5 -6.55,6.1 -13.19,12.2 -19.53,18.6 -2.95,2.9 -5.71,6.1 -8.54,9.1 -0.43,0.7 -0.92,1.5 -1.54,2.5 -25.69,41.1 -83.81,60.9 -126.74,33.3 -41.13,-26.6 -60.75,-82.8 -33.24,-126.8 27.52,-43.9 68.71,-77.1 106.22,-112.2 10.55,-9.8 23.37,-17.1 37.07,-21.5 29.21,-25.4 72.82,-30.2 108.02,-10.7 48.93,27.1 83.72,46.3 137.15,54.7 49.45,7.8 76.88,69.7 64.7,114"
         style="fill:#578900;fill-opacity:1;fill-rule:nonzero;stroke:none"
         id="path26283" />
      <path
         d="m 8182.43,12101.7 c -39.09,38.2 -92.14,30.2 -131.03,-1.6 -35.47,-28.9 -63.39,-65.5 -88.3,-103.9 -9.32,2.1 -18.64,4.2 -27.96,6.3 -8.75,2 -17.54,3.9 -26.22,6.2 -4.03,1.1 -8,2.4 -11.99,3.6 -0.73,0.4 -1.56,0.8 -2.59,1.4 -42.89,22.5 -103.09,10.3 -126.22,-35.2 -22.14,-43.6 -10.71,-102.1 35.2,-126.2 45.92,-24.1 98.24,-32 148.29,-43.4 14.07,-3.1 28.81,-2.9 42.88,0.1 38.02,-7.2 78.13,10.6 98.69,45.2 28.58,48.1 48.93,82.3 90.82,116.5 38.79,31.7 31.31,98.9 -1.57,131"
         style="fill:#578900;fill-opacity:1;fill-rule:nonzero;stroke:none"
         id="path26285" />
      <path
         d="m 9524.46,10766.6 c -98.12,-607.2 -669.88,-1019.9 -1277.08,-921.8 -607.2,98.1 -1019.89,669.9 -921.78,1277.1 98.11,607.2 669.88,1019.9 1277.08,921.8 607.19,-98.2 1019.89,-669.9 921.78,-1277.1"
         style="fill:#ef0000;fill-opacity:1;fill-rule:nonzero;stroke:none"
         id="path26287" />
      <path
         d="m 8977.48,11911.5 c 215.47,-241.4 324.28,-578.9 267.74,-928.8 -98.12,-607.2 -656.85,-1022 -1247.96,-926.5 -154.41,25 -295.72,82.3 -418.54,164.2 165.4,-193.6 397.62,-331.8 668.66,-375.6 607.2,-98.1 1178.97,314.6 1277.08,921.8 76.16,471.3 -155.51,921.2 -546.98,1144.9"
         style="fill:#d60000;fill-opacity:1;fill-rule:nonzero;stroke:none"
         id="path26289" />
      <path
         d="m 8383.6,11588 c 17.11,-2.8 33.23,8.8 36,26 2.76,17.1 -8.87,33.2 -25.99,36 -17.11,2.7 -33.23,-8.9 -36,-26 -2.76,-17.2 8.87,-33.3 25.99,-36"
         style="fill:#d60000;fill-opacity:1;fill-rule:nonzero;stroke:none"
         id="path26291" />
      <path
         d="m 8748.18,11227.7 c 25.81,-4.1 50.12,13.4 54.3,39.2 4.17,25.8 -13.38,50.1 -39.19,54.3 -25.82,4.2 -50.13,-13.4 -54.3,-39.2 -4.17,-25.8 13.37,-50.1 39.19,-54.3"
         style="fill:#d60000;fill-opacity:1;fill-rule:nonzero;stroke:none"
         id="path26293" />
      <path
         d="m 8345.13,10882.1 c 12.9,-2.1 25.06,6.6 27.15,19.6 2.08,12.9 -6.69,25 -19.6,27.1 -12.91,2.1 -25.06,-6.7 -27.15,-19.6 -2.08,-12.9 6.69,-25 19.6,-27.1"
         style="fill:#d60000;fill-opacity:1;fill-rule:nonzero;stroke:none"
         id="path26295" />
      <path
         d="m 7813.89,10827.1 c 31.99,-5.1 62.11,16.6 67.28,48.6 5.17,32 -16.58,62.1 -48.56,67.3 -31.99,5.1 -62.11,-16.6 -67.28,-48.6 -5.16,-32 16.57,-62.1 48.56,-67.3"
         style="fill:#d60000;fill-opacity:1;fill-rule:nonzero;stroke:none"
         id="path26297" />
      <path
         d="m 8397.92,10266.7 c 25.25,-4.1 49.04,13.1 53.12,38.3 4.08,25.3 -13.09,49.1 -38.34,53.2 -25.25,4 -49.03,-13.1 -53.12,-38.4 -4.07,-25.2 13.09,-49 38.34,-53.1"
         style="fill:#d60000;fill-opacity:1;fill-rule:nonzero;stroke:none"
         id="path26299" />
      <path
         d="m 8894.38,10612.9 c 32.27,-5.2 62.66,16.7 67.87,49 5.21,32.3 -16.72,62.7 -48.99,67.9 -32.27,5.2 -62.65,-16.7 -67.86,-49 -5.22,-32.3 16.71,-62.7 48.98,-67.9"
         style="fill:#d60000;fill-opacity:1;fill-rule:nonzero;stroke:none"
         id="path26301" />
      <path
         d="m 7910.85,11646.6 c 0,0 -212.93,-259.6 -279.89,-544.9 -66.95,-285.3 -19.03,-530.7 -19.03,-530.7 0,0 -166.11,262.4 -102.53,578.5 63.58,316.1 319.34,608.4 401.45,497.1"
         style="fill:#ff8a8a;fill-opacity:1;fill-rule:nonzero;stroke:none"
         id="path26303" />
      <path
         d="m 6694.56,10781 c 47.49,-613.3 -411.15,-1148.9 -1024.38,-1196.4 -613.25,-47.5 -1148.87,411.2 -1196.36,1024.4 -47.48,613.2 411.15,1148.9 1024.39,1196.4 613.24,47.4 1148.86,-411.2 1196.35,-1024.4"
         style="fill:#ef0000;fill-opacity:1;fill-rule:nonzero;stroke:none"
         id="path26305" />
      <path
         d="m 5893.58,11765.1 c 266.22,-184 451.37,-486.4 478.73,-839.8 47.49,-613.2 -397.97,-1147.8 -994.97,-1194.1 -155.95,-12 -306.78,10.5 -445.42,61.2 206.3,-149.3 464.52,-229 738.26,-207.8 613.23,47.5 1071.87,583.1 1024.38,1196.4 -36.86,476 -367.88,858.8 -800.98,984.1"
         style="fill:#d60000;fill-opacity:1;fill-rule:nonzero;stroke:none"
         id="path26307" />
      <path
         d="m 5392.48,11310.9 c 17.29,1.4 30.22,16.5 28.88,33.7 -1.34,17.3 -16.44,30.3 -33.73,28.9 -17.28,-1.3 -30.21,-16.4 -28.88,-33.7 1.35,-17.3 16.45,-30.2 33.73,-28.9"
         style="fill:#d60000;fill-opacity:1;fill-rule:nonzero;stroke:none"
         id="path26309" />
      <path
         d="m 5831.58,11046.6 c 26.07,2 45.56,24.8 43.55,50.8 -2.02,26.1 -24.79,45.6 -50.86,43.6 -26.08,-2 -45.57,-24.8 -43.55,-50.9 2.01,-26.1 24.78,-45.5 50.86,-43.5"
         style="fill:#d60000;fill-opacity:1;fill-rule:nonzero;stroke:none"
         id="path26311" />
      <path
         d="m 5521.16,10615.8 c 13.03,1 22.78,12.4 21.77,25.4 -1.01,13 -12.39,22.8 -25.43,21.8 -13.03,-1 -22.78,-12.4 -21.77,-25.5 1,-13 12.39,-22.7 25.43,-21.7"
         style="fill:#d60000;fill-opacity:1;fill-rule:nonzero;stroke:none"
         id="path26313" />
      <path
         d="m 5017.75,10437.4 c 32.3,2.5 56.47,30.7 53.96,63 -2.5,32.4 -30.71,56.5 -63.02,54 -32.3,-2.5 -56.46,-30.7 -53.96,-63 2.5,-32.3 30.71,-56.5 63.02,-54"
         style="fill:#d60000;fill-opacity:1;fill-rule:nonzero;stroke:none"
         id="path26315" />
      <path
         d="m 5717.23,10030.1 c 25.51,2 44.58,24.3 42.61,49.8 -1.98,25.5 -24.25,44.6 -49.76,42.6 -25.5,-2 -44.58,-24.3 -42.6,-49.8 1.97,-25.5 24.25,-44.6 49.75,-42.6"
         style="fill:#d60000;fill-opacity:1;fill-rule:nonzero;stroke:none"
         id="path26317" />
      <path
         d="m 6118.31,10483.4 c 32.59,2.5 56.96,31 54.43,63.6 -2.52,32.6 -30.98,57 -63.57,54.4 -32.59,-2.5 -56.96,-31 -54.44,-63.5 2.53,-32.6 30.99,-57 63.58,-54.5"
         style="fill:#d60000;fill-opacity:1;fill-rule:nonzero;stroke:none"
         id="path26319" />
      <path
         d="m 4932.22,11319.1 c 0,0 -162.24,-336.3 -159.96,-662.2 2.27,-325.8 118.28,-578.6 118.28,-578.6 0,0 -248.21,240.2 -262.18,598.5 -13.96,358.2 186,741.1 303.86,642.3"
         style="fill:#ff8a8a;fill-opacity:1;fill-rule:nonzero;stroke:none"
         id="path26321" />
      <path
         d="m 8105.33,14892.5 c 0,0 -356.46,-691.2 -1456.26,-1351.9 -1099.8,-660.8 -1969.21,-247.8 -1969.21,-247.8 0,0 617.28,995.4 1504.08,1438.8 886.8,443.4 1530.16,373.9 1921.39,160.9"
         style="fill:#69b200;fill-opacity:1;fill-rule:nonzero;stroke:none"
         id="path26323" />
      <path
         d="m 6359.81,14710 c 445.24,222.6 832.89,323.9 1162.03,345.1 -356,24.9 -802.57,-55.8 -1337.9,-323.5 -886.8,-443.4 -1504.08,-1438.8 -1504.08,-1438.8 0,0 43.5,-20.7 123.28,-45.3 165.71,245.6 758.87,1063.6 1556.67,1462.5"
         style="fill:#9cd832;fill-opacity:1;fill-rule:nonzero;stroke:none"
         id="path26325" />
      <path
         d="m 7848.27,14997.8 c -12.24,-19 -25.42,-38.9 -39.51,-59.7 -205.49,-57.7 -713.86,-212.3 -1107.52,-428.2 -505.35,-277.1 -1219.35,-824.8 -1219.35,-824.8 0,0 655.32,433.6 1326.94,772.7 379.66,191.7 704.07,301 914.4,359.9 -219.04,-295.4 -594.32,-710.2 -1197.02,-1131.4 -549.65,-384.1 -1059.65,-491.9 -1438.51,-501.2 357.97,-50 920.55,-29.5 1561.37,355.5 1099.81,660.7 1456.26,1351.9 1456.26,1351.9 -76.14,41.4 -161.88,77.4 -257.06,105.3"
         style="fill:#578900;fill-opacity:1;fill-rule:nonzero;stroke:none"
         id="path26327" />
    </g>
  </g>
</svg>
