<?xml version="1.0" encoding="UTF-8" standalone="no"?>
<!-- Created with Inkscape (http://www.inkscape.org/) -->

<svg
   version="1.1"
   id="svg26267"
   width="617.93359"
   height="854.81323"
   viewBox="0 0 617.93359 854.81324"
   sodipodi:docname="fruit_set.eps"
   xmlns:inkscape="http://www.inkscape.org/namespaces/inkscape"
   xmlns:sodipodi="http://sodipodi.sourceforge.net/DTD/sodipodi-0.dtd"
   xmlns="http://www.w3.org/2000/svg"
   xmlns:svg="http://www.w3.org/2000/svg">
  <defs
     id="defs26271" />
  <sodipodi:namedview
     id="namedview26269"
     pagecolor="#ffffff"
     bordercolor="#000000"
     borderopacity="0.25"
     inkscape:showpageshadow="2"
     inkscape:pageopacity="0.0"
     inkscape:pagecheckerboard="0"
     inkscape:deskcolor="#d1d1d1"
     showgrid="false" />
  <g
     id="g26275"
     inkscape:groupmode="layer"
     inkscape:label="Page 1"
     transform="matrix(1.3333333,0,0,-1.3333333,-5917.9731,1105.96)">
    <g
       id="g26277"
       transform="scale(0.1)">
      <path
         d="m 47458.7,6612.9 c -175.5,479.1 -98.7,1365.8 285,1681.8 0,0 -811.4,-173.3 -1052.6,-1019.3 -241.2,846 -943,815.4 -943,815.4 383.8,-315.9 350.9,-998.8 175.4,-1477.9 -175.4,-479 -1458.3,-1997.7 -1249.9,-3343.1 208.3,-1345.4 2017.5,-1386.2 2017.5,-1386.2 0,0 1809.2,40.8 2017.6,1386.2 208.3,1345.4 -1074.6,2864.1 -1250,3343.1"
         style="fill:#f2116d;fill-opacity:1;fill-rule:nonzero;stroke:none"
         id="path26765"
         inkscape:export-filename="../individual fruits/dragonfruit2.svg"
         inkscape:export-xdpi="96"
         inkscape:export-ydpi="96" />
      <path
         d="m 45421.9,5220.7 c -37,73.7 -87.2,163.7 -151.8,259.3 54.6,97.9 109.5,192.2 163.1,282.2 -10.9,-166.8 2.6,-358.4 15.4,-487 -9,-18.1 -17.9,-36.3 -26.7,-54.5"
         style="fill:#e30f6a;fill-opacity:1;fill-rule:nonzero;stroke:none"
         id="path26767" />
      <path
         d="m 44675.1,3259.8 c 0,0.4 -0.1,0.8 -0.1,1.2 0,-0.4 0.1,-0.8 0.1,-1.2 m -0.4,2.8 c -0.2,0.9 -0.3,1.9 -0.5,2.9 0.2,-0.9 0.4,-2 0.5,-2.9 m -0.6,3.8 c -0.2,1.2 -0.4,2.3 -0.5,3.4 -0.2,1.3 -0.4,2.6 -0.6,3.9 0.2,-1.3 0.3,-2.6 0.6,-3.9 0.1,-1.1 0.3,-2.2 0.5,-3.4 m -1.2,7.9 c -0.2,1.1 -0.4,2.1 -0.5,3.2 0.1,-1.1 0.3,-2.1 0.5,-3.2 m -0.7,4.2 c -0.1,0.9 -0.3,1.9 -0.4,2.8 0.2,-1 0.3,-1.8 0.4,-2.8 m -0.5,3.9 c -0.2,0.9 -0.3,1.8 -0.5,2.8 0.2,-0.9 0.3,-1.9 0.5,-2.8 m -0.6,3.8 c -0.1,1 -0.3,1.9 -0.4,2.8 0.1,-0.9 0.3,-1.9 0.4,-2.8 m -0.6,3.9 c -0.1,1 -0.3,1.9 -0.4,2.9 0.2,-1 0.3,-1.9 0.4,-2.9 m -0.5,3.8 c -0.2,1 -0.3,2 -0.4,3.1 0.1,-1 0.2,-2.1 0.4,-3.1 m -0.5,3.8 c -0.2,1.2 -0.4,2.3 -0.5,3.5 0.1,-1.1 0.3,-2.4 0.5,-3.5 m -0.6,3.7 c -1.2,9.2 -2.4,18.4 -3.5,27.6 1.1,-9.2 2.3,-18.3 3.5,-27.6 m -3.6,27.7 c -0.3,2.6 -0.6,5.2 -0.9,7.8 0.3,-2.6 0.6,-5.1 0.9,-7.8 m -0.9,7.9 c -1.2,10.5 -2.4,21 -3.5,31.6 1.1,-10.6 2.2,-21.1 3.5,-31.6 m -3.5,31.8 c -0.1,1.2 -0.2,2.4 -0.4,3.6 0.2,-1.1 0.3,-2.5 0.4,-3.6 m -0.4,4.1 c -0.1,1.1 -0.2,2.3 -0.3,3.4 0.1,-1.2 0.2,-2.3 0.3,-3.4 m -0.4,4 c -0.1,1.1 -0.2,2.2 -0.3,3.3 0.1,-1.2 0.2,-2.1 0.3,-3.3 m -0.4,3.9 c -0.1,1.1 -0.2,2.1 -0.3,3.2 0.1,-1.1 0.2,-2.1 0.3,-3.2 m -0.3,4 c -0.1,1.1 -0.2,2.2 -0.3,3.3 0.1,-1.1 0.2,-2.2 0.3,-3.3 m -0.4,3.8 c -0.1,1.3 -0.2,2.5 -0.3,3.8 0.1,-1.2 0.2,-2.6 0.3,-3.8 m -0.3,3.9 c -0.4,3.9 -0.7,7.8 -1,11.7 0.3,-3.9 0.6,-7.9 1,-11.7 m -1.1,12.7 c -0.1,0.9 -0.2,1.8 -0.3,2.8 0.1,-1 0.2,-1.8 0.3,-2.8 m -0.4,4.2 c 0,0.8 -0.1,1.6 -0.2,2.4 0.1,-0.9 0.2,-1.5 0.2,-2.4 m -0.3,4 c 0,0.7 -0.1,1.4 -0.2,2.1 0.1,-0.7 0.2,-1.4 0.2,-2.1 m -0.3,4 c 0,0.6 -0.1,1.2 -0.1,1.9 0,-0.7 0.1,-1.3 0.1,-1.9 m -0.3,3.9 c 0,0.5 -0.1,1.1 -0.1,1.6 0,-0.5 0.1,-1 0.1,-1.6 m -0.3,3.8 c 0,0.5 0,1 -0.1,1.6 0.1,-0.5 0.1,-1.1 0.1,-1.6 m -0.2,3.9 c -0.1,0.4 -0.1,0.8 -0.1,1.1 0,-0.4 0,-0.7 0.1,-1.1 m -0.3,3.9 c 0,0.2 0,0.3 -0.1,0.5 0.1,-0.1 0.1,-0.4 0.1,-0.5"
         style="fill:#edcddf;fill-opacity:1;fill-rule:nonzero;stroke:none"
         id="path26769" />
      <path
         d="m 44938.4,3073.1 c -54.3,0 -139.5,21.6 -235.4,53.4 -11.1,42.9 -20.4,87.3 -27.9,133.3 0,0.4 -0.1,0.8 -0.1,1.2 -0.1,0.5 -0.2,1 -0.3,1.6 -0.1,0.9 -0.3,2 -0.5,2.9 0,0.3 -0.1,0.6 -0.1,0.9 -0.2,1.2 -0.4,2.3 -0.5,3.4 -0.3,1.3 -0.4,2.6 -0.6,3.9 -0.1,0.2 -0.1,0.4 -0.1,0.6 -0.2,1.1 -0.4,2.1 -0.5,3.2 -0.1,0.3 -0.1,0.6 -0.2,1 -0.1,1 -0.2,1.8 -0.4,2.8 0,0.4 -0.1,0.7 -0.1,1.1 -0.2,0.9 -0.3,1.9 -0.5,2.8 0,0.3 -0.1,0.7 -0.1,1 -0.1,0.9 -0.3,1.9 -0.4,2.8 -0.1,0.4 -0.1,0.7 -0.2,1.1 -0.1,1 -0.2,1.9 -0.4,2.9 0,0.3 -0.1,0.6 -0.1,0.9 -0.2,1 -0.3,2.1 -0.4,3.1 -0.1,0.2 -0.1,0.4 -0.1,0.7 -0.2,1.1 -0.4,2.4 -0.5,3.5 0,0.1 -0.1,0.2 -0.1,0.2 -1.2,9.3 -2.4,18.4 -3.5,27.6 l -0.1,0.1 c -0.3,2.7 -0.6,5.2 -0.9,7.8 0,0.1 0,0.1 0,0.1 -1.3,10.5 -2.4,21 -3.5,31.6 0,0 0,0.1 0,0.2 -0.1,1.1 -0.2,2.5 -0.4,3.6 0,0.2 0,0.3 0,0.5 -0.1,1.1 -0.2,2.2 -0.3,3.4 -0.1,0.2 -0.1,0.4 -0.1,0.6 -0.1,1.2 -0.2,2.1 -0.3,3.3 0,0.2 0,0.4 -0.1,0.6 -0.1,1.1 -0.2,2.1 -0.3,3.2 0,0.3 0,0.5 0,0.8 -0.1,1.1 -0.2,2.2 -0.3,3.3 -0.1,0.2 -0.1,0.3 -0.1,0.5 -0.1,1.2 -0.2,2.6 -0.3,3.8 0,0 0,0 0,0.1 -0.4,3.8 -0.7,7.8 -1,11.7 -0.1,0.3 -0.1,0.6 -0.1,1 -0.1,1 -0.2,1.8 -0.3,2.8 0,0.5 0,0.9 -0.1,1.4 0,0.9 -0.1,1.5 -0.2,2.4 0,0.5 0,1.1 -0.1,1.6 0,0.7 -0.1,1.4 -0.2,2.1 0,0.6 0,1.3 -0.1,1.9 0,0.6 -0.1,1.2 -0.1,1.9 -0.1,0.6 -0.1,1.3 -0.2,2 0,0.6 -0.1,1.1 -0.1,1.6 -0.1,0.8 -0.1,1.5 -0.2,2.2 0,0.5 0,1.1 -0.1,1.6 0,0.7 -0.1,1.5 -0.1,2.3 -0.1,0.4 -0.1,0.7 -0.1,1.1 -0.1,0.9 -0.1,1.9 -0.2,2.8 0,0.1 0,0.4 -0.1,0.5 -17.3,255.9 14.6,516.3 78.3,772.9 0.1,-0.5 121.7,-794.7 254.6,-1056.7 27.9,-54.8 4.5,-76.5 -49.9,-76.5"
         style="fill:#e30f6a;fill-opacity:1;fill-rule:nonzero;stroke:none"
         id="path26771" />
      <path
         d="m 46449.9,5043.6 c 0,0 -356.4,203.8 -389.3,558.9 -32.9,355.1 389.3,960 389.3,960 0,0 383.7,-677.3 400.2,-1006 16.4,-328.8 -400.2,-512.9 -400.2,-512.9"
         style="fill:#e30f6a;fill-opacity:1;fill-rule:nonzero;stroke:none"
         id="path26773" />
      <path
         d="m 47727.3,3982.8 c -73.2,270.7 -385.5,697.8 -385.5,697.8 0,0 -307.5,-341.5 -377.2,-612.6 -5.5,21.7 -9.6,44.1 -12,67.3 -33,317.7 389.2,859 389.2,859 0,0 383.8,-606 400.2,-900.2 2.2,-39.5 -3.4,-76.6 -14.7,-111.3"
         style="fill:#e30f6a;fill-opacity:1;fill-rule:nonzero;stroke:none"
         id="path26775" />
      <path
         d="m 45975.6,3046.6 c 0,0 -356.4,185.3 -389.3,508.2 -32.9,322.8 389.3,872.8 389.3,872.8 0,0 383.7,-615.8 400.2,-914.7 16.4,-298.9 -400.2,-466.3 -400.2,-466.3"
         style="fill:#e30f6a;fill-opacity:1;fill-rule:nonzero;stroke:none"
         id="path26777" />
      <path
         d="m 46583.6,2528.5 c -1.6,6.2 -2.9,12.5 -3.8,18.9 -26.8,180.3 317.6,487.4 317.6,487.4 0,0 279.2,-306.6 321.6,-481.3 -118.6,135.2 -292.3,272.9 -292.3,272.9 0,0 -238.6,-153.8 -343.1,-297.9"
         style="fill:#e30f6a;fill-opacity:1;fill-rule:nonzero;stroke:none"
         id="path26779" />
      <path
         d="m 47801.5,5069 515.5,-408.6 c 0,0 -61.8,358.6 -135.1,692.1 -78.8,146.9 -159.6,286.8 -237.5,417.4 -75.1,-314.4 -142.9,-700.9 -142.9,-700.9"
         style="fill:#d80e6a;fill-opacity:1;fill-rule:nonzero;stroke:none"
         id="path26781" />
      <path
         d="m 47458.7,6612.9 c -6.4,17.4 -12.4,35.4 -18.1,53.8 -47,-199.8 -123,-536.5 -113,-580.5 7.4,-32.3 122.7,141.4 233.5,318.6 -46.5,82.2 -82,152.3 -102.4,208.1"
         style="fill:#d80e6a;fill-opacity:1;fill-rule:nonzero;stroke:none"
         id="path26783" />
      <path
         d="m 48731.4,3590.4 c -1.5,195.8 -29.5,393.2 -76.3,588.7 -5.3,-217.8 -338.1,-648.9 -338.1,-648.9 206.8,-56.7 336.2,-22.3 414.4,60.2"
         style="fill:#d80e6a;fill-opacity:1;fill-rule:nonzero;stroke:none"
         id="path26785" />
      <path
         d="m 45503.2,5036.5 c 0,0 -204.7,584.4 -701.7,930.9 0,0 146.2,-727.1 95,-1406.5 0,0 255.9,-27.2 606.7,475.6"
         style="fill:#f2116d;fill-opacity:1;fill-rule:nonzero;stroke:none"
         id="path26787" />
      <path
         d="m 47768,5029.5 c 0,0 207.6,648.4 706.3,1031.1 0,0 -149.7,-807.2 -101.9,-1562.5 0,0 -256,-29 -604.4,531.4"
         style="fill:#f2116d;fill-opacity:1;fill-rule:nonzero;stroke:none"
         id="path26789" />
      <path
         d="m 47322.4,6065.4 c 0,0 141,601.4 479.1,956.7 0,0 -101.9,-748.7 -70,-1449 0,0 -173.5,-27.1 -409.1,492.3"
         style="fill:#f2116d;fill-opacity:1;fill-rule:nonzero;stroke:none"
         id="path26791" />
      <path
         d="m 45057.3,3018.4 c 0,0 -409.3,801.8 -672.5,1073.6 0,0 265,-919.6 358.2,-1095.1 l 378.3,-109.3 -64,130.8"
         style="fill:#f2116d;fill-opacity:1;fill-rule:nonzero;stroke:none"
         id="path26793" />
      <path
         d="m 48281,3489.8 c 0,0 402.1,473.1 738.3,541 0,0 -226.6,-339.7 -310.6,-761 -84.1,-421.3 -587.5,-382.2 -587.5,-382.2 l 159.8,602.2"
         style="fill:#f2116d;fill-opacity:1;fill-rule:nonzero;stroke:none"
         id="path26795" />
      <path
         d="m 46449.9,6317.4 c 0,0 -422.2,-559.8 -389.3,-888.4 32.9,-328.6 389.3,-517.2 389.3,-517.2 0,0 416.6,170.4 400.2,474.6 -16.4,304.2 -400.2,931 -400.2,931"
         style="fill:#f2116d;fill-opacity:1;fill-rule:nonzero;stroke:none"
         id="path26797" />
      <path
         d="m 47341.8,4680.6 c 0,0 -422.2,-468.8 -389.2,-744 32.8,-275.2 389.2,-433.2 389.2,-433.2 0,0 416.7,142.7 400.2,397.5 -16.4,254.8 -400.2,779.7 -400.2,779.7"
         style="fill:#f2116d;fill-opacity:1;fill-rule:nonzero;stroke:none"
         id="path26799" />
      <path
         d="m 45975.6,4092 c 0,0 -422.2,-468.8 -389.3,-744 32.9,-275.2 389.3,-433.2 389.3,-433.2 0,0 416.6,142.7 400.2,397.5 -16.5,254.8 -400.2,779.7 -400.2,779.7"
         style="fill:#f2116d;fill-opacity:1;fill-rule:nonzero;stroke:none"
         id="path26801" />
      <path
         d="m 46926.7,2826.4 c 0,0 -422.1,-272 -389.2,-431.6 32.9,-159.6 389.2,-251.3 389.2,-251.3 0,0 416.7,82.8 400.3,230.6 -16.5,147.8 -400.3,452.3 -400.3,452.3"
         style="fill:#f2116d;fill-opacity:1;fill-rule:nonzero;stroke:none"
         id="path26803" />
      <path
         d="m 46690.9,1883.7 v 0 0 m -0.7,0 c 0,0 0,0 -0.1,0 0.1,0 0.1,0 0.1,0 m 1675.4,3102.6 v 0 c 16.3,566.4 105,1054 108.6,1073.7 -3.6,-19.7 -92.2,-507.3 -108.6,-1073.7 m -575.1,1037.3 c -20.8,33.9 -41.1,66.8 -60.7,98.8 15.6,467.4 66,856.2 71.3,896.3 -5.3,-40.1 -55.7,-428.9 -71.3,-896.3 19.6,-32 39.9,-64.9 60.7,-98.8 m -383,773 v 0 0 m -0.7,3.2 c 0,0.1 0,0.1 0,0.1 0,0 0,0 0,-0.1 m -1.6,8 c 0,0.1 -0.1,0.2 -0.1,0.4 0,-0.1 0.1,-0.3 0.1,-0.4 m -0.7,3.2 c 0,0.3 -0.1,0.6 -0.1,0.8 0,-0.3 0.1,-0.5 0.1,-0.8 m -0.6,3.3 c -0.1,0.5 -0.2,0.9 -0.3,1.4 0.1,-0.5 0.2,-0.9 0.3,-1.4 m -0.7,3.5 c -0.1,0.7 -0.2,1.4 -0.4,2.1 0.2,-0.7 0.3,-1.4 0.4,-2.1 m -0.6,3.5 c -0.2,0.8 -0.3,1.5 -0.5,2.3 0.2,-0.8 0.3,-1.5 0.5,-2.3 m -0.8,3.8 c -0.1,0.8 -0.3,1.6 -0.4,2.5 0.1,-0.8 0.3,-1.7 0.4,-2.5 m -0.6,3.6 c -0.2,1 -0.4,1.9 -0.6,2.9 0.2,-1 0.4,-1.9 0.6,-2.9 m -0.7,3.8 c -0.2,0.9 -0.4,1.8 -0.5,2.8 0.1,-1 0.3,-1.9 0.5,-2.8 m -0.7,3.6 c -0.2,1 -0.3,1.9 -0.5,2.9 0.2,-0.9 0.3,-1.9 0.5,-2.9 m -0.6,3.6 c -0.2,1.1 -0.4,2.3 -0.6,3.4 0.2,-1.2 0.4,-2.2 0.6,-3.4 m -0.7,3.7 c -0.2,1.2 -0.4,2.4 -0.6,3.5 0.2,-1.2 0.4,-2.3 0.6,-3.5 m -0.7,3.9 c -0.2,1.1 -0.3,2.2 -0.5,3.4 0.2,-1.1 0.4,-2.3 0.5,-3.4 m -0.6,3.7 c -0.2,1.2 -0.4,2.4 -0.6,3.6 0.2,-1.2 0.4,-2.4 0.6,-3.6 m -0.6,3.7 c -40.1,237.5 -36.6,518.5 14.4,775.9 0,0 0.1,0 0.1,0.1 -51.1,-257.5 -54.6,-538.5 -14.5,-776"
         style="fill:#edcddf;fill-opacity:1;fill-rule:nonzero;stroke:none"
         id="path26805" />
      <path
         d="m 46691.1,1883.6 v 0 c 0,0 -0.1,0 -0.2,0.1 v 0 c -0.2,0 -0.4,0 -0.7,0 0,0 0,0 -0.1,0 -20,0.5 -342,11 -724.3,121 341.4,0.6 643.2,56.9 902.5,156.4 35.2,-11.6 58.4,-17.6 58.4,-17.6 0,0 416.7,82.8 400.3,230.6 -1.2,10.1 -4,20.9 -8.3,32.3 364.7,270.7 586.2,655.6 647.8,1083.4 140.2,973 -897.1,2288.6 -897.1,3072.7 0,462.6 187.7,838 341.6,1068.1 -51,-257.4 -54.5,-538.4 -14.4,-775.9 v -0.1 c 0.2,-1.2 0.4,-2.4 0.6,-3.6 0,-0.1 0,-0.2 0.1,-0.3 0.2,-1.2 0.3,-2.3 0.5,-3.4 0.1,-0.2 0.1,-0.3 0.1,-0.4 0.2,-1.1 0.4,-2.3 0.6,-3.5 0,-0.1 0.1,-0.2 0.1,-0.3 0.2,-1.1 0.4,-2.3 0.6,-3.4 0,-0.2 0.1,-0.4 0.1,-0.7 0.2,-1 0.3,-1.9 0.5,-2.9 0.1,-0.3 0.1,-0.6 0.2,-0.8 0.1,-1 0.3,-1.9 0.5,-2.8 0,-0.3 0.1,-0.6 0.1,-0.9 0.2,-1 0.4,-1.9 0.6,-2.9 0,-0.3 0.1,-0.7 0.2,-1.1 0.1,-0.9 0.3,-1.7 0.4,-2.5 0.1,-0.5 0.2,-1 0.3,-1.5 0.2,-0.8 0.3,-1.5 0.5,-2.3 0,-0.4 0.1,-0.9 0.2,-1.4 0.2,-0.7 0.3,-1.4 0.4,-2.1 0.2,-0.7 0.3,-1.4 0.4,-2.1 0.1,-0.5 0.2,-0.9 0.3,-1.4 0.2,-0.8 0.3,-1.6 0.5,-2.5 0,-0.2 0.1,-0.5 0.1,-0.8 0.2,-0.9 0.4,-1.8 0.6,-2.8 0,-0.2 0.1,-0.3 0.1,-0.4 0.5,-2.7 1,-5.3 1.6,-7.9 0,0 0,0 0,-0.1 0.2,-1 0.4,-2.1 0.7,-3.2 v 0 c 9.3,-45.4 20.3,-88.9 33.1,-130 -47,-199.8 -123,-536.4 -113,-580.4 v 0 c -3.5,-13.5 -5.2,-20.8 -5.2,-20.8 213.4,-470.3 375.7,-492.5 404.5,-492.5 3,0 4.6,0.2 4.6,0.2 -8.4,184.6 -7.6,372.6 -1.7,549.3 19.6,-32 39.9,-64.9 60.7,-98.8 72.1,-117.6 150.5,-246.2 230.2,-383.3 -25.6,44.1 -51.1,87.3 -76.3,129.6 -52.6,-220.2 -101.6,-475.8 -126.2,-609.2 -34.1,-80.9 -50.2,-131.2 -50.2,-131.2 315.8,-507.9 555.6,-531.7 597.8,-531.7 4.4,0 6.6,0.3 6.6,0.3 -10.3,163.2 -11.4,328.8 -6.8,488.2 v 0 c 0,-0.1 0,-0.1 0,-0.1 162.2,-350.2 295.1,-726.3 344.8,-1103 v 0 c -13,98.8 -31.8,197.6 -55.3,295.9 -5.3,-216.6 -334.3,-643.9 -338.1,-648.8 -23.1,-25.3 -36,-40.5 -36,-40.5 l -159.8,-602.2 c 0,0 12.3,-1 33.4,-1 113.8,0 483.1,27.9 554.1,383.2 -208.4,-1345.4 -2017.6,-1386.2 -2017.6,-1386.2"
         style="fill:#e30f6a;fill-opacity:1;fill-rule:nonzero;stroke:none"
         id="path26807" />
      <path
         d="m 48936.3,4006.7 c 0.1,0.1 0.2,0.1 0.3,0.1 -0.1,0 -0.2,0 -0.3,-0.1 m 2.1,0.8 c 0.2,0.1 0.4,0.2 0.6,0.2 -0.2,0 -0.4,-0.1 -0.6,-0.2 m 1.5,0.6 c 0.5,0.1 0.9,0.3 1.4,0.5 -0.5,-0.2 -0.9,-0.4 -1.4,-0.5 m 2.2,0.8 c 0.3,0.1 0.6,0.2 1,0.3 -0.4,-0.1 -0.7,-0.2 -1,-0.3 m 1.7,0.6 c 0.5,0.1 1,0.3 1.5,0.5 -0.5,-0.2 -1,-0.4 -1.5,-0.5 m 2,0.7 c 0.5,0.2 1.1,0.4 1.7,0.6 -0.6,-0.2 -1.1,-0.4 -1.7,-0.6 m 1.9,0.7 c 0.6,0.2 1.3,0.4 1.9,0.6 -0.6,-0.2 -1.3,-0.4 -1.9,-0.6 m 1.9,0.6 c 0.7,0.2 1.3,0.5 2,0.7 -0.7,-0.2 -1.3,-0.5 -2,-0.7 m 2,0.7 c 21.4,7.4 42.7,13.4 63.8,17.8 -21.1,-4.4 -42.3,-10.4 -63.8,-17.8 m 63.8,17.8 c 0.6,0.2 1.3,0.3 1.9,0.4 -0.7,-0.1 -1.3,-0.2 -1.9,-0.4 m 2.1,0.5 c 0.6,0.1 1.2,0.2 1.8,0.3 -0.6,-0.1 -1.2,-0.2 -1.8,-0.3"
         style="fill:#edcddf;fill-opacity:1;fill-rule:nonzero;stroke:none"
         id="path26809" />
      <path
         d="m 48022.8,5636.8 c -0.3,0.4 -0.5,0.8 -0.8,1.3 0.3,-0.5 0.5,-0.9 0.8,-1.3"
         style="fill:#e30f6a;fill-opacity:1;fill-rule:nonzero;stroke:none"
         id="path26811" />
      <path
         d="m 48472.1,6058.9 c 0.1,0.1 0.2,0.1 0.3,0.2 -0.1,-0.1 -0.2,-0.1 -0.3,-0.2 m 2.1,1.2 c 0,0.1 0.1,0.2 0.1,0.3 0,-0.1 -0.1,-0.2 -0.1,-0.3 m 0.1,0.4 v 0 0 m 0,0.1 v 0 0"
         style="fill:#edcddf;fill-opacity:1;fill-rule:nonzero;stroke:none"
         id="path26813" />
      <path
         d="m 47490.2,6539.2 c -6.2,13 -11.9,25.4 -17,37.3 5.1,-11.9 10.8,-24.3 17,-37.3 v 0 m -17,37.4 c -0.1,0.3 -0.3,0.6 -0.4,0.9 0.1,-0.3 0.3,-0.6 0.4,-0.9 m -0.8,1.9 c -0.1,0.1 -0.1,0.1 -0.1,0.1 0,0 0,0 0.1,-0.1"
         style="fill:#e30f6a;fill-opacity:1;fill-rule:nonzero;stroke:none"
         id="path26815" />
      <path
         d="m 47458.7,6612.9 c -0.2,0.5 -0.4,1 -0.6,1.5 -0.1,0.2 -0.1,0.4 -0.2,0.6 -0.1,0.3 -0.2,0.6 -0.3,0.9 0.3,-1 0.7,-2 1.1,-3"
         style="fill:#edcddf;fill-opacity:1;fill-rule:nonzero;stroke:none"
         id="path26817" />
      <path
         d="m 47458.1,6614.4 c -0.1,0.2 -0.1,0.4 -0.2,0.6 0.1,-0.2 0.1,-0.4 0.2,-0.6"
         style="fill:#e30f6a;fill-opacity:1;fill-rule:nonzero;stroke:none"
         id="path26819" />
      <path
         d="m 47457.4,6616.3 c 0,0 0,0 0,0.1 -0.2,0.6 -0.5,1.2 -0.7,1.9 0.2,-0.7 0.5,-1.3 0.7,-2"
         style="fill:#edcddf;fill-opacity:1;fill-rule:nonzero;stroke:none"
         id="path26821" />
      <path
         d="m 47457.5,6616.2 c -0.1,0.1 -0.1,0.1 -0.1,0.2 0,-0.1 0,-0.1 0,-0.1 l 0.1,-0.1"
         style="fill:#e30f6a;fill-opacity:1;fill-rule:nonzero;stroke:none"
         id="path26823" />
      <path
         d="m 47710.1,6914.3 v 0 0 m 1.2,1.7 c 0.1,0.1 0.2,0.2 0.2,0.3 0,-0.1 -0.1,-0.2 -0.2,-0.3 m 1.5,1.9 c 0,0.1 0.1,0.1 0.1,0.2 0,-0.1 -0.1,-0.1 -0.1,-0.2 m 2.7,3.6 c 0.1,0 0.2,0.1 0.2,0.2 0,-0.1 -0.1,-0.1 -0.2,-0.2 m 1.5,1.9 c 0.1,0 0.1,0.1 0.2,0.2 -0.1,-0.1 -0.2,-0.2 -0.2,-0.2 m 1.3,1.6 c 0.1,0.1 0.2,0.2 0.3,0.4 -0.1,-0.1 -0.2,-0.3 -0.3,-0.4 m 1.5,1.9 c 0.1,0.1 0.2,0.3 0.3,0.4 -0.1,-0.1 -0.2,-0.3 -0.3,-0.4 m 1.2,1.6 c 0.1,0.2 0.2,0.3 0.4,0.5 -0.2,-0.2 -0.3,-0.3 -0.4,-0.5 m 1.4,1.8 c 0.2,0.2 0.4,0.5 0.6,0.7 -0.2,-0.2 -0.4,-0.5 -0.6,-0.7 m 1.3,1.7 c 0.3,0.3 0.6,0.7 0.8,1 -0.2,-0.4 -0.5,-0.7 -0.8,-1 m 1.4,1.8 c 0.3,0.3 0.5,0.6 0.8,0.9 -0.3,-0.3 -0.5,-0.6 -0.8,-0.9 m 1.7,2 c 0.2,0.3 0.4,0.5 0.6,0.8 -0.2,-0.3 -0.4,-0.5 -0.6,-0.8 m 1.1,1.5 c 0.2,0.2 0.5,0.5 0.7,0.8 -0.3,-0.3 -0.5,-0.5 -0.7,-0.8 m 1.6,2 c 0.2,0.3 0.5,0.5 0.7,0.8 -0.2,-0.3 -0.5,-0.5 -0.7,-0.8 m 1.2,1.4 c 0.4,0.6 0.8,1.1 1.2,1.6 -0.4,-0.5 -0.8,-1 -1.2,-1.6 m 1.6,2 c 0.3,0.4 0.5,0.7 0.8,1 -0.3,-0.3 -0.5,-0.6 -0.8,-1 m 0.9,1.2 c 0.5,0.6 1,1.3 1.6,1.9 -0.6,-0.6 -1.1,-1.3 -1.6,-1.9 m 1.9,2.3 c 0.2,0.3 0.5,0.6 0.7,0.9 -0.2,-0.3 -0.5,-0.6 -0.7,-0.9 m 0.9,1.1 c 0.5,0.7 1.1,1.3 1.6,2 -0.5,-0.7 -1.1,-1.3 -1.6,-2 m 1.8,2.2 c 2.4,2.9 4.8,5.9 7.2,8.8 -2.4,-2.9 -4.8,-5.9 -7.2,-8.8 m 7.3,8.9 c 1.8,2.2 3.7,4.4 5.5,6.6 -1.8,-2.2 -3.7,-4.4 -5.5,-6.6 m 5.6,6.7 c 0.5,0.6 1.1,1.3 1.6,1.9 -0.5,-0.6 -1.1,-1.3 -1.6,-1.9 m 1.9,2.3 c 1.8,2.1 3.6,4.3 5.4,6.4 -1.8,-2.2 -3.6,-4.3 -5.4,-6.4 m 5.6,6.6 c 0.9,1 1.8,2.1 2.7,3.1 -0.9,-1 -1.8,-2.1 -2.7,-3.1 m 2.8,3.2 c 0.9,1.1 1.8,2.2 2.7,3.2 -0.9,-1.1 -1.8,-2.1 -2.7,-3.2 m 3,3.5 c 0.4,0.5 0.9,1.1 1.4,1.6 -0.5,-0.5 -1,-1.1 -1.4,-1.6 m 1.9,2.2 c 0.8,1 1.7,1.9 2.6,2.9 -0.9,-1 -1.8,-1.9 -2.6,-2.9 m 2.7,3.1 c 0.9,1 1.8,2.1 2.7,3.1 -0.9,-1 -1.8,-2.1 -2.7,-3.1 m 2.9,3.2 c 0.5,0.7 1.1,1.3 1.7,2 -0.6,-0.7 -1.2,-1.3 -1.7,-2 m 1.9,2.2 c 0.8,1 1.7,2 2.6,2.9 -0.9,-1 -1.8,-1.9 -2.6,-2.9 m 3,3.4 c 0.3,0.3 0.5,0.5 0.7,0.8 -0.2,-0.3 -0.5,-0.5 -0.7,-0.8 m 1,1.1 c 0.5,0.6 1,1.1 1.5,1.7 -0.5,-0.6 -1,-1.1 -1.5,-1.7 m 2,2.2 c 0.4,0.5 0.8,0.9 1.2,1.4 -0.4,-0.5 -0.8,-0.9 -1.2,-1.4 m 1.7,1.9 c 0.3,0.3 0.5,0.6 0.8,0.9 -0.3,-0.3 -0.5,-0.6 -0.8,-0.9 m 1.1,1.3 c 0.5,0.5 1,1 1.4,1.5 -0.4,-0.5 -0.9,-1 -1.4,-1.5 m 1.8,2 c 0.3,0.3 0.6,0.6 0.8,0.8 -0.2,-0.2 -0.5,-0.5 -0.8,-0.8 m 1.2,1.2 c 0.4,0.5 0.9,1 1.4,1.5 -0.5,-0.5 -1,-1 -1.4,-1.5 m 1.9,2.1 c 0.3,0.3 0.6,0.6 0.8,0.9 -0.2,-0.3 -0.5,-0.6 -0.8,-0.9 m 1.8,2 c 0.2,0.2 0.4,0.4 0.5,0.5 -0.1,-0.1 -0.3,-0.3 -0.5,-0.5 m 1.5,1.6 c 0.2,0.2 0.3,0.3 0.5,0.5 -0.2,-0.2 -0.3,-0.3 -0.5,-0.5 m 1.6,1.7 c 0.1,0.2 0.3,0.3 0.4,0.5 -0.1,-0.2 -0.3,-0.3 -0.4,-0.5 m 1.5,1.6 c 0.2,0.2 0.4,0.5 0.6,0.7 -0.2,-0.2 -0.4,-0.4 -0.6,-0.7 m 1.6,1.7 c 0.1,0.2 0.2,0.3 0.4,0.4 -0.2,-0.1 -0.3,-0.2 -0.4,-0.4 m 1.6,1.8 c 0.2,0.1 0.3,0.3 0.5,0.4 -0.2,-0.1 -0.3,-0.3 -0.5,-0.4 m 1.5,1.6 c 0.1,0.1 0.2,0.1 0.3,0.2 -0.1,-0.1 -0.2,-0.1 -0.3,-0.2 m 2.9,0.2 c 0,0.3 0.1,0.6 0.1,0.8 0,-0.2 -0.1,-0.5 -0.1,-0.8 m 0.2,1.2 c 0,0.1 0,0.3 0,0.4 0,-0.1 0,-0.3 0,-0.4 m -1.5,0.2 c 0.1,0.2 0.3,0.3 0.4,0.4 -0.1,-0.1 -0.3,-0.2 -0.4,-0.4 m 1.5,0.2 c 0.1,0.3 0.1,0.6 0.1,0.8 0,-0.2 0,-0.5 -0.1,-0.8 m 0.2,1 c 0,0 0,0 0,0.1 0,-0.1 0,-0.1 0,-0.1 m 0,0.2 v 0 0 m 0,0.1 c 0,0.1 0,0.1 0,0.1 0,0 0,0 0,-0.1 m 0,0.2 v 0 0 m 0,0.1 v 0 0"
         style="fill:#edcddf;fill-opacity:1;fill-rule:nonzero;stroke:none"
         id="path26825" />
      <path
         d="m 47818.2,5160.7 c 24.6,133.4 73.6,389 126.2,609.2 25.2,-42.3 50.7,-85.5 76.3,-129.6 0.5,-0.7 0.9,-1.5 1.3,-2.2 0.3,-0.5 0.5,-0.9 0.8,-1.3 8.6,-14.8 17.2,-29.7 25.8,-44.7 -110.3,-166.6 -185.8,-325.3 -230.4,-431.4"
         style="fill:#ce0d68;fill-opacity:1;fill-rule:nonzero;stroke:none"
         id="path26827" />
      <path
         d="m 47327.6,6086.2 v 0 c -10,44 66,380.6 113,580.4 5.1,-16.5 10.5,-32.6 16.1,-48.3 0.2,-0.7 0.5,-1.3 0.7,-1.9 0,-0.1 0,-0.1 0.1,-0.2 0,-0.1 0,-0.2 0.1,-0.3 0.1,-0.3 0.2,-0.6 0.3,-0.9 0.1,-0.2 0.1,-0.4 0.2,-0.6 0.2,-0.5 0.4,-1 0.6,-1.5 v 0 c 3.9,-10.9 8.5,-22.3 13.6,-34.3 0,0 0,0 0.1,-0.1 0.1,-0.3 0.3,-0.7 0.4,-1 0.1,-0.3 0.3,-0.6 0.4,-0.9 0,0 0,0 0,-0.1 5.1,-11.9 10.8,-24.3 17,-37.3 -94.9,-206.9 -146.8,-392.3 -162.6,-453"
         style="fill:#ce0d68;fill-opacity:1;fill-rule:nonzero;stroke:none"
         id="path26829" />
      <path
         d="m 48317,3530.3 c 3.8,4.9 332.8,432.2 338.1,648.8 23.5,-98.3 42.3,-197.1 55.3,-295.9 -173.3,-120.7 -326.3,-279.5 -393.4,-352.9"
         style="fill:#ce0d68;fill-opacity:1;fill-rule:nonzero;stroke:none"
         id="path26831" />
      <path
         d="m 48365.8,4497.8 c -42.2,0 -282,23.8 -597.8,531.7 0,0 16.1,50.3 50.2,131.2 44.6,106.1 120.1,264.8 230.4,431.4 v 0 c 107.1,161.6 247,330.8 423.5,466.8 0.1,0.1 0.2,0.1 0.3,0.2 0.6,0.5 1.3,1 1.9,1.5 v 0 0 c 0,0 0,0 0,-0.1 v 0 -0.1 c 0,-0.1 -0.1,-0.2 -0.1,-0.3 0,-0.1 0,-0.1 0,-0.1 -3.6,-19.7 -92.3,-507.3 -108.6,-1073.7 -4.6,-159.4 -3.5,-325 6.8,-488.2 0,0 -2.2,-0.3 -6.6,-0.3"
         style="fill:#e30f6a;fill-opacity:1;fill-rule:nonzero;stroke:none"
         id="path26833" />
      <path
         d="m 47726.9,5572.9 c -28.8,0 -191.1,22.2 -404.5,492.5 0,0 1.7,7.3 5.2,20.8 15.8,60.7 67.7,246.1 162.6,453 v 0 0 c 57.2,124.7 130,257.3 219.9,375.1 v 0 c 0.4,0.6 0.8,1.1 1.2,1.7 0.1,0.1 0.2,0.2 0.2,0.3 0.5,0.5 0.9,1.1 1.3,1.6 0,0.1 0.1,0.1 0.1,0.2 0.9,1.1 1.8,2.2 2.6,3.4 0.1,0.1 0.2,0.1 0.2,0.2 0.5,0.6 0.9,1.1 1.3,1.7 0,0 0.1,0.1 0.2,0.2 0.3,0.4 0.7,0.9 1.1,1.4 0.1,0.1 0.2,0.3 0.3,0.4 0.4,0.5 0.8,1 1.2,1.5 0.1,0.1 0.2,0.3 0.3,0.4 0.3,0.4 0.6,0.8 0.9,1.2 0.1,0.2 0.2,0.3 0.4,0.5 0.3,0.4 0.6,0.8 1,1.3 0.2,0.2 0.4,0.5 0.6,0.7 0.2,0.3 0.5,0.7 0.7,1 0.3,0.3 0.6,0.6 0.8,1 0.2,0.2 0.4,0.5 0.6,0.8 0.3,0.3 0.5,0.6 0.8,0.9 0.3,0.4 0.6,0.7 0.9,1.1 0.2,0.3 0.4,0.5 0.6,0.8 0.2,0.2 0.3,0.4 0.5,0.7 0.2,0.3 0.4,0.5 0.7,0.8 0.3,0.4 0.6,0.8 0.9,1.2 0.2,0.3 0.5,0.5 0.7,0.8 0.1,0.2 0.3,0.4 0.5,0.6 0.4,0.6 0.8,1.1 1.2,1.6 0.2,0.1 0.3,0.3 0.4,0.4 0.3,0.4 0.5,0.7 0.8,1 0,0.1 0.1,0.1 0.1,0.2 0.5,0.6 1,1.3 1.6,1.9 0.1,0.1 0.2,0.2 0.3,0.4 0.2,0.3 0.5,0.6 0.7,0.9 0.1,0.1 0.1,0.1 0.2,0.2 0.5,0.7 1.1,1.3 1.6,2 0.1,0.1 0.1,0.1 0.2,0.2 2.4,2.9 4.8,5.9 7.2,8.8 l 0.1,0.1 c 1.8,2.2 3.7,4.4 5.5,6.6 0,0 0,0.1 0.1,0.1 0.5,0.6 1.1,1.3 1.6,1.9 0.1,0.1 0.2,0.3 0.3,0.4 1.8,2.1 3.6,4.2 5.4,6.4 0.1,0.1 0.1,0.1 0.2,0.2 0.9,1 1.8,2.1 2.7,3.1 0,0.1 0.1,0.1 0.1,0.1 0.9,1.1 1.8,2.1 2.7,3.2 0.1,0.1 0.2,0.2 0.3,0.3 0.4,0.5 0.9,1.1 1.4,1.6 0.2,0.2 0.3,0.4 0.5,0.6 0.8,1 1.7,1.9 2.6,2.9 0,0.1 0,0.1 0.1,0.2 0.9,1 1.8,2.1 2.7,3.1 0.1,0.1 0.1,0.1 0.2,0.1 0.5,0.7 1.1,1.3 1.7,2 0,0 0.1,0.1 0.2,0.2 0.8,1 1.7,1.9 2.6,2.9 0.1,0.2 0.3,0.3 0.4,0.5 0.2,0.3 0.5,0.5 0.7,0.8 0.1,0.1 0.2,0.2 0.3,0.3 0.5,0.6 1,1.1 1.5,1.7 0.1,0.2 0.3,0.4 0.5,0.5 0.4,0.5 0.8,0.9 1.2,1.4 0.2,0.2 0.3,0.3 0.5,0.5 0.3,0.3 0.5,0.6 0.8,0.9 0.1,0.1 0.2,0.3 0.3,0.4 0.5,0.5 1,1 1.4,1.5 0.2,0.2 0.3,0.3 0.4,0.5 0.3,0.3 0.6,0.6 0.8,0.8 0.1,0.2 0.3,0.3 0.4,0.4 0.4,0.5 0.9,1 1.4,1.5 0.1,0.2 0.3,0.4 0.5,0.6 0.3,0.3 0.6,0.6 0.8,0.9 0.4,0.4 0.7,0.7 1,1.1 0.2,0.2 0.4,0.4 0.5,0.5 0.3,0.4 0.7,0.7 1,1.1 0.2,0.2 0.3,0.3 0.5,0.5 0.4,0.4 0.7,0.8 1.1,1.2 0.1,0.2 0.3,0.3 0.4,0.5 0.4,0.4 0.7,0.7 1.1,1.1 0.2,0.3 0.4,0.5 0.6,0.7 0.3,0.3 0.7,0.7 1,1 0.1,0.2 0.2,0.3 0.4,0.4 0.4,0.5 0.8,0.9 1.2,1.4 0.2,0.1 0.3,0.3 0.5,0.4 0.3,0.4 0.7,0.8 1,1.2 0.1,0.1 0.2,0.1 0.3,0.2 0.4,0.5 0.9,1 1.3,1.4 0.1,0.2 0.3,0.3 0.4,0.4 0.4,0.5 0.9,1 1.3,1.5 v -0.1 0 c 0,-0.1 0,-0.1 0,-0.1 v 0 -0.1 c 0,0 0,0 0,-0.1 0,0 0,0 0,-0.1 v 0 c 0,-0.1 0,-0.1 0,-0.1 0,-0.1 0,-0.1 0,-0.1 -0.1,-0.1 -0.1,-0.1 -0.1,-0.2 0,-0.2 0,-0.5 -0.1,-0.8 v 0 c 0,-0.1 0,-0.3 0,-0.4 0,-0.1 -0.1,-0.2 -0.1,-0.4 0,-0.2 -0.1,-0.5 -0.1,-0.8 0,-0.1 0,-0.1 0,-0.1 -5.3,-40.1 -55.7,-428.9 -71.3,-896.3 -5.9,-176.7 -6.7,-364.7 1.7,-549.3 0,0 -1.6,-0.2 -4.6,-0.2"
         style="fill:#e30f6a;fill-opacity:1;fill-rule:nonzero;stroke:none"
         id="path26835" />
      <path
         d="m 48154.6,2886.6 c -21.1,0 -33.4,1 -33.4,1 l 159.8,602.2 c 0,0 12.9,15.2 36,40.5 67.1,73.4 220.1,232.2 393.4,352.9 v 0 0 c 73.4,51.1 150.3,95.4 225.9,123.5 0.1,0.1 0.2,0.1 0.3,0.1 0.6,0.3 1.2,0.5 1.8,0.7 0.2,0.1 0.4,0.2 0.6,0.2 0.3,0.1 0.6,0.3 0.9,0.4 0.5,0.1 0.9,0.3 1.4,0.5 0.2,0.1 0.5,0.2 0.8,0.3 0.3,0.1 0.6,0.2 1,0.3 0.2,0.1 0.4,0.2 0.7,0.3 0.5,0.1 1,0.3 1.5,0.5 0.2,0.1 0.3,0.1 0.5,0.2 0.6,0.2 1.1,0.4 1.7,0.6 0.1,0 0.1,0 0.2,0.1 0.6,0.2 1.3,0.4 1.9,0.6 v 0 c 0.7,0.2 1.3,0.5 2,0.7 v 0 c 21.5,7.4 42.7,13.4 63.8,17.8 v 0 c 0.6,0.2 1.2,0.3 1.9,0.4 0,0 0.1,0.1 0.2,0.1 0.6,0.1 1.2,0.2 1.8,0.3 v 0 c 0,0 -226.6,-339.7 -310.6,-761 v 0 c -71,-355.3 -440.3,-383.2 -554.1,-383.2"
         style="fill:#e30f6a;fill-opacity:1;fill-rule:nonzero;stroke:none"
         id="path26837" />
      <path
         d="m 46926.7,2143.5 c 0,0 -23.2,6 -58.4,17.6 168.3,64.6 318.7,147.5 450.4,245.3 4.3,-11.4 7.1,-22.2 8.3,-32.3 16.4,-147.8 -400.3,-230.6 -400.3,-230.6"
         style="fill:#e30f6a;fill-opacity:1;fill-rule:nonzero;stroke:none"
         id="path26839" />
      <path
         d="m 46777.8,7506.4 c 110.2,82.9 360.8,261.2 426.8,219.9 85.2,-53.4 79.2,-393.9 167.4,-641 h 0.1 c -22.6,455.1 94.4,981.1 371.6,1209.4 0,0 -659.2,-140.9 -965.9,-788.3"
         style="fill:#c6e055;fill-opacity:1;fill-rule:nonzero;stroke:none"
         id="path26841" />
      <path
         d="m 47415.8,6360.5 c 76.3,89.2 175,190.4 201.4,133.8 31.7,-68.1 51.3,-327.5 109.3,-500 9.9,549.6 75.1,1027.8 75.1,1027.8 -183.9,-193.2 -309.5,-459.1 -385.8,-661.6"
         style="fill:#c6e055;fill-opacity:1;fill-rule:nonzero;stroke:none"
         id="path26843" />
      <path
         d="m 45748.1,8090.8 c 222.7,-183.3 305.1,-490.2 300.7,-809.1 50,93.2 137.2,280.7 136.5,451.3 0,0 252.3,-53.6 393.6,-175.2 -296.4,556.3 -830.8,533 -830.8,533"
         style="fill:#c6e055;fill-opacity:1;fill-rule:nonzero;stroke:none"
         id="path26845" />
      <path
         d="m 47916.7,5368.8 c 88.1,78.8 231.6,201.5 284.9,182.3 77.2,-27.9 97.9,-731.9 162.2,-832 v -0.1 c -11.5,683.7 110.5,1341.6 110.5,1341.6 -262.5,-201.4 -444.3,-476.4 -557.6,-691.8"
         style="fill:#c6e055;fill-opacity:1;fill-rule:nonzero;stroke:none"
         id="path26847" />
      <path
         d="m 45327.3,5390.9 c -113.5,185.8 -285.5,409 -525.8,576.5 0,0 107.5,-534.7 105.8,-1115.5 52.6,150.8 162.8,483.9 156.7,609.9 0,0 136.4,-80.6 263.3,-70.9"
         style="fill:#c6e055;fill-opacity:1;fill-rule:nonzero;stroke:none"
         id="path26849" />
      <path
         d="m 46449.9,6317.4 c 0,0 -317.2,-420.7 -380.2,-746.7 101,136.8 283.1,361.6 385,356 83.5,-4.5 236.5,-186.2 352.2,-341 -103.9,318.3 -357,731.7 -357,731.7"
         style="fill:#c6e055;fill-opacity:1;fill-rule:nonzero;stroke:none"
         id="path26851" />
      <path
         d="m 47341.8,4680.6 c 0,0 -407.2,-452.2 -390.5,-729.1 98.3,140.6 278.7,372 395.3,362.7 88.1,-7.1 244,-159 371.7,-301.1 -86.7,271.1 -376.5,667.5 -376.5,667.5"
         style="fill:#c6e055;fill-opacity:1;fill-rule:nonzero;stroke:none"
         id="path26853" />
      <path
         d="m 46353.3,3420.7 c -85.2,271.2 -377.7,671.3 -377.7,671.3 0,0 -420.4,-466.9 -389.4,-742.4 94.1,131.8 302.9,411.9 378.9,417 64.7,4.4 259.6,-201.3 388.2,-345.9"
         style="fill:#c6e055;fill-opacity:1;fill-rule:nonzero;stroke:none"
         id="path26855" />
      <path
         d="m 44384.8,4092 c 0,0 56.4,-195.5 126.2,-423.5 12.3,21.6 27.2,34.8 44.3,25.5 24.2,-13.2 126.7,-94.7 226.8,-176.1 -127.8,217.5 -277.7,450.5 -397.3,574.1"
         style="fill:#c6e055;fill-opacity:1;fill-rule:nonzero;stroke:none"
         id="path26857" />
      <path
         d="m 46920.4,2627.3 c 58.9,-1.5 226.2,-75.7 346.6,-132.8 -111.9,150.7 -340.3,331.9 -340.3,331.9 0,0 -306,-197.2 -376.6,-354.3 109.2,58.6 303,157 370.3,155.2"
         style="fill:#c6e055;fill-opacity:1;fill-rule:nonzero;stroke:none"
         id="path26859" />
      <path
         d="m 48809.7,3806.7 c 0,0 -17.5,-127.9 -27.5,-269.9 100.4,289 237.1,494 237.1,494 -276.1,-55.8 -596.5,-384.7 -702.3,-500.6 174.3,105.6 430.3,260.8 492.7,276.5"
         style="fill:#c6e055;fill-opacity:1;fill-rule:nonzero;stroke:none"
         id="path26861" />
      <path
         d="m 46763.6,6816.9 c -7.9,0 -14.3,5.9 -14.3,13.3 0,7.4 6.4,13.4 14.3,13.4 7.8,0 14.2,-6 14.2,-13.4 0,-7.4 -6.4,-13.3 -14.2,-13.3"
         style="fill:#e30f6a;fill-opacity:1;fill-rule:nonzero;stroke:none"
         id="path26863" />
      <path
         d="m 46067.8,5117.3 c -28.8,0 -52.1,21.9 -52.1,48.9 0,27 23.3,49 52.1,49 28.7,0 52.1,-22 52.1,-49 0,-27 -23.4,-48.9 -52.1,-48.9"
         style="fill:#e30f6a;fill-opacity:1;fill-rule:nonzero;stroke:none"
         id="path26865" />
      <path
         d="m 46703.3,4497.8 c -18.5,0 -33.4,14.1 -33.4,31.4 0,17.3 14.9,31.4 33.4,31.4 18.4,0 33.4,-14.1 33.4,-31.4 0,-17.3 -15,-31.4 -33.4,-31.4"
         style="fill:#e30f6a;fill-opacity:1;fill-rule:nonzero;stroke:none"
         id="path26867" />
      <path
         d="m 45446.4,3001.4 c -21,0 -38.1,16 -38.1,35.8 0,19.8 17.1,35.9 38.1,35.9 21.1,0 38.2,-16.1 38.2,-35.9 0,-19.8 -17.1,-35.8 -38.2,-35.8"
         style="fill:#e30f6a;fill-opacity:1;fill-rule:nonzero;stroke:none"
         id="path26869" />
      <path
         d="m 46131.2,2376.2 c -40,0 -72.4,30.5 -72.4,68.1 0,37.6 32.4,68.1 72.4,68.1 40,0 72.4,-30.5 72.4,-68.1 0,-37.6 -32.4,-68.1 -72.4,-68.1"
         style="fill:#e30f6a;fill-opacity:1;fill-rule:nonzero;stroke:none"
         id="path26871" />
      <path
         d="m 47312.3,3517.9 c -16.3,0.6 -30.5,8.9 -38.5,21.2 14.8,-8.6 27.9,-15.6 38.5,-21.2"
         style="fill:#e30f6a;fill-opacity:1;fill-rule:nonzero;stroke:none"
         id="path26873" />
      <path
         d="m 47314,3517.9 c -0.6,0 -1.2,0 -1.7,0 -10.6,5.6 -23.7,12.6 -38.5,21.2 -4.3,6.7 -6.8,14.6 -6.8,22.9 0,24.4 21,44.2 47,44.2 25.9,0 46.9,-19.8 46.9,-44.2 0,-24.3 -21,-44.1 -46.9,-44.1"
         style="fill:#e30f6a;fill-opacity:1;fill-rule:nonzero;stroke:none"
         id="path26875" />
      <path
         d="m 45486,2539 c -11.2,0 -22.2,3.6 -31.1,10.1 -61.4,45.2 -115.6,99.3 -163.7,158.1 -48,59 -89.9,122.9 -124.5,189.9 -34.7,67.1 -62.9,136.9 -85.6,207.9 -22.9,71.1 -39.3,143.5 -51.1,216.1 -11.7,72.6 -19.3,145.7 -21.9,218.3 -2.7,72.8 -1.6,145.2 2.6,217.3 4.4,71.9 11.6,143.4 20.9,214.4 9.3,71.1 21.5,141.4 35.2,211.3 13.9,69.9 30.4,139.1 47.8,207.9 17.5,68.8 37.6,136.8 58.6,204.4 11.6,37.2 23.9,74.1 36.5,110.9 85.6,70.6 185,175.4 293.5,330.9 0,0 -12,34.3 -37.3,91.3 -0.3,1.8 -8.6,60.1 -17.3,147.4 16.8,33.8 34,67.3 51.6,100.7 16.6,31.2 33.5,62.3 50.6,93.2 17.4,30.8 35,61.6 53.1,92 18.2,30.4 36.5,60.8 55.7,90.7 9.6,15 19.2,30 29.2,44.8 9.8,15 19.9,29.4 30.5,44.6 9.5,13.6 25.2,21 41.3,21 9.3,0 18.8,-2.5 27.1,-7.7 19,-11.7 26.6,-33.7 19.9,-53.1 l -0.4,-1.2 c -22.3,-64.2 -44.9,-129.8 -66.7,-194.8 -11,-32.5 -21.9,-65 -32.5,-97.6 -10.9,-32.5 -21.5,-65.1 -31.8,-97.7 -42.1,-130.2 -82,-260.6 -118.9,-391.3 -74,-261.1 -137.5,-523.3 -179,-785.7 -2.8,-16.4 -5.1,-32.8 -7.5,-49.2 -2.5,-16.4 -4.9,-32.8 -6.9,-49.2 l -6.6,-49.1 -5.7,-49.1 c -7.2,-65.5 -12.6,-130.9 -16.5,-196.1 -6.1,-130.3 -7,-259.8 1.4,-387.5 7.8,-127.9 25.9,-253.7 56.1,-378 4.1,-15.3 8.3,-30.8 12.1,-46.4 l 13.8,-46.2 c 9.6,-30.7 20,-61.4 31.6,-91.8 23,-61.2 50.5,-121.5 80.9,-183.2 l 0.6,-1.1 c 11.6,-23.7 0.7,-51.8 -24.5,-62.8 -6.8,-3 -14,-4.4 -21.1,-4.4"
         style="fill:#f5418a;fill-opacity:1;fill-rule:nonzero;stroke:none"
         id="path26877" />
      <path
         d="m 45465.9,5127.8 c -11.8,26.5 -26.4,57.8 -44,92.9 8.8,18.2 17.7,36.4 26.7,54.5 8.7,-87.3 17,-145.6 17.3,-147.4"
         style="fill:#e93f88;fill-opacity:1;fill-rule:nonzero;stroke:none"
         id="path26879" />
      <path
         d="m 45209.7,4705.6 c 10.4,30.1 21,60.1 31.8,90 24.7,66.3 50.5,132 77.7,197.2 32.3,76.8 66.5,152.8 102.7,227.9 17.6,-35.1 32.2,-66.4 44,-92.9 25.3,-57 37.3,-91.3 37.3,-91.3 -108.5,-155.5 -207.9,-260.3 -293.5,-330.9"
         style="fill:#f5418a;fill-opacity:1;fill-rule:nonzero;stroke:none"
         id="path26881" />
    </g>
  </g>
</svg>
