<?xml version="1.0" encoding="UTF-8" standalone="no"?>
<!-- Created with Inkscape (http://www.inkscape.org/) -->

<svg
   version="1.1"
   id="svg26267"
   width="651.48438"
   height="858.79059"
   viewBox="0 0 651.48437 858.7906"
   sodipodi:docname="fruit_set.eps"
   xmlns:inkscape="http://www.inkscape.org/namespaces/inkscape"
   xmlns:sodipodi="http://sodipodi.sourceforge.net/DTD/sodipodi-0.dtd"
   xmlns="http://www.w3.org/2000/svg"
   xmlns:svg="http://www.w3.org/2000/svg">
  <defs
     id="defs26271">
    <clipPath
       clipPathUnits="userSpaceOnUse"
       id="clipPath27091">
      <path
         d="m 40228.5,20897.6 c 4.3,55 1.5,111.2 -9.1,167.2 15,14.7 30.9,28.6 47.6,41.6 23,17.9 47.6,33.7 73.4,47.2 25.9,13.3 53,24.3 80.9,32.3 28.1,7.7 56.6,13.1 85.6,14.3 6.1,0.3 12.2,0.5 18.3,0.5 22.8,0 45.7,-2.5 68.2,-8.1 10.5,-2.6 17,-13.4 14.5,-24.2 -1.2,-4.7 -3.9,-8.6 -7.4,-11.3 l -1.2,-0.9 c -11.5,-8.8 -23.1,-15.5 -34.3,-22.8 l -33.2,-20.7 c -21.8,-13.2 -42.6,-26.7 -63.3,-39.5 -20.5,-13.2 -40.5,-26.3 -60.4,-39.4 -19.7,-13.6 -39.4,-26.9 -58.8,-40.9 -38.6,-28.2 -76.6,-58.1 -114.6,-90.2 -2.1,-1.7 -4.1,-3.4 -6.2,-5.1"
         id="path27089" />
    </clipPath>
  </defs>
  <sodipodi:namedview
     id="namedview26269"
     pagecolor="#ffffff"
     bordercolor="#000000"
     borderopacity="0.25"
     inkscape:showpageshadow="2"
     inkscape:pageopacity="0.0"
     inkscape:pagecheckerboard="0"
     inkscape:deskcolor="#d1d1d1"
     showgrid="false" />
  <g
     id="g26275"
     inkscape:groupmode="layer"
     inkscape:label="Page 1"
     transform="matrix(1.3333333,0,0,-1.3333333,-4986.3823,3061.8562)">
    <g
       id="g26277"
       transform="scale(0.1)">
      <path
         d="m 40230.4,21787.2 c 0,0 112.8,572 640.4,709.9 527.7,137.8 1413.2,-126.2 1413.2,-126.2 0,0 -87.3,-516 -673.3,-711.6 -585.9,-195.7 -1054.9,-33.1 -1380.3,127.9"
         style="fill:#69b200;fill-opacity:1;fill-rule:nonzero;stroke:none"
         id="path27071" />
      <path
         d="m 40340.1,21735.8 c -7.7,3.4 -15.2,6.8 -22.7,10.2 l -1.1,0.5 c -7.6,3.4 -15.2,6.9 -22.8,10.5 -1.1,0.5 -2.1,1 -3.2,1.5 -6.9,3.2 -13.8,6.4 -20.6,9.7 l -1.2,0.6 c -11.4,5.4 -22.6,10.8 -33.6,16.2 16.7,3.5 36.2,7.4 57.9,11.5 56.4,58.9 173.3,152.3 408.7,257.1 399,177.7 1134,136.5 1134,136.5 0,0 -380.2,-36 -837.9,-110.4 -250.9,-40.7 -426.5,-157.3 -534.1,-254.4 249.2,36.7 600.1,64.8 829.8,-16.7 236.1,-83.8 497.9,-20.5 667.2,42.3 -90.2,-75.1 -204.7,-143.2 -349.8,-191.6 -508.6,-169.9 -929.1,-69.7 -1244,65 l -0.3,0.1 c -8.1,3.5 -16.2,7 -24.2,10.5 l -2.1,0.9"
         style="fill:#578900;fill-opacity:1;fill-rule:nonzero;stroke:none"
         id="path27073" />
      <path
         d="m 41633.7,22398.1 c 0,0 -415.6,58.6 -648.2,-32.3 -232.6,-91 -372.6,-200.4 -372.6,-200.4 0,0 100.5,468 1020.8,232.7"
         style="fill:#95ce32;fill-opacity:1;fill-rule:nonzero;stroke:none"
         id="path27075" />
      <path
         d="m 38756.4,21524.6 c 0,0 724.9,362.8 1066,788.1 341.1,425.3 331.3,622.2 419.6,641.9 88.3,19.7 319.4,11.8 318.1,-59.1 -1.3,-70.9 -244.3,-393.8 -240.7,-897.8 3.6,-504.1 403.6,-858.5 403.6,-858.5 l -421.7,-134.7 c 0,0 -262.9,611.2 -292.8,886.9 -30,275.6 -590.5,-397.7 -1030.1,-630.1 -439.6,-232.4 -222,263.3 -222,263.3"
         style="fill:#703d2a;fill-opacity:1;fill-rule:nonzero;stroke:none"
         id="path27077" />
      <path
         d="m 40242,22954.6 c -88.3,-19.7 -78.5,-216.6 -419.6,-641.9 -341.1,-425.3 -1066,-788.1 -1066,-788.1 0,0 -23.2,-52.8 -39.1,-115.9 109.5,60.3 290.9,166.1 588.7,351.8 666.9,415.8 892.5,1020.2 958,1121.8 29.5,45.7 102.9,66.8 174.8,76.2 -69.6,9 -151.8,6.1 -196.8,-3.9"
         style="fill:#895247;fill-opacity:1;fill-rule:nonzero;stroke:none"
         id="path27079" />
      <path
         d="m 40538.5,21080.3 c -16.6,24.5 -37.6,50.1 -63.7,76.6 -412.7,420.3 -283.6,1153.6 -545.6,939.7 -169,-138.2 -397.6,-385.4 -538.5,-543.3 316.8,259.9 596.9,530.7 617.8,338.1 29.9,-275.7 292.8,-886.9 292.8,-886.9 l 237.2,75.8"
         style="fill:#562a20;fill-opacity:1;fill-rule:nonzero;stroke:none"
         id="path27081" />
      <path
         d="m 41129.7,20599 c -61.9,-324.2 -370.3,-535.9 -688.8,-472.9 -318.5,63 -526.5,376.8 -464.6,700.9 61.9,324.2 370.2,535.9 688.7,472.9 318.5,-62.9 526.6,-376.8 464.7,-700.9"
         style="fill:#9733af;fill-opacity:1;fill-rule:nonzero;stroke:none"
         id="path27083" />
      <g
         id="g27085">
        <g
           id="g27087"
           clip-path="url(#clipPath27091)">
          <path
             d="m 40219.4,20897.6 h 391 v 303.129 h -391 z"
             style="fill:#c185cf;fill-opacity:1;fill-rule:nonzero;stroke:none"
             id="path27093" />
        </g>
      </g>
      <path
         d="m 41098,20936 c 4.8,-50.3 2.8,-101.9 -7.1,-153.7 -59.3,-310.6 -374.4,-509.7 -703.8,-444.5 -181.1,35.8 -328.6,144 -415.1,285.8 36.2,-243 218.3,-447.9 468.9,-497.5 318.5,-63 626.9,148.7 688.8,472.9 22.4,117.5 9.2,233.7 -31.7,337"
         style="fill:#85279b;fill-opacity:1;fill-rule:nonzero;stroke:none"
         id="path27095" />
      <path
         d="m 40804,20884.6 c 13.3,-2.7 26.1,6.2 28.7,19.7 2.6,13.5 -6.1,26.6 -19.4,29.2 -13.2,2.6 -26.1,-6.2 -28.7,-19.7 -2.5,-13.5 6.1,-26.6 19.4,-29.2"
         style="fill:#85279b;fill-opacity:1;fill-rule:nonzero;stroke:none"
         id="path27097" />
      <path
         d="m 40645.7,20534.3 c 9.8,-2 19.3,4.6 21.2,14.6 2,10 -4.5,19.6 -14.3,21.6 -9.8,1.9 -19.3,-4.6 -21.3,-14.6 -1.9,-10 4.6,-19.7 14.4,-21.6"
         style="fill:#85279b;fill-opacity:1;fill-rule:nonzero;stroke:none"
         id="path27099" />
      <path
         d="m 40213.6,20612.2 c 19.6,-3.9 38.7,9.2 42.5,29.2 3.8,20 -9,39.4 -28.7,43.3 -19.7,3.8 -38.7,-9.2 -42.5,-29.2 -3.8,-20.1 9,-39.4 28.7,-43.3"
         style="fill:#85279b;fill-opacity:1;fill-rule:nonzero;stroke:none"
         id="path27101" />
      <path
         d="m 38532.1,20334.1 c 118.9,-307.2 -29.4,-654.4 -331.3,-775.4 -301.9,-121 -643,30 -761.9,337.2 -118.9,307.2 29.4,654.4 331.3,775.4 301.9,121 643,-30 761.9,-337.2"
         style="fill:#9733af;fill-opacity:1;fill-rule:nonzero;stroke:none"
         id="path27103" />
      <path
         d="m 37552.4,19936.5 c -1.9,0 -3.9,0.3 -5.9,0.9 -5.2,1.8 -9.2,5.6 -11.4,10.2 -6.7,14.4 -11.2,27.8 -15.2,42 -4,14.1 -7.1,28.3 -9.4,42.6 -4.7,28.7 -6.6,57.7 -6,86.7 1,58.2 12.3,116.3 32.1,171.6 10,27.6 22.4,54.4 37,79.9 14.9,25.4 31.9,49.5 51.3,71.5 19.6,21.8 40.8,42 64.6,58.8 23.4,17.2 49.1,31.3 76.9,40.9 2.1,0.7 4.3,1.1 6.4,1.1 8.2,0 15.8,-5.3 18.6,-13.6 1.5,-4.6 1.3,-9.3 -0.2,-13.5 l -0.5,-1.5 c -5.2,-13.7 -11.4,-25.6 -17,-37.9 l -17,-35.6 c -11.4,-23.1 -21.9,-45.9 -32.5,-68 -10.4,-22.3 -20.4,-44.3 -30.2,-66.3 -9.4,-22.2 -19,-44.1 -28,-66.5 -17.7,-44.9 -33.9,-90.9 -49.1,-138.8 -15.5,-47.7 -29.3,-97.8 -45.7,-149.4 l -0.5,-1.6 c -2.7,-8.3 -10.2,-13.5 -18.3,-13.5"
         style="fill:#c185cf;fill-opacity:1;fill-rule:nonzero;stroke:none"
         id="path27105" />
      <path
         d="m 38327.5,20601.1 c 30.6,-39.9 56.1,-84.5 75.1,-133.6 114,-294.4 -46.7,-634.6 -358.9,-759.7 -171.7,-68.8 -353.3,-58.1 -501,14.2 158.7,-185.2 420.5,-258.5 658.1,-163.3 301.9,121 450.2,468.2 331.3,775.4 -43.1,111.4 -115.5,202.2 -204.6,267"
         style="fill:#85279b;fill-opacity:1;fill-rule:nonzero;stroke:none"
         id="path27107" />
      <path
         d="m 38106.7,20396.9 c 12.5,5.1 18.7,19.5 13.8,32.4 -5,12.8 -19.2,19 -31.8,14 -12.5,-5 -18.7,-19.5 -13.8,-32.3 5,-12.8 19.2,-19.1 31.8,-14.1"
         style="fill:#85279b;fill-opacity:1;fill-rule:nonzero;stroke:none"
         id="path27109" />
      <path
         d="m 38158,20014.9 c 9.4,3.8 13.9,14.5 10.3,24 -3.7,9.4 -14.2,14.1 -23.5,10.4 -9.4,-3.8 -13.9,-14.5 -10.3,-24 3.7,-9.5 14.2,-14.1 23.5,-10.4"
         style="fill:#85279b;fill-opacity:1;fill-rule:nonzero;stroke:none"
         id="path27111" />
      <path
         d="m 37752.4,19844.4 c 18.7,7.5 27.8,28.9 20.5,47.9 -7.4,18.9 -28.4,28.3 -47.1,20.8 -18.6,-7.5 -27.7,-28.9 -20.4,-47.9 7.3,-18.9 28.4,-28.3 47,-20.8"
         style="fill:#85279b;fill-opacity:1;fill-rule:nonzero;stroke:none"
         id="path27113" />
      <path
         d="m 38968.4,19231.1 c 93.8,-316.1 -81.9,-649.8 -392.5,-745.2 -310.7,-95.5 -638.5,83.4 -732.3,399.5 -93.8,316.1 82,649.7 392.6,745.2 310.6,95.5 638.4,-83.4 732.2,-399.5"
         style="fill:#9733af;fill-opacity:1;fill-rule:nonzero;stroke:none"
         id="path27115" />
      <path
         d="m 37961.6,18916.3 c -2.5,0 -4.9,0.5 -7.4,1.5 -5,2.2 -8.7,6.3 -10.5,11.1 -5.5,14.9 -9,28.7 -11.8,43.2 -2.8,14.3 -4.8,28.7 -5.9,43.2 -2.4,28.9 -2,58 0.9,86.9 5.7,57.9 21.7,114.8 45.8,168.3 12.2,26.7 26.7,52.4 43.3,76.6 16.9,24.1 35.8,46.6 56.9,67 21.2,20 44,38.4 69.1,53.2 24.7,15.1 51.4,27.1 80,34.4 1.6,0.4 3.2,0.6 4.8,0.6 8.8,0 16.8,-6.1 19.1,-15.2 1.1,-4.7 0.6,-9.4 -1.4,-13.5 l -0.6,-1.3 c -6.2,-13.3 -13.4,-24.7 -19.9,-36.5 l -19.9,-34 c -13.2,-22 -25.5,-43.9 -37.8,-65 -12.1,-21.4 -23.9,-42.5 -35.4,-63.6 -11.2,-21.3 -22.6,-42.4 -33.3,-64 -21.3,-43.3 -41.1,-87.8 -60.1,-134.3 -19.2,-46.2 -37.1,-95 -57.5,-145 l -0.7,-1.6 c -3.1,-7.5 -10.2,-12 -17.7,-12"
         style="fill:#c185cf;fill-opacity:1;fill-rule:nonzero;stroke:none"
         id="path27117" />
      <path
         d="m 38785.9,19514.2 c 27.3,-42.3 49.2,-88.8 64.2,-139.3 89.9,-303 -97.6,-628.6 -418.8,-727.3 -176.6,-54.3 -356.8,-28.6 -498.2,55.8 143.3,-197.8 398.3,-292.7 642.8,-217.5 310.6,95.4 486.3,429.1 392.5,745.2 -34,114.6 -98.9,211.1 -182.5,283.1"
         style="fill:#85279b;fill-opacity:1;fill-rule:nonzero;stroke:none"
         id="path27119" />
      <path
         d="m 38549.4,19329.2 c 13,3.9 20.3,17.8 16.4,31 -3.9,13.2 -17.6,20.6 -30.5,16.6 -13,-3.9 -20.3,-17.8 -16.4,-31 3.9,-13.2 17.6,-20.6 30.5,-16.6"
         style="fill:#85279b;fill-opacity:1;fill-rule:nonzero;stroke:none"
         id="path27121" />
      <path
         d="m 38569.9,18944.1 c 9.6,3 15,13.3 12.2,23 -2.9,9.8 -13.1,15.3 -22.6,12.3 -9.6,-2.9 -15.1,-13.2 -12.2,-22.9 2.9,-9.8 13.1,-15.3 22.6,-12.4"
         style="fill:#85279b;fill-opacity:1;fill-rule:nonzero;stroke:none"
         id="path27123" />
      <path
         d="m 38152,18807.9 c 19.1,5.9 30,26.5 24.2,46 -5.8,19.6 -26,30.6 -45.2,24.7 -19.2,-5.9 -30,-26.5 -24.2,-46 5.8,-19.5 26,-30.5 45.2,-24.7"
         style="fill:#85279b;fill-opacity:1;fill-rule:nonzero;stroke:none"
         id="path27125" />
      <path
         d="m 40900.8,18861.7 c 93.8,-316.1 -81.9,-649.8 -392.5,-745.3 -310.6,-95.4 -638.5,83.4 -732.3,399.5 -93.8,316.2 82,649.8 392.6,745.3 310.6,95.4 638.4,-83.4 732.2,-399.5"
         style="fill:#9733af;fill-opacity:1;fill-rule:nonzero;stroke:none"
         id="path27127" />
      <path
         d="m 39894,18546.9 c -2.4,0 -4.9,0.5 -7.3,1.5 -1.7,0.7 -3.2,1.6 -4.6,2.7 22.2,26.1 42.2,54 59.6,83.5 -9.5,-24.3 -19.1,-49.1 -29.3,-74.1 l -0.7,-1.6 c -3.1,-7.5 -10.2,-12 -17.7,-12 m 112.7,243.6 c 21.9,84.1 26,173.9 9.2,263.9 18.2,16.2 37.6,31.1 58.5,43.4 24.7,15.2 51.5,27.1 80,34.4 1.6,0.4 3.2,0.6 4.8,0.6 8.8,0 16.8,-6 19.1,-15.1 1.1,-4.7 0.6,-9.4 -1.3,-13.5 l -0.7,-1.4 c -6.2,-13.2 -13.3,-24.6 -19.9,-36.4 l -19.8,-34.1 c -13.3,-22 -25.5,-43.8 -37.9,-65 -12.1,-21.4 -23.8,-42.4 -35.4,-63.6 -11.2,-21.3 -22.5,-42.4 -33.3,-64 -8,-16.2 -15.7,-32.6 -23.3,-49.2"
         style="fill:#c185cf;fill-opacity:1;fill-rule:nonzero;stroke:none"
         id="path27129" />
      <path
         d="m 40718.3,19144.8 c 27.3,-42.3 49.2,-88.9 64.2,-139.4 89.9,-302.9 -97.6,-628.5 -418.8,-727.3 -176.6,-54.2 -356.8,-28.5 -498.2,55.9 143.3,-197.9 398.3,-292.7 642.8,-217.6 310.6,95.5 486.3,429.1 392.5,745.3 -34,114.6 -98.9,211.1 -182.5,283.1"
         style="fill:#85279b;fill-opacity:1;fill-rule:nonzero;stroke:none"
         id="path27131" />
      <path
         d="m 40481.9,18959.7 c 12.9,4 20.2,17.9 16.3,31.1 -3.9,13.1 -17.6,20.6 -30.5,16.6 -12.9,-4 -20.3,-17.9 -16.4,-31 4,-13.2 17.6,-20.7 30.6,-16.7"
         style="fill:#85279b;fill-opacity:1;fill-rule:nonzero;stroke:none"
         id="path27133" />
      <path
         d="m 40502.4,18574.7 c 9.5,2.9 15,13.2 12.1,23 -2.9,9.7 -13,15.3 -22.6,12.3 -9.6,-2.9 -15,-13.2 -12.1,-23 2.9,-9.7 13,-15.3 22.6,-12.3"
         style="fill:#85279b;fill-opacity:1;fill-rule:nonzero;stroke:none"
         id="path27135" />
      <path
         d="m 40084.4,18438.5 c 19.2,5.9 30,26.5 24.2,46 -5.8,19.5 -26,30.6 -45.2,24.7 -19.2,-5.9 -30,-26.5 -24.2,-46 5.8,-19.5 26,-30.6 45.2,-24.7"
         style="fill:#85279b;fill-opacity:1;fill-rule:nonzero;stroke:none"
         id="path27137" />
      <path
         d="m 40003.9,19105.9 c 88.3,-317.7 -93.3,-648.1 -405.5,-737.9 -312.3,-89.8 -636.9,95 -725.1,412.7 -88.3,317.8 93.3,648.2 405.5,738 312.2,89.8 636.9,-95 725.1,-412.8"
         style="fill:#9733af;fill-opacity:1;fill-rule:nonzero;stroke:none"
         id="path27139" />
      <path
         d="m 38992.1,18809.5 c -2.5,0 -5.2,0.5 -7.7,1.7 -5,2.2 -8.6,6.4 -10.3,11.2 -5.2,15 -8.5,28.9 -11.1,43.4 -2.5,14.4 -4.2,28.9 -5.1,43.3 -1.9,29 -1,58.1 2.5,86.9 6.6,57.8 23.6,114.4 48.7,167.4 12.7,26.5 27.6,51.9 44.7,75.8 17.2,23.8 36.6,46 58,66 21.6,19.6 44.7,37.6 70,51.9 25,14.7 51.9,26.2 80.6,32.9 1.5,0.4 3,0.6 4.5,0.6 8.9,0 17,-6.3 19.1,-15.5 1.1,-4.8 0.4,-9.5 -1.5,-13.5 l -0.7,-1.4 c -6.5,-13.1 -13.8,-24.4 -20.6,-36 l -20.4,-33.7 c -13.6,-21.8 -26.3,-43.4 -39,-64.3 -12.5,-21.2 -24.6,-42.1 -36.5,-62.9 -11.6,-21.2 -23.3,-42.1 -34.4,-63.4 -22,-43 -42.7,-87.1 -62.4,-133.2 -20.1,-45.9 -38.8,-94.3 -60.1,-143.9 l -0.7,-1.6 c -3.2,-7.3 -10.2,-11.7 -17.6,-11.7"
         style="fill:#c185cf;fill-opacity:1;fill-rule:nonzero;stroke:none"
         id="path27141" />
      <path
         d="m 39826.4,19392.3 c 26.6,-42.7 47.7,-89.7 61.7,-140.5 84.6,-304.5 -108.6,-626.7 -431.5,-719.5 -177.5,-51.1 -357.1,-22.1 -497.1,64.9 139.8,-200.4 393.2,-299.9 638.9,-229.2 312.2,89.8 493.8,420.2 405.5,737.9 -32,115.3 -95.1,212.9 -177.5,286.4"
         style="fill:#85279b;fill-opacity:1;fill-rule:nonzero;stroke:none"
         id="path27143" />
      <path
         d="m 39586.8,19211.6 c 13,3.7 20.5,17.5 16.9,30.7 -3.7,13.3 -17.2,21 -30.3,17.2 -13,-3.7 -20.5,-17.5 -16.8,-30.7 3.6,-13.2 17.2,-20.9 30.2,-17.2"
         style="fill:#85279b;fill-opacity:1;fill-rule:nonzero;stroke:none"
         id="path27145" />
      <path
         d="m 39600.5,18826.3 c 9.6,2.7 15.2,12.9 12.5,22.7 -2.7,9.8 -12.7,15.6 -22.4,12.8 -9.6,-2.8 -15.2,-13 -12.5,-22.8 2.7,-9.8 12.8,-15.5 22.4,-12.7"
         style="fill:#85279b;fill-opacity:1;fill-rule:nonzero;stroke:none"
         id="path27147" />
      <path
         d="m 39180.2,18697.7 c 19.3,5.5 30.5,25.9 25,45.6 -5.4,19.6 -25.4,31 -44.7,25.4 -19.3,-5.5 -30.5,-25.9 -25.1,-45.5 5.5,-19.6 25.5,-31 44.8,-25.5"
         style="fill:#85279b;fill-opacity:1;fill-rule:nonzero;stroke:none"
         id="path27149" />
      <path
         d="m 39538.7,20229.4 c 121.1,-306.4 -24.7,-654.6 -325.7,-777.9 -301,-123.3 -643.2,25.1 -764.4,331.4 -121.1,306.4 24.7,654.7 325.7,777.9 301,123.3 643.2,-25.1 764.4,-331.4"
         style="fill:#9733af;fill-opacity:1;fill-rule:nonzero;stroke:none"
         id="path27151" />
      <path
         d="m 38561.8,19824.4 c -2,0 -3.9,0.3 -5.8,0.9 -5.2,1.7 -9.3,5.5 -11.5,10.1 -6.8,14.3 -11.4,27.7 -15.6,41.9 -4,14 -7.2,28.2 -9.6,42.5 -4.9,28.6 -7.1,57.6 -6.7,86.7 0.6,58.1 11.5,116.3 30.9,171.8 9.8,27.6 22,54.6 36.4,80.2 14.7,25.5 31.6,49.7 50.8,71.8 19.4,22 40.5,42.3 64.2,59.3 23.2,17.4 48.8,31.7 76.6,41.5 2.1,0.8 4.3,1.1 6.5,1.1 8.1,0 15.7,-5.1 18.6,-13.4 1.5,-4.6 1.4,-9.3 -0.2,-13.6 l -0.5,-1.4 c -5,-13.7 -11.1,-25.7 -16.7,-38.1 l -16.7,-35.7 c -11.3,-23.1 -21.6,-46 -32,-68.2 -10.2,-22.4 -20.1,-44.4 -29.7,-66.5 -9.3,-22.3 -18.7,-44.3 -27.6,-66.8 -17.4,-45 -33.2,-91.2 -48,-139.1 -15.2,-47.8 -28.6,-98.1 -44.7,-149.7 l -0.5,-1.7 c -2.6,-8.3 -10.1,-13.6 -18.2,-13.6"
         style="fill:#c185cf;fill-opacity:1;fill-rule:nonzero;stroke:none"
         id="path27153" />
      <path
         d="m 39332.1,20494.8 c 30.9,-39.6 56.8,-84 76.1,-133 116.1,-293.5 -42.2,-634.9 -353.4,-762.4 -171.2,-70.1 -352.8,-60.8 -501.1,10.5 160.1,-184.1 422.4,-255.4 659.3,-158.4 301,123.3 446.8,471.5 325.7,777.9 -44,111.1 -117.1,201.2 -206.6,265.4"
         style="fill:#85279b;fill-opacity:1;fill-rule:nonzero;stroke:none"
         id="path27155" />
      <path
         d="m 39112.8,20289 c 12.5,5.1 18.6,19.7 13.5,32.4 -5,12.8 -19.3,19 -31.8,13.8 -12.5,-5.1 -18.6,-19.6 -13.6,-32.4 5.1,-12.7 19.3,-18.9 31.9,-13.8"
         style="fill:#85279b;fill-opacity:1;fill-rule:nonzero;stroke:none"
         id="path27157" />
      <path
         d="m 39166.9,19907.4 c 9.3,3.8 13.8,14.5 10.1,24 -3.8,9.4 -14.3,14 -23.6,10.2 -9.3,-3.8 -13.8,-14.5 -10.1,-24 3.8,-9.4 14.3,-14 23.6,-10.2"
         style="fill:#85279b;fill-opacity:1;fill-rule:nonzero;stroke:none"
         id="path27159" />
      <path
         d="m 38762.5,19733.8 c 18.6,7.6 27.6,29.1 20.2,48 -7.5,18.9 -28.6,28.1 -47.2,20.5 -18.6,-7.6 -27.6,-29.1 -20.1,-48 7.4,-18.9 28.6,-28.1 47.1,-20.5"
         style="fill:#85279b;fill-opacity:1;fill-rule:nonzero;stroke:none"
         id="path27161" />
      <path
         d="m 39247.3,18275.7 c 121.1,-306.3 -24.7,-654.6 -325.7,-777.8 -301,-123.3 -643.2,25.1 -764.3,331.4 -121.2,306.4 24.7,654.6 325.7,777.9 301,123.3 643.2,-25.1 764.3,-331.5"
         style="fill:#9733af;fill-opacity:1;fill-rule:nonzero;stroke:none"
         id="path27163" />
      <path
         d="m 38270.4,17870.8 c -1.9,0 -3.9,0.3 -5.8,0.9 -5.2,1.7 -9.2,5.5 -11.5,10.1 -6.7,14.3 -11.4,27.7 -15.5,41.9 -4.1,14 -7.3,28.2 -9.7,42.5 -4.9,28.6 -7,57.6 -6.7,86.7 0.6,58.1 11.6,116.3 30.9,171.7 9.8,27.7 22,54.6 36.5,80.2 14.6,25.5 31.5,49.7 50.7,71.9 19.4,21.9 40.5,42.3 64.2,59.3 23.3,17.3 48.9,31.6 76.6,41.5 2.2,0.8 4.4,1.1 6.5,1.1 8.2,0 15.8,-5.2 18.6,-13.4 1.6,-4.6 1.4,-9.4 -0.1,-13.6 l -0.5,-1.4 c -5.1,-13.7 -11.2,-25.8 -16.7,-38.1 l -16.8,-35.7 c -11.2,-23.1 -21.5,-46 -32,-68.2 -10.2,-22.4 -20,-44.5 -29.7,-66.5 -9.3,-22.3 -18.7,-44.3 -27.5,-66.8 -17.4,-45.1 -33.3,-91.2 -48.1,-139.2 -15.1,-47.8 -28.6,-98 -44.6,-149.6 l -0.5,-1.7 c -2.6,-8.3 -10.2,-13.6 -18.3,-13.6"
         style="fill:#c185cf;fill-opacity:1;fill-rule:nonzero;stroke:none"
         id="path27165" />
      <path
         d="m 39040.7,18541.1 c 30.9,-39.6 56.8,-84 76.1,-132.9 116.1,-293.6 -42.1,-634.9 -353.4,-762.4 -171.1,-70.1 -352.8,-60.8 -501.1,10.4 160.1,-184 422.4,-255.4 659.3,-158.3 301,123.2 446.8,471.5 325.7,777.8 -43.9,111.1 -117,201.3 -206.6,265.4"
         style="fill:#85279b;fill-opacity:1;fill-rule:nonzero;stroke:none"
         id="path27167" />
      <path
         d="m 38821.4,18335.4 c 12.5,5.1 18.6,19.6 13.6,32.4 -5.1,12.8 -19.3,18.9 -31.9,13.8 -12.5,-5.1 -18.6,-19.7 -13.5,-32.4 5,-12.8 19.3,-19 31.8,-13.8"
         style="fill:#85279b;fill-opacity:1;fill-rule:nonzero;stroke:none"
         id="path27169" />
      <path
         d="m 38875.6,17953.8 c 9.2,3.8 13.7,14.5 10,24 -3.7,9.4 -14.3,14 -23.6,10.2 -9.3,-3.8 -13.8,-14.6 -10,-24 3.7,-9.5 14.3,-14.1 23.6,-10.2"
         style="fill:#85279b;fill-opacity:1;fill-rule:nonzero;stroke:none"
         id="path27171" />
      <path
         d="m 38471.2,17780.2 c 18.6,7.6 27.6,29.1 20.1,48 -7.5,18.9 -28.6,28.1 -47.2,20.5 -18.6,-7.6 -27.6,-29.1 -20.1,-48.1 7.5,-18.9 28.6,-28 47.2,-20.4"
         style="fill:#85279b;fill-opacity:1;fill-rule:nonzero;stroke:none"
         id="path27173" />
      <path
         d="m 40167,18092.2 c 111.4,-281.7 -22.7,-601.9 -299.5,-715.3 -276.8,-113.4 -591.4,23.1 -702.8,304.8 -111.4,281.7 22.7,602 299.5,715.3 276.8,113.4 591.4,-23.1 702.8,-304.8"
         style="fill:#9733af;fill-opacity:1;fill-rule:nonzero;stroke:none"
         id="path27175" />
      <path
         d="m 39268.7,17719.8 c -1.7,0 -3.5,0.3 -5.3,0.9 -4.8,1.5 -8.5,5 -10.6,9.2 -6.2,13.2 -10.5,25.5 -14.3,38.5 -3.7,13 -6.7,26 -8.9,39.2 -4.5,26.3 -6.5,53 -6.1,79.7 0.5,53.4 10.6,106.9 28.4,157.9 9,25.5 20.2,50.2 33.5,73.8 13.5,23.4 29,45.7 46.7,66.1 17.8,20.1 37.2,38.8 59,54.5 21.4,15.9 44.9,29.1 70.5,38.1 1.9,0.7 4,1.1 5.9,1.1 7.5,0 14.5,-4.8 17.1,-12.4 1.5,-4.2 1.3,-8.6 -0.1,-12.5 l -0.5,-1.2 c -4.6,-12.7 -10.2,-23.8 -15.3,-35.1 l -15.4,-32.8 c -10.4,-21.3 -19.8,-42.4 -29.5,-62.7 -9.3,-20.6 -18.4,-40.9 -27.3,-61.2 -8.5,-20.5 -17.2,-40.8 -25.3,-61.4 -16,-41.4 -30.6,-83.9 -44.2,-128 -13.9,-43.9 -26.3,-90.1 -41,-137.6 l -0.5,-1.6 c -2.4,-7.6 -9.3,-12.5 -16.8,-12.5"
         style="fill:#c185cf;fill-opacity:1;fill-rule:nonzero;stroke:none"
         id="path27177" />
      <path
         d="m 39977.1,18336.3 c 28.4,-36.5 52.2,-77.3 70,-122.3 106.7,-269.9 -38.8,-583.8 -325,-701.1 -157.4,-64.4 -324.5,-55.9 -460.8,9.6 147.2,-169.2 388.4,-234.8 606.2,-145.6 276.8,113.4 410.9,433.6 299.5,715.3 -40.4,102.2 -107.6,185.1 -189.9,244.1"
         style="fill:#85279b;fill-opacity:1;fill-rule:nonzero;stroke:none"
         id="path27179" />
      <path
         d="m 39775.4,18147.1 c 11.5,4.7 17.1,18 12.5,29.8 -4.7,11.7 -17.8,17.4 -29.3,12.7 -11.5,-4.8 -17.1,-18.1 -12.5,-29.8 4.7,-11.8 17.8,-17.5 29.3,-12.7"
         style="fill:#85279b;fill-opacity:1;fill-rule:nonzero;stroke:none"
         id="path27181" />
      <path
         d="m 39825.2,17796.1 c 8.5,3.5 12.7,13.4 9.2,22.1 -3.4,8.7 -13.1,12.9 -21.7,9.4 -8.5,-3.5 -12.6,-13.4 -9.2,-22.1 3.4,-8.7 13.2,-12.9 21.7,-9.4"
         style="fill:#85279b;fill-opacity:1;fill-rule:nonzero;stroke:none"
         id="path27183" />
      <path
         d="m 39453.3,17636.5 c 17.1,7 25.4,26.8 18.5,44.2 -6.8,17.4 -26.3,25.8 -43.4,18.8 -17,-7 -25.3,-26.8 -18.4,-44.2 6.8,-17.4 26.3,-25.8 43.3,-18.8"
         style="fill:#85279b;fill-opacity:1;fill-rule:nonzero;stroke:none"
         id="path27185" />
      <path
         d="m 39379.1,17424.7 c 187.9,-240 149,-589.5 -86.8,-780.7 -235.8,-191.1 -579.2,-151.6 -767,88.4 -187.9,240 -149,589.5 86.8,780.6 235.8,191.2 579.2,151.6 767,-88.3"
         style="fill:#9733af;fill-opacity:1;fill-rule:nonzero;stroke:none"
         id="path27187" />
      <path
         d="m 38610.1,16799.1 c -0.1,0 -0.2,0 -0.3,0 -5.1,0.1 -9.7,2.4 -12.9,5.9 -9.8,10.9 -17.4,21.6 -24.8,33.1 -7.3,11.4 -13.8,23.2 -19.7,35.3 -11.8,24.1 -21.3,49.3 -28.6,75.3 -14.6,51.9 -20.1,106.7 -17.3,161.3 1.5,27.3 5.3,54.5 11.5,81.3 6.4,26.6 15.1,52.7 26.4,77.6 11.6,24.8 25,48.6 41.6,70.2 16.3,21.7 35.3,41.4 57.4,57.7 3.3,2.4 7,3.5 10.7,3.5 5.7,0 11.3,-2.7 14.9,-7.7 2.6,-3.7 3.7,-7.9 3.4,-12.1 l -0.1,-1.4 c -0.9,-13.6 -3.2,-26 -4.9,-38.4 l -5.6,-36.4 c -4,-23.6 -7.1,-46.8 -10.7,-69.3 -3.2,-22.7 -6.2,-45.1 -9,-67.3 -2.5,-22.3 -5.1,-44.5 -7.1,-66.9 -3.7,-44.8 -5.8,-90.2 -6.5,-136.9 -1,-46.7 0.2,-95 -0.6,-145.3 l -0.1,-1.7 c -0.1,-9.8 -8,-17.8 -17.7,-17.8"
         style="fill:#c185cf;fill-opacity:1;fill-rule:nonzero;stroke:none"
         id="path27189" />
      <path
         d="m 39125.9,17605.1 c 37.9,-26.9 72.5,-59.5 102.5,-97.8 180,-230 128.3,-576.7 -115.6,-774.4 -134,-108.7 -298.2,-149.5 -448.8,-126.2 190.6,-120.6 442.7,-113.1 628.3,37.3 235.8,191.2 274.7,540.7 86.8,780.7 -68.1,87 -156.7,147.5 -253.2,180.4"
         style="fill:#85279b;fill-opacity:1;fill-rule:nonzero;stroke:none"
         id="path27191" />
      <path
         d="m 38984.4,17362.6 c 9.8,7.9 11.4,22.5 3.6,32.5 -7.8,10 -22.1,11.6 -32,3.7 -9.8,-8 -11.4,-22.6 -3.6,-32.6 7.9,-10 22.2,-11.6 32,-3.6"
         style="fill:#85279b;fill-opacity:1;fill-rule:nonzero;stroke:none"
         id="path27193" />
      <path
         d="m 39132.3,17037.4 c 7.2,5.9 8.4,16.7 2.6,24.1 -5.8,7.4 -16.4,8.7 -23.6,2.8 -7.3,-5.9 -8.5,-16.7 -2.7,-24.1 5.8,-7.4 16.4,-8.7 23.7,-2.8"
         style="fill:#85279b;fill-opacity:1;fill-rule:nonzero;stroke:none"
         id="path27195" />
      <path
         d="m 38817.6,16773.5 c 14.5,11.8 16.9,33.4 5.3,48.2 -11.6,14.8 -32.8,17.3 -47.3,5.5 -14.6,-11.8 -17,-33.4 -5.4,-48.2 11.6,-14.8 32.8,-17.3 47.4,-5.5"
         style="fill:#85279b;fill-opacity:1;fill-rule:nonzero;stroke:none"
         id="path27197" />
      <path
         d="m 41499.8,19782 c 87.4,-318 -95.1,-647.9 -407.6,-736.8 -312.4,-88.9 -636.6,96.8 -723.9,414.8 -87.4,318 95.1,647.9 407.5,736.8 312.5,88.9 636.6,-96.8 724,-414.8"
         style="fill:#9733af;fill-opacity:1;fill-rule:nonzero;stroke:none"
         id="path27199" />
      <path
         d="m 40487.3,19488.4 c -2.6,0 -5.3,0.6 -7.8,1.7 -5,2.2 -8.6,6.5 -10.3,11.3 -2.6,7.6 -4.8,15 -6.6,22.3 29.4,54.2 51.2,113.9 63.9,177.8 12.9,65.6 15.2,130.8 8.2,193.8 4.9,7.7 10,15.3 15.3,22.7 17.3,23.7 36.7,45.8 58.2,65.7 21.7,19.7 44.8,37.5 70.2,51.8 25,14.6 52,26 80.6,32.7 1.5,0.3 3,0.5 4.5,0.5 8.9,0 17,-6.3 19.1,-15.6 1.1,-4.7 0.4,-9.4 -1.6,-13.4 l -0.6,-1.3 c -6.5,-13.2 -13.9,-24.4 -20.7,-36.1 l -20.5,-33.6 c -13.7,-21.7 -26.4,-43.3 -39.2,-64.2 -12.5,-21.1 -24.7,-42 -36.7,-62.8 -11.6,-21.1 -23.4,-42 -34.6,-63.3 -22.1,-42.9 -42.9,-86.9 -62.7,-133 -20.2,-45.8 -39,-94.2 -60.5,-143.8 l -0.7,-1.5 c -3.2,-7.3 -10.2,-11.7 -17.5,-11.7"
         style="fill:#c185cf;fill-opacity:1;fill-rule:nonzero;stroke:none"
         id="path27201" />
      <path
         d="m 41323.1,20068.9 c 26.4,-42.9 47.4,-89.9 61.3,-140.7 83.8,-304.7 -110.3,-626.3 -433.4,-718.3 -177.7,-50.6 -357.3,-21.1 -497,66.3 139.3,-200.8 392.3,-301 638.2,-231 312.5,88.9 495,418.8 407.6,736.8 -31.7,115.3 -94.6,213.1 -176.7,286.9"
         style="fill:#85279b;fill-opacity:1;fill-rule:nonzero;stroke:none"
         id="path27203" />
      <path
         d="m 41082.9,19888.8 c 13,3.7 20.6,17.5 17,30.7 -3.6,13.3 -17.1,21 -30.2,17.3 -13,-3.7 -20.6,-17.4 -16.9,-30.7 3.6,-13.2 17.1,-21 30.1,-17.3"
         style="fill:#85279b;fill-opacity:1;fill-rule:nonzero;stroke:none"
         id="path27205" />
      <path
         d="m 41095.6,19503.5 c 9.7,2.7 15.3,12.9 12.6,22.7 -2.7,9.8 -12.7,15.6 -22.4,12.8 -9.6,-2.7 -15.2,-12.9 -12.5,-22.7 2.7,-9.9 12.7,-15.6 22.3,-12.8"
         style="fill:#85279b;fill-opacity:1;fill-rule:nonzero;stroke:none"
         id="path27207" />
      <path
         d="m 40675,19376.1 c 19.3,5.5 30.5,25.8 25.1,45.5 -5.4,19.6 -25.4,31.1 -44.7,25.6 -19.2,-5.5 -30.5,-25.9 -25.1,-45.5 5.4,-19.6 25.4,-31.1 44.7,-25.6"
         style="fill:#85279b;fill-opacity:1;fill-rule:nonzero;stroke:none"
         id="path27209" />
      <path
         d="m 40526.5,19701.5 c -66.7,-337.4 -389.6,-556 -721.1,-488.1 -331.6,67.9 -546.4,396.4 -479.7,733.9 66.7,337.4 389.6,556 721.1,488.1 331.6,-67.9 546.3,-396.4 479.7,-733.9"
         style="fill:#9733af;fill-opacity:1;fill-rule:nonzero;stroke:none"
         id="path27211" />
      <path
         d="m 39458.6,19914.2 c -5.8,0 -11.6,2.6 -15.5,7.5 -3.6,4.5 -5,10.1 -4.3,15.5 2.1,16.4 5.6,30.8 9.9,45.5 4.4,14.6 9.6,28.9 15.5,42.7 11.9,27.8 26.3,54.3 42.9,79.4 33.2,50.3 75.5,94.7 123.5,131.7 24.1,18.4 49.9,34.7 76.9,48.7 27.1,13.6 55.4,24.9 84.6,33 29.2,7.8 59,13.3 89.2,14.3 5.7,0.3 11.4,0.4 17,0.4 24.5,0 49,-2.7 73.1,-8.9 11,-2.8 17.7,-14.1 15,-25.3 -1.3,-4.9 -4.1,-9 -7.8,-11.7 l -1.2,-1 c -12.1,-9 -24.2,-15.9 -36,-23.4 l -34.6,-21.4 c -22.9,-13.6 -44.7,-27.6 -66.3,-40.8 -21.4,-13.6 -42.4,-27.1 -63.2,-40.7 -20.7,-13.9 -41.3,-27.7 -61.6,-42.1 -40.5,-29.2 -80.2,-60.1 -120.1,-93.3 -40.1,-32.8 -80.1,-68.7 -123.1,-104.4 l -1.3,-1.1 c -3.7,-3.1 -8.2,-4.6 -12.6,-4.6"
         style="fill:#c185cf;fill-opacity:1;fill-rule:nonzero;stroke:none"
         id="path27213" />
      <path
         d="m 40495.7,20053.1 c 4.6,-52.6 2.2,-106.3 -8.5,-160.2 -63.9,-323.4 -393.6,-528.7 -736.5,-458.5 -188.5,38.6 -341.6,152.5 -430.7,300.9 36,-253.6 224.4,-468.5 485.4,-521.9 331.5,-67.9 654.4,150.7 721.1,488.1 24.1,122.4 11.1,243.5 -30.8,351.6"
         style="fill:#85279b;fill-opacity:1;fill-rule:nonzero;stroke:none"
         id="path27215" />
      <path
         d="m 40188.9,20001.5 c 13.8,-2.8 27.3,6.3 30,20.3 2.8,14.1 -6.1,27.8 -19.9,30.6 -13.9,2.8 -27.3,-6.3 -30.1,-20.3 -2.8,-14.1 6.2,-27.8 20,-30.6"
         style="fill:#85279b;fill-opacity:1;fill-rule:nonzero;stroke:none"
         id="path27217" />
      <path
         d="m 40021.5,19637.4 c 10.3,-2.1 20.2,4.7 22.3,15.1 2,10.4 -4.6,20.6 -14.8,22.7 -10.2,2.1 -20.2,-4.7 -22.3,-15.1 -2,-10.4 4.6,-20.6 14.8,-22.7"
         style="fill:#85279b;fill-opacity:1;fill-rule:nonzero;stroke:none"
         id="path27219" />
      <path
         d="m 39571.6,19721.7 c 20.5,-4.2 40.4,9.3 44.5,30.1 4.2,20.8 -9.1,41.1 -29.6,45.3 -20.4,4.2 -40.4,-9.3 -44.5,-30.1 -4.1,-20.8 9.2,-41.1 29.6,-45.3"
         style="fill:#85279b;fill-opacity:1;fill-rule:nonzero;stroke:none"
         id="path27221" />
      <path
         d="m 40195.6,21154.9 c 112.9,-329.1 -57.6,-689 -380.9,-804 -323.3,-115 -677.1,58.5 -790.1,387.6 -112.9,329 57.6,689 380.9,804 323.3,115 677.1,-58.5 790.1,-387.6"
         style="fill:#9733af;fill-opacity:1;fill-rule:nonzero;stroke:none"
         id="path27223" />
      <path
         d="m 39146.9,20776.5 c -2.4,0 -4.7,0.4 -7,1.3 -5.4,2 -9.5,6.2 -11.6,11.2 -0.4,1 -0.8,2 -1.2,3 24.6,66 38.2,137.7 38.2,212.5 0,52.5 -6.7,103.5 -19.2,152 11.2,26.6 24.6,52.4 39.9,76.9 16.7,26.1 35.6,50.8 56.9,73.2 21.6,22.2 44.7,42.6 70.6,59.3 25.4,17.1 53,31 82.8,40 2,0.6 3.9,0.9 5.9,0.9 9,0 17.2,-6 19.9,-15.2 1.5,-4.9 1.1,-9.9 -0.8,-14.2 l -0.6,-1.5 c -5.9,-14.3 -13,-26.6 -19.4,-39.4 l -19.4,-36.8 c -13,-23.8 -24.9,-47.4 -37,-70.3 -11.8,-23.1 -23.3,-45.9 -34.5,-68.7 -10.9,-23 -21.9,-45.8 -32.3,-69 -20.5,-46.7 -39.5,-94.5 -57.4,-144.4 -18.2,-49.6 -34.9,-101.9 -54.2,-155.6 l -0.7,-1.7 c -3,-8.3 -10.7,-13.5 -18.9,-13.5"
         style="fill:#c185cf;fill-opacity:1;fill-rule:nonzero;stroke:none"
         id="path27225" />
      <path
         d="m 39990.5,21445.1 c 30.7,-43.3 55.8,-91.4 73.8,-144 108.3,-315.4 -74.9,-667.4 -409.3,-786.4 -183.8,-65.3 -375,-46.5 -527.9,36 160,-202.1 433.1,-290.3 687.6,-199.8 323.3,115 493.8,474.9 380.9,804 -41,119.4 -113.8,218.1 -205.1,290.2"
         style="fill:#85279b;fill-opacity:1;fill-rule:nonzero;stroke:none"
         id="path27227" />
      <path
         d="m 39749.3,21239 c 13.5,4.8 20.6,19.8 15.9,33.5 -4.7,13.7 -19.5,21 -32.9,16.2 -13.5,-4.8 -20.6,-19.8 -15.9,-33.5 4.7,-13.7 19.4,-21 32.9,-16.2"
         style="fill:#85279b;fill-opacity:1;fill-rule:nonzero;stroke:none"
         id="path27229" />
      <path
         d="m 39788.1,20833.9 c 9.9,3.5 15.2,14.7 11.7,24.8 -3.5,10.2 -14.4,15.5 -24.4,12 -9.9,-3.6 -15.2,-14.7 -11.7,-24.8 3.5,-10.2 14.4,-15.6 24.4,-12"
         style="fill:#85279b;fill-opacity:1;fill-rule:nonzero;stroke:none"
         id="path27231" />
      <path
         d="m 39353.3,20671 c 20,7.1 30.5,29.3 23.5,49.6 -7,20.4 -28.8,31.1 -48.8,24 -19.9,-7.1 -30.4,-29.3 -23.5,-49.7 7,-20.3 28.8,-31 48.8,-23.9"
         style="fill:#85279b;fill-opacity:1;fill-rule:nonzero;stroke:none"
         id="path27233" />
      <path
         d="m 39165.3,21004.5 c 0,-330.2 -263.1,-597.9 -587.5,-597.9 -324.5,0 -587.5,267.7 -587.5,597.9 0,330.2 263,597.9 587.5,597.9 324.4,0 587.5,-267.7 587.5,-597.9"
         style="fill:#9733af;fill-opacity:1;fill-rule:nonzero;stroke:none"
         id="path27235" />
      <path
         d="m 38117.6,20998.6 c -4.3,0 -8.6,1.4 -12.2,4.4 -4.2,3.6 -6.6,8.6 -6.9,13.8 -1.1,15.8 -0.5,30 0.9,44.7 1.4,14.6 3.6,29 6.6,43.1 6,28.4 14.6,56.2 25.6,83 21.9,53.7 53.4,103.5 91.7,147.6 19.3,22 40.4,42.3 63.2,60.6 23,18.1 47.5,34.1 73.4,47.4 26.1,12.9 53.1,23.8 81.3,30.6 24,6.2 48.6,9.7 73.7,9.7 4.2,0 8.4,-0.1 12.7,-0.3 10.8,-0.6 19.2,-10 18.7,-21 -0.2,-4.8 -2.1,-9.2 -5.1,-12.5 l -1,-1.1 c -9.7,-10.9 -19.8,-19.7 -29.4,-29.1 l -28.7,-26.7 c -18.9,-17.2 -36.8,-34.5 -54.7,-51.1 -17.7,-16.9 -34.9,-33.7 -51.9,-50.5 -16.8,-17.1 -33.7,-33.9 -50.1,-51.4 -32.7,-35.2 -64.3,-72 -95.6,-110.9 -31.6,-38.6 -62.5,-80 -96.3,-121.9 l -1.1,-1.3 c -3.8,-4.7 -9.3,-7.1 -14.8,-7.1"
         style="fill:#c185cf;fill-opacity:1;fill-rule:nonzero;stroke:none"
         id="path27237" />
      <path
         d="m 39071,21329.2 c 14.1,-48.5 21.8,-99.5 21.8,-152.2 0,-316.5 -272,-573.1 -607.5,-573.1 -184.5,0 -349.6,77.7 -461,200.1 80.9,-231.6 298.1,-397.4 553.5,-397.4 324.4,0 587.5,267.7 587.5,597.9 0,119.8 -34.8,231.2 -94.3,324.7"
         style="fill:#85279b;fill-opacity:1;fill-rule:nonzero;stroke:none"
         id="path27239" />
      <path
         d="m 38792,21221.7 c 13.6,0 24.5,11.1 24.5,24.9 0,13.7 -10.9,24.9 -24.5,24.9 -13.5,0 -24.4,-11.2 -24.4,-24.9 0,-13.8 10.9,-24.9 24.4,-24.9"
         style="fill:#85279b;fill-opacity:1;fill-rule:nonzero;stroke:none"
         id="path27241" />
      <path
         d="m 38702.3,20847 c 10,0 18.1,8.3 18.1,18.5 0,10.2 -8.1,18.4 -18.1,18.4 -10,0 -18.1,-8.2 -18.1,-18.4 0,-10.2 8.1,-18.5 18.1,-18.5"
         style="fill:#85279b;fill-opacity:1;fill-rule:nonzero;stroke:none"
         id="path27243" />
      <path
         d="m 38263.5,20839.7 c 20,0 36.2,16.5 36.2,36.9 0,20.3 -16.2,36.9 -36.2,36.9 -20,0 -36.3,-16.6 -36.3,-36.9 0,-20.4 16.3,-36.9 36.3,-36.9"
         style="fill:#85279b;fill-opacity:1;fill-rule:nonzero;stroke:none"
         id="path27245" />
    </g>
  </g>
</svg>
