<?xml version="1.0" encoding="UTF-8" standalone="no"?>
<!-- Created with Inkscape (http://www.inkscape.org/) -->

<svg
   version="1.1"
   id="svg13201"
   width="472.54077"
   height="464.9567"
   viewBox="0 0 472.54077 464.95669"
   sodipodi:docname="17088562_Set_of_cute_fruits.eps"
   xmlns:inkscape="http://www.inkscape.org/namespaces/inkscape"
   xmlns:sodipodi="http://sodipodi.sourceforge.net/DTD/sodipodi-0.dtd"
   xmlns="http://www.w3.org/2000/svg"
   xmlns:svg="http://www.w3.org/2000/svg">
  <g
     id="g13209"
     inkscape:groupmode="layer"
     inkscape:label="Page 1"
     transform="matrix(1.3333333,0,0,-1.3333333,-3708.0037,2266.0599)">
    <g
       id="g13211"
       transform="scale(0.1)">
      <path
         d="m 28213.8,13982.3 c 589.3,-491.1 2191.8,-821 2842,158.8 940.2,1416.8 -642.7,2646 -642.7,2646 l -2199.3,-2804.8"
         style="fill:#855b25;fill-opacity:1;fill-rule:nonzero;stroke:none"
         id="path13365" />
      <path
         d="m 30457.2,16751.6 c 363.8,-285.4 539.9,-813.2 454.9,-1320.7 -163.3,-975.9 -1078.5,-1799.1 -2004.1,-1727.6 -337,26.1 -641.1,173.6 -841.5,438.9 -576.2,762.9 -121.7,2098.5 768.4,2614.1 488.3,282.8 1090.9,328.4 1524.3,63.4 34,-20.8 66.7,-43.5 98,-68.1"
         style="fill:#8bc05a;fill-opacity:1;fill-rule:nonzero;stroke:none"
         id="path13367" />
      <path
         d="m 30395.6,16672.6 c 343.4,-269.4 509.6,-767.4 429.4,-1246.5 -154.2,-921 -1017.9,-1698 -1891.5,-1630.5 -318,24.6 -605,163.9 -794.2,414.3 -543.8,720 -114.8,1980.5 725.2,2467.1 460.9,266.9 1029.7,309.9 1438.7,59.9 32.1,-19.6 62.9,-41.1 92.4,-64.3"
         style="fill:#99d166;fill-opacity:1;fill-rule:nonzero;stroke:none"
         id="path13369" />
      <path
         d="m 30347.7,16611.1 c 327.4,-256.9 485.9,-731.9 409.4,-1188.7 -147,-878.3 -970.7,-1619.2 -1803.7,-1554.9 -303.3,23.5 -577,156.3 -757.4,395 -518.6,686.7 -109.5,1888.8 691.6,2352.8 439.5,254.5 981.9,295.5 1371.9,57.1 30.6,-18.7 60,-39.2 88.2,-61.3"
         style="fill:#a8da7b;fill-opacity:1;fill-rule:nonzero;stroke:none"
         id="path13371" />
      <path
         d="m 28523.7,15266.7 c 5.5,14.5 12.4,28.7 20.2,42.1 37.7,65 96.8,112.3 125.4,183 38.1,94.2 17.1,197.8 100.9,273.8 71,64.3 169.1,74.7 236.4,146.1 37.6,39.9 60,93.5 100.1,130.7 38,35.2 87.1,51.1 134.3,65 64.8,19 133.8,43.7 199.4,53.2 57.2,8.3 99.2,-23.2 155,-25.3 48.6,-1.8 99.2,24.8 147.6,21.9 73,-4.5 100.9,-71 158.8,-99.8 56,-27.8 134.9,-10.2 179.9,-58.6 31.5,-33.8 31.2,-84.7 42,-129.7 14.5,-59.9 54.1,-79 83.6,-127 14.3,-23.2 21.4,-53.5 12.4,-82.7 -7.5,-24.3 -25.1,-45 -35.2,-68.6 -28.2,-65.7 7,-132.4 6.6,-200.7 -0.7,-122.2 -120.3,-197 -132.5,-310.9 -4,-37.8 6.4,-76.7 -10.5,-112.2 -25.7,-54.1 -92.7,-67.9 -132,-108.1 -49.2,-50.5 -67.6,-123.6 -118.1,-173.3 -87.8,-86.5 -197.9,-37.9 -289.1,-101.4 -27.8,-19.3 -48.9,-47.8 -73.9,-71.3 -62.5,-59 -118.2,-27.5 -185.3,-22.9 -65.5,4.5 -135,-24.2 -199.8,-16.5 -51.2,6.2 -86.4,35.3 -128.3,59.5 -35.7,20.8 -77,27.6 -115.1,44.7 -81.9,36.8 -148.1,124.1 -181.3,209.9 -35.9,92.5 -33.6,202.2 -76.7,294.3 -14.6,31.3 -32.7,61.4 -37.3,97 -3.7,28.6 1.6,58.9 12.5,87.8"
         style="fill:#8bc05a;fill-opacity:1;fill-rule:nonzero;stroke:none"
         id="path13373" />
      <path
         d="m 28808.4,15285.9 c 23.3,54 77.6,89.6 102.4,143 18.4,39.6 5.8,79.5 18,120.4 9,30.1 -208,349.1 -176.5,374.3 31.6,25.2 311.6,-243.3 338.8,-236.2 59,15.6 65.7,70.5 103.5,113.4 21.3,24.2 -102,532.7 -72.1,540 14.9,3.6 181.6,-491.5 196.6,-488.4 23.1,4.8 45.5,10.5 65,21.5 28.6,16.3 56.2,27.2 86.2,18.6 33.9,-9.7 56.7,-27.2 95.1,-22 28.2,3.9 210.5,551.2 238.1,545.6 31.6,-6.3 -110,-564.6 -86.1,-580.8 19.6,-13.4 53.1,-23.2 77,-27.9 30.6,-6.2 54.9,-0.3 76.6,-29 31.4,-41.3 14.4,-101.1 55.2,-141.3 12.3,-12.2 431.3,53 439.3,37.2 12.6,-25.1 -401.3,-128.7 -416.3,-153.8 -19,-31.8 -26.3,-26.5 -19.5,-65.7 4.3,-24.8 11.9,-49.6 15.1,-74.9 3.2,-25.3 452.7,-123.3 439.2,-149.9 -10.6,-21 -476.8,30.9 -491.5,10.3 -23.9,-33.7 -45.6,-68.1 -40.9,-107.4 1.7,-13.7 6.2,-27.3 2.7,-41.4 -6.1,-25.4 -33.5,-39.6 -56.9,-50.6 -34.5,-16.2 284.7,-308.7 269.3,-337.2 -15.8,-29 -366.2,205.9 -392.5,180.5 -67.7,-65.1 -152.6,-9.8 -211.6,-79.8 -14.6,-17.3 89.6,-504.1 69.8,-513.2 -22.5,-10.4 -163,455.2 -187.7,457.9 -36.9,4.1 -75.2,13.2 -111.9,-1 -50,-19.2 -93.8,-6.2 -130.8,22.8 -16.4,12.8 -25.9,25.5 -45.9,32.1 -31.5,10.4 -413.4,-405.8 -438.7,-379.6 -10.2,10.4 333.5,432.3 326.7,445.6 -15,29.9 -27.5,60.8 -47,86.4 -16.8,22.2 -40.1,38.6 -44.2,70.1 -4.8,30.5 15.2,64.7 -0.4,92.9 -23.6,42.4 -432.2,40.6 -428.2,98.4 1.1,15.7 378.7,56.4 384.1,69.1"
         style="fill:#d4edb0;fill-opacity:1;fill-rule:nonzero;stroke:none"
         id="path13375" />
      <path
         d="m 28901.8,15294.5 c 19.1,44.4 63.6,73.6 84,117.4 15.1,32.5 4.8,65.2 14.8,98.7 14.7,49.5 88.5,101.6 133.2,113.4 48.4,12.8 53.9,57.8 84.9,93.1 39.6,44.9 108.4,33.2 155.5,60 23.5,13.3 46.1,22.3 70.8,15.2 27.8,-7.9 46.5,-22.3 78,-18 23.2,3.1 47.9,18.4 70.6,13.9 25.9,-5.2 34.6,-29.5 54.1,-42.8 16.2,-11 43.6,-19.1 63.2,-23 25.1,-5 45.1,-0.2 62.9,-23.7 25.8,-33.9 11.9,-83 45.3,-116 10.1,-10 21.8,-18.7 28.4,-31.7 10.3,-20.6 2.8,-43.4 -9.5,-64 -15.6,-26.1 -21.6,-21.7 -16,-53.9 7,-40.7 25,-81.5 2.9,-125.1 -22.9,-45.4 -73.3,-87 -67,-139 1.4,-11.3 5,-22.4 2.2,-34 -5,-20.9 -27.5,-32.6 -46.7,-41.6 -57.3,-26.8 -58.3,-87.3 -101.1,-128.5 -55.6,-53.5 -125.2,-8.1 -173.6,-65.5 -12,-14.3 -22.1,-31.9 -38.4,-39.4 -46.1,-21.3 -100,12.6 -150.3,-6.8 -40.9,-15.8 -76.9,-5.1 -107.3,18.7 -13.5,10.5 -21.3,20.9 -37.6,26.3 -25.9,8.5 -51.7,2.1 -72.5,23.6 -8.3,8.6 -13.9,19.7 -19.4,30.6 -12.4,24.5 -22.7,49.9 -38.6,70.9 -13.8,18.2 -33,31.6 -36.3,57.5 -4,25 12.5,53.1 -0.4,76.2 -19.3,34.8 -47.7,55.4 -44.5,102.8 0.9,12.9 3.9,24.3 8.4,34.7"
         style="fill:#fffdec;fill-opacity:1;fill-rule:nonzero;stroke:none"
         id="path13377" />
      <path
         d="m 28929.2,15615.1 c 41.5,-28.7 57.3,-77.6 35.2,-109.2 -22.1,-31.6 -73.6,-34 -115.2,-5.2 -41.5,28.7 -57.3,77.5 -35.2,109.1 22.1,31.6 73.6,34 115.2,5.3"
         style="fill:#535363;fill-opacity:1;fill-rule:nonzero;stroke:none"
         id="path13379" />
      <path
         d="m 28711.7,14957 c 45.2,29.4 93.7,29.8 108.2,0.9 14.5,-28.8 -10.4,-76 -55.6,-105.4 -45.3,-29.4 -93.7,-29.8 -108.3,-1 -14.5,28.9 10.4,76.1 55.7,105.5"
         style="fill:#535363;fill-opacity:1;fill-rule:nonzero;stroke:none"
         id="path13381" />
      <path
         d="m 28866.1,14782.6 c 27.4,39.2 67.7,58.4 90.2,42.9 22.4,-15.5 18.3,-59.8 -9,-99 -27.4,-39.2 -67.8,-58.4 -90.2,-42.9 -22.4,15.5 -18.4,59.8 9,99"
         style="fill:#535363;fill-opacity:1;fill-rule:nonzero;stroke:none"
         id="path13383" />
      <path
         d="m 28722.7,15211.3 c 46.5,11.9 86.9,-3.8 90.2,-35.2 3.3,-31.3 -31.7,-66.4 -78.3,-78.3 -46.5,-11.9 -86.9,3.8 -90.2,35.2 -3.3,31.3 31.7,66.4 78.3,78.3"
         style="fill:#535363;fill-opacity:1;fill-rule:nonzero;stroke:none"
         id="path13385" />
      <path
         d="m 29837,15864.9 c 36,36.2 81.2,47.9 100.9,26.2 19.7,-21.8 6.6,-68.8 -29.4,-105.1 -36,-36.2 -81.2,-47.9 -100.9,-26.1 -19.8,21.8 -6.6,68.8 29.4,105"
         style="fill:#535363;fill-opacity:1;fill-rule:nonzero;stroke:none"
         id="path13387" />
      <path
         d="m 30036.4,15718.3 c 54.6,20.5 105.4,7.8 113.4,-28.4 8,-36.2 -29.7,-82.2 -84.4,-102.7 -54.6,-20.5 -105.4,-7.8 -113.4,28.5 -8,36.2 29.8,82.1 84.4,102.6"
         style="fill:#535363;fill-opacity:1;fill-rule:nonzero;stroke:none"
         id="path13389" />
      <path
         d="m 30015.3,15399.2 c 46.8,-0.8 80.8,-28 76,-60.7 -4.8,-32.7 -46.6,-58.5 -93.4,-57.7 -46.8,0.8 -80.8,27.9 -76,60.6 4.8,32.7 46.6,58.6 93.4,57.8"
         style="fill:#535363;fill-opacity:1;fill-rule:nonzero;stroke:none"
         id="path13391" />
      <path
         d="m 29218.8,15857.8 c 20.5,-40.7 14.6,-88.3 -13.1,-106.3 -27.8,-18 -66.9,0.4 -87.4,41 -20.5,40.7 -14.6,88.3 13.2,106.3 27.7,18.1 66.8,-0.3 87.3,-41"
         style="fill:#535363;fill-opacity:1;fill-rule:nonzero;stroke:none"
         id="path13393" />
      <path
         d="m 29979.9,15165 c 44.2,-22.4 65.2,-67.2 46.9,-100.1 -18.3,-32.9 -69,-41.4 -113.2,-19 -44.2,22.4 -65.2,67.2 -46.9,100.1 18.3,32.9 69,41.4 113.2,19"
         style="fill:#535363;fill-opacity:1;fill-rule:nonzero;stroke:none"
         id="path13395" />
      <path
         d="m 29831.2,14980.8 c 27.1,-34 29.5,-79.5 5.3,-101.5 -24.1,-22 -65.6,-12.2 -92.7,21.8 -27.1,34.1 -29.4,79.5 -5.3,101.5 24.1,22 65.6,12.3 92.7,-21.8"
         style="fill:#535363;fill-opacity:1;fill-rule:nonzero;stroke:none"
         id="path13397" />
      <path
         d="m 29684.7,14792.9 c 16.4,-41.7 7,-87.9 -21,-103.1 -28,-15.3 -64,6.1 -80.4,47.8 -16.4,41.6 -7,87.8 21,103 28,15.3 64,-6.1 80.4,-47.7"
         style="fill:#535363;fill-opacity:1;fill-rule:nonzero;stroke:none"
         id="path13399" />
      <path
         d="m 29575.6,15922.6 c -8,-54.3 -41.8,-97.8 -75.6,-97.2 -33.8,0.6 -54.7,45 -46.7,99.3 8,54.2 41.8,97.7 75.6,97.1 33.7,-0.5 54.6,-45 46.7,-99.2"
         style="fill:#535363;fill-opacity:1;fill-rule:nonzero;stroke:none"
         id="path13401" />
      <path
         d="m 29496.8,14705.2 c 5.5,-52.7 -17.5,-102.4 -51.5,-111.1 -34,-8.7 -66,26.9 -71.6,79.6 -5.5,52.6 17.5,102.3 51.5,111 34,8.7 66,-26.9 71.6,-79.5"
         style="fill:#535363;fill-opacity:1;fill-rule:nonzero;stroke:none"
         id="path13403" />
      <path
         d="m 28768.8,15438.9 c 35.6,-9.2 57,-37.5 47.9,-63.1 -9.2,-25.6 -45.3,-38.9 -80.9,-29.7 -35.5,9.2 -56.9,37.4 -47.8,63.1 9.1,25.6 45.3,38.9 80.8,29.7"
         style="fill:#535363;fill-opacity:1;fill-rule:nonzero;stroke:none"
         id="path13405" />
      <path
         d="m 29345.5,15974 c 8.3,-37.4 -4.9,-75.2 -29.5,-84.4 -24.5,-9.2 -51.1,13.7 -59.4,51 -8.3,37.4 4.9,75.2 29.5,84.4 24.5,9.2 51.1,-13.6 59.4,-51"
         style="fill:#535363;fill-opacity:1;fill-rule:nonzero;stroke:none"
         id="path13407" />
      <path
         d="m 29074.2,14634.9 c -8.6,-39.8 -35.4,-70.1 -59.9,-67.8 -24.5,2.4 -37.4,36.5 -28.8,76.3 8.6,39.7 35.5,70 59.9,67.7 24.5,-2.4 37.4,-36.5 28.8,-76.2"
         style="fill:#535363;fill-opacity:1;fill-rule:nonzero;stroke:none"
         id="path13409" />
      <path
         d="m 29799.5,15944.9 c -20.8,-43.7 -58.7,-70.5 -84.6,-60 -25.9,10.5 -29.9,54.4 -9.1,98.1 20.9,43.7 58.7,70.6 84.6,60.1 25.9,-10.5 29.9,-54.5 9.1,-98.2"
         style="fill:#535363;fill-opacity:1;fill-rule:nonzero;stroke:none"
         id="path13411" />
      <path
         d="m 29269.7,14639.1 c -1.2,-50.2 -28,-94 -59.8,-97.7 -31.8,-3.8 -56.6,33.8 -55.4,84 1.2,50.2 27.9,94 59.7,97.8 31.8,3.7 56.7,-33.9 55.5,-84.1"
         style="fill:#535363;fill-opacity:1;fill-rule:nonzero;stroke:none"
         id="path13413" />
      <path
         d="m 28998.6,15788.1 c 26.6,-33.3 28.9,-77.9 5.3,-99.4 -23.7,-21.6 -64.4,-12 -90.9,21.3 -26.5,33.4 -28.9,77.9 -5.2,99.5 23.6,21.5 64.3,12 90.8,-21.4"
         style="fill:#535363;fill-opacity:1;fill-rule:nonzero;stroke:none"
         id="path13415" />
    </g>
  </g>
</svg>
