<?xml version="1.0" encoding="UTF-8" standalone="no"?>
<!-- Created with Inkscape (http://www.inkscape.org/) -->

<svg
   version="1.1"
   id="svg26267"
   width="556.31525"
   height="898.00415"
   viewBox="0 0 556.31525 898.00416"
   sodipodi:docname="fruit_set.eps"
   xmlns:inkscape="http://www.inkscape.org/namespaces/inkscape"
   xmlns:sodipodi="http://sodipodi.sourceforge.net/DTD/sodipodi-0.dtd"
   xmlns="http://www.w3.org/2000/svg"
   xmlns:svg="http://www.w3.org/2000/svg">
  <defs
     id="defs26271" />
  <sodipodi:namedview
     id="namedview26269"
     pagecolor="#ffffff"
     bordercolor="#000000"
     borderopacity="0.25"
     inkscape:showpageshadow="2"
     inkscape:pageopacity="0.0"
     inkscape:pagecheckerboard="0"
     inkscape:deskcolor="#d1d1d1"
     showgrid="false" />
  <g
     id="g26275"
     inkscape:groupmode="layer"
     inkscape:label="Page 1"
     transform="matrix(1.3333333,0,0,-1.3333333,-154.27722,1127.5599)">
    <g
       id="g26277"
       transform="scale(0.1)">
      <path
         d="m 4302.87,6076.1 c 0,0 611.87,675.3 1021.21,910.4 0,0 70.83,364.8 -302.29,298.2 -373.13,-66.5 -844.17,-1082.3 -844.17,-1082.3 l 125.25,-126.3"
         style="fill:#72362a;fill-opacity:1;fill-rule:nonzero;stroke:none"
         id="path26571"
         inkscape:export-filename="../individual fruits/path26571.svg"
         inkscape:export-xdpi="96"
         inkscape:export-ydpi="96" />
      <path
         d="m 4238.76,6140.7 64.11,-64.6 c 0,0 611.87,675.3 1021.21,910.4 0,0 23.77,122.5 -28.84,212.6 C 5135.57,7097 4854.31,6896.2 4596.93,6606.2 4371.1,6351.7 4277.54,6212.5 4238.76,6140.7"
         style="fill:#59241b;fill-opacity:1;fill-rule:nonzero;stroke:none"
         id="path26573" />
      <path
         d="m 4375.24,6261.3 c 0,0 346.46,624.4 -53.48,1177.2 -399.94,552.7 -1465.7,1018.2 -1465.7,1018.2 0,0 -326.42,-551.8 83.83,-1205.3 410.25,-653.5 992.85,-878.8 1435.35,-990.1"
         style="fill:#69b200;fill-opacity:1;fill-rule:nonzero;stroke:none"
         id="path26575" />
      <path
         d="m 4228.41,6301.5 c 10.05,-3 20.06,-5.9 30.02,-8.8 l 1.38,-0.4 c 10.19,-2.9 20.32,-5.7 30.39,-8.5 1.44,-0.4 2.87,-0.8 4.31,-1.2 9.24,-2.5 18.43,-5 27.57,-7.5 l 1.73,-0.4 c 15.26,-4.1 30.39,-8 45.35,-11.8 -13.4,16.6 -29.12,35.9 -46.84,57.2 -7.48,100.3 -46.09,281.4 -190.02,568.4 -244.02,486.6 -986.87,1039 -986.87,1039 0,0 338.6,-339.3 721.58,-776.6 209.92,-239.7 286.74,-489.7 313.34,-666.7 -211.44,234.5 -528.11,542.9 -814.83,651.4 -294.89,111.6 -497.36,381.2 -610.98,575.8 27.38,-142.6 83.76,-298.1 185.35,-460 356.13,-567.3 842.11,-811.9 1253.59,-939.3 l 0.31,-0.1 c 10.65,-3.3 21.25,-6.5 31.8,-9.7 0.94,-0.2 1.88,-0.5 2.82,-0.8"
         style="fill:#578900;fill-opacity:1;fill-rule:nonzero;stroke:none"
         id="path26577" />
      <path
         d="m 3506.04,7959.3 c 0,0 448.14,-279.3 600.4,-551.2 152.25,-271.8 200.48,-486.5 200.48,-486.5 0,0 275.46,517.5 -800.88,1037.7"
         style="fill:#95ce32;fill-opacity:1;fill-rule:nonzero;stroke:none"
         id="path26579" />
      <path
         d="m 4952.49,3184 c 522.57,1045.8 357.5,2218.2 -341.06,2815.3 21.44,190 -77.07,382.6 -260.14,474.1 -195.63,97.8 -425.64,48.9 -562.83,-104.9 C 2923.65,6488.1 1961.16,5922.1 1463.97,4927 942.004,3882.3 1106.09,2711.4 1802.63,2113.7 c -3.99,-155 64.3,-295 191.2,-358.4 118.61,-59.3 260.03,-37.5 377.27,44.3 923.78,-286.1 2034.3,289.4 2581.39,1384.4"
         style="fill:#ffc900;fill-opacity:1;fill-rule:nonzero;stroke:none"
         id="path26581" />
      <path
         d="m 1528.19,3065.7 c -6.55,0 -13.23,1 -19.86,3.1 -22.95,7.2 -39.33,25.7 -44.64,47.1 -8.58,35 -15.64,70.2 -22.51,105.5 -3.59,17.7 -6.46,35.4 -9.73,53.1 -1.49,8.9 -3.35,17.8 -4.53,26.7 l -3.21,26.6 c -4.26,35.6 -8.04,71.3 -11.49,107.2 l -2.51,26.9 -1.21,13.5 -0.57,13.4 -2.02,53.8 c -1.18,35.9 -2.11,72 -2.58,108.1 1.09,35.8 2.24,71.9 3.87,107.9 0.7,18 1.62,36.1 2.56,54.1 1.33,18 3.17,35.9 5.01,53.9 3.67,35.8 7.47,71.8 11.7,107.7 39.83,286.3 125.26,567.9 253.05,828.5 63.91,130.3 136.56,256.5 220.34,374.8 83.99,118.2 177.11,229.7 279.42,332 24.97,26.1 51.95,50.4 78.27,75.1 26.24,24.8 54.14,48.1 81.56,71.6 13.56,11.9 27.91,23 42.07,34.2 14.12,11.4 28.43,22.4 42.7,33.5 14.33,11 29.11,21.6 43.77,32.2 14.67,10.6 29.15,21.3 44.36,31.3 29.96,20.4 60.23,40.3 91.38,59.1 15.35,9.6 31.07,18.7 46.9,27.7 16.01,8.8 31.46,18.1 47.82,26.4 16.2,8.5 32.27,16.9 48.74,24.9 16.69,7.8 33,15.8 49.86,23.3 16.83,7.4 33.8,14.5 51.09,21.4 8.57,3.3 17.46,6.6 26.21,9.8 l 13.46,4.7 14.18,4.8 c 6.86,2.3 13.88,3.4 20.8,3.4 26.94,0 52.45,-16.7 62.2,-43.2 7.12,-19.3 4.29,-39.6 -5.92,-55.4 l -5.7,-8.8 c -1.91,-2.9 -4.53,-6.3 -7.07,-9.6 l -7.61,-10.1 c -5.19,-6.6 -10.35,-13.2 -15.48,-20.1 l -15.57,-20.1 c -5.19,-6.7 -10.23,-13.6 -15.46,-20.2 -20.78,-26.6 -41,-53.8 -61.46,-80.3 -40.47,-53.7 -80.7,-106.6 -119.83,-159.9 -78.63,-106.2 -153.65,-213.1 -226.22,-320.1 -72.27,-107.3 -141.71,-215.1 -207.83,-324.4 -65.62,-109.6 -128.17,-220.5 -186.81,-333.5 -117.6,-225.9 -215.25,-461.5 -300.47,-706.2 -9.74,-30.8 -19.92,-61.6 -30.23,-92.5 -4.96,-15.5 -10.69,-30.8 -15.55,-46.4 -4.53,-15.6 -9.09,-31.3 -13.87,-46.9 -9.32,-31.4 -19.12,-62.8 -28.99,-94.3 -8.72,-31.7 -17.23,-63.5 -26.36,-95.5 l -13.84,-48 -3.51,-12 -3.05,-12.1 -6.05,-24.2 c -8.19,-32.4 -16.71,-64.9 -25.68,-97.5 -9.65,-32.6 -16.4,-65.6 -24.95,-98.7 -8.43,-33 -17.07,-66.3 -27.21,-99.7 l -0.94,-3.1 c -8.21,-27.1 -33.34,-44.5 -60.8,-44.5"
         style="fill:#ffdf66;fill-opacity:1;fill-rule:nonzero;stroke:none"
         id="path26583" />
      <path
         d="m 4706.65,5911.1 c 165.5,-704.2 29.3,-1573.6 -390.04,-2412.9 -417.74,-836 -1032.1,-1463.4 -1692.22,-1755.1 865.74,-121.7 1830.22,444.4 2328.1,1440.9 497.93,996.5 371.52,2107.9 -245.84,2727.1"
         style="fill:#ffb600;fill-opacity:1;fill-rule:nonzero;stroke:none"
         id="path26585" />
      <path
         d="m 4397.78,5228.6 c 7.75,15.5 1.12,34.5 -14.82,42.5 -15.92,7.9 -35.12,1.8 -42.87,-13.7 -7.74,-15.5 -1.11,-34.5 14.82,-42.5 15.93,-7.9 35.13,-1.8 42.87,13.7"
         style="fill:#ffb600;fill-opacity:1;fill-rule:nonzero;stroke:none"
         id="path26587" />
      <path
         d="m 4153.54,4384.7 c -32.92,16.5 -72.59,3.8 -88.6,-28.2 -16,-32 -2.29,-71.4 30.63,-87.8 32.92,-16.5 72.58,-3.8 88.59,28.2 16.01,32.1 2.3,71.4 -30.62,87.8"
         style="fill:#ffb600;fill-opacity:1;fill-rule:nonzero;stroke:none"
         id="path26589" />
      <path
         d="m 3334.55,4900.2 c 16.63,-8.3 36.67,-2 44.76,14.2 8.09,16.2 1.16,36.1 -15.48,44.4 -16.63,8.3 -36.67,1.9 -44.76,-14.3 -8.08,-16.2 -1.15,-36 15.48,-44.3"
         style="fill:#ffb600;fill-opacity:1;fill-rule:nonzero;stroke:none"
         id="path26591" />
      <path
         d="m 3392.4,4194.3 c -21.95,11 -48.39,2.6 -59.06,-18.8 -10.67,-21.4 -1.53,-47.6 20.41,-58.5 21.95,-11 48.39,-2.6 59.07,18.8 10.67,21.3 1.53,47.5 -20.42,58.5"
         style="fill:#ffb600;fill-opacity:1;fill-rule:nonzero;stroke:none"
         id="path26593" />
      <path
         d="m 2274.09,3998.3 c -38.67,19.3 -85.26,4.5 -104.07,-33.2 -18.79,-37.6 -2.69,-83.8 35.98,-103.1 38.66,-19.3 85.25,-4.5 104.05,33.2 18.81,37.6 2.7,83.8 -35.96,103.1"
         style="fill:#ffb600;fill-opacity:1;fill-rule:nonzero;stroke:none"
         id="path26595" />
      <path
         d="m 2913.33,3255.4 c -17.55,8.8 -38.68,2.1 -47.21,-15 -8.53,-17.1 -1.23,-38 16.32,-46.8 17.54,-8.7 38.67,-2 47.2,15.1 8.53,17 1.22,38 -16.31,46.7"
         style="fill:#ffb600;fill-opacity:1;fill-rule:nonzero;stroke:none"
         id="path26597" />
      <path
         d="m 3659.37,3234.8 c 16.19,-8.1 35.71,-1.9 43.59,13.9 7.87,15.7 1.13,35.1 -15.07,43.2 -16.2,8.1 -35.72,1.8 -43.59,-13.9 -7.88,-15.8 -1.14,-35.1 15.07,-43.2"
         style="fill:#ffb600;fill-opacity:1;fill-rule:nonzero;stroke:none"
         id="path26599" />
      <path
         d="m 2799.62,2382.6 c -20.9,10.4 -46.08,2.4 -56.25,-18 -10.16,-20.3 -1.45,-45.3 19.45,-55.7 20.9,-10.4 46.08,-2.4 56.25,17.9 10.16,20.4 1.45,45.3 -19.45,55.8"
         style="fill:#ffb600;fill-opacity:1;fill-rule:nonzero;stroke:none"
         id="path26601" />
      <path
         d="m 2075.94,2399 c -23.52,11.7 -51.85,2.7 -63.28,-20.2 -11.44,-22.9 -1.64,-51 21.87,-62.7 23.52,-11.8 51.85,-2.7 63.28,20.2 11.43,22.8 1.64,50.9 -21.87,62.7"
         style="fill:#ffb600;fill-opacity:1;fill-rule:nonzero;stroke:none"
         id="path26603" />
      <path
         d="m 3673.2,6102.1 c -32.92,16.5 -72.58,3.8 -88.59,-28.2 -16.01,-32.1 -2.3,-71.4 30.62,-87.8 32.92,-16.5 72.59,-3.8 88.59,28.2 16.01,32.1 2.3,71.4 -30.62,87.8"
         style="fill:#ffb600;fill-opacity:1;fill-rule:nonzero;stroke:none"
         id="path26605" />
    </g>
  </g>
</svg>
