<?xml version="1.0" encoding="UTF-8" standalone="no"?>
<!-- Created with Inkscape (http://www.inkscape.org/) -->

<svg
   version="1.1"
   id="svg13201"
   width="634.13989"
   height="487.31937"
   viewBox="0 0 634.13989 487.31936"
   sodipodi:docname="17088562_Set_of_cute_fruits.eps"
   xmlns:inkscape="http://www.inkscape.org/namespaces/inkscape"
   xmlns:sodipodi="http://sodipodi.sourceforge.net/DTD/sodipodi-0.dtd"
   xmlns="http://www.w3.org/2000/svg"
   xmlns:svg="http://www.w3.org/2000/svg">
  <g
     id="g13209"
     inkscape:groupmode="layer"
     inkscape:label="Page 1"
     transform="matrix(1.3333333,0,0,-1.3333333,-2776.9739,2288.4233)">
    <g
       id="g13211"
       transform="scale(0.1)">
      <path
         d="m 24967.2,14683.3 c 323.5,583.1 197.3,1352.7 -271,1852.1 -57.5,61.3 -119.9,118 -186.8,168.9 -237.2,180.2 -524.1,300 -823.3,315.5 -435.5,22.6 -879.1,-150.3 -1232.3,-396 -287.5,-200 -503.9,-470.3 -677.4,-772.8 -213.5,-372.5 -405.7,-738.1 -683.4,-1069.2 -145.6,-173.5 -284.5,-380.1 -263.6,-617.3 21.6,-246.6 328.5,-405.9 537.1,-460.6 419,-109.8 877.6,-233.4 1314.4,-184.7 376.6,41.9 747.3,137.2 1097.6,281.7 334.8,138 671.4,301.5 935.5,554.5 103.5,99.1 187.6,209.7 253.2,327.9"
         style="fill:#ffcd44;fill-opacity:1;fill-rule:nonzero;stroke:none"
         id="path13907" />
      <path
         d="m 24350,16142 c 290.6,255.2 525,568.2 685.8,920.1 39.4,86.1 -95.2,145 -134.5,58.9 -150,-328 -368.1,-623.2 -639.2,-861.3 -29.8,-26.2 -40,-69.2 -14.9,-102.8 22.3,-29.9 72.8,-41.2 102.8,-14.9"
         style="fill:#ab7530;fill-opacity:1;fill-rule:nonzero;stroke:none"
         id="path13909" />
      <path
         d="m 24696.2,16535.4 c -57.5,61.3 -119.9,118 -186.8,168.9 -237.2,180.2 -524.1,300 -823.3,315.5 291.4,-45.9 432.5,-892.6 -50.4,-1658.2 -544.5,-863.5 -2296.7,-1738.5 -2689.8,-1428.8 v 0 c 113.5,-116.1 287.1,-193.9 420.6,-228.9 419,-109.8 877.6,-233.4 1314.4,-184.7 376.6,41.9 747.3,137.2 1097.6,281.7 334.8,138 671.4,301.5 935.5,554.5 103.5,99.1 187.6,209.7 253.2,327.9 323.5,583.1 197.3,1352.7 -271,1852.1"
         style="fill:#ffb22e;fill-opacity:1;fill-rule:nonzero;stroke:none"
         id="path13911" />
      <path
         d="m 24591.9,16572.5 c -45.9,49.7 -92.7,85 -121,62.1 -37.2,-30.2 -1.2,-113.8 3,-151.9 7.3,-65.9 9.4,-132.3 6.1,-198.5 -11.6,-232.7 -94.8,-458.1 -198.1,-664.7 -151,-301.7 -362.3,-571.4 -601.3,-808.2 -320.1,-317.1 -693.2,-578 -1087.8,-793.6 -232.1,-126.9 -491.9,-221.9 -758.7,-244.3 -17.1,-1.5 -62.6,-2.1 -72.5,-19.9 -17.9,-32 36.3,-50.5 58.5,-57.1 123.8,-36.6 255.5,-48.8 383.5,-61.6 140.4,-14 282.3,-16.7 422.7,-1.1 366.4,40.9 726.9,133.6 1067.7,274.1 325.7,134.2 653.1,293.3 910.1,539.4 100.7,96.4 182.5,204 246.3,319 221.7,399.7 224,892.3 51.7,1310.3 -47.8,116.1 -109.5,226.2 -182.3,328.4 -16.8,23.6 -71.6,106.5 -127.9,167.6"
         style="fill:#ff8944;fill-opacity:1;fill-rule:nonzero;stroke:none"
         id="path13913" />
      <path
         d="m 22129.6,14909 c 151,76.2 289.3,174.7 427,272.8 171.7,122.3 348.3,249.8 457.6,427.5 101.2,164.6 135.7,365.7 94.2,549 -21.5,95.2 -66.8,190.1 -150.6,241.5 -106.9,65.7 -252.6,44.7 -367,-15.8 -211.3,-111.7 -323.7,-338.5 -442.3,-542.1 -276.6,-474.7 -573.1,-762.4 -576.1,-964 -3.6,-234.6 386.4,-55.3 557.2,31.1"
         style="fill:#ffdf87;fill-opacity:1;fill-rule:nonzero;stroke:none"
         id="path13915" />
      <path
         d="m 24951.5,16965.8 c -68.6,85.7 -363.8,-517.6 -203.8,-1190.2 160,-672.5 572.4,-1030.8 691,-940.1 118.6,90.8 204.2,543 92.9,1085.9 -111.3,542.8 -511.6,958.7 -580.1,1044.4"
         style="fill:#7ac24e;fill-opacity:1;fill-rule:nonzero;stroke:none"
         id="path13917" />
      <path
         d="m 21425.7,14417.6 c 10.6,16 19.2,32.2 25.4,47.7 22.1,54.9 22.1,111.6 -16.4,141.7 -84,65.5 -257.9,-14.6 -323.4,-128.7 -60.4,-105.4 -8.4,-251.9 140.8,-201.6 69.8,23.6 134.8,81.8 173.6,140.9"
         style="fill:#ffdf87;fill-opacity:1;fill-rule:nonzero;stroke:none"
         id="path13919" />
      <path
         d="m 24048,15907.9 c -93.9,0 -94.1,-146.1 0,-146.1 94,0 94.2,146.1 0,146.1"
         style="fill:#ff8944;fill-opacity:1;fill-rule:nonzero;stroke:none"
         id="path13921" />
      <path
         d="m 23756.7,15703.6 c -133.2,0 -133.4,-206.9 0,-206.9 133.1,0 133.3,206.9 0,206.9"
         style="fill:#ff8944;fill-opacity:1;fill-rule:nonzero;stroke:none"
         id="path13923" />
      <path
         d="m 23780.9,15248.2 c -109.6,0 -109.8,-170.3 0,-170.3 109.7,0 109.9,170.3 0,170.3"
         style="fill:#ff8944;fill-opacity:1;fill-rule:nonzero;stroke:none"
         id="path13925" />
      <path
         d="m 22061.8,14071.9 c -4.7,16.5 -13,30.9 -25.1,43 -2.7,2.7 -5.4,5.4 -8.1,8.1 -8.8,9.5 -19.2,16.2 -31.3,20.1 -11.6,6.1 -24.1,8.9 -37.5,8.4 -13.4,0.5 -25.9,-2.3 -37.5,-8.4 -12.1,-3.9 -22.5,-10.6 -31.4,-20.1 -5,-6.6 -10.1,-13.1 -15.2,-19.7 -8.8,-15.2 -13.2,-31.6 -13.3,-49.1 1.2,-8.7 2.4,-17.3 3.5,-25.9 4.6,-16.5 13,-30.8 25,-43 l 8.1,-8.1 c 8.9,-9.5 19.3,-16.2 31.4,-20.1 11.6,-6.1 24.1,-8.9 37.5,-8.4 13.4,-0.5 25.9,2.3 37.5,8.4 12.1,3.9 22.5,10.6 31.3,20.1 5.1,6.6 10.2,13.2 15.3,19.7 8.8,15.2 13.2,31.6 13.2,49.2 -1.1,8.6 -2.3,17.2 -3.4,25.8"
         style="fill:#ff8944;fill-opacity:1;fill-rule:nonzero;stroke:none"
         id="path13927" />
      <path
         d="m 22429.2,14165.6 c -101.8,0 -101.9,-158.2 0,-158.2 101.8,0 102,158.2 0,158.2"
         style="fill:#ff8944;fill-opacity:1;fill-rule:nonzero;stroke:none"
         id="path13929" />
      <path
         d="m 24185.6,16353 c -93.9,0 -94.1,-146 0,-146 94,0 94.2,146 0,146"
         style="fill:#ff8944;fill-opacity:1;fill-rule:nonzero;stroke:none"
         id="path13931" />
      <path
         d="m 23860.3,16171.5 c -2.4,8.3 -6.5,15.4 -12.6,21.5 -3.2,2.6 -6.5,5.1 -9.8,7.6 -7.6,4.4 -15.8,6.7 -24.6,6.7 h -8.1 c -6.7,0.2 -12.9,-1.2 -18.7,-4.2 -6.1,-2 -11.3,-5.3 -15.7,-10.1 -4.8,-4.4 -8.1,-9.6 -10.1,-15.6 -3,-5.8 -4.4,-12.1 -4.2,-18.8 0.6,-4.3 1.2,-8.6 1.8,-12.9 2.3,-8.3 6.5,-15.4 12.5,-21.5 3.3,-2.6 6.6,-5.1 9.8,-7.6 7.6,-4.4 15.8,-6.7 24.6,-6.7 h 8.1 c 6.7,-0.2 13,1.2 18.8,4.2 6,2 11.2,5.3 15.6,10.1 4.8,4.4 8.1,9.6 10.1,15.6 3,5.8 4.4,12.1 4.2,18.8 -0.6,4.3 -1.2,8.6 -1.7,12.9"
         style="fill:#ff8944;fill-opacity:1;fill-rule:nonzero;stroke:none"
         id="path13933" />
      <path
         d="m 22235,14404.3 c -54.8,0 -54.9,-85.2 0,-85.2 54.8,0 54.9,85.2 0,85.2"
         style="fill:#ff8944;fill-opacity:1;fill-rule:nonzero;stroke:none"
         id="path13935" />
      <path
         d="m 22793.5,14376 c -70.5,0 -70.6,-109.5 0,-109.5 70.4,0 70.6,109.5 0,109.5"
         style="fill:#ff8944;fill-opacity:1;fill-rule:nonzero;stroke:none"
         id="path13937" />
      <path
         d="m 21466.1,13987.5 c -70.5,0 -70.6,-109.5 0,-109.5 70.4,0 70.6,109.5 0,109.5"
         style="fill:#ff8944;fill-opacity:1;fill-rule:nonzero;stroke:none"
         id="path13939" />
    </g>
  </g>
</svg>
