<?xml version="1.0" encoding="UTF-8" standalone="no"?>
<!-- Created with Inkscape (http://www.inkscape.org/) -->

<svg
   version="1.1"
   id="svg26267"
   width="589.7373"
   height="851.27185"
   viewBox="0 0 589.7373 851.27186"
   sodipodi:docname="fruit_set.eps"
   xmlns:inkscape="http://www.inkscape.org/namespaces/inkscape"
   xmlns:sodipodi="http://sodipodi.sourceforge.net/DTD/sodipodi-0.dtd"
   xmlns="http://www.w3.org/2000/svg"
   xmlns:svg="http://www.w3.org/2000/svg">
  <g
     id="g26275"
     inkscape:groupmode="layer"
     inkscape:label="Page 1"
     transform="matrix(1.3333333,0,0,-1.3333333,-5932.0757,3058.0985)">
    <g
       id="g26277"
       transform="scale(0.1)">
      <path
         d="m 48199.2,22037 c 0,0 312.8,517.6 549.7,722.8 0,0 -0.2,246.6 -234.8,155.9 -234.7,-90.8 -412.6,-812.4 -412.6,-812.4 l 97.7,-66.3"
         style="fill:#81a000;fill-opacity:1;fill-rule:nonzero;stroke:none"
         id="path27311" />
      <path
         d="m 48149.2,22070.9 50,-33.9 c 0,0 312.8,517.6 549.7,722.8 0,0 -0.1,82.8 -45.8,134.8 -91.1,-86.8 -248.8,-253.3 -379.7,-474.9 -114.8,-194.5 -158,-297 -174.2,-348.8"
         style="fill:#6a7c00;fill-opacity:1;fill-rule:nonzero;stroke:none"
         id="path27313" />
      <path
         d="m 48224.1,22263.9 c 0,0 403.5,-81.4 551.7,-425.7 148.2,-344.3 199.7,-840.4 39.1,-1618.5 -160.6,-778.2 -67.9,-1550.1 -389.1,-2235.6 -321.1,-685.5 -1342.9,-1426.9 -3052.2,-1432.9 l 2850.5,5712.7"
         style="fill:#94b700;fill-opacity:1;fill-rule:nonzero;stroke:none"
         id="path27315" />
      <path
         d="m 48117.1,22354.4 c 0,0 -951.1,465.3 -1889.8,-893.4 -938.7,-1358.6 -1828,-2248 -1729.2,-3038.4 98.8,-790.5 875.5,-1871.4 875.5,-1871.4 0,0 1889.7,342.7 2519.6,1111.6 629.9,768.8 583.5,2315.7 685.4,2769.6 101.9,453.9 401.5,1583.8 -461.5,1922"
         style="fill:#ff9700;fill-opacity:1;fill-rule:nonzero;stroke:none"
         id="path27317" />
      <path
         d="m 45772.7,17533.1 c -17.9,30.8 -36,62.7 -54.1,95.3 -291,523.5 -350.5,804.8 -362.6,901.4 -3.5,28.2 -2.8,142.4 155.3,425.6 164.8,295.4 429.4,650.2 735.8,1061 211.1,283.2 450.4,604.2 691.5,953.1 262.2,379.5 543.5,597.2 771.7,597.2 30.8,0 53,-4 64.1,-6.6 l 27.2,-10.7 c 8.2,-3.2 13.9,-5.9 17.6,-7.9 8.7,-20 36,-98.2 26.6,-279.6 -10.4,-200.6 -60,-417.6 -96.2,-576 -5.2,-22.6 -10,-44 -14.6,-64.1 -37.7,-168.1 -55.7,-369.1 -78.6,-623.5 -27.9,-310.6 -62.6,-697.2 -140.4,-1053.6 -93.1,-426.1 -210,-634.4 -291.6,-734 -111.8,-136.4 -453.9,-356.4 -1079,-564.6 -130.6,-43.6 -257.2,-81.2 -372.7,-113"
         style="fill:#ff6f00;fill-opacity:1;fill-rule:nonzero;stroke:none"
         id="path27319" />
      <path
         d="m 47281.9,20730 c -245.5,-355.3 -474.9,-685.7 -688.3,-972 -297.2,-398.6 -553.9,-742.8 -704.8,-1013.3 -59,-105.6 -85,-171 -95.9,-203.6 12.3,-54.9 42.7,-161.9 115.7,-328.2 20.8,-47.3 25.3,-100.3 13,-150.6 l -102.1,-416.4 230.2,369.6 c 27.7,44.4 69.3,78.4 118.5,96.4 470,172.7 682.3,328.1 722.2,373.3 19.9,24.5 117.7,160.4 203.2,551.8 72.1,329.9 105.4,701.4 132.2,1000.1 24.3,270.1 62,483.6 106,679.4 3.5,16 259.2,578.1 263.2,595.7 -10,-13.8 -302.8,-567.4 -313.1,-582.2"
         style="fill:#ffb200;fill-opacity:1;fill-rule:nonzero;stroke:none"
         id="path27321" />
      <path
         d="m 47281.9,20730 c -245.5,-355.3 -474.9,-685.7 -688.3,-972 -297.2,-398.6 -553.9,-742.8 -704.8,-1013.3 -59,-105.6 -85,-171 -95.9,-203.6 12.3,-54.9 42.7,-161.9 115.7,-328.2 20.8,-47.3 25.3,-100.3 13,-150.6 l -102.1,-416.4 230.2,369.6 c 27.7,44.4 69.3,78.4 118.5,96.4 470,172.7 682.3,328.1 722.2,373.3 19.9,24.5 117.7,160.4 203.2,551.8 72.1,329.9 105.4,701.4 132.2,1000.1 24.3,270.1 62,483.6 106,679.4 3.5,16 259.2,578.1 263.2,595.7 -10,-13.8 -302.8,-567.4 -313.1,-582.2"
         style="fill:#ffb200;fill-opacity:1;fill-rule:nonzero;stroke:none"
         id="path27323" />
      <path
         d="m 48186.3,22324.4 c 126.1,-181.8 340.4,-592.1 262.7,-1203.7 -107.8,-849.6 -385.7,-2802.3 -1367.6,-3474.8 -566.6,-388 -1238,-808.2 -1704.7,-1094.1 85.6,15.8 1901.5,360.3 2516.5,1111 629.9,768.8 583.5,2315.7 685.4,2769.6 99.1,441.3 384.9,1521.5 -392.3,1892"
         style="fill:#ff8b00;fill-opacity:1;fill-rule:nonzero;stroke:none"
         id="path27325" />
      <path
         d="m 46168.2,18111.9 c 470,172.7 682.3,328.1 722.2,373.3 19.9,24.5 117.7,160.4 203.2,551.8 72.1,329.9 105.4,701.4 132.2,1000.1 24.3,270.1 62,483.6 106,679.4 3.5,16 259.2,578.1 263.2,595.7 -10,-13.8 -302.8,-567.4 -313.1,-582.2 -1.8,-2.7 -3.7,-5.4 -5.5,-8 -79.6,-445.2 -262.1,-1385.4 -451.2,-1797.5 -154,-335.7 -585.3,-616.1 -897.9,-783.6 2.5,-26.2 0.6,-52.7 -5.7,-78.6 l -102.1,-416.4 230.2,369.6 c 27.7,44.4 69.3,78.4 118.5,96.4"
         style="fill:#ffa300;fill-opacity:1;fill-rule:nonzero;stroke:none"
         id="path27327" />
      <path
         d="m 47521.9,22108.9 c -35.2,0 -63.8,-28.6 -63.8,-63.8 0,-35.3 28.6,-63.8 63.8,-63.8 35.3,0 63.8,28.5 63.8,63.8 0,35.2 -28.5,63.8 -63.8,63.8"
         style="fill:#ff8b00;fill-opacity:1;fill-rule:nonzero;stroke:none"
         id="path27329" />
      <path
         d="m 46793.6,21157.8 c -21.6,0 -39.1,-17.5 -39.1,-39.1 0,-21.6 17.5,-39.1 39.1,-39.1 21.6,0 39.2,17.5 39.2,39.1 0,21.6 -17.6,39.1 -39.2,39.1"
         style="fill:#ff8b00;fill-opacity:1;fill-rule:nonzero;stroke:none"
         id="path27331" />
      <path
         d="m 45843.8,20132.2 c -22.7,0 -41.1,-18.4 -41.1,-41.2 0,-22.7 18.4,-41.2 41.1,-41.2 22.8,0 41.2,18.5 41.2,41.2 0,22.8 -18.4,41.2 -41.2,41.2"
         style="fill:#ff8b00;fill-opacity:1;fill-rule:nonzero;stroke:none"
         id="path27333" />
      <path
         d="m 46341.7,20606.1 c -12.2,0 -22.1,-9.9 -22.1,-22.1 0,-12.2 9.9,-22.1 22.1,-22.1 12.3,0 22.2,9.9 22.2,22.1 0,12.2 -9.9,22.1 -22.2,22.1"
         style="fill:#ff8b00;fill-opacity:1;fill-rule:nonzero;stroke:none"
         id="path27335" />
      <path
         d="m 48143.9,20362.7 c -23.4,0 -42.4,-18.9 -42.4,-42.4 0,-23.4 19,-42.4 42.4,-42.4 23.5,0 42.4,19 42.4,42.4 0,23.5 -18.9,42.4 -42.4,42.4"
         style="fill:#ff8b00;fill-opacity:1;fill-rule:nonzero;stroke:none"
         id="path27337" />
      <path
         d="m 48045.4,21042.6 c -31,0 -56.2,-25.2 -56.2,-56.2 0,-31 25.2,-56.2 56.2,-56.2 31,0 56.1,25.2 56.1,56.2 0,31 -25.1,56.2 -56.1,56.2"
         style="fill:#ff8b00;fill-opacity:1;fill-rule:nonzero;stroke:none"
         id="path27339" />
      <path
         d="m 47764.7,19528 c -10.2,0 -18.4,-8.2 -18.4,-18.4 0,-10.1 8.2,-18.4 18.4,-18.4 10.2,0 18.4,8.3 18.4,18.4 0,10.2 -8.2,18.4 -18.4,18.4"
         style="fill:#ff8b00;fill-opacity:1;fill-rule:nonzero;stroke:none"
         id="path27341" />
      <path
         d="m 47744.1,18747.8 c -21.5,0 -39,-17.4 -39,-38.9 0,-21.6 17.5,-39 39,-39 21.5,0 39,17.4 39,39 0,21.5 -17.5,38.9 -39,38.9"
         style="fill:#ff8b00;fill-opacity:1;fill-rule:nonzero;stroke:none"
         id="path27343" />
      <path
         d="m 45136.9,18850.8 c -18.7,0 -33.8,-15.2 -33.8,-33.9 0,-18.6 15.1,-33.8 33.8,-33.8 18.7,0 33.9,15.2 33.9,33.8 0,18.7 -15.2,33.9 -33.9,33.9"
         style="fill:#ff8b00;fill-opacity:1;fill-rule:nonzero;stroke:none"
         id="path27345" />
      <path
         d="m 44999.6,18016.4 c -31.5,0 -57.1,-25.5 -57.1,-57 0,-31.6 25.6,-57.1 57.1,-57.1 31.5,0 57.1,25.5 57.1,57.1 0,31.5 -25.6,57 -57.1,57"
         style="fill:#ff8b00;fill-opacity:1;fill-rule:nonzero;stroke:none"
         id="path27347" />
      <path
         d="m 45450,17411.2 c -21.1,0 -38.1,-17 -38.1,-38.1 0,-21 17,-38 38.1,-38 21,0 38,17 38,38 0,21.1 -17,38.1 -38,38.1"
         style="fill:#ff8b00;fill-opacity:1;fill-rule:nonzero;stroke:none"
         id="path27349" />
      <path
         d="m 45675.4,17114.8 c -29.6,0 -53.6,-24 -53.6,-53.5 0,-29.6 24,-53.6 53.6,-53.6 29.5,0 53.5,24 53.5,53.6 0,29.5 -24,53.5 -53.5,53.5"
         style="fill:#ff8b00;fill-opacity:1;fill-rule:nonzero;stroke:none"
         id="path27351" />
      <path
         d="m 46399.2,17559.4 c -19.5,0 -35.3,-15.8 -35.3,-35.3 0,-19.5 15.8,-35.4 35.3,-35.4 19.5,0 35.4,15.9 35.4,35.4 0,19.5 -15.9,35.3 -35.4,35.3"
         style="fill:#ff8b00;fill-opacity:1;fill-rule:nonzero;stroke:none"
         id="path27353" />
      <path
         d="m 47318.1,20564.9 c 0,-39.1 -31.7,-70.7 -70.7,-70.7 -39.1,0 -70.7,31.6 -70.7,70.7 0,39 31.6,70.7 70.7,70.7 39,0 70.7,-31.7 70.7,-70.7"
         style="fill:#2b0e00;fill-opacity:1;fill-rule:nonzero;stroke:none"
         id="path27355" />
      <path
         d="m 47158.8,20504.1 c 0,-39 -31.7,-70.7 -70.7,-70.7 -39.1,0 -70.7,31.7 -70.7,70.7 0,39.1 31.6,70.7 70.7,70.7 39,0 70.7,-31.6 70.7,-70.7"
         style="fill:#2b0e00;fill-opacity:1;fill-rule:nonzero;stroke:none"
         id="path27357" />
      <path
         d="m 47055.3,20182.8 c 0,-39.1 -31.7,-70.7 -70.7,-70.7 -39.1,0 -70.7,31.6 -70.7,70.7 0,39 31.6,70.7 70.7,70.7 39,0 70.7,-31.7 70.7,-70.7"
         style="fill:#2b0e00;fill-opacity:1;fill-rule:nonzero;stroke:none"
         id="path27359" />
      <path
         d="m 47247.4,20362.7 c 0,-39 -31.7,-70.7 -70.7,-70.7 -39.1,0 -70.7,31.7 -70.7,70.7 0,39.1 31.6,70.7 70.7,70.7 39,0 70.7,-31.6 70.7,-70.7"
         style="fill:#2b0e00;fill-opacity:1;fill-rule:nonzero;stroke:none"
         id="path27361" />
      <path
         d="m 47088.1,20348.6 c 0,-39 -31.7,-70.7 -70.7,-70.7 -39.1,0 -70.7,31.7 -70.7,70.7 0,39.1 31.6,70.7 70.7,70.7 39,0 70.7,-31.6 70.7,-70.7"
         style="fill:#2b0e00;fill-opacity:1;fill-rule:nonzero;stroke:none"
         id="path27363" />
      <path
         d="m 47054.4,20016.9 c 0,-39 -31.6,-70.7 -70.6,-70.7 -39.1,0 -70.8,31.7 -70.8,70.7 0,39 31.7,70.7 70.8,70.7 39,0 70.6,-31.7 70.6,-70.7"
         style="fill:#2b0e00;fill-opacity:1;fill-rule:nonzero;stroke:none"
         id="path27365" />
      <path
         d="m 46903.8,20132.2 c 0,-39.1 -31.6,-70.7 -70.7,-70.7 -39,0 -70.6,31.6 -70.6,70.7 0,39 31.6,70.7 70.6,70.7 39.1,0 70.7,-31.7 70.7,-70.7"
         style="fill:#2b0e00;fill-opacity:1;fill-rule:nonzero;stroke:none"
         id="path27367" />
      <path
         d="m 46974.5,19870.6 c 0,-39 -31.6,-70.7 -70.7,-70.7 -39,0 -70.7,31.7 -70.7,70.7 0,39.1 31.7,70.7 70.7,70.7 39.1,0 70.7,-31.6 70.7,-70.7"
         style="fill:#2b0e00;fill-opacity:1;fill-rule:nonzero;stroke:none"
         id="path27369" />
      <path
         d="m 46840.9,19974.6 c 0,-39.1 -31.6,-70.7 -70.7,-70.7 -39,0 -70.7,31.6 -70.7,70.7 0,39 31.7,70.7 70.7,70.7 39.1,0 70.7,-31.7 70.7,-70.7"
         style="fill:#2b0e00;fill-opacity:1;fill-rule:nonzero;stroke:none"
         id="path27371" />
      <path
         d="m 47229.5,20012 c 0,-39 -31.7,-70.7 -70.7,-70.7 -39.1,0 -70.7,31.7 -70.7,70.7 0,39.1 31.6,70.7 70.7,70.7 39,0 70.7,-31.6 70.7,-70.7"
         style="fill:#2b0e00;fill-opacity:1;fill-rule:nonzero;stroke:none"
         id="path27373" />
      <path
         d="m 47088.1,19724.3 c 0,-39 -31.7,-70.7 -70.7,-70.7 -39.1,0 -70.7,31.7 -70.7,70.7 0,39.1 31.6,70.7 70.7,70.7 39,0 70.7,-31.6 70.7,-70.7"
         style="fill:#2b0e00;fill-opacity:1;fill-rule:nonzero;stroke:none"
         id="path27375" />
      <path
         d="m 47213.3,19841.2 c 0,-39 -31.6,-70.7 -70.7,-70.7 -39,0 -70.6,31.7 -70.6,70.7 0,39 31.6,70.7 70.6,70.7 39.1,0 70.7,-31.7 70.7,-70.7"
         style="fill:#2b0e00;fill-opacity:1;fill-rule:nonzero;stroke:none"
         id="path27377" />
      <path
         d="m 47229.5,19582.9 c 0,-39 -31.7,-70.7 -70.7,-70.7 -39.1,0 -70.7,31.7 -70.7,70.7 0,39.1 31.6,70.7 70.7,70.7 39,0 70.7,-31.6 70.7,-70.7"
         style="fill:#2b0e00;fill-opacity:1;fill-rule:nonzero;stroke:none"
         id="path27379" />
      <path
         d="m 47229.5,20182.8 c 0,-39.1 -31.7,-70.7 -70.7,-70.7 -39.1,0 -70.7,31.6 -70.7,70.7 0,39 31.6,70.7 70.7,70.7 39,0 70.7,-31.7 70.7,-70.7"
         style="fill:#2b0e00;fill-opacity:1;fill-rule:nonzero;stroke:none"
         id="path27381" />
      <path
         d="m 46732.7,19841.2 c 0,-39 -31.7,-70.7 -70.7,-70.7 -39.1,0 -70.7,31.7 -70.7,70.7 0,39 31.6,70.7 70.7,70.7 39,0 70.7,-31.7 70.7,-70.7"
         style="fill:#2b0e00;fill-opacity:1;fill-rule:nonzero;stroke:none"
         id="path27383" />
      <path
         d="m 46926.3,19702.2 c 0,-39 -31.6,-70.7 -70.6,-70.7 -39.1,0 -70.7,31.7 -70.7,70.7 0,39.1 31.6,70.7 70.7,70.7 39,0 70.6,-31.6 70.6,-70.7"
         style="fill:#2b0e00;fill-opacity:1;fill-rule:nonzero;stroke:none"
         id="path27385" />
      <path
         d="m 46591.3,19680.2 c 0,-39 -31.7,-70.7 -70.7,-70.7 -39,0 -70.7,31.7 -70.7,70.7 0,39.1 31.7,70.7 70.7,70.7 39,0 70.7,-31.6 70.7,-70.7"
         style="fill:#2b0e00;fill-opacity:1;fill-rule:nonzero;stroke:none"
         id="path27387" />
      <path
         d="m 46770.2,19598.7 c 0,-39 -31.6,-70.7 -70.7,-70.7 -39,0 -70.7,31.7 -70.7,70.7 0,39.1 31.7,70.7 70.7,70.7 39.1,0 70.7,-31.6 70.7,-70.7"
         style="fill:#2b0e00;fill-opacity:1;fill-rule:nonzero;stroke:none"
         id="path27389" />
      <path
         d="m 46461,19359.5 c 0,-39.1 -31.6,-70.7 -70.7,-70.7 -39,0 -70.7,31.6 -70.7,70.7 0,39 31.7,70.7 70.7,70.7 39.1,0 70.7,-31.7 70.7,-70.7"
         style="fill:#2b0e00;fill-opacity:1;fill-rule:nonzero;stroke:none"
         id="path27391" />
      <path
         d="m 46662,19408.3 c 0,-39.1 -31.7,-70.7 -70.7,-70.7 -39.1,0 -70.7,31.6 -70.7,70.7 0,39 31.6,70.7 70.7,70.7 39,0 70.7,-31.7 70.7,-70.7"
         style="fill:#2b0e00;fill-opacity:1;fill-rule:nonzero;stroke:none"
         id="path27393" />
      <path
         d="m 46076.3,17973 c 0,-39.1 -31.7,-70.7 -70.7,-70.7 -39.1,0 -70.7,31.6 -70.7,70.7 0,39 31.6,70.7 70.7,70.7 39,0 70.7,-31.7 70.7,-70.7"
         style="fill:#2b0e00;fill-opacity:1;fill-rule:nonzero;stroke:none"
         id="path27395" />
      <path
         d="m 46195.3,18139.5 c 0,-39 -31.7,-70.7 -70.7,-70.7 -39.1,0 -70.7,31.7 -70.7,70.7 0,39.1 31.6,70.7 70.7,70.7 39,0 70.7,-31.6 70.7,-70.7"
         style="fill:#2b0e00;fill-opacity:1;fill-rule:nonzero;stroke:none"
         id="path27397" />
      <path
         d="m 47030.2,19533.8 c 0,-39 -31.7,-70.7 -70.7,-70.7 -39,0 -70.7,31.7 -70.7,70.7 0,39.1 31.7,70.7 70.7,70.7 39,0 70.7,-31.6 70.7,-70.7"
         style="fill:#2b0e00;fill-opacity:1;fill-rule:nonzero;stroke:none"
         id="path27399" />
      <path
         d="m 46997.1,19335.8 c 0,-39 -31.7,-70.7 -70.8,-70.7 -39,0 -70.6,31.7 -70.6,70.7 0,39.1 31.6,70.7 70.6,70.7 39.1,0 70.8,-31.6 70.8,-70.7"
         style="fill:#2b0e00;fill-opacity:1;fill-rule:nonzero;stroke:none"
         id="path27401" />
      <path
         d="m 46855.7,19430.2 c 0,-39.1 -31.7,-70.7 -70.7,-70.7 -39.1,0 -70.7,31.6 -70.7,70.7 0,39 31.6,70.7 70.7,70.7 39,0 70.7,-31.7 70.7,-70.7"
         style="fill:#2b0e00;fill-opacity:1;fill-rule:nonzero;stroke:none"
         id="path27403" />
      <path
         d="m 47213.3,19392.6 c 0,-39.1 -31.6,-70.7 -70.7,-70.7 -39,0 -70.6,31.6 -70.6,70.7 0,39 31.6,70.7 70.6,70.7 39.1,0 70.7,-31.7 70.7,-70.7"
         style="fill:#2b0e00;fill-opacity:1;fill-rule:nonzero;stroke:none"
         id="path27405" />
      <path
         d="m 46505.3,19528 c 0,-39 -31.7,-70.7 -70.7,-70.7 -39.1,0 -70.7,31.7 -70.7,70.7 0,39.1 31.6,70.7 70.7,70.7 39,0 70.7,-31.6 70.7,-70.7"
         style="fill:#2b0e00;fill-opacity:1;fill-rule:nonzero;stroke:none"
         id="path27407" />
      <path
         d="m 46874.1,19194.4 c 0,-39 -31.7,-70.7 -70.7,-70.7 -39.1,0 -70.7,31.7 -70.7,70.7 0,39.1 31.6,70.7 70.7,70.7 39,0 70.7,-31.6 70.7,-70.7"
         style="fill:#2b0e00;fill-opacity:1;fill-rule:nonzero;stroke:none"
         id="path27409" />
      <path
         d="m 46301.3,19231.3 c 0,-39 -31.7,-70.7 -70.7,-70.7 -39.1,0 -70.7,31.7 -70.7,70.7 0,39.1 31.6,70.7 70.7,70.7 39,0 70.7,-31.6 70.7,-70.7"
         style="fill:#2b0e00;fill-opacity:1;fill-rule:nonzero;stroke:none"
         id="path27411" />
      <path
         d="m 46699.5,19245.9 c 0,-39.1 -31.6,-70.7 -70.7,-70.7 -39,0 -70.7,31.6 -70.7,70.7 0,39 31.7,70.7 70.7,70.7 39.1,0 70.7,-31.7 70.7,-70.7"
         style="fill:#2b0e00;fill-opacity:1;fill-rule:nonzero;stroke:none"
         id="path27413" />
      <path
         d="m 46026.4,18220.7 c 0,-39.1 -31.6,-70.7 -70.7,-70.7 -39,0 -70.7,31.6 -70.7,70.7 0,39 31.7,70.7 70.7,70.7 39.1,0 70.7,-31.7 70.7,-70.7"
         style="fill:#2b0e00;fill-opacity:1;fill-rule:nonzero;stroke:none"
         id="path27415" />
      <path
         d="m 47072,18869.4 c 0,-39.1 -31.7,-70.7 -70.7,-70.7 -39.1,0 -70.7,31.6 -70.7,70.7 0,39 31.6,70.7 70.7,70.7 39,0 70.7,-31.7 70.7,-70.7"
         style="fill:#2b0e00;fill-opacity:1;fill-rule:nonzero;stroke:none"
         id="path27417" />
      <path
         d="m 46505.3,19177.2 c 0,-39 -31.7,-70.7 -70.7,-70.7 -39.1,0 -70.7,31.7 -70.7,70.7 0,39.1 31.6,70.7 70.7,70.7 39,0 70.7,-31.6 70.7,-70.7"
         style="fill:#2b0e00;fill-opacity:1;fill-rule:nonzero;stroke:none"
         id="path27419" />
      <path
         d="m 46997.1,19045.8 c 0,-39.1 -31.7,-70.7 -70.8,-70.7 -39,0 -70.6,31.6 -70.6,70.7 0,39 31.6,70.7 70.6,70.7 39.1,0 70.8,-31.7 70.8,-70.7"
         style="fill:#2b0e00;fill-opacity:1;fill-rule:nonzero;stroke:none"
         id="path27421" />
      <path
         d="m 47126,19209 c 0,-39.1 -31.7,-70.7 -70.7,-70.7 -39,0 -70.7,31.6 -70.7,70.7 0,39 31.7,70.7 70.7,70.7 39,0 70.7,-31.7 70.7,-70.7"
         style="fill:#2b0e00;fill-opacity:1;fill-rule:nonzero;stroke:none"
         id="path27423" />
      <path
         d="m 46670.2,19067.6 c 0,-39.1 -31.6,-70.7 -70.7,-70.7 -39,0 -70.7,31.6 -70.7,70.7 0,39 31.7,70.7 70.7,70.7 39.1,0 70.7,-31.7 70.7,-70.7"
         style="fill:#2b0e00;fill-opacity:1;fill-rule:nonzero;stroke:none"
         id="path27425" />
      <path
         d="m 45944.1,18402.4 c 0,-39.1 -31.7,-70.7 -70.7,-70.7 -39.1,0 -70.7,31.6 -70.7,70.7 0,39 31.6,70.7 70.7,70.7 39,0 70.7,-31.7 70.7,-70.7"
         style="fill:#2b0e00;fill-opacity:1;fill-rule:nonzero;stroke:none"
         id="path27427" />
      <path
         d="m 46297,19049.9 c 0,-39 -31.7,-70.7 -70.7,-70.7 -39.1,0 -70.7,31.7 -70.7,70.7 0,39.1 31.6,70.7 70.7,70.7 39,0 70.7,-31.6 70.7,-70.7"
         style="fill:#2b0e00;fill-opacity:1;fill-rule:nonzero;stroke:none"
         id="path27429" />
      <path
         d="m 46833.6,19010.8 c 0,-39.1 -31.6,-70.7 -70.7,-70.7 -39,0 -70.7,31.6 -70.7,70.7 0,39 31.7,70.7 70.7,70.7 39.1,0 70.7,-31.7 70.7,-70.7"
         style="fill:#2b0e00;fill-opacity:1;fill-rule:nonzero;stroke:none"
         id="path27431" />
      <path
         d="m 47015.5,18677.1 c 0,-39 -31.7,-70.7 -70.7,-70.7 -39.1,0 -70.7,31.7 -70.7,70.7 0,39.1 31.6,70.7 70.7,70.7 39,0 70.7,-31.6 70.7,-70.7"
         style="fill:#2b0e00;fill-opacity:1;fill-rule:nonzero;stroke:none"
         id="path27433" />
      <path
         d="m 46124.6,18732.2 c 0,-39 -31.7,-70.7 -70.7,-70.7 -39.1,0 -70.7,31.7 -70.7,70.7 0,39.1 31.6,70.7 70.7,70.7 39,0 70.7,-31.6 70.7,-70.7"
         style="fill:#2b0e00;fill-opacity:1;fill-rule:nonzero;stroke:none"
         id="path27435" />
      <path
         d="m 46825.2,18590.8 c 0,-39 -31.6,-70.7 -70.7,-70.7 -39,0 -70.7,31.7 -70.7,70.7 0,39.1 31.7,70.7 70.7,70.7 39.1,0 70.7,-31.6 70.7,-70.7"
         style="fill:#2b0e00;fill-opacity:1;fill-rule:nonzero;stroke:none"
         id="path27437" />
      <path
         d="m 46134.4,18924.5 c 0,-39 -31.6,-70.7 -70.7,-70.7 -39,0 -70.7,31.7 -70.7,70.7 0,39.1 31.7,70.7 70.7,70.7 39.1,0 70.7,-31.6 70.7,-70.7"
         style="fill:#2b0e00;fill-opacity:1;fill-rule:nonzero;stroke:none"
         id="path27439" />
      <path
         d="m 46468,19010.8 c 0,-39.1 -31.7,-70.7 -70.7,-70.7 -39.1,0 -70.7,31.6 -70.7,70.7 0,39 31.6,70.7 70.7,70.7 39,0 70.7,-31.7 70.7,-70.7"
         style="fill:#2b0e00;fill-opacity:1;fill-rule:nonzero;stroke:none"
         id="path27441" />
      <path
         d="m 46895.9,18833.7 c 0,-39.1 -31.6,-70.7 -70.7,-70.7 -39,0 -70.7,31.6 -70.7,70.7 0,39 31.7,70.7 70.7,70.7 39.1,0 70.7,-31.7 70.7,-70.7"
         style="fill:#2b0e00;fill-opacity:1;fill-rule:nonzero;stroke:none"
         id="path27443" />
      <path
         d="m 46723.2,18833.7 c 0,-39.1 -31.7,-70.7 -70.7,-70.7 -39.1,0 -70.7,31.6 -70.7,70.7 0,39 31.6,70.7 70.7,70.7 39,0 70.7,-31.7 70.7,-70.7"
         style="fill:#2b0e00;fill-opacity:1;fill-rule:nonzero;stroke:none"
         id="path27445" />
      <path
         d="m 46538.7,18850.8 c 0,-39 -31.7,-70.7 -70.7,-70.7 -39.1,0 -70.7,31.7 -70.7,70.7 0,39 31.6,70.7 70.7,70.7 39,0 70.7,-31.7 70.7,-70.7"
         style="fill:#2b0e00;fill-opacity:1;fill-rule:nonzero;stroke:none"
         id="path27447" />
      <path
         d="m 46638.8,18661.5 c 0,-39 -31.6,-70.7 -70.7,-70.7 -39,0 -70.7,31.7 -70.7,70.7 0,39.1 31.7,70.7 70.7,70.7 39.1,0 70.7,-31.6 70.7,-70.7"
         style="fill:#2b0e00;fill-opacity:1;fill-rule:nonzero;stroke:none"
         id="path27449" />
      <path
         d="m 46319.6,18853.8 c 0,-39 -31.6,-70.7 -70.7,-70.7 -39,0 -70.7,31.7 -70.7,70.7 0,39.1 31.7,70.7 70.7,70.7 39.1,0 70.7,-31.6 70.7,-70.7"
         style="fill:#2b0e00;fill-opacity:1;fill-rule:nonzero;stroke:none"
         id="path27451" />
      <path
         d="m 46275.8,18647.7 c 0,-39 -31.6,-70.7 -70.7,-70.7 -39,0 -70.7,31.7 -70.7,70.7 0,39.1 31.7,70.7 70.7,70.7 39.1,0 70.7,-31.6 70.7,-70.7"
         style="fill:#2b0e00;fill-opacity:1;fill-rule:nonzero;stroke:none"
         id="path27453" />
      <path
         d="m 46461,18661.5 c 0,-39 -31.6,-70.7 -70.7,-70.7 -39,0 -70.7,31.7 -70.7,70.7 0,39.1 31.7,70.7 70.7,70.7 39.1,0 70.7,-31.6 70.7,-70.7"
         style="fill:#2b0e00;fill-opacity:1;fill-rule:nonzero;stroke:none"
         id="path27455" />
      <path
         d="m 45944.1,18618.3 c 0,-39.1 -31.7,-70.7 -70.7,-70.7 -39.1,0 -70.7,31.6 -70.7,70.7 0,39 31.6,70.7 70.7,70.7 39,0 70.7,-31.7 70.7,-70.7"
         style="fill:#2b0e00;fill-opacity:1;fill-rule:nonzero;stroke:none"
         id="path27457" />
      <path
         d="m 46124.6,18535.7 c 0,-39 -31.7,-70.7 -70.7,-70.7 -39.1,0 -70.7,31.7 -70.7,70.7 0,39.1 31.6,70.7 70.7,70.7 39,0 70.7,-31.6 70.7,-70.7"
         style="fill:#2b0e00;fill-opacity:1;fill-rule:nonzero;stroke:none"
         id="path27459" />
      <path
         d="m 46178.2,18349.4 c 0,-39 -31.6,-70.7 -70.7,-70.7 -39,0 -70.7,31.7 -70.7,70.7 0,39 31.7,70.7 70.7,70.7 39.1,0 70.7,-31.7 70.7,-70.7"
         style="fill:#2b0e00;fill-opacity:1;fill-rule:nonzero;stroke:none"
         id="path27461" />
      <path
         d="m 46301.3,18476.3 c 0,-39 -31.7,-70.7 -70.7,-70.7 -39.1,0 -70.7,31.7 -70.7,70.7 0,39.1 31.6,70.7 70.7,70.7 39,0 70.7,-31.6 70.7,-70.7"
         style="fill:#2b0e00;fill-opacity:1;fill-rule:nonzero;stroke:none"
         id="path27463" />
      <path
         d="m 46346.5,18291.4 c 0,-39.1 -31.6,-70.7 -70.7,-70.7 -39,0 -70.7,31.6 -70.7,70.7 0,39 31.7,70.7 70.7,70.7 39.1,0 70.7,-31.7 70.7,-70.7"
         style="fill:#2b0e00;fill-opacity:1;fill-rule:nonzero;stroke:none"
         id="path27465" />
      <path
         d="m 46487.9,18465 c 0,-39 -31.6,-70.6 -70.7,-70.6 -39,0 -70.7,31.6 -70.7,70.6 0,39.1 31.7,70.7 70.7,70.7 39.1,0 70.7,-31.6 70.7,-70.7"
         style="fill:#2b0e00;fill-opacity:1;fill-rule:nonzero;stroke:none"
         id="path27467" />
      <path
         d="m 46568.1,18291.4 c 0,-39.1 -31.6,-70.7 -70.7,-70.7 -39,0 -70.7,31.6 -70.7,70.7 0,39 31.7,70.7 70.7,70.7 39.1,0 70.7,-31.7 70.7,-70.7"
         style="fill:#2b0e00;fill-opacity:1;fill-rule:nonzero;stroke:none"
         id="path27469" />
      <path
         d="m 46656.6,18476.3 c 0,-39 -31.7,-70.7 -70.7,-70.7 -39.1,0 -70.7,31.7 -70.7,70.7 0,39.1 31.6,70.7 70.7,70.7 39,0 70.7,-31.6 70.7,-70.7"
         style="fill:#2b0e00;fill-opacity:1;fill-rule:nonzero;stroke:none"
         id="path27471" />
      <path
         d="m 46825.2,18394.6 c 0,-39.1 -31.6,-70.7 -70.7,-70.7 -39,0 -70.7,31.6 -70.7,70.7 0,39 31.7,70.7 70.7,70.7 39.1,0 70.7,-31.7 70.7,-70.7"
         style="fill:#2b0e00;fill-opacity:1;fill-rule:nonzero;stroke:none"
         id="path27473" />
    </g>
  </g>
</svg>
