<?xml version="1.0" encoding="UTF-8" standalone="no"?>
<!-- Created with Inkscape (http://www.inkscape.org/) -->

<svg
   version="1.1"
   id="svg26267"
   width="681.4668"
   height="763.38647"
   viewBox="0 0 681.4668 763.38649"
   sodipodi:docname="fruit_set.eps"
   xmlns:inkscape="http://www.inkscape.org/namespaces/inkscape"
   xmlns:sodipodi="http://sodipodi.sourceforge.net/DTD/sodipodi-0.dtd"
   xmlns="http://www.w3.org/2000/svg"
   xmlns:svg="http://www.w3.org/2000/svg">
  <defs
     id="defs26271" />
  <sodipodi:namedview
     id="namedview26269"
     pagecolor="#ffffff"
     bordercolor="#000000"
     borderopacity="0.25"
     inkscape:showpageshadow="2"
     inkscape:pageopacity="0.0"
     inkscape:pagecheckerboard="0"
     inkscape:deskcolor="#d1d1d1"
     showgrid="false" />
  <g
     id="g26275"
     inkscape:groupmode="layer"
     inkscape:label="Page 1"
     transform="matrix(1.3333333,0,0,-1.3333333,-2034.72,1060.2454)">
    <g
       id="g26277"
       transform="scale(0.1)">
      <path
         d="m 18065.2,6606.7 c 0,0 -207.3,754 -926.8,886.4 -719.4,132.3 -1878,-308.3 -1878,-308.3 0,0 167.8,-681.7 970.9,-885.5 803.1,-203.9 1414.6,59.9 1833.9,307.4"
         style="fill:#69b200;fill-opacity:1;fill-rule:nonzero;stroke:none"
         id="path26607" />
      <path
         d="m 17923.6,6527.1 c 9.9,5.3 19.7,10.5 29.4,15.8 l 1.3,0.8 c 9.9,5.4 19.8,10.8 29.5,16.3 1.4,0.7 2.8,1.5 4.2,2.3 8.9,5 17.7,10 26.5,15 l 1.7,0.9 v 0 c 14.6,8.4 29,16.8 43.2,25.1 -22.7,3 -49.1,6.2 -78.6,9.6 -81.2,73.3 -246.8,186.6 -572,303.7 -551.4,198.3 -1530.6,70.6 -1530.6,70.6 0,0 512.2,-10.6 1131.8,-64.9 339.7,-29.8 586.2,-168.5 739.6,-287.7 -336.9,24.5 -809.2,27.5 -1108.3,-104.2 -307.7,-135.4 -664.2,-76.6 -896.8,-9.4 128,-91.4 287.9,-171.3 486.8,-221.7 697.2,-177 1249.8,-1.6 1657.9,209.7 l 0.3,0.2 c 10.5,5.4 21,10.9 31.3,16.4 1,0.5 1.9,1 2.8,1.5"
         style="fill:#578900;fill-opacity:1;fill-rule:nonzero;stroke:none"
         id="path26609" />
      <path
         d="m 16127.7,7285.4 c 0,0 550.2,119.4 870.3,20.7 320.1,-98.8 518.3,-231.2 518.3,-231.2 0,0 -180.7,616 -1388.6,210.5"
         style="fill:#95ce32;fill-opacity:1;fill-rule:nonzero;stroke:none"
         id="path26611" />
      <path
         d="m 17961.2,6388.5 c 0,0 360.4,916.7 668.6,1305.6 0,0 -47,402.8 -373.7,201.3 -326.6,-201.5 -450.5,-1420.7 -450.5,-1420.7 l 155.6,-86.2"
         style="fill:#72362a;fill-opacity:1;fill-rule:nonzero;stroke:none"
         id="path26613" />
      <path
         d="m 17881.5,6432.7 79.7,-44.2 c 0,0 360.4,916.7 668.6,1305.6 0,0 -15.8,135.3 -92.7,209.8 -117,-162.4 -316.6,-470.2 -466.3,-862 -131.4,-343.7 -175.4,-521.1 -189.3,-609.2"
         style="fill:#59241b;fill-opacity:1;fill-rule:nonzero;stroke:none"
         id="path26615" />
      <path
         d="m 17882,6570.9 c 0,0 -1005.9,644.4 -1739.7,-425.7 -733.9,-1070.2 -451.6,-3001.1 738.3,-3690.8 1189.9,-689.7 2827.4,240.9 3414.2,2046.3 355,1092.6 -536.5,3020.1 -2412.8,2070.2"
         style="fill:#ff9271;fill-opacity:1;fill-rule:nonzero;stroke:none"
         id="path26617" />
      <path
         d="m 16107.2,4171.1 c -4.1,0 -8.3,0.4 -12.4,1.2 -23.7,4.5 -42.4,21.5 -51.1,43.2 -15.7,39.7 -29.3,80 -41.2,120.8 -11.1,40.9 -22,82.2 -30.4,123.9 -8.3,41.8 -16.4,83.7 -21.7,126.2 -2.9,21.1 -5.5,42.4 -8.1,63.6 -2,21.4 -3.9,42.7 -5.5,64.1 -13.4,171.3 -4.7,345.4 22.4,517.1 28.3,171.5 74.5,341.1 144.1,501.2 8.6,20.1 18,39.8 27.1,59.6 9.4,19.6 19.2,39.1 29.1,58.5 20.5,38.6 42,76.4 65.4,113.3 23.3,36.8 48.1,72.8 75.2,107.3 13.4,17.3 27.6,34.1 42.2,50.6 7.5,8.3 14.7,16.4 22.7,24.5 l 11.9,12.1 6.3,6 c 2.3,2.2 4.2,3.9 7,6.8 13,13.6 29.9,20.3 46.6,20.3 16.5,0 32.9,-6.6 45.2,-19.8 12.2,-13.1 18.2,-30.2 18.2,-47.4 l -0.2,-34.5 c 0,-1.3 -0.9,-3.9 -1.4,-6 l -1.8,-6.9 -3.9,-14 -8,-28.5 -15.7,-57.3 c -10.4,-38.2 -20.6,-76.3 -30.1,-114.4 -19.6,-76.1 -37.5,-152 -54.3,-227.7 -33.8,-151.5 -61.8,-303 -86.2,-455.5 -23.1,-152.8 -43.4,-306.4 -60.8,-462.9 -2.1,-19.5 -4.5,-39.1 -7,-58.7 -2,-19.7 -4,-39.4 -6.3,-59.1 -5.1,-39.5 -8.5,-79.2 -13.6,-119.2 -2.9,-20 -4.7,-40 -6.9,-60.1 -2.6,-20.1 -4.7,-40.3 -7.8,-60.6 -5,-40.6 -9.8,-81.4 -17.8,-123.1 l -0.6,-3.2 c -6.9,-36 -37.2,-61.4 -70.6,-61.4"
         style="fill:#ffbeaa;fill-opacity:1;fill-rule:nonzero;stroke:none"
         id="path26619" />
      <path
         d="m 18901.5,5191.4 c -9.3,0 -18.8,1.9 -27.9,5.9 -23.4,10.3 -38.3,32 -40.9,55.8 l -0.6,5.3 c -1.4,13 -2.4,25.8 -3.2,38.5 -1.1,12.7 -1,25.2 -2.5,37.7 -1.1,12.5 -2.3,24.9 -3.1,37.2 -0.5,6.2 -0.8,12.3 -1.4,18.4 -0.9,6.2 -1.4,12.3 -2.1,18.3 -1.3,12.2 -2.9,24.3 -3.9,36.3 -1.4,12 -3.5,23.9 -5.1,35.8 -2.4,23.8 -7.9,47.1 -11.5,70.3 -9.6,46.1 -19.2,91.5 -33.3,135.3 -13.5,43.9 -28.4,87 -46.8,128.7 -36,83.7 -81.3,162.9 -131.6,241.9 -25.3,39.3 -51.8,78.9 -79.9,118.4 -14,19.8 -28.3,39.7 -42.8,59.6 l -21.8,30.2 -10.9,15 -5.3,7.5 c -0.9,1.3 -1.6,2.5 -2.4,3.7 -0.8,1.2 -1.6,2.4 -1.7,3.2 l -6.6,53.8 c -4,31.7 18.6,60.6 50.4,64.5 2.3,0.3 4.6,0.4 6.9,0.4 7,0 13.9,-1.2 20.1,-3.5 2.7,-1 4.7,-1.6 6.6,-2.1 l 5.8,-1.8 11,-3.7 c 7.2,-2.6 14.4,-5.1 21.2,-8 13.9,-5.5 27.3,-11.7 40.6,-18.2 13.1,-6.6 26.1,-13.4 38.7,-20.9 l 18.9,-11.3 18.3,-12 c 48.8,-32.5 93.7,-70.5 134.3,-113.3 40.6,-42.6 77,-89.7 108.3,-140.2 31.1,-50.7 57,-104.8 78.3,-160.6 42.7,-111.6 63.1,-231.5 61.3,-348.8 -0.9,-29.3 -2,-58.5 -5.8,-87.4 -1.8,-14.4 -3.4,-28.8 -5.6,-43.1 -2.5,-14.3 -5.5,-28.4 -8.3,-42.6 -1.4,-7 -2.7,-14 -4.3,-21.1 -1.8,-6.9 -3.8,-13.8 -5.6,-20.8 -3.7,-13.8 -7.9,-27.5 -11.9,-41.2 -1.8,-6.8 -4.3,-13.6 -6.8,-20.3 -2.5,-6.7 -4.9,-13.3 -7.6,-20 -5.1,-13.2 -10.4,-26.4 -16.1,-39.4 -11.4,-25.9 -36.8,-41.4 -63.4,-41.4"
         style="fill:#ffbeaa;fill-opacity:1;fill-rule:nonzero;stroke:none"
         id="path26621" />
      <path
         d="m 17882,6570.9 c 0,0 -555.9,356.1 -1142.7,99.2 345.2,56.7 568.4,-136.4 568.4,-136.4 -427.3,-836.8 -271.7,-1993 -271.7,-1993 0,0 29.6,629.4 236,1134.6 206.4,505.1 610,895.6 610,895.6"
         style="fill:#f47e67;fill-opacity:1;fill-rule:nonzero;stroke:none"
         id="path26623" />
      <path
         d="m 18213.1,6712.9 c 349.7,-88.7 1075.4,-397.1 973.5,-1419.6 -115.4,-1156.5 -794.6,-2685.7 -2365.8,-2802.7 19.7,-12.4 39.6,-24.5 59.8,-36.2 1189.9,-689.7 2827.4,240.9 3414.1,2046.4 333.6,1026.1 -432.6,2788.7 -2081.6,2212.1"
         style="fill:#f47e67;fill-opacity:1;fill-rule:nonzero;stroke:none"
         id="path26625" />
      <path
         d="m 16887.5,5963.7 c -2.4,-11.6 -13.8,-19.1 -25.3,-16.6 -11.6,2.4 -19.1,13.7 -16.6,25.3 2.4,11.6 13.7,19 25.3,16.6 11.6,-2.4 19,-13.8 16.6,-25.3"
         style="fill:#f47e67;fill-opacity:1;fill-rule:nonzero;stroke:none"
         id="path26627" />
      <path
         d="m 17995,4488.6 c -7.7,-36.9 -43.8,-60.6 -80.7,-52.9 -36.9,7.7 -60.6,43.8 -53,80.7 7.7,36.9 43.9,60.6 80.8,52.9 36.9,-7.6 60.6,-43.8 52.9,-80.7"
         style="fill:#f47e67;fill-opacity:1;fill-rule:nonzero;stroke:none"
         id="path26629" />
      <path
         d="m 18229.9,5764.6 c -6.1,-29.1 -34.7,-47.9 -63.9,-41.8 -29.2,6.1 -47.9,34.7 -41.9,63.8 6.1,29.2 34.7,48 63.9,41.9 29.2,-6.1 47.9,-34.7 41.9,-63.9"
         style="fill:#f47e67;fill-opacity:1;fill-rule:nonzero;stroke:none"
         id="path26631" />
      <path
         d="m 18465.3,5179.5 c -3.4,-16.5 -19.5,-27 -36,-23.6 -16.4,3.4 -27,19.5 -23.6,36 3.5,16.4 19.6,27 36,23.6 16.5,-3.4 27.1,-19.5 23.6,-36"
         style="fill:#f47e67;fill-opacity:1;fill-rule:nonzero;stroke:none"
         id="path26633" />
      <path
         d="m 18391.8,3876.4 c -3.3,-15.5 -18.5,-25.5 -34,-22.3 -15.6,3.3 -25.6,18.5 -22.3,34 3.2,15.6 18.4,25.6 34,22.3 15.5,-3.2 25.5,-18.4 22.3,-34"
         style="fill:#f47e67;fill-opacity:1;fill-rule:nonzero;stroke:none"
         id="path26635" />
      <path
         d="m 17480.5,2965.2 c -6.4,-30.5 -36.2,-50 -66.7,-43.7 -30.5,6.4 -50.1,36.2 -43.7,66.7 6.3,30.5 36.2,50 66.6,43.7 30.5,-6.4 50.1,-36.2 43.8,-66.7"
         style="fill:#f47e67;fill-opacity:1;fill-rule:nonzero;stroke:none"
         id="path26637" />
      <path
         d="m 17173.2,3830.5 c -4,-19.5 -23.1,-32 -42.6,-28 -19.6,4.1 -32.1,23.2 -28,42.7 4,19.5 23.1,32 42.6,28 19.6,-4.1 32.1,-23.2 28,-42.7"
         style="fill:#f47e67;fill-opacity:1;fill-rule:nonzero;stroke:none"
         id="path26639" />
      <path
         d="m 16565.2,3036.5 c -4,-19.1 -22.8,-31.4 -41.9,-27.5 -19.2,4 -31.5,22.8 -27.5,41.9 4,19.2 22.7,31.5 41.9,27.5 19.2,-4 31.5,-22.7 27.5,-41.9"
         style="fill:#f47e67;fill-opacity:1;fill-rule:nonzero;stroke:none"
         id="path26641" />
      <path
         d="m 16560.5,5500.7 c -4.8,-23.3 -27.6,-38.2 -50.8,-33.4 -23.3,4.9 -38.2,27.6 -33.4,50.9 4.9,23.3 27.6,38.2 50.9,33.4 23.2,-4.9 38.2,-27.7 33.3,-50.9"
         style="fill:#f47e67;fill-opacity:1;fill-rule:nonzero;stroke:none"
         id="path26643" />
    </g>
  </g>
</svg>
