<?xml version="1.0" encoding="UTF-8" standalone="no"?>
<!-- Created with Inkscape (http://www.inkscape.org/) -->

<svg
   version="1.1"
   id="svg2167"
   width="209.70316"
   height="341.10092"
   viewBox="0 0 209.70316 341.10092"
   sodipodi:docname="6025936_57434.eps"
   xmlns:inkscape="http://www.inkscape.org/namespaces/inkscape"
   xmlns:sodipodi="http://sodipodi.sourceforge.net/DTD/sodipodi-0.dtd"
   xmlns="http://www.w3.org/2000/svg"
   xmlns:svg="http://www.w3.org/2000/svg">
  <defs
     id="defs2171" />
  <sodipodi:namedview
     id="namedview2169"
     pagecolor="#ffffff"
     bordercolor="#000000"
     borderopacity="0.25"
     inkscape:showpageshadow="2"
     inkscape:pageopacity="0.0"
     inkscape:pagecheckerboard="0"
     inkscape:deskcolor="#d1d1d1"
     showgrid="false" />
  <g
     id="g2175"
     inkscape:groupmode="layer"
     inkscape:label="Page 1"
     transform="matrix(1.3333333,0,0,-1.3333333,-175.76596,495.54532)">
    <g
       id="g2177"
       transform="scale(0.1)">
      <path
         d="m 2565.78,2534.98 c -80.86,469.06 -197.79,655.17 -461.15,655.32 -263.34,-0.15 -380.26,-186.26 -461.15,-655.32 -80.88,-469.2 -420.68,-501.58 -299.32,-1003.17 94.9,-392.28 614.84,-420.66 759.53,-331.7 l 0.94,-0.25 0.96,0.25 c 144.68,-88.96 664.59,-60.58 759.51,331.7 121.37,501.59 -218.44,533.97 -299.32,1003.17"
         style="fill:#9ec114;fill-opacity:1;fill-rule:nonzero;stroke:none"
         id="path2267"
         inkscape:export-filename="path2267.png"
         inkscape:export-xdpi="96"
         inkscape:export-ydpi="96" />
      <path
         d="m 2565.78,2534.98 c -80.86,469.06 -197.79,655.17 -461.15,655.32 334.38,-79.29 360.04,-567.35 501.6,-933.08 194.14,-501.54 284.78,-1051.68 -502.54,-1057.11 l 0.94,-0.25 0.96,0.25 c 144.68,-88.96 664.59,-60.58 759.51,331.7 121.36,501.59 -218.44,533.97 -299.32,1003.17"
         style="fill:#8ba911;fill-opacity:1;fill-rule:nonzero;stroke:none"
         id="path2269" />
      <path
         d="m 2102.48,3144.08 c 0,0 1.35,0.84 3.89,2.5 2.4,1.74 6.7,3.77 10.64,7.39 4.26,3.18 9.03,7.58 14.25,12.97 2.48,2.72 4.84,5.9 7.49,9.05 2.25,3.46 4.65,7.06 6.89,10.87 4.13,7.98 8.19,16.75 10.54,26.74 2.61,9.9 4.58,20.49 5.15,31.77 1.51,22.38 -0.67,46.75 -5.1,70.84 -2.72,11.98 -5.43,23.95 -9.35,35.48 -3.74,11.61 -7.57,22.9 -10.88,33.99 -6.12,22.33 -10.71,43.71 -14.38,62.41 -1.97,9.31 -3.34,18.08 -4.72,25.82 -1.24,7.85 -2.27,14.76 -2.92,20.57 -1.48,11.48 -1.81,18.52 -1.81,18.52 l 4.34,2.13 c 0,0 21.58,-18.27 41.4,-53.22 5.1,-8.61 10.02,-18.27 14.59,-28.8 4.82,-10.43 8.87,-21.81 12.26,-33.95 3.15,-12.1 5.3,-24.96 6.66,-38.18 1.44,-13.15 2.7,-26.64 3.35,-40.13 1.42,-26.97 0.82,-54.46 -5.22,-79.79 -2.79,-12.62 -6.68,-24.69 -11.85,-35.49 -4.89,-10.92 -11.47,-20.35 -17.82,-28.5 -3.38,-3.97 -6.83,-7.56 -10.11,-10.9 -3.6,-3.05 -6.87,-6.04 -10.14,-8.6 -3.46,-2.29 -6.64,-4.5 -9.59,-6.48 -3.13,-1.79 -6.16,-3.22 -8.77,-4.59 -5.25,-2.95 -9.43,-3.9 -12.28,-5.13 -2.84,-1.06 -4.34,-1.63 -4.34,-1.63 l -2.17,4.34"
         style="fill:#4b2f35;fill-opacity:1;fill-rule:nonzero;stroke:none"
         id="path2271" />
      <path
         d="m 2039.75,3161.58 c 0,0 1.33,-39.1 62.01,-43.15 60.66,-4.02 120.41,14.83 119.53,16.17 -0.88,1.38 -66.95,-8.62 -107.38,5.14 -40.46,13.74 -74.16,21.84 -74.16,21.84"
         style="fill:#8ba911;fill-opacity:1;fill-rule:nonzero;stroke:none"
         id="path2273" />
      <path
         d="m 2122.21,3484.6 c 0,0 -94.3,-20.45 -145.58,27.69 -51.26,48.11 -79.02,204.3 -79.02,204.3 l 224.6,-231.99"
         style="fill:#27963c;fill-opacity:1;fill-rule:nonzero;stroke:none"
         id="path2275" />
      <path
         d="m 2122.21,3484.6 c 0,0 24.04,94.21 -22.64,146.85 -46.64,52.57 -201.96,84.79 -201.96,84.79 l 224.6,-231.64"
         style="fill:#40b93c;fill-opacity:1;fill-rule:nonzero;stroke:none"
         id="path2277" />
      <path
         d="m 2122.21,3481.23 c 0,0 2.17,96.52 60.94,135.1 58.78,38.57 217.12,29.04 217.12,29.04 l -278.06,-164.14"
         style="fill:#40b93c;fill-opacity:1;fill-rule:nonzero;stroke:none"
         id="path2279" />
      <path
         d="m 2122.21,3481.23 c 0,0 85.97,-45.37 148.03,-12.34 62.06,33.15 129.68,176.56 129.68,176.56 l -277.71,-164.22"
         style="fill:#27963c;fill-opacity:1;fill-rule:nonzero;stroke:none"
         id="path2281" />
      <path
         d="m 1656.98,2392.64 c 0,0 75.48,355.4 124.07,522.61 48.51,167.21 228.85,202.58 228.85,202.58 0,0 85.47,-13.81 -34.71,-175.62 -85.89,-115.63 -318.21,-549.57 -318.21,-549.57"
         style="fill:#b0cc3a;fill-opacity:1;fill-rule:nonzero;stroke:none"
         id="path2283" />
      <path
         d="m 1387.27,1620.82 c 0,0 -5.35,264.28 32.38,361.36 37.75,97.09 145.62,215.71 145.62,215.71 0,0 -53.91,-183.34 -89.11,-264.26 -35.19,-80.92 -88.89,-312.81 -88.89,-312.81"
         style="fill:#b0cc3a;fill-opacity:1;fill-rule:nonzero;stroke:none"
         id="path2285" />
      <path
         d="m 2481.82,1552.01 c 0,-37.95 -34.26,-68.7 -76.53,-68.7 -42.23,0 -76.5,30.75 -76.5,68.7 0,38.01 34.27,68.81 76.5,68.81 42.27,0 76.53,-30.8 76.53,-68.81"
         style="fill:#cce310;fill-opacity:1;fill-rule:nonzero;stroke:none"
         id="path2287" />
      <path
         d="m 2588.6,1514.34 c 0,-20.77 -18.74,-37.65 -41.92,-37.65 -23.14,0 -41.92,16.88 -41.92,37.65 0,20.81 18.78,37.67 41.92,37.67 23.18,0 41.92,-16.86 41.92,-37.67"
         style="fill:#cce310;fill-opacity:1;fill-rule:nonzero;stroke:none"
         id="path2289" />
      <path
         d="m 2489.96,1682.34 c 0,-22.49 -15.47,-40.76 -34.57,-40.76 -19.07,0 -34.55,18.27 -34.55,40.76 0,22.48 15.48,40.72 34.55,40.72 19.1,0 34.57,-18.24 34.57,-40.72"
         style="fill:#cce310;fill-opacity:1;fill-rule:nonzero;stroke:none"
         id="path2291" />
      <path
         d="m 2420.84,1415.07 c 0,-22.51 -15.49,-40.76 -34.57,-40.76 -19.09,0 -34.59,18.25 -34.59,40.76 0,22.49 15.5,40.74 34.59,40.74 19.08,0 34.57,-18.25 34.57,-40.74"
         style="fill:#cce310;fill-opacity:1;fill-rule:nonzero;stroke:none"
         id="path2293" />
      <path
         d="m 2302.93,1442.53 c 0,-15.17 -11.04,-27.46 -24.67,-27.46 -13.63,0 -24.71,12.29 -24.71,27.46 0,15.18 11.08,27.48 24.71,27.48 13.63,0 24.67,-12.3 24.67,-27.48"
         style="fill:#cce310;fill-opacity:1;fill-rule:nonzero;stroke:none"
         id="path2295" />
      <path
         d="m 2506.48,1415.07 c 0,-15.19 -11.03,-27.5 -24.66,-27.5 -13.64,0 -24.66,12.31 -24.66,27.5 0,15.18 11.02,27.46 24.66,27.46 13.63,0 24.66,-12.28 24.66,-27.46"
         style="fill:#cce310;fill-opacity:1;fill-rule:nonzero;stroke:none"
         id="path2297" />
      <path
         d="m 2546.68,1593.35 c 0,-15.2 -11.03,-27.46 -24.67,-27.46 -13.63,0 -24.65,12.26 -24.65,27.46 0,15.15 11.02,27.47 24.65,27.47 13.64,0 24.67,-12.32 24.67,-27.47"
         style="fill:#cce310;fill-opacity:1;fill-rule:nonzero;stroke:none"
         id="path2299" />
      <path
         d="m 2637.93,1641.58 c 0,-15.17 -11.04,-27.48 -24.65,-27.48 -13.61,0 -24.68,12.31 -24.68,27.48 0,15.17 11.07,27.5 24.68,27.5 13.61,0 24.65,-12.33 24.65,-27.5"
         style="fill:#cce310;fill-opacity:1;fill-rule:nonzero;stroke:none"
         id="path2301" />
      <path
         d="m 2573.67,1715.83 c 0,-10.57 -7.7,-19.13 -17.2,-19.13 -9.51,0 -17.21,8.56 -17.21,19.13 0,10.57 7.7,19.15 17.21,19.15 9.5,0 17.2,-8.58 17.2,-19.15"
         style="fill:#cce310;fill-opacity:1;fill-rule:nonzero;stroke:none"
         id="path2303" />
      <path
         d="m 2612.46,1748.28 c 0,-7.32 -5.33,-13.3 -11.91,-13.3 -6.6,0 -11.95,5.98 -11.95,13.3 0,7.3 5.35,13.24 11.95,13.24 6.58,0 11.91,-5.94 11.91,-13.24"
         style="fill:#cce310;fill-opacity:1;fill-rule:nonzero;stroke:none"
         id="path2305" />
      <path
         d="m 2612.46,1808.59 c 0,-7.29 -5.33,-13.21 -11.91,-13.21 -6.6,0 -11.95,5.92 -11.95,13.21 0,7.39 5.35,13.28 11.95,13.28 6.58,0 11.91,-5.89 11.91,-13.28"
         style="fill:#cce310;fill-opacity:1;fill-rule:nonzero;stroke:none"
         id="path2307" />
      <path
         d="m 2570.53,1782.03 c 0,-7.26 -5.35,-13.23 -11.91,-13.23 -6.59,0 -11.94,5.97 -11.94,13.23 0,7.4 5.35,13.35 11.94,13.35 6.56,0 11.91,-5.95 11.91,-13.35"
         style="fill:#cce310;fill-opacity:1;fill-rule:nonzero;stroke:none"
         id="path2309" />
    </g>
  </g>
</svg>
