<?xml version="1.0" encoding="UTF-8" standalone="no"?>
<!-- Created with Inkscape (http://www.inkscape.org/) -->

<svg
   version="1.1"
   id="svg26267"
   width="482.22119"
   height="942.63794"
   viewBox="0 0 482.22119 942.63795"
   sodipodi:docname="fruit_set.eps"
   xmlns:inkscape="http://www.inkscape.org/namespaces/inkscape"
   xmlns:sodipodi="http://sodipodi.sourceforge.net/DTD/sodipodi-0.dtd"
   xmlns="http://www.w3.org/2000/svg"
   xmlns:svg="http://www.w3.org/2000/svg">
  <defs
     id="defs26271" />
  <sodipodi:namedview
     id="namedview26269"
     pagecolor="#ffffff"
     bordercolor="#000000"
     borderopacity="0.25"
     inkscape:showpageshadow="2"
     inkscape:pageopacity="0.0"
     inkscape:pagecheckerboard="0"
     inkscape:deskcolor="#d1d1d1"
     showgrid="false" />
  <g
     id="g26275"
     inkscape:groupmode="layer"
     inkscape:label="Page 1"
     transform="matrix(1.3333333,0,0,-1.3333333,-2181.3787,3103.7825)">
    <g
       id="g26277"
       transform="scale(0.1)">
      <path
         d="m 17967.8,16373.8 c 0,0 -110.3,-27.8 -93.2,-62.8 17.1,-35 45.9,-46.3 157.1,-6.2 111.1,40.2 65.8,-9.2 98.8,-65.8 32.9,-56.6 88.5,-27.8 99.8,33.9 11.3,61.8 35,53.6 86.5,17.5 51.4,-36 102.9,-31.9 131.7,11.4 28.8,43.2 -129.3,111.3 -129.3,111.3 l -351.4,-39.3"
         style="fill:#5fa916;fill-opacity:1;fill-rule:nonzero;stroke:none"
         id="path26883" />
      <path
         d="m 17891.5,20858.4 c 0,0 -267.7,377.9 -766.6,415.6 -274.6,20.8 -458.6,-7.4 -578,-35.7 -97.5,-23.1 -151.9,-46.2 -177.3,-42.5 -56.3,8.1 132.5,520.8 887.8,466.8 755.3,-53.9 876.5,0 876.5,0 v -804.2 h -242.4"
         style="fill:#7fd822;fill-opacity:1;fill-rule:nonzero;stroke:none"
         id="path26885" />
      <path
         d="m 18133.9,21867.7 c 0,0 -507.3,499.3 -935.7,553.3 -428.4,53.9 -679.2,-10.8 -679.2,-94.5 0,-83.6 326.9,-56.6 791.9,-582.9 465,-526.3 580.6,-885.2 580.6,-885.2 h 242.4 v 1009.3"
         style="fill:#7fd822;fill-opacity:1;fill-rule:nonzero;stroke:none"
         id="path26887" />
      <path
         d="m 18133.9,22715.1 c 0,0 -335.4,367.1 -532.7,453.4 -197.3,86.4 -394.5,151.2 -470.6,78.3 -76.1,-72.9 352.3,-118.8 617.2,-1030.9 264.9,-912.2 259.2,-1357.5 259.2,-1357.5 h 126.9 v 1856.7"
         style="fill:#7fd822;fill-opacity:1;fill-rule:nonzero;stroke:none"
         id="path26889" />
      <path
         d="m 18133.9,21072.3 c -248.2,144 -759.3,412.9 -1062.5,377.1 -245.5,-28.9 -431.7,-134.7 -542.1,-215.4 118.6,29.6 307.1,61.9 595.6,40 498.9,-37.7 766.6,-415.6 766.6,-415.6 h 242.4 v 213.9"
         style="fill:#5fa916;fill-opacity:1;fill-rule:nonzero;stroke:none"
         id="path26891" />
      <path
         d="m 17326.4,22148.4 c -359.1,217 -609.4,249.5 -747,243.1 -39.6,-18.5 -60.4,-41 -60.4,-65 0,-83.6 326.9,-56.6 791.9,-582.9 465,-526.3 580.6,-885.2 580.6,-885.2 h 242.4 v 521.2 c -143.8,199.3 -423.3,536.8 -807.5,768.8"
         style="fill:#5fa916;fill-opacity:1;fill-rule:nonzero;stroke:none"
         id="path26893" />
      <path
         d="m 17674.5,22879.8 c -208,281.5 -387.8,367.9 -496.3,392.4 -18.8,-5 -34.9,-13.3 -47.6,-25.4 -76.1,-72.9 352.3,-118.8 617.2,-1030.9 264.9,-912.2 259.2,-1357.5 259.2,-1357.5 h 126.9 v 1237.7 c -117.7,238.6 -282.4,544.2 -459.4,783.7"
         style="fill:#5fa916;fill-opacity:1;fill-rule:nonzero;stroke:none"
         id="path26895" />
      <path
         d="m 18367.8,20858.4 c 0,0 267.7,377.9 766.5,415.6 274.6,20.8 458.7,-7.4 578.1,-35.7 97.5,-23.1 151.9,-46.2 177.2,-42.5 56.4,8.1 -132.4,520.8 -887.7,466.8 -755.3,-53.9 -876.5,0 -876.5,0 v -804.2 h 242.4"
         style="fill:#7fd822;fill-opacity:1;fill-rule:nonzero;stroke:none"
         id="path26897" />
      <path
         d="m 18125.4,21867.7 c 0,0 507.3,499.3 935.7,553.3 428.3,53.9 679.2,-10.8 679.2,-94.5 0,-83.6 -327,-56.6 -792,-582.9 -465,-526.3 -580.5,-885.2 -580.5,-885.2 h -242.4 v 1009.3"
         style="fill:#7fd822;fill-opacity:1;fill-rule:nonzero;stroke:none"
         id="path26899" />
      <path
         d="m 18125.4,22715.1 c 0,0 335.4,367.1 532.7,453.4 197.2,86.4 394.5,151.2 470.6,78.3 76.1,-72.9 -352.3,-118.8 -617.2,-1030.9 -264.9,-912.2 -259.3,-1357.5 -259.3,-1357.5 h -126.8 v 1856.7"
         style="fill:#7fd822;fill-opacity:1;fill-rule:nonzero;stroke:none"
         id="path26901" />
      <path
         d="m 18125.4,21072.3 c 248.1,144 759.3,412.9 1062.5,377.1 245.5,-28.9 431.7,-134.7 542.1,-215.4 -118.7,29.6 -307.1,61.9 -595.7,40 -498.8,-37.7 -766.5,-415.6 -766.5,-415.6 h -242.4 v 213.9"
         style="fill:#5fa916;fill-opacity:1;fill-rule:nonzero;stroke:none"
         id="path26903" />
      <path
         d="m 18932.8,22148.4 c 359.2,217 609.5,249.5 747.1,243.1 39.6,-18.5 60.4,-41 60.4,-65 0,-83.6 -327,-56.6 -792,-582.9 -465,-526.3 -580.5,-885.2 -580.5,-885.2 h -242.4 v 521.2 c 143.8,199.3 423.3,536.8 807.4,768.8"
         style="fill:#5fa916;fill-opacity:1;fill-rule:nonzero;stroke:none"
         id="path26905" />
      <path
         d="m 18584.8,22879.8 c 208,281.5 387.7,367.9 496.3,392.4 18.8,-5 34.9,-13.3 47.6,-25.4 76.1,-72.9 -352.3,-118.8 -617.2,-1030.9 -264.9,-912.2 -259.3,-1357.5 -259.3,-1357.5 h -126.8 v 1237.7 c 117.6,238.6 282.4,544.2 459.4,783.7"
         style="fill:#5fa916;fill-opacity:1;fill-rule:nonzero;stroke:none"
         id="path26907" />
      <path
         d="m 18179.9,21022.3 c -1594.2,0 -1854.3,-1915.8 -1787.9,-3353.9 66.4,-1438.2 1787.9,-1307.9 1787.9,-1307.9 0,0 1721.4,-130.3 1787.8,1307.9 66.4,1438.1 -193.7,3353.9 -1787.8,3353.9"
         style="fill:#ffcb40;fill-opacity:1;fill-rule:nonzero;stroke:none"
         id="path26909" />
      <path
         d="m 19426,17250.6 c -123.7,-84.1 -263.5,-175.6 -415.5,-269.3 -250.4,120.1 -490.9,249.2 -715.9,378.8 243.3,145.8 464.7,289.5 655.4,419.3 24,16.4 47.8,32.7 71.3,48.9 242.1,-120.5 494.3,-233.9 751.4,-332.5 -104.3,-76.5 -220.6,-159.4 -346.7,-245.2 m -1257,-731.3 c -252.6,120.9 -493.2,253.1 -712.2,383.7 249.8,122.3 489.1,252.6 712.2,382.8 223.1,-130.2 462.4,-260.5 712.2,-382.8 -219,-130.6 -459.6,-262.8 -712.2,-383.7 m -1257,731.3 c -126.1,85.8 -242.4,168.7 -346.7,245.2 257.1,98.6 509.3,212 751.4,332.5 23.5,-16.2 47.3,-32.5 71.3,-48.9 190.7,-129.8 412.1,-273.5 655.3,-419.3 -224.9,-129.6 -465.5,-258.7 -715.8,-378.8 -152.1,93.7 -291.8,185.2 -415.5,269.3 m -398.9,1337.7 c 247.9,101 490.4,214.4 722.4,333.5 107.7,-77.9 224.4,-160.2 348.7,-244.9 139.1,-94.6 294.5,-196.7 462.8,-301.5 -223,-134.2 -465,-270.4 -719.1,-399.4 -363.2,253.3 -648.4,477.1 -814.8,612.3 m 1655.9,869.3 c 243,-153.7 515.5,-315.1 806.7,-469.5 -93.7,-67.3 -193.9,-137.6 -299.7,-209.6 -151,-102.8 -321.6,-214.4 -507,-328.8 -185.4,114.4 -356,226 -507.1,328.8 -105.7,72 -205.9,142.3 -299.6,209.6 291.2,154.4 563.7,315.8 806.7,469.5 m -310,356.1 c -159.6,108.5 -306.4,213.1 -437.5,309.6 226.4,133.1 431.3,265.5 604.9,383.7 49.1,33.4 96.6,66.3 142.6,98.6 46,-32.3 93.5,-65.2 142.6,-98.6 173.6,-118.2 378.5,-250.6 604.9,-383.7 -131.1,-96.5 -277.9,-201.1 -437.5,-309.6 -95.9,-65.3 -199.6,-134.1 -310,-204.9 -110.4,70.8 -214.1,139.6 -310,204.9 M 18891.3,17894 c -6.4,-4.4 -12.7,-8.7 -19.1,-13 -202.9,-138.1 -441,-292.1 -703.2,-447.4 -262.2,155.3 -500.3,309.3 -703.2,447.4 -6.4,4.3 -12.7,8.6 -19.1,13 256.1,132 499.2,270.5 722.3,406.3 223.1,-135.8 466.2,-274.3 722.3,-406.3 m 211.2,1027.8 c 232,-119.1 474.5,-232.5 722.4,-333.5 -166.4,-135.2 -451.6,-359 -814.8,-612.3 -254.1,129 -496.1,265.2 -719.1,399.4 168.3,104.8 323.7,206.9 462.8,301.5 124.3,84.7 241,167 348.7,244.9 m 790.8,-1336.2 c -257,95.4 -509.9,206.5 -753.1,325.5 380.3,267.8 670.4,499.1 821,623 l 1.5,-0.5 c -3.4,52.9 -7.3,105.9 -11.9,158.8 -4.5,-3.8 -9.3,-7.9 -14.7,-12.3 -246.1,97.8 -487.4,208.7 -718.7,325.8 296.5,219 510.3,394.1 606.2,474.5 -11.5,46.1 -23.8,91.7 -36.9,136.8 -37.5,-32.2 -296.6,-253.1 -696.2,-545.9 -288.7,151.1 -559.8,310 -802.8,462.3 95.1,61.5 185.1,121.3 269.1,178.5 176.9,120.4 338.4,236.1 480.4,341.3 227.6,-129.6 474,-257.7 730.1,-371.9 -17.5,56.2 -36.3,111.3 -56.5,165.4 -195.4,91.2 -384.4,189.8 -562.3,289.8 116,87.7 215.8,165.8 296.7,230.6 -24.5,35.4 -50.1,69.6 -76.7,102.7 -90.3,-72.3 -205.2,-162.3 -340.9,-264.1 -239.6,139.4 -456.3,278.9 -638.3,402.7 -37.5,25.5 -74,50.7 -109.7,75.6 142.5,102.5 266.4,196.4 367.3,275.1 -51.8,15.1 -105.5,27.5 -161.2,37.3 -91.5,-70.2 -197.9,-149.5 -316.7,-234.4 -117,83.6 -222,161.8 -312.6,231.2 -55,-10.3 -108.1,-23.2 -159.4,-38.7 99.9,-77.8 221.8,-170 361.4,-270.5 -35.7,-24.9 -72.2,-50.1 -109.7,-75.6 -182,-123.8 -398.7,-263.3 -638.3,-402.7 -129.1,96.9 -239.5,183 -327.6,253.5 -26.4,-33.3 -51.7,-67.8 -75.9,-103.4 78.3,-62.5 173.2,-136.6 282.6,-219.3 -170,-95.5 -349.9,-189.8 -536,-277.6 -20.5,-54.2 -39.7,-109.7 -57.5,-166.1 247,111.3 484.7,235.1 704.8,360.4 142,-105.2 303.5,-220.9 480.4,-341.3 84,-57.2 174,-117 269.1,-178.5 -243,-152.3 -514.1,-311.2 -802.8,-462.3 -360.2,263.9 -606.3,469.4 -678.7,531 -12.9,-45.1 -25.1,-90.8 -36.5,-136.9 103.2,-86 309.2,-253.3 588.3,-459.5 -229.4,-116.1 -468.6,-226.1 -712.5,-323.3 -4.7,-54.7 -8.6,-109.5 -12,-164.3 155.3,-127.2 437,-350.4 801.7,-607.2 -243.2,-119 -496.1,-230.1 -753.1,-325.5 -17.1,12.9 -33.8,25.5 -50,37.9 4.6,-63.9 12.5,-124.6 23.5,-182.2 1.3,0.5 2.6,0.9 3.9,1.4 120.5,-89.8 259.2,-189.6 412.2,-293.7 107.3,-73 226.7,-151.5 355.6,-232.2 -125.8,-57.8 -253.7,-113 -382.9,-164.7 37.5,-32.3 76.7,-62 117,-89.3 133.6,54.8 265.7,113.2 395.3,174.2 214.4,-130.1 451.2,-263.1 701.2,-386.7 -62.3,-28.1 -125.3,-55.3 -188.7,-81.6 128.4,-11.9 232.5,-12.1 292.4,-10.6 14.9,6.8 29.9,13.8 44.8,20.8 14.4,-6.8 28.8,-13.5 43.2,-20.1 51.1,-2 159.2,-3.6 297.9,8.3 -64.7,26.8 -129,54.5 -192.6,83.2 249.9,123.6 486.8,256.6 701.2,386.7 134,-63 270.6,-123.3 408.9,-179.8 40.7,27.2 80.3,56.8 118.2,89 -134.2,53.3 -267.1,110.6 -397.7,170.6 128.9,80.7 248.3,159.2 355.6,232.2 153,104.1 291.7,203.9 412.2,293.7 8.1,-2.9 16.2,-5.8 24.2,-8.6 12.7,65 21.6,133.9 26.1,206.9 -23.3,-17.9 -47.6,-36.4 -72.9,-55.4"
         style="fill:#ffb83f;fill-opacity:1;fill-rule:nonzero;stroke:none"
         id="path26911" />
      <path
         d="m 18039.8,16357.6 c -0.1,0 -0.3,0 -0.4,0 0.1,0 0.2,0 0.4,0 v 0 m -1.1,0 c -0.2,0 -0.4,0 -0.6,0 0.2,0 0.4,0 0.6,0 m -2.8,0.1 c -0.2,0 -0.4,0 -0.6,0 0.2,0 0.4,0 0.6,0 m -1.3,0 c -0.1,0 -0.3,0 -0.4,0 0.1,0 0.3,0 0.4,0 m -5.3,0.1 c -0.1,0 -0.2,0 -0.2,0 0,0 0.1,0 0.2,0"
         style="fill:#bfa62f;fill-opacity:1;fill-rule:nonzero;stroke:none"
         id="path26913" />
      <path
         d="m 18289.2,16357.4 c -0.1,0 -0.1,0 -0.1,0 56.7,0 132.6,2.1 221,9.7 -45.7,18.9 -91.3,38.3 -136.5,58.2 249.4,59.6 520.8,169.6 732.9,370.9 105.7,-48.3 212.9,-94.8 321.1,-139 40.7,27.2 80.3,56.8 118.2,89 -117,46.5 -233.1,96 -347.5,147.7 27.4,32.7 53.3,67.3 77.5,104.1 80.8,52.1 156.9,102.7 227.9,151 153,104.1 291.7,203.9 412.2,293.7 8.1,-2.9 16.2,-5.8 24.2,-8.6 12.7,65 21.6,133.9 26.1,206.9 -23.3,-17.9 -47.6,-36.4 -72.9,-55.4 -137.3,51 -273.5,106.5 -407.6,165.2 5.3,135.5 7.6,274.6 6.1,415.7 208.3,156 369.5,285.4 469.4,367.6 l 1.5,-0.5 v 0 c -3.4,52.9 -7.3,105.9 -11.9,158.8 -4.5,-3.8 -9.3,-7.9 -14.7,-12.3 -165.3,65.6 -328.4,137.3 -487.8,212.7 -10.1,87.1 -22,173.8 -36.1,259.5 195.6,149.6 338.1,266.6 411.4,328.1 -11.5,46.1 -23.8,91.7 -36.9,136.8 -27.2,-23.4 -170.8,-145.8 -400,-323 -46.1,236.6 -109.5,464.1 -194.1,672.7 182.9,-99.6 375.8,-196.7 574.7,-285.4 v 0 0 c -17.5,56.2 -36.3,111.3 -56.5,165.4 -195.4,91.2 -384.4,189.8 -562.3,289.8 116,87.7 215.8,165.8 296.7,230.6 -24.5,35.4 -50.1,69.6 -76.7,102.7 -81.7,-65.4 -183.5,-145.3 -302.7,-235.3 -140.8,255.7 -323.5,469.5 -557.9,617.9 50.2,37.9 96.6,73.7 139,106.7 -51.8,15.1 -105.5,27.5 -161.2,37.3 -31.4,-24.1 -64.6,-49.3 -99.4,-75.4 -82.1,41 -169.7,74.6 -263.5,100.1 18.9,0.6 37.8,1 57.1,1 1450.9,0 1796.7,-1587 1797.1,-2956.5 0,-135.2 -3.3,-268.2 -9.3,-397.4 -56.2,-1217.7 -1298.8,-1311 -1678.5,-1311 m -249.3,0.2 c 0,0 0,0 -0.1,0 v 0 c 0,0 0.1,0 0.1,0 m -1,0 c -0.1,0 -0.1,0 -0.2,0 -0.2,0 -0.4,0 -0.6,0 0,0 -0.1,0 -0.2,0 0.3,0 0.6,0 1,0 m -1.4,0 c -0.4,0 -0.9,0.1 -1.4,0.1 0.5,0 0.9,-0.1 1.4,-0.1 m -1.5,0.1 c -0.1,0 -0.1,0 -0.1,0 -0.2,0 -0.4,0 -0.6,0 -0.3,0 -0.5,0 -0.7,0 -0.1,0 -0.3,0 -0.4,0 -1.6,0 -3.3,0 -4.9,0.1 -0.1,0 -0.2,0 -0.2,0 -30.2,0.5 -64.2,1.6 -101.3,3.7 v 0 c 39.9,-2.2 76.3,-3.4 108.2,-3.8 m 88.2,0.4 c 14.9,6.8 29.9,13.8 44.8,20.8 14.4,-6.8 28.8,-13.5 43.2,-20.1 -20.9,0.8 -32.3,1.7 -32.3,1.7 0,0 -0.1,0 -0.1,0 -1.3,-0.1 -21.1,-1.6 -55.6,-2.4 m 1269,870.3 c 43.2,113.8 72.8,242.3 85.2,387.4 97.2,-41.9 195.4,-82 294.3,-120 -104.3,-76.5 -220.6,-159.4 -346.7,-245.2 -10.8,-7.3 -21.7,-14.7 -32.8,-22.2 m 95.5,1096 c -4.3,139.9 -12.4,280.8 -25.2,421.2 118.7,-54.9 239.4,-107.6 361.4,-157.3 -83.7,-68 -197.5,-158.5 -336.2,-263.9"
         style="fill:#ffb440;fill-opacity:1;fill-rule:nonzero;stroke:none"
         id="path26915" />
      <path
         d="m 18070.6,16357.4 c -9.7,0 -19.9,0.1 -30.7,0.2 0,0 -0.1,0 -0.1,0 -0.2,0 -0.3,0 -0.4,0 -0.2,0 -0.4,0 -0.5,0 -0.4,0 -0.7,0 -1,0 -0.1,0 -0.2,0 -0.4,0 -0.5,0 -0.9,0.1 -1.4,0.1 -0.1,0 -0.1,0 -0.1,0 -31.9,0.4 -68.3,1.6 -108.2,3.8 122.7,6.9 279.3,24.1 445.8,63.8 45.2,-19.9 90.8,-39.3 136.5,-58.2 -88.4,-7.6 -164.3,-9.7 -221,-9.7 v 0 c -32.3,0 -58.3,0.7 -76.9,1.4 v 0 c -14.4,6.6 -28.8,13.3 -43.2,20.1 -14.9,-7 -29.9,-14 -44.8,-20.8 -15.2,-0.4 -33.1,-0.7 -53.6,-0.7 m 1357,299.8 c -108.2,44.2 -215.4,90.7 -321.1,139 32.1,30.4 62.8,63 91.8,97.7 114.4,-51.7 230.5,-101.2 347.5,-147.7 -37.9,-32.2 -77.5,-61.8 -118.2,-89 m -151.8,340.8 c 45.6,69.2 85.3,145.7 117.4,230.4 11.1,7.5 22,14.9 32.8,22.2 126.1,85.8 242.4,168.7 346.7,245.2 -98.9,38 -197.1,78.1 -294.3,120 1.9,22.4 3.4,45.1 4.5,68.3 1,22.2 1.9,44.4 2.8,66.7 134.1,-58.7 270.3,-114.2 407.6,-165.2 25.3,19 49.6,37.5 72.9,55.4 -4.5,-73 -13.4,-141.9 -26.1,-206.9 -8,2.8 -16.1,5.7 -24.2,8.6 -120.5,-89.8 -259.2,-189.6 -412.2,-293.7 -71,-48.3 -147.1,-98.9 -227.9,-151 m 216,1168.5 c -0.5,52.4 -1.5,105.2 -3.1,157.9 138.7,105.4 252.5,195.9 336.2,263.9 -122,49.7 -242.7,102.4 -361.4,157.3 -4.5,49.1 -9.5,98.3 -15.2,147.2 159.4,-75.4 322.5,-147.1 487.8,-212.7 5.4,4.4 10.2,8.5 14.7,12.3 4.6,-52.9 8.5,-105.9 11.9,-158.8 l -1.5,0.5 c -99.9,-82.2 -261.1,-211.6 -469.4,-367.6 m -79.6,985.8 c -7.9,47.6 -16.3,94.9 -25.5,141.9 229.2,177.2 372.8,299.6 400,323 13.1,-45.1 25.4,-90.7 36.9,-136.8 -73.3,-61.5 -215.8,-178.5 -411.4,-328.1 m 355.1,529.2 c -198.9,88.7 -391.8,185.8 -574.7,285.4 -37.9,93.3 -80,182.8 -126.8,267.8 119.2,90 221,169.9 302.7,235.3 26.6,-33.1 52.2,-67.3 76.7,-102.7 -80.9,-64.8 -180.7,-142.9 -296.7,-230.6 177.9,-100 366.9,-198.6 562.3,-289.8 20.2,-54.1 39,-109.2 56.5,-165.4 m -1259.4,1171.1 c -39.1,24.7 -79.7,47.6 -121.6,68.6 34.8,26.1 68,51.3 99.4,75.4 55.7,-9.8 109.4,-22.2 161.2,-37.3 -42.4,-33 -88.8,-68.8 -139,-106.7"
         style="fill:#ffac40;fill-opacity:1;fill-rule:nonzero;stroke:none"
         id="path26917" />
      <path
         d="m 17042.5,16948.9 c -26.7,0 -52.1,12 -68.3,32.5 -34,43 -64.5,88.5 -92.4,135.5 69.1,-46.5 142.8,-95 220.4,-144.7 -8.6,-8.1 -19.2,-14.6 -31.4,-18.7 -9.3,-3.1 -18.9,-4.6 -28.3,-4.6 m 56.7,177.1 c -65.8,42.9 -128.3,84.6 -187.2,124.6 -49.4,33.7 -97.4,66.8 -143.7,99.4 -2.2,5.7 -4.4,11.4 -6.6,17.1 -22.7,60.1 -42.6,121.1 -59.6,182.7 96.6,39.2 192.3,80.4 286.9,123 17.3,-185.6 51.3,-368.4 110.2,-546.8 m -427.4,548.3 c -8,37.6 -15,75.3 -21.7,113 -30.5,186.1 -41.4,373 -38.4,558.7 101.9,-79.7 223.7,-172.6 362,-273.9 -0.7,-84 0.8,-167.8 5,-251.3 0.2,-4.3 0.5,-8.7 0.7,-13.1 -101.3,-46.3 -204,-91 -307.6,-133.4 m 305.6,554 c -141.3,104.9 -262.6,198.9 -359.9,276.1 2.5,43.9 5.7,87.7 9.5,131.3 135.4,57.6 269,118.6 399.8,182 -8.5,-70.2 -16.2,-140.4 -23,-210.5 -12.2,-126.5 -21.5,-252.9 -26.4,-378.9 m -335.1,552 c 21.6,175.1 53.6,348.3 94.8,518.9 88.7,-70.3 196.4,-153.8 320.3,-246.4 -3.9,-28.1 -7.8,-56.2 -11.5,-84.4 -131.8,-65.3 -266.7,-128.4 -403.6,-188.1 m 436.1,416.8 c -120.7,91.1 -223.8,172 -306.3,238 2.9,10.7 5.9,21.4 8.8,32 35.2,125.5 75,249.6 120.6,371.9 106.5,53.7 210.4,108.9 310.9,164.8 l -0.6,-4.1 -34.6,-200.4 c -22.9,-133.4 -45.8,-266.2 -67.2,-398.9 -10.8,-67.8 -21.4,-135.6 -31.6,-203.3 m -104.8,822 c 6,14.1 12.1,28.1 18.3,42.1 14.2,32.2 29.1,64.2 44.4,96 11.5,23.4 22.9,46.4 35.2,69.7 37.2,-28.7 76.5,-58.8 118,-90.2 -70.4,-39.5 -142.4,-78.9 -215.9,-117.6"
         style="fill:#ffdb7a;fill-opacity:1;fill-rule:nonzero;stroke:none"
         id="path26919" />
      <path
         d="m 17102.2,16972.2 c -77.6,49.7 -151.3,98.2 -220.4,144.7 -9.8,16.5 -19.3,33.2 -28.4,50 -32.3,59.3 -60.6,120.6 -85.1,183.1 46.3,-32.6 94.3,-65.7 143.7,-99.4 58.9,-40 121.4,-81.7 187.2,-124.6 7.4,-22.3 15.1,-44.6 23.3,-66.8 l 0.5,-1.3 c 11.4,-31 2.2,-64.1 -20.8,-85.7 m -400.1,577.6 c -2.3,8.5 -4.6,17 -6.8,25.5 -8.7,32.8 -16.5,65.9 -23.5,99 103.6,42.4 206.3,87.1 307.6,133.4 2.3,-45.1 5.5,-90.1 9.6,-134.9 -94.6,-42.6 -190.3,-83.8 -286.9,-123 m 271.6,522.3 c -138.3,101.3 -260.1,194.2 -362,273.9 0.8,52.9 2.8,105.7 5.8,158.4 97.3,-77.2 218.6,-171.2 359.9,-276.1 -2,-52.2 -3.3,-104.2 -3.7,-156.2 m -346.7,563.6 c 0.1,1.2 0.2,2.4 0.3,3.7 4.3,47.1 9.3,94.1 15,140.9 136.9,59.7 271.8,122.8 403.6,188.1 -6.7,-50.2 -13.1,-100.5 -19.1,-150.7 -130.8,-63.4 -264.4,-124.4 -399.8,-182 m 430.4,417.1 c -123.9,92.6 -231.6,176.1 -320.3,246.4 11.1,45.5 22.7,90.8 35,135.9 82.5,-66 185.6,-146.9 306.3,-238 -7.2,-48.2 -14.2,-96.2 -21,-144.3 m -155.9,786.2 c 3.5,9.1 6.9,18.2 10.4,27.4 12.6,32.7 25.5,65.3 38.7,97.8 7.6,18.3 15.2,36.6 23,54.9 73.5,38.7 145.5,78.1 215.9,117.6 -41.5,31.4 -80.8,61.5 -118,90.2 4.5,8.5 9.1,17 13.9,25.7 15.4,27.7 45,43.5 75.7,43.5 13.5,0 27.3,-3.1 40.1,-9.6 32.7,-16.7 49.5,-50.7 44.6,-83.9 l -0.4,-2.5 c -4.9,-32.4 -11,-66.6 -16.4,-99.9 l -16.6,-96.4 c -100.5,-55.9 -204.4,-111.1 -310.9,-164.8"
         style="fill:#ffcd79;fill-opacity:1;fill-rule:nonzero;stroke:none"
         id="path26921" />
      <path
         d="m 18190.2,20362.3 c 0,-14.9 -12.6,-27 -28.2,-27 -15.5,0 -28.1,12.1 -28.1,27 0,14.9 12.6,27 28.1,27 15.6,0 28.2,-12.1 28.2,-27"
         style="fill:#ffb83f;fill-opacity:1;fill-rule:nonzero;stroke:none"
         id="path26923" />
      <path
         d="m 18436.8,20002.7 c 0,-24.2 -20.5,-43.9 -45.8,-43.9 -25.3,0 -45.8,19.7 -45.8,43.9 0,24.2 20.5,43.8 45.8,43.8 25.3,0 45.8,-19.6 45.8,-43.8"
         style="fill:#ffb83f;fill-opacity:1;fill-rule:nonzero;stroke:none"
         id="path26925" />
      <path
         d="m 17478.6,19588.4 c 0,-19 -16.1,-34.4 -35.9,-34.4 -19.9,0 -35.9,15.4 -35.9,34.4 0,19 16,34.5 35.9,34.5 19.8,0 35.9,-15.5 35.9,-34.5"
         style="fill:#ffb83f;fill-opacity:1;fill-rule:nonzero;stroke:none"
         id="path26927" />
      <path
         d="m 18180.5,18905.6 c 0,-20.5 -17.4,-37.2 -38.8,-37.2 -21.5,0 -38.8,16.7 -38.8,37.2 0,20.5 17.3,37.2 38.8,37.2 21.4,0 38.8,-16.7 38.8,-37.2"
         style="fill:#ffb83f;fill-opacity:1;fill-rule:nonzero;stroke:none"
         id="path26929" />
      <path
         d="m 19269.6,18632.4 c 0,-17.9 -15.1,-32.4 -33.8,-32.4 -18.7,0 -33.8,14.5 -33.8,32.4 0,17.9 15.1,32.4 33.8,32.4 18.7,0 33.8,-14.5 33.8,-32.4"
         style="fill:#ffb83f;fill-opacity:1;fill-rule:nonzero;stroke:none"
         id="path26931" />
      <path
         d="m 18881.2,18200.4 c 0,-12 -10.2,-21.8 -22.8,-21.8 -12.6,0 -22.8,9.8 -22.8,21.8 0,12 10.2,21.8 22.8,21.8 12.6,0 22.8,-9.8 22.8,-21.8"
         style="fill:#ffb83f;fill-opacity:1;fill-rule:nonzero;stroke:none"
         id="path26933" />
      <path
         d="m 17960.3,17921.4 c 0,-30.1 -25.5,-54.5 -56.9,-54.5 -31.5,0 -57,24.4 -57,54.5 0,30.2 25.5,54.6 57,54.6 31.4,0 56.9,-24.4 56.9,-54.6"
         style="fill:#ffb83f;fill-opacity:1;fill-rule:nonzero;stroke:none"
         id="path26935" />
      <path
         d="m 17426.7,18278.5 c 0,-12 -10.1,-21.7 -22.6,-21.7 -12.6,0 -22.7,9.7 -22.7,21.7 0,12 10.1,21.7 22.7,21.7 12.5,0 22.6,-9.7 22.6,-21.7"
         style="fill:#ffb83f;fill-opacity:1;fill-rule:nonzero;stroke:none"
         id="path26937" />
      <path
         d="m 17421.5,17292.5 c 0,-15.7 -13.2,-28.4 -29.6,-28.4 -16.4,0 -29.6,12.7 -29.6,28.4 0,15.6 13.2,28.3 29.6,28.3 16.4,0 29.6,-12.7 29.6,-28.3"
         style="fill:#ffb83f;fill-opacity:1;fill-rule:nonzero;stroke:none"
         id="path26939" />
      <path
         d="m 17902.8,16875.6 c 0,-14.9 -12.6,-27 -28.2,-27 -15.6,0 -28.2,12.1 -28.2,27 0,14.9 12.6,27 28.2,27 15.6,0 28.2,-12.1 28.2,-27"
         style="fill:#ffb83f;fill-opacity:1;fill-rule:nonzero;stroke:none"
         id="path26941" />
      <path
         d="m 19051.8,17163 c 0,-20.1 -17,-36.5 -38,-36.5 -21,0 -38.1,16.4 -38.1,36.5 0,20.1 17.1,36.4 38.1,36.4 21,0 38,-16.3 38,-36.4"
         style="fill:#ffb83f;fill-opacity:1;fill-rule:nonzero;stroke:none"
         id="path26943" />
      <path
         d="m 18718.6,17488.8 c 0,-10 -8.5,-18.2 -19,-18.2 -10.5,0 -19,8.2 -19,18.2 0,10.1 8.5,18.3 19,18.3 10.5,0 19,-8.2 19,-18.3"
         style="fill:#ffb83f;fill-opacity:1;fill-rule:nonzero;stroke:none"
         id="path26945" />
      <path
         d="m 18773.6,19532.4 c 0,-18.6 -15.8,-33.7 -35.2,-33.7 -19.5,0 -35.3,15.1 -35.3,33.7 0,18.7 15.8,33.8 35.3,33.8 19.4,0 35.2,-15.1 35.2,-33.8"
         style="fill:#ffb83f;fill-opacity:1;fill-rule:nonzero;stroke:none"
         id="path26947" />
      <path
         d="m 17421.5,20562.5 c 0,-23.8 -20.1,-43.1 -44.9,-43.1 -24.9,0 -45,19.3 -45,43.1 0,23.8 20.1,43.1 45,43.1 24.8,0 44.9,-19.3 44.9,-43.1"
         style="fill:#ffb83f;fill-opacity:1;fill-rule:nonzero;stroke:none"
         id="path26949" />
    </g>
  </g>
</svg>
