<?xml version="1.0" encoding="UTF-8" standalone="no"?>
<!-- Created with Inkscape (http://www.inkscape.org/) -->

<svg
   version="1.1"
   id="svg2"
   width="157.30057"
   height="129.6813"
   viewBox="0 0 157.30057 129.6813"
   sodipodi:docname="13756344_5340472.eps"
   xmlns:inkscape="http://www.inkscape.org/namespaces/inkscape"
   xmlns:sodipodi="http://sodipodi.sourceforge.net/DTD/sodipodi-0.dtd"
   xmlns="http://www.w3.org/2000/svg"
   xmlns:svg="http://www.w3.org/2000/svg">
  <defs
     id="defs6" />
  <sodipodi:namedview
     id="namedview4"
     pagecolor="#ffffff"
     bordercolor="#000000"
     borderopacity="0.25"
     inkscape:showpageshadow="2"
     inkscape:pageopacity="0.0"
     inkscape:pagecheckerboard="0"
     inkscape:deskcolor="#d1d1d1"
     showgrid="false" />
  <g
     id="g10"
     inkscape:groupmode="layer"
     inkscape:label="Page 1"
     transform="matrix(1.3333333,0,0,-1.3333333,-401.36618,511.98262)">
    <g
       id="g12"
       transform="scale(0.1)">
      <path
         d="m 3933.43,3807.45 c 1.19,-2.9 1.7,-4.7 2.37,-6.77 0.7,-2.07 1.2,-3.98 1.72,-5.92 1.09,-3.88 2.02,-7.72 2.75,-11.52 1.77,-7.61 2.68,-15.19 3.78,-22.73 1.5,-15.12 2.3,-30.15 1.33,-45.04 -1.52,-29.76 -7.7,-58.76 -17.76,-85.85 -5.79,-13.24 -10.78,-26.7 -18.27,-38.87 -3.59,-6.14 -6.71,-12.5 -10.66,-18.35 l -12.1,-17.29 c -3.81,-5.87 -8.32,-11.22 -12.93,-16.46 l -13.52,-15.8 c -9.57,-10.01 -19.76,-19.36 -29.49,-28.92 7.9,11.28 16.12,22.16 23.54,33.49 l 10.19,17.59 c 3.47,5.78 6.8,11.61 9.37,17.85 l 8.32,18.21 c 2.66,6.09 4.43,12.55 6.68,18.73 4.8,12.3 6.98,25.38 9.98,37.92 4.44,25.59 4.98,51.35 1.68,76.16 -1.44,12.42 -4.46,24.53 -7.82,36.25 -2.01,5.75 -3.79,11.58 -6.2,16.98 -1.09,2.78 -2.29,5.43 -3.56,7.95 -0.61,1.29 -1.22,2.6 -1.85,3.67 -0.62,1.1 -1.34,2.48 -1.61,2.68 -14.42,10.52 -17.58,30.75 -7.06,45.18 10.54,14.43 30.77,17.59 45.2,7.06 4.97,-3.63 8.61,-8.42 10.8,-13.72 l 5.12,-12.48"
         style="fill:#664323;fill-opacity:1;fill-rule:nonzero;stroke:none"
         id="path74" />
      <path
         d="m 4169.15,3166.72 c -59.35,-194.76 -227.3,-316.12 -375.14,-271.07 -147.82,45.05 -219.55,239.46 -160.19,434.22 59.35,194.76 227.3,316.12 375.14,271.07 147.83,-45.05 219.55,-239.45 160.19,-434.22"
         style="fill:#5c3890;fill-opacity:1;fill-rule:nonzero;stroke:none"
         id="path76" />
      <path
         d="m 4032.71,3255.85 c -18.13,-202.79 -157.61,-356.03 -311.54,-342.27 -153.93,13.77 -264.01,189.33 -245.88,392.12 18.14,202.79 157.62,356.03 311.56,342.26 153.92,-13.76 264,-189.32 245.86,-392.11"
         style="fill:#5c3890;fill-opacity:1;fill-rule:nonzero;stroke:none"
         id="path78" />
      <path
         d="m 3992.38,2926.41 c -0.01,0 0,0 -0.01,0 77.68,47.03 143.9,132.4 176.78,240.31 0.06,0.18 0.11,0.37 0.16,0.54 -0.05,-0.17 -0.1,-0.36 -0.16,-0.54 -32.88,-107.91 -99.1,-193.28 -176.77,-240.31"
         style="fill:#c8b4d9;fill-opacity:1;fill-rule:nonzero;stroke:none"
         id="path80" />
      <path
         d="m 3916.42,2893.93 c 26,6.71 51.54,17.71 75.95,32.48 0.01,0 0,0 0.01,0 -24.42,-14.78 -49.95,-25.77 -75.96,-32.48 m -195.25,19.65 v 0 c -0.13,0.02 -0.27,0.03 -0.41,0.04 0.14,-0.01 0.27,-0.02 0.41,-0.04 v 0 m -0.52,0.05 c -0.11,0.01 -0.2,0.02 -0.31,0.03 0.1,-0.01 0.21,-0.02 0.31,-0.03 m -0.43,0.04 c -0.13,0.01 -0.26,0.03 -0.4,0.04 0.13,-0.01 0.27,-0.03 0.4,-0.04 m -0.4,0.04 c -0.14,0.01 -0.27,0.03 -0.42,0.04 0.14,-0.01 0.28,-0.03 0.42,-0.04 m -0.52,0.05 c -0.11,0.01 -0.21,0.02 -0.32,0.03 0.11,-0.01 0.21,-0.02 0.32,-0.03 m -0.43,0.04 c -0.12,0.02 -0.24,0.03 -0.37,0.04 0.12,-0.01 0.25,-0.03 0.37,-0.04 m -0.41,0.04 c -0.13,0.02 -0.28,0.03 -0.42,0.05 0.14,-0.02 0.28,-0.03 0.42,-0.05 m -0.5,0.06 c -0.1,0.01 -0.22,0.02 -0.32,0.03 0.11,-0.01 0.21,-0.02 0.32,-0.03 m -0.45,0.04 c -0.11,0.02 -0.21,0.03 -0.32,0.04 0.11,-0.01 0.21,-0.02 0.32,-0.04 m -0.41,0.05 c -0.14,0.01 -0.26,0.03 -0.4,0.04 0.13,-0.01 0.27,-0.03 0.4,-0.04 m -0.49,0.05 c -0.11,0.01 -0.22,0.03 -0.32,0.04 0.11,-0.02 0.2,-0.03 0.32,-0.04 m -0.45,0.05 c -0.1,0.01 -0.21,0.03 -0.31,0.04 0.11,-0.02 0.2,-0.03 0.31,-0.04 m -0.41,0.05 c -0.14,0.01 -0.27,0.03 -0.4,0.04 0.13,-0.01 0.27,-0.03 0.4,-0.04 m -0.5,0.06 c -0.1,0.01 -0.2,0.02 -0.3,0.03 0.1,-0.01 0.2,-0.02 0.3,-0.03 m -0.45,0.05 c -0.09,0.01 -0.18,0.02 -0.26,0.03 0.08,-0.01 0.17,-0.02 0.26,-0.03 m -0.41,0.05 c -0.12,0.01 -0.22,0.03 -0.33,0.04 0.11,-0.01 0.21,-0.03 0.33,-0.04 m -0.52,0.06 c -0.09,0.01 -0.17,0.02 -0.26,0.03 0.09,-0.01 0.17,-0.02 0.26,-0.03 m -0.44,0.06 c -0.07,0.01 -0.15,0.02 -0.22,0.03 0.08,-0.01 0.15,-0.02 0.22,-0.03 m -0.4,0.05 c -0.08,0.01 -0.16,0.02 -0.24,0.03 0.08,-0.01 0.16,-0.02 0.24,-0.03 m -0.54,0.07 c -0.07,0.01 -0.14,0.02 -0.21,0.03 0.06,-0.01 0.15,-0.02 0.21,-0.03 m -0.43,0.05 c -0.06,0.01 -0.11,0.02 -0.17,0.03 0.06,-0.01 0.12,-0.02 0.17,-0.03 m -0.39,0.06 c -0.06,0 -0.1,0.01 -0.16,0.02 0.06,-0.01 0.1,-0.02 0.16,-0.02 m -0.66,0.09 c -0.02,0 -0.04,0 -0.06,0 0.02,0 0.05,0 0.06,0 m -0.33,0.04 c -0.04,0.01 -0.07,0.01 -0.1,0.02 0.03,-0.01 0.07,-0.01 0.1,-0.02 m -0.38,0.06 c -0.02,0 -0.04,0 -0.06,0 0.02,0 0.03,0 0.06,0"
         style="fill:#a291b0;fill-opacity:1;fill-rule:nonzero;stroke:none"
         id="path82" />
      <path
         d="m 4169.34,3167.34 c 0.05,0.18 0.1,0.33 0.15,0.51 -0.05,-0.17 -0.1,-0.34 -0.15,-0.51 m 0.16,0.54 c 15.57,51.54 21.97,103.02 20.22,151.71 1.75,-48.68 -4.65,-100.18 -20.22,-151.71 m 20.22,151.72 c -0.02,0.35 -0.03,0.69 -0.04,1.04 0.01,-0.35 0.02,-0.69 0.04,-1.04 m -0.05,1.16 c 0,0.12 -0.01,0.22 -0.01,0.35 0,-0.12 0.01,-0.23 0.01,-0.35 m -0.02,0.53 c 0,0.1 -0.01,0.19 -0.01,0.3 0,-0.11 0.01,-0.2 0.01,-0.3 m -0.03,0.75 c 0,0.05 0,0.1 -0.01,0.15 0.01,-0.05 0.01,-0.11 0.01,-0.15 m -0.02,0.49 c 0,0.03 0,0.05 0,0.09 0,-0.03 0,-0.07 0,-0.09"
         style="fill:#c8b4d9;fill-opacity:1;fill-rule:nonzero;stroke:none"
         id="path84" />
      <path
         d="m 3857.35,2886.26 c -21.27,0 -42.51,3.05 -63.34,9.39 -14.46,4.41 -28.18,10.3 -41.14,17.44 81.98,4.76 157.57,56.08 209.78,135.35 80.28,46.81 138.78,149.36 165.47,263.35 15.86,67.77 8.54,150.37 -23.69,229.94 50.98,-52.77 81.38,-131.25 85.17,-219.11 0,-0.04 0,-0.06 0,-0.09 0.01,-0.12 0.01,-0.23 0.01,-0.34 0.01,-0.05 0.01,-0.1 0.01,-0.15 0.01,-0.15 0.01,-0.3 0.02,-0.45 0,-0.11 0.01,-0.2 0.01,-0.3 0,-0.06 0.01,-0.13 0.01,-0.18 0,-0.13 0.01,-0.23 0.01,-0.35 0,-0.05 0.01,-0.08 0.01,-0.12 0.01,-0.35 0.02,-0.69 0.04,-1.04 v -0.01 c 1.75,-48.69 -4.65,-100.17 -20.22,-151.71 0,-0.01 -0.01,-0.02 -0.01,-0.03 -0.05,-0.18 -0.1,-0.33 -0.15,-0.51 -0.01,-0.02 -0.02,-0.05 -0.03,-0.08 -0.05,-0.17 -0.1,-0.36 -0.16,-0.54 -32.88,-107.91 -99.1,-193.28 -176.78,-240.31 -24.41,-14.77 -49.95,-25.77 -75.95,-32.48 -19.53,-5.04 -39.32,-7.67 -59.07,-7.67"
         style="fill:#462c76;fill-opacity:1;fill-rule:nonzero;stroke:none"
         id="path86" />
      <path
         d="m 3739.64,2912.78 c -6.12,0 -12.28,0.25 -18.47,0.8 v 0 c -0.14,0.02 -0.27,0.03 -0.41,0.04 -0.03,0.01 -0.08,0.01 -0.11,0.01 -0.1,0.01 -0.21,0.02 -0.31,0.03 -0.03,0 -0.08,0.01 -0.12,0.01 -0.13,0.01 -0.27,0.03 -0.4,0.04 v 0 c -0.14,0.01 -0.28,0.03 -0.42,0.04 -0.03,0 -0.07,0.01 -0.1,0.01 -0.11,0.01 -0.21,0.02 -0.32,0.03 -0.03,0.01 -0.08,0.01 -0.11,0.01 -0.12,0.01 -0.25,0.03 -0.37,0.04 -0.01,0 -0.02,0 -0.04,0 -0.14,0.02 -0.28,0.03 -0.42,0.05 -0.03,0 -0.05,0 -0.08,0.01 -0.11,0.01 -0.21,0.02 -0.32,0.03 -0.05,0 -0.09,0.01 -0.13,0.01 -0.11,0.02 -0.21,0.03 -0.32,0.04 -0.03,0 -0.06,0 -0.09,0.01 -0.13,0.01 -0.27,0.03 -0.4,0.04 -0.03,0 -0.07,0.01 -0.09,0.01 -0.12,0.01 -0.21,0.02 -0.32,0.04 -0.04,0 -0.09,0.01 -0.13,0.01 -0.11,0.01 -0.2,0.02 -0.31,0.04 -0.03,0 -0.07,0 -0.1,0.01 -0.13,0.01 -0.27,0.03 -0.4,0.04 -0.03,0.01 -0.07,0.01 -0.1,0.02 -0.1,0.01 -0.2,0.02 -0.3,0.03 -0.05,0.01 -0.1,0.01 -0.15,0.02 -0.09,0.01 -0.18,0.02 -0.26,0.03 -0.05,0.01 -0.1,0.01 -0.15,0.02 -0.12,0.01 -0.22,0.03 -0.33,0.04 -0.07,0.01 -0.13,0.02 -0.19,0.02 -0.09,0.01 -0.17,0.02 -0.26,0.03 -0.05,0.01 -0.12,0.02 -0.18,0.03 -0.07,0.01 -0.14,0.02 -0.22,0.03 -0.06,0 -0.12,0.01 -0.18,0.02 -0.08,0.01 -0.16,0.02 -0.24,0.03 -0.1,0.01 -0.2,0.03 -0.3,0.04 -0.06,0.01 -0.15,0.02 -0.21,0.03 -0.07,0 -0.15,0.01 -0.22,0.02 -0.05,0.01 -0.11,0.02 -0.17,0.03 -0.07,0.01 -0.15,0.02 -0.22,0.03 -0.06,0 -0.1,0.01 -0.16,0.02 -0.16,0.02 -0.33,0.04 -0.5,0.07 -0.01,0 -0.04,0 -0.06,0 -0.09,0.02 -0.18,0.03 -0.27,0.04 -0.03,0.01 -0.07,0.01 -0.1,0.02 -0.09,0.01 -0.19,0.02 -0.28,0.04 -0.03,0 -0.04,0 -0.06,0 -64.31,9.07 -120.35,46.61 -161.76,102.37 11.06,23.33 18.89,49.34 23.14,77.07 13.04,-4.35 27.41,-6.77 43.56,-6.77 25.04,0 54.34,5.81 89.54,19.26 0.51,0.19 0.99,0.28 1.44,0.28 8.49,0 9.31,-32.23 46.83,-53.19 39.87,-22.26 77.73,-32.25 113.09,-32.25 34.79,0 67.14,9.67 96.57,26.83 -52.21,-79.27 -127.8,-130.59 -209.78,-135.35 -0.04,0.02 -0.08,0.04 -0.13,0.07 -4.35,-0.25 -8.71,-0.38 -13.1,-0.38"
         style="fill:#462c76;fill-opacity:1;fill-rule:nonzero;stroke:none"
         id="path88" />
      <path
         d="m 3520.19,3369.45 c 65.63,249.8 209.37,261.93 236.68,261.93 2.94,0 4.54,-0.14 4.54,-0.14 -82.95,-22.12 -241.22,-261.79 -241.22,-261.79"
         style="fill:#844dac;fill-opacity:1;fill-rule:nonzero;stroke:none"
         id="path90" />
      <path
         d="m 3932.96,3575.6 c -2.67,2.72 -5.4,5.4 -8.15,7.99 11.19,1.6 20.38,1.99 26.74,1.99 6.28,0 9.82,-0.38 9.82,-0.38 -9.08,-1.64 -18.6,-4.94 -28.41,-9.6"
         style="fill:#844dac;fill-opacity:1;fill-rule:nonzero;stroke:none"
         id="path92" />
      <path
         d="m 3700.23,3335.81 c 48.85,196.97 165.03,239.32 224.58,247.78 2.75,-2.59 5.48,-5.27 8.15,-7.99 -100.97,-47.97 -232.73,-239.79 -232.73,-239.79"
         style="fill:#844dac;fill-opacity:1;fill-rule:nonzero;stroke:none"
         id="path94" />
      <path
         d="m 3183.85,3545.25 -0.8,-1.82 c -0.34,-0.8 -0.61,-1.83 -0.9,-2.84 -0.62,-1.96 -1.16,-4.04 -1.61,-6.22 -1.1,-4.24 -1.65,-8.79 -2.42,-13.29 -0.97,-9.1 -1.66,-18.49 -1.11,-27.94 0.77,-18.91 4.56,-38.14 11.34,-56.82 3.94,-9.04 7.34,-18.65 12.64,-27.28 2.53,-4.38 4.76,-9.04 7.61,-13.3 l 8.8,-12.7 c 2.82,-4.39 6.14,-8.37 9.57,-12.29 l 10.2,-12.01 c 7.22,-7.61 15,-14.79 22.62,-22.33 -9.06,5.49 -18.46,10.75 -27.51,16.64 l -13.09,9.58 c -4.44,3.16 -8.83,6.43 -12.77,10.21 l -12.32,11.02 c -4.06,3.76 -7.58,8.04 -11.42,12.1 -7.9,7.98 -14.14,17.38 -20.95,26.53 -12.58,19 -22.56,40.25 -29.07,63.03 -3.41,11.37 -5.49,23.18 -7.03,35.21 -0.5,6.08 -1.15,12.14 -1.14,18.43 -0.1,3.1 -0.07,6.29 0.11,9.55 0.06,1.62 0.1,3.22 0.29,5.02 0.17,1.77 0.24,3.26 0.73,5.97 3.98,16.08 20.26,25.88 36.33,21.89 16.09,-3.99 25.88,-20.27 21.9,-36.34"
         style="fill:#664323;fill-opacity:1;fill-rule:nonzero;stroke:none"
         id="path96" />
      <path
         d="m 3054.69,3034.5 c 75.88,-138.42 222.55,-203.93 327.61,-146.34 105.06,57.59 128.72,216.49 52.85,354.9 -75.88,138.41 -222.56,203.93 -327.62,146.33 -105.06,-57.59 -128.72,-216.48 -52.84,-354.89"
         style="fill:#51337f;fill-opacity:1;fill-rule:nonzero;stroke:none"
         id="path98" />
      <path
         d="m 3144.12,3123.74 c 45.87,-151.03 175.99,-245.25 290.63,-210.44 114.64,34.82 170.4,185.47 124.53,336.51 -45.87,151.03 -175.99,245.25 -290.63,210.44 -114.64,-34.82 -170.39,-185.48 -124.53,-336.51"
         style="fill:#51337f;fill-opacity:1;fill-rule:nonzero;stroke:none"
         id="path100" />
      <path
         d="m 3151.07,2921.44 c -37.04,27.96 -70.38,65.94 -95.85,112.09 25.47,-46.15 58.82,-84.13 95.85,-112.09 v 0"
         style="fill:#c3b2d3;fill-opacity:1;fill-rule:nonzero;stroke:none"
         id="path102" />
      <path
         d="m 3298.72,2867.26 c -49.52,0.02 -101.45,19.29 -147.65,54.18 v 0 c 46.2,-34.88 98.14,-54.16 147.65,-54.18 m 136.03,46.04 v 0 c 0.09,0.03 0.2,0.06 0.3,0.09 -0.1,-0.03 -0.2,-0.06 -0.3,-0.09 v 0 m 0.39,0.12 c 0.07,0.02 0.15,0.05 0.22,0.07 -0.07,-0.02 -0.15,-0.05 -0.22,-0.07 m 0.32,0.1 c 0.09,0.03 0.17,0.05 0.26,0.08 -0.08,-0.02 -0.18,-0.05 -0.26,-0.08 m 0.3,0.09 c 0.1,0.04 0.19,0.06 0.3,0.1 -0.1,-0.04 -0.2,-0.07 -0.3,-0.1 m 0.39,0.12 c 0.07,0.03 0.14,0.05 0.22,0.07 -0.08,-0.02 -0.15,-0.04 -0.22,-0.07 m 0.31,0.1 c 0.08,0.03 0.17,0.06 0.25,0.08 -0.08,-0.02 -0.16,-0.05 -0.25,-0.08 m 0.31,0.1 c 0.1,0.03 0.19,0.06 0.29,0.09 -0.1,-0.03 -0.19,-0.06 -0.29,-0.09 m 0.39,0.12 c 0.07,0.03 0.13,0.05 0.2,0.07 -0.07,-0.02 -0.14,-0.04 -0.2,-0.07 m 0.32,0.11 c 0.07,0.02 0.13,0.04 0.19,0.06 -0.06,-0.02 -0.12,-0.04 -0.19,-0.06 m 0.3,0.1 c 0.1,0.03 0.18,0.05 0.28,0.09 -0.1,-0.03 -0.18,-0.06 -0.28,-0.09 m 0.39,0.12 c 0.06,0.02 0.13,0.04 0.19,0.07 -0.06,-0.03 -0.13,-0.05 -0.19,-0.07 m 0.31,0.11 c 0.07,0.02 0.12,0.03 0.18,0.05 -0.05,-0.01 -0.12,-0.04 -0.18,-0.05 m 0.31,0.09 c 0.08,0.03 0.16,0.06 0.25,0.09 -0.09,-0.03 -0.17,-0.06 -0.25,-0.09 m 0.41,0.14 c 0.05,0.02 0.09,0.03 0.14,0.05 -0.04,-0.02 -0.09,-0.03 -0.14,-0.05 m 0.31,0.11 c 0.03,0.01 0.09,0.03 0.12,0.04 -0.04,-0.02 -0.08,-0.03 -0.12,-0.04 m 0.29,0.09 c 0.03,0.01 0.05,0.02 0.08,0.03 -0.03,-0.01 -0.05,-0.01 -0.08,-0.03 m 0.46,0.16 c 0.02,0.01 0.05,0.02 0.07,0.02 -0.02,0 -0.05,-0.01 -0.07,-0.02 m 0.27,0.09 c 0.02,0.01 0.05,0.02 0.07,0.03 -0.02,-0.01 -0.05,-0.02 -0.07,-0.03 m 0.28,0.1 c 0.01,0 0.02,0.01 0.02,0.01 0,0 -0.01,-0.01 -0.02,-0.01 m 0.74,0.26 c 0.01,0 0.02,0.01 0.03,0.01 -0.01,-0.01 -0.02,-0.01 -0.03,-0.01"
         style="fill:#9e90ab;fill-opacity:1;fill-rule:nonzero;stroke:none"
         id="path104" />
      <path
         d="m 3054.93,3034.06 c -0.08,0.15 -0.16,0.3 -0.24,0.44 -0.07,0.13 -0.14,0.25 -0.21,0.37 0.07,-0.12 0.14,-0.24 0.21,-0.37 0.08,-0.14 0.16,-0.29 0.24,-0.44 m -0.49,0.9 c -0.06,0.1 -0.12,0.21 -0.18,0.32 0.06,-0.11 0.12,-0.21 0.18,-0.32 m -0.2,0.37 c -16.66,30.56 -28.47,62.1 -35.63,93.33 7.16,-31.23 18.97,-62.78 35.63,-93.33 m -35.63,93.33 c -0.06,0.26 -0.13,0.54 -0.19,0.8 0.06,-0.26 0.13,-0.53 0.19,-0.8 m -0.2,0.86 c -0.03,0.11 -0.05,0.21 -0.07,0.32 0.02,-0.1 0.05,-0.21 0.07,-0.32 m -0.09,0.41 c -0.03,0.13 -0.06,0.25 -0.09,0.37 0.03,-0.12 0.06,-0.23 0.09,-0.37 m -0.09,0.4 c -0.03,0.11 -0.05,0.23 -0.08,0.34 0.03,-0.11 0.05,-0.22 0.08,-0.34 m -0.11,0.5 c -0.02,0.06 -0.03,0.13 -0.05,0.2 0.02,-0.07 0.03,-0.13 0.05,-0.2 m -0.09,0.39 c -0.01,0.04 -0.02,0.09 -0.03,0.13 0.01,-0.04 0.02,-0.08 0.03,-0.13 m -0.13,0.6 c -0.01,0.02 -0.01,0.04 -0.02,0.06 0.01,-0.02 0.01,-0.04 0.02,-0.06 m -0.07,0.32 c -0.01,0.03 -0.01,0.05 -0.02,0.07 0.01,-0.01 0.01,-0.05 0.02,-0.07"
         style="fill:#c3b2d3;fill-opacity:1;fill-rule:nonzero;stroke:none"
         id="path106" />
      <path
         d="m 3298.79,2867.26 c -0.03,0 -0.05,0 -0.07,0 -49.51,0.02 -101.45,19.3 -147.65,54.18 -37.03,27.96 -70.38,65.94 -95.85,112.09 -0.1,0.17 -0.2,0.36 -0.29,0.53 -0.08,0.15 -0.16,0.3 -0.24,0.44 -0.07,0.13 -0.14,0.25 -0.21,0.37 -0.01,0.03 -0.03,0.06 -0.04,0.09 -0.06,0.11 -0.12,0.21 -0.18,0.32 -0.01,0.01 -0.02,0.03 -0.02,0.05 -16.66,30.55 -28.47,62.1 -35.63,93.33 v 0 c -0.06,0.27 -0.13,0.54 -0.19,0.8 0,0.02 -0.01,0.04 -0.01,0.06 -0.02,0.11 -0.05,0.22 -0.07,0.32 -0.01,0.04 -0.02,0.06 -0.02,0.09 -0.03,0.14 -0.06,0.25 -0.09,0.37 0,0.01 0,0.02 0,0.03 -0.03,0.12 -0.05,0.23 -0.08,0.34 -0.01,0.06 -0.02,0.1 -0.03,0.16 -0.02,0.07 -0.03,0.13 -0.05,0.2 -0.01,0.06 -0.03,0.13 -0.04,0.19 -0.01,0.05 -0.02,0.09 -0.03,0.13 -0.03,0.15 -0.07,0.31 -0.1,0.47 -0.01,0.02 -0.01,0.04 -0.02,0.06 -0.02,0.09 -0.03,0.17 -0.05,0.26 -0.01,0.02 -0.01,0.06 -0.02,0.07 -16.03,73.48 -6.3,144.9 26.63,197.14 -11.86,-65.49 -4.34,-129.34 18.43,-178.26 38.3,-82.28 98.93,-150.84 167.26,-173.66 45.3,-45.07 100.66,-71.36 155.68,-71.36 8.34,0 16.67,0.6 24.96,1.84 -8.71,-7.47 -18.19,-14.11 -28.47,-19.75 v 0 0 c -25.87,-14.18 -54.26,-20.9 -83.5,-20.9 -0.01,0 -0.01,0 -0.01,0"
         style="fill:#3d2862;fill-opacity:1;fill-rule:nonzero;stroke:none"
         id="path108" />
      <path
         d="m 3385.81,2906.07 c -55.02,0 -110.38,26.29 -155.68,71.36 15.77,-5.27 31.95,-8.1 48.36,-8.1 36.16,0 73.42,13.72 109.9,45.4 25.88,22.46 20.41,47.83 27.7,47.83 0.18,0 0.37,-0.01 0.57,-0.04 14.59,-2.34 27.74,-3.45 39.62,-3.45 69.44,0 95.92,37.52 118.99,83.63 -0.34,-106.68 -50.64,-198 -133.69,-227.16 -0.01,0 -0.02,-0.01 -0.03,-0.01 -0.24,-0.09 -0.48,-0.17 -0.72,-0.25 0,0 -0.01,-0.01 -0.02,-0.01 -0.07,-0.02 -0.14,-0.05 -0.21,-0.07 -0.02,-0.01 -0.05,-0.02 -0.07,-0.03 -0.07,-0.02 -0.13,-0.04 -0.2,-0.07 -0.02,0 -0.05,-0.01 -0.07,-0.02 -0.12,-0.04 -0.25,-0.08 -0.38,-0.13 -0.03,-0.01 -0.05,-0.02 -0.08,-0.03 -0.05,-0.01 -0.12,-0.03 -0.17,-0.05 -0.03,-0.01 -0.09,-0.03 -0.12,-0.04 -0.06,-0.02 -0.11,-0.04 -0.17,-0.06 -0.05,-0.02 -0.09,-0.03 -0.14,-0.05 -0.05,-0.01 -0.11,-0.03 -0.16,-0.05 -0.09,-0.03 -0.17,-0.06 -0.25,-0.09 -0.05,-0.01 -0.08,-0.02 -0.13,-0.04 -0.06,-0.02 -0.11,-0.03 -0.18,-0.05 -0.04,-0.02 -0.08,-0.03 -0.12,-0.04 -0.06,-0.03 -0.13,-0.05 -0.19,-0.07 -0.04,-0.01 -0.07,-0.02 -0.11,-0.03 -0.1,-0.04 -0.18,-0.06 -0.28,-0.09 -0.04,-0.02 -0.07,-0.03 -0.11,-0.04 -0.06,-0.02 -0.12,-0.04 -0.19,-0.06 -0.04,-0.01 -0.08,-0.03 -0.12,-0.04 -0.07,-0.02 -0.13,-0.04 -0.2,-0.07 -0.03,-0.01 -0.07,-0.02 -0.1,-0.03 -0.1,-0.03 -0.19,-0.06 -0.29,-0.09 -0.02,-0.01 -0.04,-0.01 -0.06,-0.02 -0.08,-0.02 -0.17,-0.05 -0.25,-0.08 -0.03,-0.01 -0.06,-0.02 -0.09,-0.03 -0.08,-0.02 -0.15,-0.04 -0.22,-0.07 -0.03,-0.01 -0.06,-0.01 -0.09,-0.02 -0.11,-0.04 -0.2,-0.06 -0.3,-0.1 -0.01,0 -0.03,0 -0.04,-0.01 -0.09,-0.03 -0.17,-0.05 -0.26,-0.08 -0.04,-0.01 -0.06,-0.02 -0.1,-0.03 -0.07,-0.02 -0.15,-0.05 -0.22,-0.07 -0.03,-0.01 -0.06,-0.02 -0.09,-0.03 -0.1,-0.03 -0.21,-0.06 -0.3,-0.09 v 0 c -7.9,-2.4 -15.88,-4.12 -23.89,-5.32 -0.03,-0.02 -0.06,-0.05 -0.09,-0.07 -8.29,-1.24 -16.62,-1.84 -24.96,-1.84"
         style="fill:#3d2862;fill-opacity:1;fill-rule:nonzero;stroke:none"
         id="path110" />
      <path
         d="m 3515.12,3291.09 c 0,0 -158.06,156.83 -224.51,160.49 0,0 9.61,2.91 25.62,2.91 41.84,0 127.31,-19.86 198.89,-163.4"
         style="fill:#7645a6;fill-opacity:1;fill-rule:nonzero;stroke:none"
         id="path112" />
      <path
         d="m 3169.22,3382.2 c -7.52,1.82 -14.66,2.81 -21.31,2.81 -0.6,0 -1.19,-0.01 -1.78,-0.03 0,0 10.64,3.45 28.01,4.57 -1.68,-2.4 -3.33,-4.87 -4.92,-7.35"
         style="fill:#7645a6;fill-opacity:1;fill-rule:nonzero;stroke:none"
         id="path114" />
      <path
         d="m 3383.8,3237.06 c 0,0 -130.35,124.7 -214.58,145.14 1.59,2.48 3.24,4.95 4.92,7.35 3.36,0.22 6.97,0.35 10.81,0.35 49.29,0 135.53,-21.32 198.85,-152.84"
         style="fill:#7645a6;fill-opacity:1;fill-rule:nonzero;stroke:none"
         id="path116" />
    </g>
  </g>
</svg>
