<?xml version="1.0" encoding="UTF-8" standalone="no"?>
<!-- Created with Inkscape (http://www.inkscape.org/) -->

<svg
   version="1.1"
   id="svg8459"
   width="151.60385"
   height="166.10027"
   viewBox="0 0 151.60385 166.10026"
   sodipodi:docname="13802625_5367797.eps"
   xmlns:inkscape="http://www.inkscape.org/namespaces/inkscape"
   xmlns:sodipodi="http://sodipodi.sourceforge.net/DTD/sodipodi-0.dtd"
   xmlns="http://www.w3.org/2000/svg"
   xmlns:svg="http://www.w3.org/2000/svg">
  <g
     id="g8467"
     inkscape:groupmode="layer"
     inkscape:label="Page 1"
     transform="matrix(1.3333333,0,0,-1.3333333,-382.64438,572.16399)">
    <g
       id="g8469"
       transform="scale(0.1)">
      <path
         d="m 3743.83,4014.22 c 92.81,-43.33 175.39,-129.07 218.5,-221.97 43.11,-92.9 54.51,-199.54 35.98,-300.26 -30.03,-163.19 -140.18,-309.1 -287.68,-385.1 -147.5,-76.01 -328.93,-81.35 -481.74,-16.64 -152.79,64.7 -274.62,197.57 -328.47,354.52 -52.09,151.82 -39.05,328.49 49.92,462.08 88.95,133.6 293.8,211.98 451.67,183.01 27.51,59.14 0.03,134.72 -45.64,181.3 60.16,-18.39 126.87,-62.65 154.37,-119.23 40.15,75.38 92.26,106.89 171.28,139.3 26.74,-72.52 32.19,-123.58 15.53,-199.06 61.62,56.5 160.61,67.35 232.99,25.52 -75.81,8.7 -154.82,-35.23 -187.45,-104.21 l 0.74,0.74"
         style="fill:#b33350;fill-opacity:1;fill-rule:nonzero;stroke:none"
         id="path8707" />
      <path
         d="m 3367.35,4047.86 c -3.8,1.94 -7.26,3.07 -11.44,3.8 -3.68,0.64 -7.37,1.2 -11.03,1.9 -7.9,1.52 -16.21,2.1 -24.24,2.45 -14.88,0.67 -29.77,0.53 -44.62,-0.67 -30.39,-2.45 -60.57,-8.02 -89.72,-16.95 -7.02,-2.15 -13.98,-4.49 -20.86,-7.02 -7.98,-2.94 -17.76,-5.52 -24.13,-11.37 -4.89,-4.48 -5.28,-13 -0.65,-17.7 5.03,-5.13 11.66,-4.14 17.82,-2.14 7.14,2.31 14.05,5.6 21.13,8.15 13.79,4.98 27.88,9.2 42.14,12.64 7.34,1.78 14.73,3.34 22.15,4.7 3.5,0.65 7.01,1.24 10.54,1.79 1.86,0.29 3.72,0.56 5.59,0.84 0.37,0.05 2.5,0.35 0.36,0.06 1.24,0.16 2.49,0.32 3.74,0.47 16.64,2.05 33.45,3.21 50.21,3.44 8.17,0.11 16.35,0.11 24.51,-0.04 8.73,-0.16 18.02,-1 26.57,0.85 6.66,1.44 8.03,11.68 1.93,14.8"
         style="fill:#ffffff;fill-opacity:1;fill-rule:nonzero;stroke:none"
         id="path8709" />
      <path
         d="m 3046.85,3329.32 c -0.13,2.92 0.31,5.7 -0.72,8.57 -1.1,3.01 -2.78,5.97 -4.11,8.9 -2.32,5.1 -4.88,10.06 -7.38,15.08 -5.1,10.21 -9.99,20.53 -14.75,30.9 -5,10.9 -8.92,19.98 -13.09,30.37 -4.23,10.55 -8.41,21.12 -12.26,31.82 -7.69,21.36 -14.31,43.12 -19.72,65.17 -2.74,11.21 -5.17,22.5 -7.27,33.85 -1.01,5.47 -1.95,10.96 -2.8,16.46 -0.44,2.85 -0.86,5.7 -1.29,8.56 -0.18,1.21 -0.36,2.44 -0.53,3.66 l -0.27,1.83 c -0.15,1.16 -0.35,2.66 -0.09,0.65 -5.61,43.08 -5.85,86.32 -0.59,129.43 0.19,1.62 -0.11,-0.73 -0.12,-0.86 l 0.23,1.68 c 0.18,1.3 0.37,2.6 0.56,3.9 0.38,2.6 0.79,5.2 1.22,7.8 0.86,5.19 1.81,10.36 2.84,15.52 2.02,10.12 4.36,20.18 7.06,30.15 2.68,9.95 5.71,19.8 9.08,29.54 1.72,4.95 3.51,9.87 5.41,14.75 0.87,2.27 1.77,4.52 2.68,6.77 0.5,1.22 1,2.42 1.5,3.63 -1.12,-2.73 0.48,1.12 0.82,1.89 8.14,18.8 17.67,37.02 28.58,54.36 5.45,8.66 11.24,17.11 17.38,25.3 0.78,1.05 1.57,2.09 2.36,3.12 1.58,2.08 -1.01,-1.26 0.6,0.78 1.74,2.19 3.48,4.38 5.26,6.53 3.2,3.9 6.37,7.82 9.65,11.65 3.88,4.52 7.56,9.09 11.13,13.87 3.65,4.89 1.22,12.46 -3.15,15.84 -5.2,4.01 -11.26,2.9 -16.13,-0.96 -8.17,-6.48 -15.18,-14.41 -21.79,-22.47 -7.08,-8.68 -13.86,-17.64 -20.23,-26.86 -11.84,-17.16 -22.26,-35.3 -31.25,-54.12 -18.52,-38.77 -31.48,-80.12 -38.41,-122.54 -7.13,-43.73 -8.46,-88.06 -3.98,-132.14 4.77,-47 15.9,-93.09 31.79,-137.54 8,-22.41 17.14,-44.41 27.52,-65.83 10.02,-20.68 20.56,-41.85 33.71,-60.74 1.65,-2.38 3.28,-4.79 4.97,-7.14 1.97,-2.75 4.94,-3.94 7.72,-5.64 3.28,-2.01 8.05,0.56 7.86,4.51"
         style="fill:#ffffff;fill-opacity:1;fill-rule:nonzero;stroke:none"
         id="path8711" />
      <path
         d="m 3452.32,3045.48 c -0.01,0 -0.03,0 -0.04,0 0.01,0 0.03,0 0.04,0 v 0 m 0.04,0 c 88.36,0.01 176.68,19.97 255.47,59.97 -78.79,-40 -167.1,-59.97 -255.47,-59.97 m -222.23,44.24 c -0.22,0.1 -0.46,0.2 -0.68,0.29 0.22,-0.09 0.46,-0.19 0.68,-0.29 m -1.81,0.77 c -0.05,0.02 -0.1,0.04 -0.15,0.06 0.05,-0.02 0.09,-0.04 0.15,-0.06 m -0.67,0.28 c -0.02,0.01 -0.04,0.02 -0.06,0.03 0.03,-0.01 0.04,-0.02 0.06,-0.03 m -0.65,0.28 c -0.04,0.02 -0.06,0.03 -0.1,0.04 0.03,-0.01 0.07,-0.03 0.1,-0.04 m -0.65,0.28 c -0.01,0.01 -0.03,0.01 -0.04,0.02 0.02,-0.01 0.02,-0.01 0.04,-0.02 m 481.93,14.35 c 0.01,0.01 0.01,0.01 0.02,0.01 -0.01,0 -0.01,0 -0.02,-0.01 m 254.05,686.57 c -0.08,0.18 -0.17,0.36 -0.25,0.54 0.08,-0.18 0.17,-0.36 0.25,-0.54 m -0.28,0.6 c -0.07,0.15 -0.14,0.31 -0.21,0.46 0.07,-0.15 0.14,-0.31 0.21,-0.46 m -0.35,0.75 c -0.03,0.08 -0.06,0.14 -0.1,0.21 0.04,-0.07 0.07,-0.14 0.1,-0.21"
         style="fill:#e9b2bf;fill-opacity:1;fill-rule:nonzero;stroke:none"
         id="path8713" />
      <path
         d="m 3452.32,3045.48 c -0.01,0 -0.03,0 -0.04,0 -76.02,0 -152.07,14.77 -222.15,44.24 -0.22,0.1 -0.46,0.2 -0.68,0.29 -0.19,0.08 -0.37,0.16 -0.56,0.24 v 0 0 c -0.19,0.08 -0.38,0.16 -0.57,0.24 -0.06,0.02 -0.1,0.04 -0.15,0.06 -0.18,0.08 -0.34,0.15 -0.52,0.22 -0.02,0.01 -0.03,0.02 -0.06,0.03 -0.19,0.08 -0.4,0.17 -0.59,0.25 -0.03,0.01 -0.07,0.03 -0.1,0.04 -0.18,0.08 -0.36,0.16 -0.55,0.24 -0.02,0.01 -0.02,0.01 -0.04,0.02 -108.79,46.73 -201.53,128.14 -265.11,228.01 86.16,-67.3 190.04,-112.06 298.68,-124.91 22.23,-2.63 44.56,-3.92 66.9,-3.92 174.5,0.01 348.57,78.75 461.43,212.26 104.86,124.04 154.15,292.28 137.34,453.51 13.85,-20.16 26.02,-41.12 36.05,-62.49 0.04,-0.07 0.07,-0.13 0.1,-0.21 0.05,-0.09 0.09,-0.19 0.14,-0.29 0.07,-0.15 0.14,-0.31 0.21,-0.46 0.01,-0.02 0.02,-0.04 0.03,-0.06 0.08,-0.18 0.17,-0.36 0.25,-0.54 v 0 c 29.89,-64.41 44.54,-135.43 44.53,-206.5 0,-31.43 -2.87,-62.87 -8.55,-93.76 -30.03,-163.19 -140.18,-309.1 -287.68,-385.1 v 0 c -0.77,-0.4 -1.55,-0.8 -2.33,-1.2 -0.01,0 -0.01,0 -0.02,-0.01 -0.15,-0.08 -0.3,-0.15 -0.45,-0.23 -78.79,-40 -167.11,-59.96 -255.47,-59.97 -0.01,0 -0.03,0 -0.04,0"
         style="fill:#a12740;fill-opacity:1;fill-rule:nonzero;stroke:none"
         id="path8715" />
    </g>
  </g>
</svg>
