<?xml version="1.0" encoding="UTF-8" standalone="no"?>
<!-- Created with Inkscape (http://www.inkscape.org/) -->

<svg
   version="1.1"
   id="svg26267"
   width="721.55981"
   height="732.62701"
   viewBox="0 0 721.55981 732.62702"
   sodipodi:docname="fruit_set.eps"
   xmlns:inkscape="http://www.inkscape.org/namespaces/inkscape"
   xmlns:sodipodi="http://sodipodi.sourceforge.net/DTD/sodipodi-0.dtd"
   xmlns="http://www.w3.org/2000/svg"
   xmlns:svg="http://www.w3.org/2000/svg">
  <defs
     id="defs26271" />
  <sodipodi:namedview
     id="namedview26269"
     pagecolor="#ffffff"
     bordercolor="#000000"
     borderopacity="0.25"
     inkscape:showpageshadow="2"
     inkscape:pageopacity="0.0"
     inkscape:pagecheckerboard="0"
     inkscape:deskcolor="#d1d1d1"
     showgrid="false" />
  <g
     id="g26275"
     inkscape:groupmode="layer"
     inkscape:label="Page 1"
     transform="matrix(1.3333333,0,0,-1.3333333,-3952.5066,2998.7737)">
    <g
       id="g26277"
       transform="scale(0.1)">
      <path
         d="m 32835.6,21122.9 c 0,0 -99.1,392.7 36.8,678.8 135.9,286.1 339.8,417 368.1,471.7 28.3,54.8 -215.2,234.4 -322.8,216.1 -107.6,-18.2 -903.2,-894.8 -1155.2,-1339.1 -252,-444.4 1073.1,-27.5 1073.1,-27.5"
         style="fill:#6c9e00;fill-opacity:1;fill-rule:nonzero;stroke:none"
         id="path27025" />
      <path
         d="m 33097,22124.5 c -99.5,-54.7 -263.8,-180.9 -424.5,-464.1 -239.7,-422.3 -664.5,-553.4 -772.2,-296.8 -54.6,-77.4 -101.8,-149.7 -137.8,-213.2 -252,-444.4 1073.1,-27.4 1073.1,-27.4 0,0 -99.1,392.6 36.8,678.7 68,143.1 153,247.4 224.6,322.8"
         style="fill:#578900;fill-opacity:1;fill-rule:nonzero;stroke:none"
         id="path27027" />
      <path
         d="m 32140.5,21416.9 c -7.1,0 -14.3,2.5 -20,7.5 -10.7,9.3 -13.4,24.5 -7.4,36.6 40.6,82.1 88.6,160.3 140.6,235.1 52.3,74.7 108.1,146.8 167.1,215.8 59,69.2 120.7,135.9 186,199 32.7,31.5 66.2,62.2 100.7,91.8 17.3,14.8 34.8,29.3 52.7,43.5 l 27.1,20.9 c 9.2,6.9 18.3,13.6 28,20.3 5.3,3.7 11.4,5.4 17.4,5.4 9.7,0 19.3,-4.6 25.3,-13.3 7.7,-11.1 7,-25.5 -0.7,-35.8 l -0.1,-0.1 c -53.9,-72 -111.5,-140.8 -169.1,-209 -57.8,-68.1 -116.5,-135.2 -175.3,-202 -58.9,-66.8 -116.6,-134.4 -175,-201.5 -58.1,-67.4 -114.9,-135.6 -173.9,-203.3 l -0.4,-0.4 c -6,-7 -14.5,-10.5 -23,-10.5"
         style="fill:#89b133;fill-opacity:1;fill-rule:nonzero;stroke:none"
         id="path27029" />
      <path
         d="m 33858.3,21015.7 c -48.5,0 -96.3,-5.2 -143.2,-15.3 -39.5,-8.5 -80.6,0.6 -114.3,22.8 -139.8,92.5 -291,144.2 -448.8,144.2 -49.5,0 -98.4,-5.2 -146.5,-15.1 -39.9,-8.2 -81.5,1.1 -115,24.5 -165.7,115.8 -348.6,180 -540.9,180 -192.2,0 -375.1,-64.2 -540.9,-180 -33.4,-23.4 -75,-32.7 -115,-24.5 -48,9.9 -96.9,15.1 -146.4,15.1 -157.8,0 -309,-51.7 -448.8,-144.2 -33.7,-22.2 -74.8,-31.3 -114.3,-22.8 -46.9,10.1 -94.7,15.3 -143.2,15.3 -661.2,0 -1197.2,-985.8 -1197.2,-1983.4 0,-997.7 536,-1648.4 1197.2,-1648.4 2.1,0 4.3,0 6.4,0.1 32,0.2 63.1,-9.7 89.4,-28 182,-126.4 389.8,-194.6 610.5,-194.6 55.3,0 109.8,4.3 163.4,12.7 37.7,6 76.5,-2.4 108.1,-24 163,-111.4 342.4,-154 530.8,-154 188.4,0 367.8,42.6 530.9,154 31.6,21.6 70.3,30 108.1,24 53.5,-8.4 108.1,-12.7 163.4,-12.7 220.7,0 428.5,68.2 610.5,194.6 26.3,18.3 57.4,28.2 89.4,28 2.1,-0.1 4.2,-0.1 6.4,-0.1 661.2,0 1197.2,650.7 1197.2,1648.4 0,997.6 -536,1983.4 -1197.2,1983.4"
         style="fill:#ff8c00;fill-opacity:1;fill-rule:nonzero;stroke:none"
         id="path27031" />
      <path
         d="m 32988.6,17174.1 c 53.5,-8.4 108.1,-12.7 163.4,-12.7 220.7,0 428.5,68.2 610.5,194.6 26.3,18.3 57.4,28.2 89.4,28 2.1,-0.1 4.2,-0.1 6.4,-0.1 661.2,0 1197.2,650.7 1197.2,1648.4 0,198.5 -21.2,396.5 -60.4,586.4 -18.1,-529.5 -148.6,-1537.4 -852.2,-1962.4 0,0 -190.1,38.1 -164.8,481.7 25.4,443.7 175.4,1726 -158.4,2142.2 0,0 274.6,-919 -158.5,-2402 -171.7,-588 -576.3,101.9 -555.6,456.3 59.2,1014 -59.2,1793.6 -185.9,1945.7 0,0 139.8,-1093.3 25.3,-1803.1 -167,-1035.7 -406.2,-980.7 -595.4,-1009.8 -189.1,29.1 -428.3,-25.9 -595.4,1009.8 -114.4,709.8 25.4,1803.1 25.4,1803.1 -126.8,-152.1 -245.1,-931.7 -185.9,-1945.7 20.7,-354.4 -383.9,-1044.3 -555.6,-456.3 -433.1,1483 -158.5,2402 -158.5,2402 -333.8,-416.2 -183.8,-1698.5 -158.4,-2142.2 25.3,-443.6 -164.8,-481.7 -164.8,-481.7 -703.7,425 -834.1,1432.9 -852.2,1962.4 -39.2,-189.9 -60.4,-387.9 -60.4,-586.4 0,-997.7 536,-1648.4 1197.2,-1648.4 2.1,0 4.3,0 6.4,0.1 32,0.2 63.1,-9.7 89.4,-28 182,-126.4 389.8,-194.6 610.5,-194.6 55.3,0 109.9,4.3 163.4,12.7 37.7,6 76.5,-2.4 108.1,-24 163,-111.4 342.4,-154 530.8,-154 188.4,0 367.8,42.6 530.9,154 31.6,21.6 70.3,30 108.1,24"
         style="fill:#ff7900;fill-opacity:1;fill-rule:nonzero;stroke:none"
         id="path27033" />
      <path
         d="m 30029.9,19899.3 c -5.7,0 -11.4,1.5 -16.5,4.6 -11.7,7 -17.3,20.4 -15.2,33.1 4.5,25.2 9.6,50.3 15.1,75.4 6,24.9 12.7,49.7 19.5,74.4 7.3,24.7 15.5,49 23.4,73.6 l 13.5,36.3 c 4.6,12.1 8.8,24.3 14,36.2 39.3,95.8 88.3,188.8 149.1,275.5 l 23.4,32.2 c 8,10.6 16.2,21.1 24.5,31.5 8.1,10.5 17,20.6 25.7,30.7 8.7,10.1 17.4,20.3 26.7,30 17.9,19.9 37.4,38.6 57,57.3 10,9 20,18.2 30.1,27.2 10.5,8.7 20.9,17.4 31.8,25.6 43.5,32.9 92.1,60.1 144.6,78.6 26.3,9.2 53.6,16 81.7,19.8 7.1,1 14,1.9 21.2,2.3 l 10.7,0.7 10.9,0.1 c 1,0.1 2,0.1 3,0.1 6.2,0 12.6,-0.4 18.8,-0.8 3.8,-0.4 7.4,-0.6 11.3,-1.2 3.9,-0.4 7.2,-1.1 12.3,-1.7 16.1,-2 27.6,-16.6 25.7,-32.8 -0.5,-4.3 -2,-8.3 -4.1,-11.8 l -11,-17.9 c -1.1,-1.8 -3.9,-3.9 -6,-5.8 l -6.9,-5.9 -13.9,-11.7 -27.4,-22.8 -53.2,-44.6 -103.9,-87.7 c -70.4,-57 -134.5,-123.9 -194.1,-196.3 -59.4,-72.6 -113.5,-151.3 -165,-233.1 l -38,-62.1 -37.1,-63.3 c -11.8,-21.4 -24.2,-42.8 -36.6,-64.2 -11.8,-21.7 -24.1,-43.4 -37,-65 l -0.6,-0.9 c -6,-10 -16.6,-15.6 -27.5,-15.6"
         style="fill:#ffa940;fill-opacity:1;fill-rule:nonzero;stroke:none"
         id="path27035" />
      <path
         d="m 30984.6,19392 c -4.1,0 -8.4,1.1 -12.6,3.4 -13.6,7.2 -23.2,24.6 -24.9,42.7 -3.4,36 -6.1,72 -8.4,107.9 -1.7,35.9 -2.8,71.8 -3.7,107.7 -0.4,35.7 0.2,71.4 0.3,107.2 l 2.1,53.3 c 0.8,17.7 1.2,35.6 2.6,53.2 9.1,141.5 28.5,281.3 61.4,414.8 l 12.9,49.7 c 4.6,16.5 9.5,32.8 14.3,49.1 4.8,16.3 10.3,32.2 15.8,48.1 5.4,16 10.7,32 16.8,47.5 11.5,31.5 24.8,61.7 38.2,91.8 7,14.7 13.9,29.6 21.1,44.2 7.6,14.4 15.1,28.7 23.2,42.5 32.4,55 71.6,103.3 117.1,140.3 23,18.3 47.6,33.7 73.8,45.1 6.6,2.8 13.1,5.6 20,7.6 l 10.3,3.3 10.5,2.6 c 6.9,1.7 14.3,2.7 21.6,3.6 3.8,0.3 7.3,0.8 11.3,0.8 1.3,0.1 2.5,0.1 3.8,0.1 0.6,0 1.3,0 2.1,0 0.8,0 1.6,0 2.5,0 1.3,0 2.6,0 4.2,0.1 0.3,0 0.7,0 1,0 16,0 31.1,-17.6 34.1,-39.9 0.8,-6.1 0.7,-12 -0.4,-17.3 l -5.2,-27.3 c -0.6,-2.7 -2.6,-6.2 -4.1,-9.3 l -4.9,-9.7 -10,-19.1 -19.8,-37.7 -38.4,-73.4 -74.6,-144.1 c -51.3,-94.3 -93.5,-201.1 -129.5,-314.4 -35.8,-113.6 -64.6,-234.5 -89.8,-359.3 l -18.1,-94.4 -16.9,-95.9 c -5,-32.3 -10.6,-64.6 -16.1,-97.1 -4.9,-32.7 -10.3,-65.4 -16.3,-98.1 l -0.3,-1.4 c -3.2,-17.5 -14.2,-28.2 -27,-28.2"
         style="fill:#ffa940;fill-opacity:1;fill-rule:nonzero;stroke:none"
         id="path27037" />
      <path
         d="m 34669.4,19899.3 c -10.9,0 -21.5,5.6 -27.6,15.6 l -0.5,0.9 c -12.9,21.6 -25.2,43.3 -37,65 -12.4,21.4 -24.8,42.8 -36.6,64.2 l -37.2,63.3 -37.9,62.1 c -51.5,81.8 -105.6,160.5 -165.1,233.1 -59.5,72.4 -123.6,139.3 -194,196.3 l -103.9,87.7 -53.2,44.6 -27.4,22.8 -13.9,11.7 -6.9,5.9 c -2.1,1.9 -4.9,4 -6,5.8 l -11,17.9 c -2.2,3.5 -3.6,7.5 -4.1,11.8 -1.9,16.2 9.6,30.8 25.7,32.8 5.1,0.6 8.4,1.3 12.3,1.7 3.9,0.6 7.5,0.8 11.2,1.2 6.3,0.4 12.7,0.8 18.9,0.8 1,0 2,0 3,-0.1 l 10.9,-0.1 10.7,-0.7 c 7.2,-0.4 14.1,-1.3 21.2,-2.3 28.1,-3.8 55.4,-10.6 81.7,-19.8 52.5,-18.5 101.1,-45.7 144.6,-78.6 10.9,-8.2 21.3,-16.9 31.7,-25.6 10.2,-9 20.2,-18.2 30.2,-27.2 19.6,-18.7 39,-37.4 57,-57.3 9.3,-9.7 18,-19.9 26.7,-30 8.7,-10.1 17.5,-20.2 25.7,-30.7 8.3,-10.4 16.5,-20.9 24.5,-31.5 l 23.3,-32.2 c 60.9,-86.7 109.9,-179.7 149.2,-275.5 5.1,-11.9 9.4,-24.1 14,-36.2 l 13.5,-36.3 c 7.9,-24.6 16.1,-48.9 23.3,-73.6 6.9,-24.7 13.5,-49.5 19.6,-74.4 5.5,-25.1 10.6,-50.2 15,-75.4 2.2,-12.7 -3.4,-26.1 -15.1,-33.1 -5.1,-3.1 -10.9,-4.6 -16.5,-4.6"
         style="fill:#ffa940;fill-opacity:1;fill-rule:nonzero;stroke:none"
         id="path27039" />
      <path
         d="m 33714.7,19392 c -12.8,0 -23.8,10.7 -27.1,28.2 l -0.2,1.4 c -6.1,32.7 -11.4,65.4 -16.3,98.1 -5.5,32.5 -11.1,64.8 -16.1,97.1 l -16.9,95.9 -18.1,94.4 c -25.3,124.8 -54,245.7 -89.8,359.3 -36,113.3 -78.2,220.1 -129.5,314.4 l -74.7,144.1 -38.3,73.4 -19.8,37.7 -10,19.1 -4.9,9.7 c -1.5,3.1 -3.6,6.6 -4.1,9.3 l -5.3,27.3 c -1,5.3 -1.1,11.2 -0.3,17.3 3,22.3 18.1,39.9 34.1,39.9 0.3,0 0.7,0 1,0 1.5,-0.1 2.9,-0.1 4.2,-0.1 0.9,0 1.7,0 2.5,0 0.7,0 1.4,0 2.1,0 1.3,0 2.5,0 3.8,-0.1 3.9,0 7.5,-0.5 11.3,-0.8 7.3,-0.9 14.6,-1.9 21.6,-3.6 l 10.5,-2.6 10.2,-3.3 c 7,-2 13.5,-4.8 20.1,-7.6 26.2,-11.4 50.8,-26.8 73.7,-45.1 45.6,-37 84.7,-85.3 117.2,-140.3 8.1,-13.8 15.6,-28.1 23.1,-42.5 7.2,-14.6 14.2,-29.5 21.2,-44.2 13.4,-30.1 26.7,-60.3 38.1,-91.8 6.1,-15.5 11.5,-31.5 16.9,-47.5 5.5,-15.9 11,-31.8 15.8,-48.1 4.8,-16.3 9.7,-32.6 14.3,-49.1 l 12.9,-49.7 c 32.8,-133.5 52.3,-273.3 61.4,-414.8 1.4,-17.6 1.8,-35.5 2.6,-53.2 l 2,-53.3 c 0.2,-35.8 0.8,-71.5 0.3,-107.2 -0.9,-35.9 -1.9,-71.8 -3.7,-107.7 -2.2,-35.9 -4.9,-71.9 -8.3,-107.9 -1.7,-18.1 -11.3,-35.5 -24.9,-42.7 -4.2,-2.3 -8.5,-3.4 -12.6,-3.4"
         style="fill:#ffa940;fill-opacity:1;fill-rule:nonzero;stroke:none"
         id="path27041" />
      <path
         d="m 32325.3,19105 c -3.9,0 -7.8,0.6 -11.8,1.8 -12.9,4 -22.4,14.3 -26.2,26.2 -11.4,36.7 -20.7,73.3 -29.4,109.9 -8.5,36.6 -16.5,73.2 -23.6,109.9 -14.2,73.2 -26.1,146.4 -36,219.7 -19.8,146.4 -32.3,292.9 -39.3,439.4 -3.5,73.2 -5.6,146.5 -6.5,219.7 -0.2,36.6 -0.7,73.2 0.1,109.9 0.9,36.6 3.2,73.2 6.7,109.8 7.1,73.3 19.7,146.5 39.5,219.7 9.8,36.6 21.7,73.3 35.8,109.9 14.5,36.6 30.5,73.2 52.7,109.8 8.3,13.9 23,21.5 38.1,21.5 7.8,0 15.7,-2.1 22.9,-6.4 6.3,-3.9 11.5,-9.2 15,-15.1 22.2,-36.6 38.2,-73.2 52.7,-109.8 14.2,-36.6 26,-73.3 35.9,-109.9 19.8,-73.2 32.4,-146.4 39.5,-219.7 3.5,-36.6 5.8,-73.2 6.6,-109.8 0.9,-36.7 0.3,-73.3 0.2,-109.9 -1,-73.2 -3,-146.5 -6.5,-219.7 -7,-146.5 -19.6,-293 -39.4,-439.4 -9.9,-73.3 -21.7,-146.5 -36,-219.7 -7,-36.7 -15.1,-73.3 -23.6,-109.9 -8.7,-36.6 -18,-73.2 -29.4,-109.9 -5.2,-17 -21,-28 -38,-28"
         style="fill:#ffa940;fill-opacity:1;fill-rule:nonzero;stroke:none"
         id="path27043" />
      <path
         d="m 30420.2,19269.3 c 0,17.5 -14.2,31.7 -31.7,31.7 -17.5,0 -31.7,-14.2 -31.7,-31.7 0,-17.5 14.2,-31.7 31.7,-31.7 17.5,0 31.7,14.2 31.7,31.7"
         style="fill:#ff7900;fill-opacity:1;fill-rule:nonzero;stroke:none"
         id="path27045" />
      <path
         d="m 30099.8,18638.1 c -36.6,0 -66.2,-29.6 -66.2,-66.2 0,-36.6 29.6,-66.3 66.2,-66.3 36.6,0 66.3,29.7 66.3,66.3 0,36.6 -29.7,66.2 -66.3,66.2"
         style="fill:#ff7900;fill-opacity:1;fill-rule:nonzero;stroke:none"
         id="path27047" />
      <path
         d="m 30432.3,18271.1 c -20.6,0 -37.2,-16.6 -37.2,-37.2 0,-20.5 16.6,-37.1 37.2,-37.1 20.5,0 37.1,16.6 37.1,37.1 0,20.6 -16.6,37.2 -37.1,37.2"
         style="fill:#ff7900;fill-opacity:1;fill-rule:nonzero;stroke:none"
         id="path27049" />
      <path
         d="m 31324.9,18822.5 c -23.6,0 -42.8,-19.2 -42.8,-42.8 0,-23.6 19.2,-42.8 42.8,-42.8 23.6,0 42.8,19.2 42.8,42.8 0,23.6 -19.2,42.8 -42.8,42.8"
         style="fill:#ff7900;fill-opacity:1;fill-rule:nonzero;stroke:none"
         id="path27051" />
      <path
         d="m 32065.6,18391.5 c -28.4,0 -51.5,-23 -51.5,-51.5 0,-28.4 23.1,-51.5 51.5,-51.5 28.5,0 51.5,23.1 51.5,51.5 0,28.5 -23,51.5 -51.5,51.5"
         style="fill:#ff7900;fill-opacity:1;fill-rule:nonzero;stroke:none"
         id="path27053" />
      <path
         d="m 32499.8,17833.8 c -19.7,0 -35.7,-16 -35.7,-35.7 0,-19.7 16,-35.6 35.7,-35.6 19.7,0 35.6,15.9 35.6,35.6 0,19.7 -15.9,35.7 -35.6,35.7"
         style="fill:#ff7900;fill-opacity:1;fill-rule:nonzero;stroke:none"
         id="path27055" />
      <path
         d="m 32794.3,19392 c -19.6,0 -35.5,-15.8 -35.5,-35.4 0,-19.6 15.9,-35.4 35.5,-35.4 19.5,0 35.4,15.8 35.4,35.4 0,19.6 -15.9,35.4 -35.4,35.4"
         style="fill:#ff7900;fill-opacity:1;fill-rule:nonzero;stroke:none"
         id="path27057" />
      <path
         d="m 33528.1,18711.6 c -34.6,0 -62.6,-28 -62.6,-62.6 0,-34.6 28,-62.6 62.6,-62.6 34.6,0 62.6,28 62.6,62.6 0,34.6 -28,62.6 -62.6,62.6"
         style="fill:#ff7900;fill-opacity:1;fill-rule:nonzero;stroke:none"
         id="path27059" />
      <path
         d="m 34224.3,18340 c -20.1,0 -36.3,-16.2 -36.3,-36.2 0,-20 16.2,-36.3 36.3,-36.3 20,0 36.2,16.3 36.2,36.3 0,20 -16.2,36.2 -36.2,36.2"
         style="fill:#ff7900;fill-opacity:1;fill-rule:nonzero;stroke:none"
         id="path27061" />
      <path
         d="m 34626.9,18736.9 c -37.6,0 -68.1,-30.5 -68.1,-68.1 0,-37.6 30.5,-68.1 68.1,-68.1 37.6,0 68.1,30.5 68.1,68.1 0,37.6 -30.5,68.1 -68.1,68.1"
         style="fill:#ff7900;fill-opacity:1;fill-rule:nonzero;stroke:none"
         id="path27063" />
      <path
         d="m 34349.3,19446.8 c -24.9,0 -45.1,-20.2 -45.1,-45.1 0,-24.9 20.2,-45.1 45.1,-45.1 24.9,0 45.1,20.2 45.1,45.1 0,24.9 -20.2,45.1 -45.1,45.1"
         style="fill:#ff7900;fill-opacity:1;fill-rule:nonzero;stroke:none"
         id="path27065" />
      <path
         d="m 32794.3,20814.7 c -19.6,0 -35.5,-15.9 -35.5,-35.4 0,-19.6 15.9,-35.5 35.5,-35.5 19.5,0 35.4,15.9 35.4,35.5 0,19.5 -15.9,35.4 -35.4,35.4"
         style="fill:#ff7900;fill-opacity:1;fill-rule:nonzero;stroke:none"
         id="path27067" />
      <path
         d="m 31705.5,20607.7 c -13.9,0 -25.2,-11.3 -25.2,-25.2 0,-13.9 11.3,-25.2 25.2,-25.2 13.9,0 25.2,11.3 25.2,25.2 0,13.9 -11.3,25.2 -25.2,25.2"
         style="fill:#ff7900;fill-opacity:1;fill-rule:nonzero;stroke:none"
         id="path27069" />
    </g>
  </g>
</svg>
