<?xml version="1.0" encoding="UTF-8" standalone="no"?>
<!-- Created with Inkscape (http://www.inkscape.org/) -->

<svg
   version="1.1"
   id="svg2475"
   width="98.512817"
   height="107.71706"
   viewBox="0 0 98.512818 107.71706"
   sodipodi:docname="13756344_5340472.eps"
   xmlns:inkscape="http://www.inkscape.org/namespaces/inkscape"
   xmlns:sodipodi="http://sodipodi.sourceforge.net/DTD/sodipodi-0.dtd"
   xmlns="http://www.w3.org/2000/svg"
   xmlns:svg="http://www.w3.org/2000/svg">
  <defs
     id="defs2479" />
  <sodipodi:namedview
     id="namedview2477"
     pagecolor="#ffffff"
     bordercolor="#000000"
     borderopacity="0.25"
     inkscape:showpageshadow="2"
     inkscape:pageopacity="0.0"
     inkscape:pagecheckerboard="0"
     inkscape:deskcolor="#d1d1d1"
     showgrid="false" />
  <g
     id="g2483"
     inkscape:groupmode="layer"
     inkscape:label="Page 1"
     transform="matrix(1.3333333,0,0,-1.3333333,-271.14319,302.28506)">
    <g
       id="g2485"
       transform="scale(0.1)">
      <path
         d="m 2668.09,2252.34 c -11.41,-20.97 -23.79,-40.54 -37.04,-59.88 -13.28,-19.18 -27.46,-37.73 -42.5,-55.55 -15.03,-17.77 -31.36,-34.45 -48.47,-50.11 -17.31,-15.55 -36.02,-29.42 -55.67,-41.57 18.75,13.56 36.21,28.6 52.19,45.16 15.78,16.72 30.63,34.22 44.14,52.73 13.48,18.56 26.06,37.7 37.66,57.43 11.52,19.65 22.46,40.07 31.64,60.43 l 0.12,0.27 c 2.26,5.04 8.2,7.27 13.24,5 5.04,-2.27 7.26,-8.2 5,-13.24 l -0.31,-0.67"
         style="fill:#387f34;fill-opacity:1;fill-rule:nonzero;stroke:none"
         id="path2857" />
      <path
         d="m 2406.99,2261.21 c 0,0 -7.5,-117.42 89.34,-205.27 l -116.56,53.63 c 0,0 -70.75,86.68 27.22,151.64"
         style="fill:#479e38;fill-opacity:1;fill-rule:nonzero;stroke:none"
         id="path2859" />
      <path
         d="m 2382.46,2162.5 c -8.67,4.77 -17.81,8.36 -27.19,10.7 -1.36,26.41 8.48,57.19 46.84,84.57 -23.4,-31.68 -26.13,-65.07 -19.65,-95.27"
         style="fill:#3b8836;fill-opacity:1;fill-rule:nonzero;stroke:none"
         id="path2861" />
      <path
         d="m 2524.1,2239.1 c 0,0 -51.83,-105.74 3.67,-224.45 l -86.79,94.73 c 0,0 -31.92,107.53 83.12,129.72"
         style="fill:#479e38;fill-opacity:1;fill-rule:nonzero;stroke:none"
         id="path2863" />
      <path
         d="m 2442.85,2107.3 -1.87,2.08 c -0.12,0.39 -30.51,103.78 77.34,128.43 -51.05,-30.7 -59.92,-83.36 -56.68,-126.83 -6.33,-0.67 -12.66,-1.88 -18.79,-3.68"
         style="fill:#3b8836;fill-opacity:1;fill-rule:nonzero;stroke:none"
         id="path2865" />
      <path
         d="m 2567.5,2183.52 c 0,0 -51.88,-105.75 3.63,-224.46 l -86.79,94.69 c 0,0 -31.92,107.54 83.16,129.77"
         style="fill:#479e38;fill-opacity:1;fill-rule:nonzero;stroke:none"
         id="path2867" />
      <path
         d="m 2507.97,2106.02 c -8.17,2.65 -16.56,4.37 -24.96,5.11 6.4,28.36 26.13,59.07 78.67,71.1 -32.07,-19.34 -47.5,-47.31 -53.71,-76.21"
         style="fill:#3b8836;fill-opacity:1;fill-rule:nonzero;stroke:none"
         id="path2869" />
      <path
         d="m 2772.42,2049.22 c 0,0 -97.97,-64.96 -222.19,-24.57 l 104.5,-74.57 c 0,0 110.19,-18.28 117.69,99.14"
         style="fill:#479e38;fill-opacity:1;fill-rule:nonzero;stroke:none"
         id="path2871" />
      <path
         d="m 2691.72,1950.78 c -1.68,1.95 -3.4,3.91 -5.2,5.78 -5.7,5.94 -11.87,11.14 -18.4,15.59 39.73,4.8 82.43,22.42 103.72,71.13 -6.57,-67.23 -48.32,-87.19 -80.12,-92.5"
         style="fill:#3b8836;fill-opacity:1;fill-rule:nonzero;stroke:none"
         id="path2873" />
      <path
         d="m 2694.96,2140.04 c 0,0 -65.7,-97.74 -196.09,-108.63 l 125.19,-28.25 c 0,0 108.95,25.82 70.9,136.88"
         style="fill:#479e38;fill-opacity:1;fill-rule:nonzero;stroke:none"
         id="path2875" />
      <path
         d="m 2624.06,2003.16 -35.43,7.97 c 44.49,15.24 106.64,49.73 108.09,123.17 32.38,-106.18 -72.66,-131.14 -72.66,-131.14"
         style="fill:#3b8836;fill-opacity:1;fill-rule:nonzero;stroke:none"
         id="path2877" />
      <path
         d="m 2625.23,2150 c 0,0 -65.7,-97.7 -196.09,-108.59 l 125.2,-28.25 c 0,0 108.94,25.82 70.89,136.84"
         style="fill:#479e38;fill-opacity:1;fill-rule:nonzero;stroke:none"
         id="path2879" />
      <path
         d="m 2583.52,2025.27 c -2.04,8.17 -5,16.14 -8.91,23.79 28.16,20.28 51.52,50.55 52.38,95.24 20.82,-68.21 -15.11,-102.93 -43.47,-119.03"
         style="fill:#3b8836;fill-opacity:1;fill-rule:nonzero;stroke:none"
         id="path2881" />
      <path
         d="m 2685.86,1803.91 c -42.77,-40.16 -111.8,-36.92 -154.14,7.22 -42.38,44.14 -42.11,112.5 0.66,152.66 42.74,40.16 111.76,36.91 154.14,-7.23 42.39,-44.14 42.07,-112.5 -0.66,-152.65"
         style="fill:#de1937;fill-opacity:1;fill-rule:nonzero;stroke:none"
         id="path2883" />
      <path
         d="m 2572.89,1946.64 c 5.08,8.79 8.79,18.2 11.09,27.93 4.97,1.17 9.54,1.56 13.52,1.56 9.96,0 16.29,-2.61 16.29,-2.61 l -40.9,-26.88"
         style="fill:#ed1b51;fill-opacity:1;fill-rule:nonzero;stroke:none"
         id="path2885" />
      <path
         d="m 2690.12,1808.16 c 11.44,12.07 19.37,26.37 23.83,41.57 -4.46,-15.2 -12.39,-29.5 -23.83,-41.57 m 23.83,41.68 c 0.03,0.04 0.03,0.08 0.03,0.16 0,-0.08 0,-0.12 -0.03,-0.16 m 0.07,0.32 c 0.04,0 0.04,0 0.04,0 0,0 0,0 -0.04,0"
         style="fill:#ea4c78;fill-opacity:1;fill-rule:nonzero;stroke:none"
         id="path2887" />
      <path
         d="m 2551.13,1805.7 c 0.63,16.45 -2.54,33.17 -9.49,48.75 19.73,-14.02 42.81,-21.09 65.66,-21.09 26.14,0 52,9.26 72.04,28.12 17.14,16.1 27.34,36.76 30.82,58.56 9.06,-22.62 10.35,-47.27 3.9,-69.88 0,0 0,0 -0.04,0 0,-0.08 0,-0.12 -0.04,-0.16 0,-0.08 0,-0.12 -0.03,-0.16 0,-0.04 0,-0.07 0,-0.11 -4.46,-15.2 -12.39,-29.5 -23.83,-41.57 -20.43,15.75 -44.92,23.68 -69.14,23.68 -25.2,0 -50.12,-8.64 -69.85,-26.14"
         style="fill:#cb1e25;fill-opacity:1;fill-rule:nonzero;stroke:none"
         id="path2889" />
      <path
         d="m 2224.22,1942.03 c -42.77,-40.15 -111.8,-36.91 -154.14,7.23 -42.38,44.14 -42.11,112.5 0.66,152.65 42.74,40.16 111.76,36.92 154.14,-7.22 42.39,-44.14 42.07,-112.5 -0.66,-152.66"
         style="fill:#de1937;fill-opacity:1;fill-rule:nonzero;stroke:none"
         id="path2891" />
      <path
         d="m 2056.6,2048.91 c 27.66,55.78 60.16,65.35 79.26,65.35 10,0 16.29,-2.62 16.29,-2.62 l -95.55,-62.73"
         style="fill:#ed1b51;fill-opacity:1;fill-rule:nonzero;stroke:none"
         id="path2893" />
      <path
         d="m 2170.82,1915.51 c 7.27,1.25 14.41,3.28 21.29,6.05 -6.88,-2.77 -14.02,-4.8 -21.29,-6.05 m -100.74,33.75 c -0.08,0.08 -0.16,0.15 -0.24,0.19 0.08,-0.04 0.16,-0.11 0.24,-0.19 m -0.31,0.27 c -0.04,0.08 -0.12,0.16 -0.16,0.2 0.04,-0.04 0.12,-0.12 0.16,-0.2 m -0.28,0.31 c -0.04,0.04 -0.04,0.04 -0.08,0.08 0.04,-0.04 0.04,-0.04 0.08,-0.08 m -0.31,0.36 v 0"
         style="fill:#ea4c78;fill-opacity:1;fill-rule:nonzero;stroke:none"
         id="path2895" />
      <path
         d="m 2170.82,1915.51 c -10.74,3.32 -21.87,4.96 -32.93,4.96 -6.29,0 -12.5,-0.55 -18.67,-1.6 -18.05,5.54 -35.08,15.7 -49.14,30.39 -0.08,0.08 -0.16,0.15 -0.24,0.19 0,0.04 -0.04,0.08 -0.07,0.08 -0.04,0.08 -0.12,0.16 -0.16,0.2 -0.04,0.04 -0.08,0.07 -0.12,0.11 -0.04,0.04 -0.04,0.04 -0.08,0.08 -0.07,0.08 -0.15,0.16 -0.23,0.28 -24.73,26.32 -34.38,60.97 -29.26,93.12 5.24,-13.12 13.13,-25.59 23.63,-36.52 22.5,-23.44 52.5,-35.35 82.11,-35.35 26.18,0 52,9.29 72.04,28.12 7.38,6.95 13.47,14.73 18.32,23.09 1.75,-3.44 3.75,-6.8 5.89,-10.12 -6.21,-3.71 -12.11,-8.16 -17.53,-13.28 -22.15,-20.78 -32.9,-49.1 -32.27,-77.7 -6.88,-2.77 -14.02,-4.8 -21.29,-6.05"
         style="fill:#cb1e25;fill-opacity:1;fill-rule:nonzero;stroke:none"
         id="path2897" />
      <path
         d="m 2219.34,1732.46 c -42.78,-40.16 -111.8,-36.91 -154.18,7.23 -42.39,44.14 -42.07,112.5 0.7,152.65 42.73,40.16 111.76,36.96 154.14,-7.22 42.38,-44.14 42.07,-112.46 -0.66,-152.66"
         style="fill:#de1937;fill-opacity:1;fill-rule:nonzero;stroke:none"
         id="path2899" />
      <path
         d="m 2051.72,1839.34 c 27.66,55.78 60.16,65.39 79.26,65.39 10,0 16.29,-2.66 16.29,-2.66 l -95.55,-62.73"
         style="fill:#ed1b51;fill-opacity:1;fill-rule:nonzero;stroke:none"
         id="path2901" />
      <path
         d="m 2064.73,1740.16 -0.04,0.04 0.04,-0.04 m -0.08,0.07 c -0.08,0.08 -0.12,0.12 -0.2,0.2 0.08,-0.08 0.12,-0.12 0.2,-0.2 m -0.27,0.32 c -0.04,0.04 -0.08,0.07 -0.12,0.11 0.04,-0.04 0.08,-0.07 0.12,-0.11 m -0.24,0.23 c -0.04,0.04 -0.08,0.08 -0.12,0.12 0.04,-0.04 0.08,-0.08 0.12,-0.12 m -0.27,0.31 c -0.04,0 -0.04,0 -0.04,0 0,0 0,0 0.04,0"
         style="fill:#ea4c78;fill-opacity:1;fill-rule:nonzero;stroke:none"
         id="path2903" />
      <path
         d="m 2064.73,1740.16 -0.04,0.04 -0.04,0.03 c -0.08,0.08 -0.12,0.12 -0.2,0.2 0,0.04 -0.04,0.08 -0.07,0.12 -0.04,0.04 -0.08,0.07 -0.12,0.11 -0.04,0.04 -0.08,0.08 -0.12,0.12 -0.04,0.04 -0.08,0.08 -0.12,0.12 -0.07,0.08 -0.11,0.12 -0.15,0.19 -0.04,0 -0.04,0 -0.04,0 -24.38,26.29 -33.91,60.71 -28.79,92.66 5.23,-13.13 13.12,-25.55 23.63,-36.52 14.45,-15.08 32.03,-25.35 50.63,-30.78 -15.39,-4.46 -29.92,-12.43 -42.23,-23.99 -0.78,-0.74 -1.56,-1.52 -2.34,-2.3 m 122.42,19.64 c -5.39,2.5 -10.94,4.61 -16.56,6.25 6.6,1.92 13.04,4.46 19.21,7.66 -1.21,-4.57 -2.07,-9.22 -2.65,-13.91"
         style="fill:#cb1e25;fill-opacity:1;fill-rule:nonzero;stroke:none"
         id="path2905" />
      <path
         d="m 2372.11,1662.27 c -42.77,-40.16 -111.8,-36.92 -154.14,7.22 -42.38,44.14 -42.11,112.5 0.66,152.66 42.74,40.15 111.76,36.91 154.14,-7.23 42.39,-44.14 42.07,-112.5 -0.66,-152.65"
         style="fill:#de1937;fill-opacity:1;fill-rule:nonzero;stroke:none"
         id="path2907" />
      <path
         d="m 2204.49,1769.14 c 15.2,30.63 31.84,47.34 46.92,56.17 7.61,-4.18 15.58,-7.46 23.79,-9.76 l -70.71,-46.41"
         style="fill:#ed1b51;fill-opacity:1;fill-rule:nonzero;stroke:none"
         id="path2909" />
      <path
         d="m 2345.62,1664.57 c -15.23,7.19 -31.71,10.82 -48.04,10.82 -15.47,0 -30.9,-3.28 -45.04,-9.84 -0.9,13.04 -4.22,26.05 -9.88,38.36 16.05,-8.13 33.55,-12.19 50.89,-12.19 26.18,0 52,9.26 72.04,28.12 3.86,3.6 7.38,7.46 10.54,11.53 1.02,-0.86 2.07,-1.68 3.17,-2.46 -0.75,-0.67 -1.49,-1.33 -2.19,-2 -18.16,-17.03 -28.63,-39.14 -31.49,-62.34 m -155.58,93.79 c -0.94,0.47 -1.84,0.94 -2.77,1.37 0.15,1.29 0.35,2.57 0.54,3.82 0.71,-1.71 1.45,-3.47 2.23,-5.19"
         style="fill:#cb1e25;fill-opacity:1;fill-rule:nonzero;stroke:none"
         id="path2911" />
      <path
         d="m 2530.59,1567.03 c -42.78,-40.15 -111.76,-36.91 -154.14,7.23 -42.43,44.14 -42.11,112.5 0.66,152.65 42.73,40.16 111.76,36.92 154.14,-7.22 42.38,-44.14 42.07,-112.5 -0.66,-152.66"
         style="fill:#de1937;fill-opacity:1;fill-rule:nonzero;stroke:none"
         id="path2913" />
      <path
         d="m 2362.97,1673.91 c 10.35,20.86 21.37,35.27 32.11,45.11 7.42,-3.82 15.15,-6.79 23.04,-8.9 l -55.15,-36.21"
         style="fill:#ed1b51;fill-opacity:1;fill-rule:nonzero;stroke:none"
         id="path2915" />
      <path
         d="m 2458.55,1538.91 c -0.03,0 -0.03,0 -0.03,0 0,0 0,0 0.03,0 m 0,0 c 26.02,0 51.72,9.21 71.72,27.85 -20,-18.64 -45.7,-27.85 -71.72,-27.85 m 72.04,28.12 c 0.07,0.08 0.11,0.16 0.19,0.2 -0.08,-0.04 -0.12,-0.12 -0.19,-0.2 m 0.31,0.27 c 0.04,0.08 0.08,0.12 0.12,0.16 -0.04,-0.04 -0.08,-0.12 -0.12,-0.16 m 0.19,0.24 c 0.08,0.04 0.12,0.08 0.16,0.12 -0.04,-0.04 -0.08,-0.08 -0.16,-0.12 m 0.32,0.31 c 0.04,0 0.07,0.04 0.11,0.08 -0.04,-0.04 -0.07,-0.08 -0.11,-0.08 m 0.23,0.2 c 0.04,0.04 0.08,0.07 0.08,0.07 0,0 -0.04,-0.03 -0.08,-0.07 m 0.24,0.23 c 0,0 0.03,0 0.03,0.04 0,-0.04 -0.03,-0.04 -0.03,-0.04 m 0.54,0.55 v 0"
         style="fill:#ea4c78;fill-opacity:1;fill-rule:nonzero;stroke:none"
         id="path2917" />
      <path
         d="m 2458.55,1538.91 c -0.03,0 -0.03,0 -0.03,0 -16.33,0 -32.78,3.63 -48.01,10.82 2.42,19.68 -0.71,40.11 -9.34,58.9 16.02,-8.08 33.52,-12.18 50.86,-12.18 26.13,0 51.99,9.29 72.03,28.12 9.18,8.63 16.41,18.59 21.6,29.3 0.55,-0.63 1.14,-1.21 1.68,-1.84 0.04,-0.04 0.08,-0.08 0.12,-0.12 0.04,-0.03 0.08,-0.07 0.16,-0.11 0.04,-0.04 0.08,-0.12 0.11,-0.16 0.04,-0.04 0.04,-0.08 0.08,-0.08 0.08,-0.08 0.16,-0.15 0.2,-0.19 0.04,-0.04 0.04,-0.04 0.08,-0.08 0.03,-0.08 0.11,-0.16 0.19,-0.24 0.24,-0.23 0.47,-0.46 0.74,-0.74 4.34,-4.41 8.91,-8.43 13.71,-12.03 -0.93,-25.55 -11.05,-50.43 -30.31,-69.45 -0.15,-0.2 -0.35,-0.35 -0.51,-0.51 0,-0.04 -0.03,-0.04 -0.03,-0.04 -0.04,-0.04 -0.08,-0.12 -0.16,-0.16 0,0 -0.04,-0.03 -0.08,-0.07 -0.04,-0.04 -0.08,-0.08 -0.12,-0.12 -0.04,-0.04 -0.07,-0.08 -0.11,-0.08 -0.04,-0.08 -0.08,-0.12 -0.16,-0.19 -0.04,-0.04 -0.08,-0.08 -0.16,-0.12 0,-0.04 -0.04,-0.08 -0.07,-0.08 -0.04,-0.04 -0.08,-0.08 -0.12,-0.16 -0.04,0 -0.08,-0.03 -0.12,-0.07 -0.08,-0.04 -0.12,-0.12 -0.19,-0.2 -0.12,-0.08 -0.24,-0.19 -0.32,-0.27 -20,-18.64 -45.7,-27.85 -71.72,-27.85 m -110.07,124.29 c -0.9,0.43 -1.84,0.9 -2.74,1.33 0.16,1.25 0.35,2.54 0.55,3.79 0.66,-1.72 1.41,-3.44 2.19,-5.12"
         style="fill:#cb1e25;fill-opacity:1;fill-rule:nonzero;stroke:none"
         id="path2919" />
      <path
         d="m 2379.02,1487.38 c -42.73,-40.15 -111.75,-36.91 -154.14,7.23 -42.38,44.14 -42.07,112.5 0.67,152.66 42.77,40.15 111.75,36.91 154.18,-7.23 42.38,-44.14 42.07,-112.5 -0.71,-152.66"
         style="fill:#de1937;fill-opacity:1;fill-rule:nonzero;stroke:none"
         id="path2921" />
      <path
         d="m 2243.98,1615.66 c 4.34,9.81 7.07,20.2 8.21,30.79 14.76,10.54 28.47,13.2 38.47,13.2 10,0 16.33,-2.66 16.33,-2.66 l -63.01,-41.33"
         style="fill:#ed1b51;fill-opacity:1;fill-rule:nonzero;stroke:none"
         id="path2923" />
      <path
         d="m 2306.99,1459.26 h -0.04 0.04 m 0.04,0 c 25.74,0 51.17,9.02 71.09,27.3 -19.92,-18.28 -45.35,-27.3 -71.09,-27.3 m 71.99,28.12 c 0.08,0.08 0.16,0.16 0.24,0.24 -0.08,-0.08 -0.16,-0.16 -0.24,-0.24 m 0.32,0.28 c 0.04,0.07 0.07,0.11 0.15,0.15 -0.04,-0.04 -0.11,-0.08 -0.15,-0.15 m 0.23,0.23 c 0.12,0.16 0.27,0.27 0.43,0.43 -0.16,-0.16 -0.27,-0.27 -0.43,-0.43 m 0.51,0.51 c 0.04,0.04 0.12,0.08 0.15,0.15 -0.03,-0.07 -0.11,-0.11 -0.15,-0.15 m 0.23,0.19 c 0.04,0.08 0.12,0.16 0.2,0.2 -0.08,-0.04 -0.16,-0.12 -0.2,-0.2 m 0.2,0.24 c 0.08,0.08 0.15,0.12 0.23,0.19 -0.08,-0.07 -0.15,-0.11 -0.23,-0.19 m 0.31,0.27 c 0.04,0.04 0.08,0.12 0.12,0.16 -0.04,-0.04 -0.08,-0.12 -0.12,-0.16 m 0.23,0.24 c 0.04,0.04 0.12,0.11 0.16,0.15 -0.04,-0.04 -0.12,-0.11 -0.16,-0.15 m 0.2,0.19 c 0.08,0.08 0.16,0.16 0.2,0.24 -0.04,-0.08 -0.12,-0.16 -0.2,-0.24 m 0.27,0.31 c 0.08,0.04 0.12,0.08 0.16,0.12 -0.04,-0.04 -0.08,-0.08 -0.16,-0.12 m 0.24,0.24 c 0.04,0.04 0.12,0.08 0.15,0.12 -0.03,-0.04 -0.11,-0.08 -0.15,-0.12 m 0.27,0.23 c 0.04,0.04 0.08,0.12 0.16,0.16 -0.08,-0.04 -0.12,-0.12 -0.16,-0.16 m 0.24,0.28 c 0.03,0.03 0.07,0.07 0.11,0.11 -0.04,-0.04 -0.08,-0.08 -0.11,-0.11 m 0.23,0.19 c 0.04,0.08 0.08,0.08 0.08,0.12 0,-0.04 -0.04,-0.08 -0.08,-0.12 m 0.27,0.31 c 0.04,0.04 0.08,0.08 0.12,0.12 -0.04,-0.04 -0.08,-0.08 -0.12,-0.12 m 0.24,0.24 c 0.04,0.04 0.04,0.08 0.08,0.08 -0.04,-0.04 -0.04,-0.04 -0.08,-0.08 m 0.19,0.23 c 0.04,0 0.04,0.04 0.08,0.04 -0.04,0 -0.04,-0.04 -0.08,-0.04 m 0.35,0.35 v 0 m 0.16,0.2 c 0,0 0.04,0 0.04,0.04 0,-0.04 -0.04,-0.04 -0.04,-0.04 m 0.2,0.19 c 0,0 0,0 0.04,0 -0.04,0 -0.04,0 -0.04,0 m 0.5,0.55 h 0.04 -0.04 m -158.55,0.74 c -0.31,0.36 -0.66,0.67 -0.98,1.02 -0.08,0.08 -0.11,0.12 -0.19,0.19 0.08,-0.03 0.11,-0.11 0.19,-0.19 0.32,-0.35 0.67,-0.66 0.98,-1.02"
         style="fill:#c14163;fill-opacity:1;fill-rule:nonzero;stroke:none"
         id="path2925" />
      <path
         d="m 2306.99,1459.26 h -0.04 c -29.14,0 -58.71,11.56 -81.09,34.33 -0.31,0.36 -0.66,0.67 -0.98,1.02 -0.08,0.08 -0.11,0.16 -0.19,0.19 -18.99,19.93 -29.3,44.69 -31.02,69.58 3.63,1.67 7.15,3.59 10.59,5.74 4.02,-6.33 8.71,-12.35 14.14,-17.97 22.5,-23.44 52.5,-35.35 82.11,-35.35 26.13,0.04 51.95,9.29 72.03,28.16 17.15,16.09 27.34,36.76 30.82,58.56 15,-37.47 8.67,-80.55 -18.91,-110.67 h -0.04 c -0.15,-0.15 -0.31,-0.35 -0.46,-0.55 -0.04,0 -0.04,0 -0.04,0 -0.04,-0.03 -0.08,-0.11 -0.16,-0.15 0,-0.04 -0.04,-0.04 -0.04,-0.04 -0.04,-0.08 -0.08,-0.12 -0.16,-0.2 -0.07,-0.07 -0.19,-0.19 -0.27,-0.31 -0.04,0 -0.04,-0.04 -0.08,-0.04 -0.04,-0.08 -0.08,-0.11 -0.11,-0.15 -0.04,0 -0.04,-0.04 -0.08,-0.08 -0.04,-0.04 -0.08,-0.08 -0.12,-0.12 -0.04,-0.04 -0.08,-0.08 -0.12,-0.12 -0.04,-0.04 -0.11,-0.11 -0.19,-0.19 0,-0.04 -0.04,-0.04 -0.08,-0.12 -0.04,-0.04 -0.08,-0.04 -0.12,-0.08 -0.04,-0.04 -0.08,-0.08 -0.11,-0.11 -0.04,-0.04 -0.04,-0.08 -0.08,-0.12 -0.08,-0.04 -0.12,-0.12 -0.16,-0.16 -0.04,-0.04 -0.08,-0.08 -0.12,-0.11 -0.03,-0.04 -0.11,-0.08 -0.15,-0.12 0,-0.04 -0.04,-0.08 -0.08,-0.12 -0.04,-0.04 -0.08,-0.08 -0.16,-0.12 0,-0.04 -0.04,-0.07 -0.07,-0.07 -0.04,-0.08 -0.12,-0.16 -0.2,-0.24 0,0 -0.04,0 -0.04,-0.04 -0.04,-0.04 -0.12,-0.11 -0.16,-0.15 -0.03,-0.04 -0.07,-0.04 -0.11,-0.08 -0.04,-0.04 -0.08,-0.12 -0.12,-0.16 -0.04,-0.04 -0.08,-0.04 -0.08,-0.08 -0.08,-0.07 -0.15,-0.11 -0.23,-0.19 0,0 0,0 0,-0.04 -0.08,-0.04 -0.16,-0.12 -0.2,-0.2 -0.04,0 -0.08,-0.04 -0.08,-0.04 -0.03,-0.07 -0.11,-0.11 -0.15,-0.15 -0.04,-0.04 -0.04,-0.04 -0.08,-0.08 -0.16,-0.16 -0.31,-0.27 -0.43,-0.43 -0.04,-0.04 -0.08,-0.04 -0.08,-0.08 -0.08,-0.04 -0.11,-0.08 -0.15,-0.15 -0.04,0 -0.04,-0.04 -0.08,-0.04 -0.08,-0.08 -0.16,-0.16 -0.24,-0.24 -0.31,-0.27 -0.58,-0.54 -0.9,-0.82 -19.92,-18.28 -45.35,-27.3 -71.09,-27.3 h -0.04"
         style="fill:#cb1e25;fill-opacity:1;fill-rule:nonzero;stroke:none"
         id="path2927" />
      <path
         d="m 2220.55,1582.58 c -42.74,-40.16 -111.76,-36.92 -154.14,7.22 -42.39,44.15 -42.07,112.5 0.66,152.66 42.77,40.16 111.8,36.92 154.14,-7.23 42.38,-44.14 42.11,-112.46 -0.66,-152.65"
         style="fill:#de1937;fill-opacity:1;fill-rule:nonzero;stroke:none"
         id="path2929" />
      <path
         d="m 2052.97,1689.45 c 27.65,55.78 60.15,65.39 79.22,65.39 10,0 16.33,-2.65 16.33,-2.65 l -95.55,-62.74"
         style="fill:#ed1b51;fill-opacity:1;fill-rule:nonzero;stroke:none"
         id="path2931" />
      <path
         d="m 2148.52,1554.45 c -29.61,0 -59.61,11.92 -82.11,35.35 -0.08,0.08 -0.16,0.16 -0.24,0.24 0.08,-0.08 0.16,-0.16 0.24,-0.24 22.5,-23.43 52.5,-35.35 82.11,-35.35 15.5,0 30.89,3.28 45.03,9.89 -14.14,-6.61 -29.53,-9.89 -45.03,-9.89"
         style="fill:#ea4c78;fill-opacity:1;fill-rule:nonzero;stroke:none"
         id="path2933" />
      <path
         d="m 2193.55,1564.34 c 0.04,0 0.08,0 0.12,0.04 -0.04,-0.04 -0.08,-0.04 -0.12,-0.04 m 10.71,5.78 c 5.66,3.47 11.05,7.58 16.05,12.26 -5,-4.68 -10.39,-8.79 -16.05,-12.26"
         style="fill:#cb1e25;fill-opacity:1;fill-rule:nonzero;stroke:none"
         id="path2935" />
      <path
         d="m 2193.67,1564.38 c 3.63,1.67 7.15,3.59 10.59,5.74 -3.44,-2.15 -6.96,-4.07 -10.59,-5.74"
         style="fill:#b71d24;fill-opacity:1;fill-rule:nonzero;stroke:none"
         id="path2937" />
      <path
         d="m 2220.55,1582.58 c 0.07,0.08 0.15,0.15 0.23,0.23 -0.08,-0.08 -0.16,-0.15 -0.23,-0.23 m 0.31,0.31 c 0.04,0.04 0.08,0.08 0.16,0.12 -0.08,-0.04 -0.12,-0.08 -0.16,-0.12 m 0.23,0.2 c 0.04,0.03 0.08,0.11 0.12,0.15 -0.04,-0.04 -0.08,-0.12 -0.12,-0.15 m 0.32,0.31 c 0.04,0.04 0.07,0.08 0.07,0.08 0,0 -0.03,-0.04 -0.07,-0.08 m 0.23,0.23 c 0,0 0.04,0.04 0.08,0.08 -0.04,-0.04 -0.08,-0.08 -0.08,-0.08 m 0.2,0.2 c 0.04,0 0.04,0.04 0.04,0.04 0,0 0,-0.04 -0.04,-0.04 m 0.54,0.55 c 0.04,0 0.04,0 0.04,0 0,0 0,0 -0.04,0"
         style="fill:#cb1e25;fill-opacity:1;fill-rule:nonzero;stroke:none"
         id="path2939" />
      <path
         d="m 2066.13,1590.08 c -0.08,0.08 -0.11,0.15 -0.19,0.23 0.08,-0.08 0.11,-0.15 0.19,-0.23 m -0.23,0.27 c -0.08,0.08 -0.16,0.16 -0.2,0.2 0.04,-0.04 0.12,-0.12 0.2,-0.2 m -0.28,0.27 c -0.03,0.04 -0.11,0.12 -0.15,0.16 0.04,-0.04 0.12,-0.12 0.15,-0.16 m -0.23,0.28 c -0.08,0.04 -0.12,0.12 -0.16,0.15 0.04,-0.03 0.08,-0.11 0.16,-0.15 m -0.27,0.27 c -0.04,0.04 -0.04,0.04 -0.08,0.08 0.04,-0.04 0.04,-0.04 0.08,-0.08"
         style="fill:#ea4c78;fill-opacity:1;fill-rule:nonzero;stroke:none"
         id="path2941" />
      <path
         d="m 2148.52,1554.45 c -29.61,0 -59.61,11.92 -82.11,35.35 -0.08,0.08 -0.16,0.16 -0.24,0.24 l -0.04,0.04 c -0.08,0.08 -0.11,0.15 -0.19,0.23 -0.04,0 -0.04,0.04 -0.04,0.04 -0.08,0.08 -0.16,0.16 -0.2,0.2 -0.04,0.04 -0.04,0.04 -0.08,0.07 -0.03,0.04 -0.11,0.12 -0.15,0.16 -0.04,0.04 -0.08,0.08 -0.08,0.12 -0.08,0.04 -0.12,0.12 -0.16,0.15 -0.03,0.04 -0.07,0.08 -0.11,0.12 -0.04,0.04 -0.04,0.04 -0.08,0.08 -24.38,26.25 -33.87,60.66 -28.79,92.62 5.27,-13.13 13.13,-25.55 23.63,-36.53 22.54,-23.43 52.54,-35.35 82.11,-35.35 26.17,0 51.99,9.34 72.07,28.17 17.15,16.09 27.35,36.75 30.82,58.55 15.63,-38.98 8.13,-84.1 -22.46,-114.33 0,0 0,0 -0.04,0 -0.15,-0.16 -0.31,-0.36 -0.5,-0.51 0,0 0,-0.04 -0.04,-0.04 -0.04,-0.04 -0.08,-0.08 -0.12,-0.12 -0.04,-0.04 -0.08,-0.08 -0.08,-0.08 -0.04,-0.04 -0.08,-0.08 -0.16,-0.15 0,0 -0.03,-0.04 -0.07,-0.08 -0.04,-0.04 -0.12,-0.12 -0.2,-0.16 -0.04,-0.04 -0.08,-0.12 -0.12,-0.15 -0.04,0 -0.07,-0.04 -0.07,-0.08 -0.08,-0.04 -0.12,-0.08 -0.16,-0.12 -0.04,-0.04 -0.08,-0.08 -0.08,-0.08 -0.08,-0.08 -0.16,-0.15 -0.23,-0.23 -0.08,-0.04 -0.16,-0.16 -0.24,-0.2 -5,-4.68 -10.39,-8.79 -16.05,-12.26 -3.44,-2.15 -6.96,-4.07 -10.59,-5.74 -0.04,-0.04 -0.08,-0.04 -0.12,-0.04 -14.14,-6.61 -29.53,-9.89 -45.03,-9.89"
         style="fill:#cb1e25;fill-opacity:1;fill-rule:nonzero;stroke:none"
         id="path2943" />
      <path
         d="m 2409.38,1988.59 c -42.74,-40.15 -111.76,-36.91 -154.15,7.23 -42.38,44.14 -42.07,112.5 0.71,152.66 42.73,40.15 111.76,36.91 154.14,-7.23 42.38,-44.14 42.07,-112.46 -0.7,-152.66"
         style="fill:#de1937;fill-opacity:1;fill-rule:nonzero;stroke:none"
         id="path2945" />
      <path
         d="m 2241.8,2095.47 c 27.65,55.78 60.15,65.39 79.25,65.39 10,0 16.29,-2.66 16.29,-2.66 l -95.54,-62.73"
         style="fill:#ed1b51;fill-opacity:1;fill-rule:nonzero;stroke:none"
         id="path2947" />
      <path
         d="m 2369.02,2000.9 c -8.86,7.38 -18.55,13.2 -28.75,17.54 10.24,0.9 20.32,3.2 29.93,6.99 -1.33,-8.09 -1.72,-16.33 -1.18,-24.53 m -127.11,11.64 c -15.39,23.59 -20.97,51.29 -16.79,77.34 5.23,-13.12 13.12,-25.54 23.63,-36.52 11.21,-11.64 24.26,-20.47 38.2,-26.37 -15.78,-1.37 -31.17,-6.17 -45.04,-14.45 m 191.68,91.6 c 0.04,0.2 0.08,0.39 0.12,0.63 0.08,-0.2 0.12,-0.36 0.2,-0.51 -0.08,-0.04 -0.2,-0.08 -0.32,-0.12"
         style="fill:#cb1e25;fill-opacity:1;fill-rule:nonzero;stroke:none"
         id="path2949" />
      <path
         d="m 2518.95,1734.49 c -42.78,-40.15 -111.76,-36.95 -154.18,7.23 -42.35,44.14 -42.07,112.46 0.7,152.66 42.73,40.15 111.76,36.91 154.14,-7.23 42.38,-44.14 42.07,-112.5 -0.66,-152.66"
         style="fill:#de1937;fill-opacity:1;fill-rule:nonzero;stroke:none"
         id="path2951" />
      <path
         d="m 2402.27,1874.8 c 3.71,8.99 6.09,18.4 7.18,28.05 7.97,2.93 15.2,3.87 21.14,3.87 1.05,0 2.11,-0.04 3.08,-0.08 3.44,-1.64 6.92,-3.12 10.43,-4.37 l -41.83,-27.47"
         style="fill:#ed1b51;fill-opacity:1;fill-rule:nonzero;stroke:none"
         id="path2953" />
      <path
         d="m 2446.91,1706.37 c 25.2,0 50.12,8.63 69.85,26.13 -19.73,-17.5 -44.61,-26.13 -69.85,-26.13"
         style="fill:#cb1e25;fill-opacity:1;fill-rule:nonzero;stroke:none"
         id="path2955" />
      <path
         d="m 2364.77,1741.72 c -0.04,0.08 -0.12,0.16 -0.2,0.23 0.08,-0.07 0.16,-0.15 0.2,-0.23 m -0.24,0.27 c -0.08,0.04 -0.15,0.16 -0.23,0.2 0.08,-0.04 0.15,-0.16 0.23,-0.2 m -0.27,0.28 c -0.08,0.03 -0.12,0.11 -0.2,0.19 0.08,-0.08 0.12,-0.16 0.2,-0.19 m -0.24,0.23 c -0.07,0.08 -0.11,0.12 -0.15,0.2 0.04,-0.08 0.08,-0.12 0.15,-0.2 m -0.23,0.27 c -0.08,0.08 -0.16,0.12 -0.2,0.2 0.04,-0.08 0.12,-0.12 0.2,-0.2 m -0.31,0.32 c 0,0 -0.04,0.03 -0.08,0.07 0.04,-0.04 0.08,-0.07 0.08,-0.07 m -0.28,0.31 c -0.04,0 -0.04,0.04 -0.04,0.04 l 0.04,-0.04"
         style="fill:#cb1e25;fill-opacity:1;fill-rule:nonzero;stroke:none"
         id="path2957" />
      <path
         d="m 2446.91,1706.37 c -0.03,0 -0.03,0 -0.03,0 -29.61,0 -59.61,11.91 -82.11,35.35 -0.04,0.08 -0.12,0.16 -0.2,0.23 -0.04,0 -0.04,0 -0.04,0.04 -0.08,0.04 -0.15,0.16 -0.23,0.2 0,0.04 0,0.04 -0.04,0.08 -0.08,0.03 -0.12,0.11 -0.2,0.19 l -0.04,0.04 c -0.07,0.08 -0.11,0.12 -0.15,0.2 -0.04,0.03 -0.08,0.03 -0.08,0.07 -0.08,0.08 -0.16,0.12 -0.2,0.2 -0.04,0.04 -0.07,0.08 -0.11,0.12 0,0 -0.04,0.03 -0.08,0.07 -0.04,0.08 -0.12,0.16 -0.2,0.24 l -0.04,0.04 c -18.94,20.54 -28.82,46.01 -29.76,71.36 3.44,0.94 6.87,2.04 10.19,3.29 4.14,-6.64 9.03,-12.93 14.69,-18.83 22.5,-23.44 52.5,-35.35 82.11,-35.35 26.13,0 51.99,9.29 72.03,28.12 17.19,16.13 27.38,36.8 30.82,58.59 5.82,-14.49 8.44,-29.84 7.85,-44.96 -0.7,-0.62 -1.4,-1.28 -2.14,-1.95 -20.43,-19.22 -31.18,-44.84 -32.19,-71.21 -19.73,-17.5 -44.65,-26.13 -69.85,-26.13"
         style="fill:#cb1e25;fill-opacity:1;fill-rule:nonzero;stroke:none"
         id="path2959" />
      <path
         d="m 2702.42,1643.87 c -42.73,-40.2 -111.76,-36.96 -154.14,7.18 -42.38,44.15 -42.07,112.5 0.67,152.66 42.77,40.16 111.75,36.95 154.17,-7.23 42.39,-44.14 42.08,-112.46 -0.7,-152.61"
         style="fill:#de1937;fill-opacity:1;fill-rule:nonzero;stroke:none"
         id="path2961" />
      <path
         d="m 2534.8,1750.74 c 27.7,55.74 60.2,65.35 79.26,65.35 10,0 16.33,-2.65 16.33,-2.65 l -95.59,-62.7"
         style="fill:#ed1b51;fill-opacity:1;fill-rule:nonzero;stroke:none"
         id="path2963" />
      <path
         d="m 2630.39,1615.7 h -0.04 0.04 m 0.04,0 c 25.82,0.04 51.33,9.1 71.25,27.46 -19.92,-18.36 -45.43,-27.42 -71.25,-27.46 m 71.99,28.17 c 0.08,0.04 0.16,0.11 0.24,0.19 -0.08,-0.08 -0.16,-0.15 -0.24,-0.19 m 0.31,0.27 c 0.04,0.04 0.08,0.08 0.16,0.16 -0.08,-0.08 -0.12,-0.12 -0.16,-0.16 m 0.24,0.2 c 0.08,0.07 0.12,0.15 0.19,0.19 -0.07,-0.04 -0.11,-0.12 -0.19,-0.19 m 0.19,0.23 c 0.08,0.08 0.16,0.12 0.24,0.2 -0.08,-0.08 -0.16,-0.12 -0.24,-0.2 m 0.32,0.27 c 0.04,0.04 0.07,0.08 0.15,0.16 -0.04,-0.08 -0.11,-0.12 -0.15,-0.16 m 0.23,0.24 c 0.04,0.04 0.12,0.12 0.16,0.15 -0.04,-0.03 -0.12,-0.11 -0.16,-0.15 m 0.24,0.19 c 0.03,0.08 0.11,0.16 0.19,0.2 -0.08,-0.04 -0.16,-0.12 -0.19,-0.2 m 0.27,0.32 c 0.04,0.03 0.08,0.07 0.12,0.11 -0.04,-0.04 -0.08,-0.08 -0.12,-0.11 m 0.23,0.19 c 0.04,0.08 0.08,0.12 0.16,0.16 -0.08,-0.04 -0.12,-0.08 -0.16,-0.16 m 0.24,0.24 c 0.04,0.07 0.11,0.11 0.15,0.19 -0.04,-0.08 -0.11,-0.12 -0.15,-0.19 m 0.27,0.27 c 0.04,0.04 0.08,0.08 0.12,0.12 -0.04,-0.04 -0.08,-0.08 -0.12,-0.12 m 0.2,0.23 c 0.04,0.04 0.07,0.08 0.11,0.12 -0.04,-0.04 -0.07,-0.08 -0.11,-0.12 m 0.31,0.28 c 0.04,0.04 0.08,0.08 0.12,0.11 -0.04,-0.03 -0.08,-0.07 -0.12,-0.11 m 0.19,0.23 c 0.04,0.04 0.08,0.08 0.12,0.12 -0.04,-0.04 -0.08,-0.08 -0.12,-0.12 m 0.24,0.24 c 0.04,0.03 0.04,0.03 0.08,0.07 -0.04,-0.04 -0.04,-0.04 -0.08,-0.07 m 0.51,0.54 c 0.04,0 0.04,0.04 0.04,0.04 0,0 0,-0.04 -0.04,-0.04 m 0.19,0.2 c 0,0 0.04,0 0.04,0.04 0,-0.04 -0.04,-0.04 -0.04,-0.04 m 0.55,0.54 c 0,0 0,0 0,0.04 0,-0.04 0,-0.04 0,-0.04"
         style="fill:#ea4c78;fill-opacity:1;fill-rule:nonzero;stroke:none"
         id="path2965" />
      <path
         d="m 2549.02,1650.31 c -0.27,0.28 -0.5,0.51 -0.74,0.74 -0.08,0.08 -0.16,0.16 -0.19,0.24 0.03,-0.08 0.11,-0.16 0.19,-0.24 0.24,-0.23 0.47,-0.46 0.74,-0.74 m -1.01,1.06 c -0.04,0.04 -0.12,0.11 -0.2,0.19 0.08,-0.08 0.16,-0.15 0.2,-0.19 m -0.28,0.27 c -0.03,0.04 -0.07,0.12 -0.11,0.16 0.04,-0.04 0.08,-0.12 0.11,-0.16 m -0.27,0.27 c -0.04,0.04 -0.08,0.08 -0.12,0.12 0.04,-0.04 0.08,-0.08 0.12,-0.12"
         style="fill:#b71d24;fill-opacity:1;fill-rule:nonzero;stroke:none"
         id="path2967" />
      <path
         d="m 2630.39,1615.7 h -0.04 c -29.26,0.04 -58.94,11.68 -81.33,34.61 -0.27,0.28 -0.5,0.51 -0.74,0.74 -0.08,0.08 -0.16,0.16 -0.19,0.24 -0.04,0.04 -0.04,0.04 -0.08,0.08 -0.04,0.04 -0.12,0.11 -0.2,0.19 -0.04,0 -0.04,0.04 -0.08,0.08 -0.03,0.04 -0.07,0.12 -0.11,0.16 -0.04,0.04 -0.12,0.08 -0.16,0.11 -0.04,0.04 -0.08,0.08 -0.12,0.12 -24.68,26.33 -34.33,60.98 -29.22,93.09 5.28,-13.13 13.17,-25.55 23.68,-36.49 22.5,-23.47 52.5,-35.35 82.11,-35.35 26.13,0 51.99,9.3 72.03,28.13 17.15,16.09 27.34,36.75 30.82,58.55 15.12,-37.77 8.59,-81.25 -19.61,-111.37 0,-0.04 0,-0.04 0,-0.04 -0.2,-0.15 -0.35,-0.35 -0.51,-0.5 0,-0.04 -0.04,-0.04 -0.04,-0.04 -0.04,-0.04 -0.08,-0.12 -0.15,-0.16 0,0 0,-0.04 -0.04,-0.04 -0.12,-0.15 -0.32,-0.31 -0.43,-0.47 -0.04,-0.04 -0.04,-0.04 -0.08,-0.07 -0.04,-0.04 -0.08,-0.08 -0.12,-0.12 -0.04,-0.04 -0.08,-0.08 -0.12,-0.12 0,-0.04 -0.07,-0.08 -0.07,-0.12 -0.04,-0.03 -0.08,-0.07 -0.12,-0.11 -0.08,-0.04 -0.12,-0.12 -0.2,-0.16 -0.04,-0.04 -0.07,-0.08 -0.11,-0.12 0,-0.04 -0.04,-0.07 -0.08,-0.11 -0.04,-0.04 -0.08,-0.08 -0.12,-0.12 -0.04,0 -0.08,-0.08 -0.12,-0.08 -0.04,-0.08 -0.11,-0.12 -0.15,-0.19 -0.04,0 -0.08,-0.04 -0.08,-0.08 -0.08,-0.04 -0.12,-0.08 -0.16,-0.16 -0.04,-0.04 -0.07,-0.04 -0.11,-0.08 -0.04,-0.04 -0.08,-0.08 -0.12,-0.11 -0.04,-0.04 -0.08,-0.08 -0.08,-0.12 -0.08,-0.04 -0.16,-0.12 -0.19,-0.2 -0.04,0 -0.04,0 -0.08,-0.04 -0.04,-0.03 -0.12,-0.11 -0.16,-0.15 -0.04,-0.04 -0.08,-0.04 -0.08,-0.08 -0.08,-0.08 -0.11,-0.12 -0.15,-0.16 -0.04,-0.04 -0.04,-0.04 -0.08,-0.07 -0.08,-0.08 -0.16,-0.12 -0.24,-0.2 0,0 0,0 0,-0.04 -0.07,-0.04 -0.11,-0.12 -0.19,-0.19 -0.04,0 -0.08,-0.04 -0.08,-0.04 -0.08,-0.08 -0.12,-0.12 -0.16,-0.16 -0.03,-0.04 -0.03,-0.04 -0.07,-0.08 -0.08,-0.08 -0.16,-0.15 -0.24,-0.19 -0.23,-0.24 -0.51,-0.47 -0.74,-0.71 -19.92,-18.36 -45.43,-27.42 -71.25,-27.46 h -0.04"
         style="fill:#cb1e25;fill-opacity:1;fill-rule:nonzero;stroke:none"
         id="path2969" />
      <path
         d="m 2377.81,1839.41 c -42.73,-40.19 -111.76,-36.95 -154.14,7.19 -42.34,44.14 -42.07,112.5 0.71,152.66 42.73,40.15 111.75,36.91 154.14,-7.23 42.38,-44.14 42.07,-112.46 -0.71,-152.62"
         style="fill:#de1937;fill-opacity:1;fill-rule:nonzero;stroke:none"
         id="path2971" />
      <path
         d="m 2210.23,1946.25 c 27.66,55.78 60.16,65.39 79.26,65.39 10,0 16.29,-2.66 16.29,-2.66 l -95.55,-62.73"
         style="fill:#ed1b51;fill-opacity:1;fill-rule:nonzero;stroke:none"
         id="path2973" />
      <path
         d="m 2305.78,1811.29 c 0,0 0,0 -0.04,0 0.04,0 0.04,0 0.04,0 m 0.04,0 c 9.3,0 18.52,1.13 27.46,3.51 -8.94,-2.38 -18.16,-3.51 -27.46,-3.51"
         style="fill:#cb1e25;fill-opacity:1;fill-rule:nonzero;stroke:none"
         id="path2975" />
      <path
         d="m 2333.28,1814.8 c 0.04,0 0.08,0 0.12,0 -0.04,0 -0.08,0 -0.12,0 m 10.31,3.29 c 12.19,4.57 23.6,11.48 33.64,20.74 -10.04,-9.26 -21.45,-16.17 -33.64,-20.74"
         style="fill:#cb1e25;fill-opacity:1;fill-rule:nonzero;stroke:none"
         id="path2977" />
      <path
         d="m 2333.4,1814.8 c 3.44,0.94 6.87,2.04 10.19,3.29 -3.32,-1.25 -6.75,-2.35 -10.19,-3.29"
         style="fill:#b71d24;fill-opacity:1;fill-rule:nonzero;stroke:none"
         id="path2979" />
      <path
         d="m 2377.81,1839.41 c 0.08,0.04 0.16,0.12 0.24,0.2 -0.08,-0.08 -0.16,-0.16 -0.24,-0.2 m 0.31,0.28 c 0.04,0.04 0.12,0.08 0.16,0.15 -0.04,-0.07 -0.12,-0.11 -0.16,-0.15 m 0.24,0.19 c 0.08,0.08 0.16,0.16 0.19,0.2 -0.03,-0.04 -0.11,-0.12 -0.19,-0.2 m 0.23,0.24 c 0.04,0.08 0.12,0.11 0.2,0.19 -0.08,-0.08 -0.16,-0.11 -0.2,-0.19 m 0.28,0.27 c 0.08,0.04 0.11,0.12 0.15,0.16 -0.04,-0.04 -0.07,-0.12 -0.15,-0.16 m 0.23,0.23 c 0.04,0.04 0.12,0.12 0.2,0.16 -0.08,-0.04 -0.16,-0.12 -0.2,-0.16 m 0.24,0.24 c 0.07,0.04 0.11,0.12 0.19,0.16 -0.08,-0.04 -0.12,-0.12 -0.19,-0.16 m 0.27,0.27 c 0.04,0.04 0.12,0.08 0.16,0.12 -0.08,-0.04 -0.12,-0.08 -0.16,-0.12 m 0.23,0.2 c 0.04,0.08 0.08,0.12 0.16,0.15 -0.08,-0.03 -0.12,-0.07 -0.16,-0.15 m 0.24,0.23 c 0.08,0.08 0.12,0.12 0.15,0.2 -0.03,-0.08 -0.07,-0.12 -0.15,-0.2 m 0.27,0.28 c 0.04,0.04 0.08,0.07 0.12,0.11 -0.04,-0.04 -0.08,-0.07 -0.12,-0.11 m 0.24,0.23 c 0.03,0.04 0.07,0.08 0.11,0.12 -0.04,-0.04 -0.08,-0.08 -0.11,-0.12 m 0.27,0.27 c 0.04,0.04 0.08,0.08 0.12,0.12 -0.04,-0.04 -0.08,-0.08 -0.12,-0.12 m 0.23,0.24 c 0,0.04 0.04,0.08 0.08,0.12 -0.04,-0.04 -0.08,-0.08 -0.08,-0.12 m 0.2,0.23 c 0.04,0 0.08,0.04 0.08,0.08 0,-0.04 -0.04,-0.04 -0.08,-0.08 m 0.35,0.35 c 0,0 0,0 0.04,0.04 -0.04,-0.04 -0.04,-0.04 -0.04,-0.04 m 0.16,0.2 c 0.04,0 0.04,0.04 0.08,0.04 -0.04,0 -0.04,-0.04 -0.08,-0.04 m 0.19,0.19 c 0.04,0 0.04,0.04 0.08,0.04 -0.04,0 -0.04,-0.04 -0.08,-0.04 m 0.39,0.4 v 0 m 0.12,0.15 c 0.04,0 0.04,0 0.08,0.04 -0.04,-0.04 -0.04,-0.04 -0.08,-0.04 m 0.2,0.2 c 0.03,0 0.03,0.04 0.03,0.04 0,0 0,-0.04 -0.03,-0.04 m 0.5,0.54 c 0.04,0 0.04,0.04 0.04,0.04 0,0 0,-0.04 -0.04,-0.04"
         style="fill:#cb1e25;fill-opacity:1;fill-rule:nonzero;stroke:none"
         id="path2981" />
      <path
         d="m 2224.41,1845.86 c -0.11,0.12 -0.27,0.27 -0.39,0.39 0.12,-0.12 0.28,-0.27 0.39,-0.39 m -0.58,0.59 c -0.04,0.07 -0.12,0.11 -0.16,0.15 -0.08,0.12 -0.15,0.2 -0.23,0.28 0.08,-0.08 0.15,-0.16 0.23,-0.28 0.04,-0.04 0.12,-0.08 0.16,-0.15 m -0.39,0.43 c -0.08,0.07 -0.16,0.15 -0.24,0.27 0.08,-0.12 0.16,-0.2 0.24,-0.27 m -0.28,0.27 c -0.15,0.15 -0.31,0.31 -0.46,0.51 0.15,-0.2 0.31,-0.36 0.46,-0.51 m -0.46,0.51 c -0.08,0.07 -0.16,0.15 -0.24,0.23 0.08,-0.08 0.16,-0.16 0.24,-0.23 m -0.24,0.27 c -0.16,0.16 -0.31,0.31 -0.47,0.51 0.16,-0.2 0.31,-0.35 0.47,-0.51 m -0.51,0.51 c -0.07,0.08 -0.11,0.15 -0.19,0.23 0.04,-0.08 0.12,-0.15 0.19,-0.23 m -0.23,0.31 c -0.08,0.04 -0.16,0.12 -0.2,0.2 0.04,-0.08 0.12,-0.16 0.2,-0.2 m -0.27,0.27 c -0.04,0.04 -0.08,0.08 -0.12,0.12 0.04,-0.04 0.08,-0.08 0.12,-0.12 m -0.24,0.28 v 0"
         style="fill:#cb1e25;fill-opacity:1;fill-rule:nonzero;stroke:none"
         id="path2983" />
      <path
         d="m 2305.78,1811.29 c 0,0 0,0 -0.04,0 -29.26,0 -58.9,11.64 -81.33,34.57 -0.11,0.12 -0.27,0.27 -0.39,0.39 -0.04,0.08 -0.11,0.16 -0.19,0.2 -0.04,0.07 -0.12,0.11 -0.16,0.15 -0.08,0.12 -0.15,0.2 -0.23,0.28 -0.08,0.07 -0.16,0.15 -0.24,0.27 h -0.04 c -0.15,0.15 -0.31,0.31 -0.46,0.51 -0.08,0.07 -0.16,0.15 -0.24,0.23 v 0.04 c -0.16,0.16 -0.31,0.31 -0.47,0.51 -0.04,0 -0.04,0 -0.04,0 -0.07,0.08 -0.15,0.15 -0.19,0.23 -0.04,0.04 -0.04,0.04 -0.04,0.08 -0.08,0.04 -0.16,0.12 -0.2,0.2 -0.04,0 -0.07,0.03 -0.07,0.07 -0.04,0.04 -0.08,0.08 -0.12,0.12 -0.04,0.08 -0.08,0.12 -0.12,0.16 -23.55,26.05 -32.69,59.92 -27.69,91.36 5.27,-13.12 13.16,-25.54 23.67,-36.52 22.5,-23.44 52.5,-35.31 82.11,-35.31 26.13,0 51.99,9.26 72.03,28.12 11.6,10.9 20.04,23.87 25.35,37.89 0.9,-1.01 1.84,-2.07 2.77,-3.08 0.04,-0.04 0.08,-0.04 0.12,-0.12 0.04,-0.04 0.08,-0.08 0.12,-0.12 0.04,-0.04 0.08,-0.11 0.15,-0.15 0,-0.04 0.04,-0.04 0.04,-0.08 0.08,-0.08 0.16,-0.16 0.24,-0.2 0,-0.04 0.04,-0.04 0.04,-0.07 0.07,-0.04 0.15,-0.12 0.19,-0.24 0.35,-0.31 0.67,-0.66 1.02,-0.98 2.69,-2.77 5.54,-5.39 8.47,-7.85 1.88,-27.77 -6.99,-55.7 -26.6,-77.07 0,0 0,-0.04 -0.04,-0.04 -0.15,-0.15 -0.31,-0.35 -0.47,-0.5 0,0 0,-0.04 -0.03,-0.04 -0.04,-0.04 -0.08,-0.12 -0.12,-0.16 -0.04,-0.04 -0.04,-0.04 -0.08,-0.04 -0.04,-0.08 -0.08,-0.12 -0.12,-0.15 -0.11,-0.12 -0.23,-0.24 -0.31,-0.36 -0.04,0 -0.04,-0.04 -0.08,-0.04 -0.04,-0.03 -0.08,-0.07 -0.11,-0.15 -0.04,0 -0.04,-0.04 -0.08,-0.04 -0.04,-0.08 -0.08,-0.12 -0.12,-0.16 -0.04,-0.04 -0.04,-0.04 -0.04,-0.04 -0.08,-0.07 -0.19,-0.19 -0.27,-0.27 0,-0.04 -0.04,-0.08 -0.08,-0.08 -0.04,-0.04 -0.08,-0.08 -0.12,-0.11 -0.04,-0.04 -0.08,-0.08 -0.08,-0.12 -0.04,-0.04 -0.07,-0.08 -0.11,-0.12 -0.04,-0.04 -0.08,-0.08 -0.12,-0.12 -0.08,-0.04 -0.12,-0.11 -0.16,-0.15 -0.04,-0.04 -0.08,-0.08 -0.11,-0.12 -0.04,-0.04 -0.08,-0.08 -0.12,-0.12 -0.04,-0.04 -0.08,-0.07 -0.12,-0.11 -0.04,-0.04 -0.08,-0.04 -0.12,-0.08 -0.03,-0.08 -0.07,-0.12 -0.15,-0.2 -0.04,0 -0.04,-0.04 -0.08,-0.08 -0.08,-0.03 -0.12,-0.07 -0.16,-0.15 -0.04,0 -0.07,-0.04 -0.07,-0.08 -0.04,-0.04 -0.12,-0.08 -0.16,-0.12 0,-0.04 -0.04,-0.08 -0.08,-0.11 -0.08,-0.04 -0.12,-0.12 -0.19,-0.16 0,-0.04 -0.04,-0.04 -0.04,-0.08 -0.08,-0.04 -0.16,-0.12 -0.2,-0.16 -0.04,-0.03 -0.04,-0.07 -0.08,-0.07 -0.04,-0.04 -0.07,-0.12 -0.15,-0.16 0,-0.04 -0.04,-0.04 -0.08,-0.08 -0.08,-0.08 -0.16,-0.11 -0.2,-0.19 0,0 -0.04,0 -0.04,-0.04 -0.03,-0.04 -0.11,-0.12 -0.19,-0.2 -0.04,0 -0.04,-0.04 -0.08,-0.04 -0.04,-0.07 -0.12,-0.11 -0.16,-0.15 -0.03,-0.04 -0.03,-0.04 -0.07,-0.08 -0.08,-0.08 -0.16,-0.16 -0.24,-0.2 -0.19,-0.19 -0.39,-0.39 -0.58,-0.58 -10.04,-9.26 -21.45,-16.17 -33.64,-20.74 -3.32,-1.25 -6.75,-2.35 -10.19,-3.29 -0.04,0 -0.08,0 -0.12,0 -8.94,-2.38 -18.16,-3.51 -27.46,-3.51 0,0 0,0 -0.04,0"
         style="fill:#cb1e25;fill-opacity:1;fill-rule:nonzero;stroke:none"
         id="path2985" />
      <path
         d="m 2554.53,1923.59 c -42.77,-40.15 -111.8,-36.95 -154.18,7.19 -42.34,44.18 -42.07,112.5 0.7,152.66 42.74,40.15 111.76,36.95 154.15,-7.23 42.38,-44.1 42.07,-112.46 -0.67,-152.62"
         style="fill:#de1937;fill-opacity:1;fill-rule:nonzero;stroke:none"
         id="path2987" />
      <path
         d="m 2386.91,2030.47 c 27.66,55.74 60.2,65.35 79.26,65.35 10,0 16.29,-2.66 16.29,-2.66 l -95.55,-62.69"
         style="fill:#ed1b51;fill-opacity:1;fill-rule:nonzero;stroke:none"
         id="path2989" />
      <path
         d="m 2507.27,1898.28 v 0.04 c 16.99,3.98 33.08,12.19 46.64,24.69 -13.56,-12.5 -29.65,-20.71 -46.64,-24.73"
         style="fill:#cb1e25;fill-opacity:1;fill-rule:nonzero;stroke:none"
         id="path2991" />
      <path
         d="m 2482.54,1895.47 c 8.32,0 16.6,0.94 24.73,2.85 v -0.04 c -8.13,-1.87 -16.41,-2.81 -24.73,-2.81"
         style="fill:#cb1e25;fill-opacity:1;fill-rule:nonzero;stroke:none"
         id="path2993" />
      <path
         d="m 2554.53,1923.59 c 0.08,0.08 0.16,0.12 0.2,0.2 -0.04,-0.08 -0.12,-0.12 -0.2,-0.2 m 0.27,0.28 c 0.08,0.04 0.12,0.11 0.16,0.15 -0.04,-0.07 -0.08,-0.11 -0.16,-0.15 m 0.24,0.23 c 0.08,0.04 0.16,0.12 0.19,0.16 -0.03,-0.04 -0.11,-0.12 -0.19,-0.16 m 0.23,0.2 c 0.08,0.08 0.16,0.15 0.2,0.19 -0.04,-0.04 -0.12,-0.11 -0.2,-0.19 m 0.32,0.31 c 0.03,0.04 0.07,0.08 0.11,0.12 -0.04,-0.04 -0.08,-0.08 -0.11,-0.12 m 0.19,0.19 c 0.08,0.04 0.12,0.08 0.16,0.16 -0.04,-0.08 -0.08,-0.12 -0.16,-0.16 m 0.27,0.28 c 0.08,0.04 0.12,0.08 0.16,0.12 -0.04,-0.04 -0.08,-0.08 -0.16,-0.12 m 0.28,0.23 c 0.04,0.04 0.08,0.08 0.08,0.12 0,-0.04 -0.04,-0.08 -0.08,-0.12 m 0.19,0.24 c 0.04,0.04 0.08,0.04 0.12,0.07 -0.04,-0.03 -0.08,-0.03 -0.12,-0.07 m 0.32,0.31 c 0.04,0 0.07,0.04 0.07,0.08 0,-0.04 -0.03,-0.04 -0.07,-0.08 m 0.23,0.19 c 0.04,0.04 0.04,0.04 0.08,0.08 -0.04,-0.04 -0.04,-0.04 -0.08,-0.08 m 0.2,0.24 c 0.03,0 0.03,0 0.03,0.04 0,-0.04 0,-0.04 -0.03,-0.04 m 0.54,0.51 c 0,0.04 0,0.04 0.04,0.04 -0.04,0 -0.04,0 -0.04,-0.04 m 0.71,0.78 v 0"
         style="fill:#cb1e25;fill-opacity:1;fill-rule:nonzero;stroke:none"
         id="path2995" />
      <path
         d="m 2401.37,1929.8 c -0.35,0.32 -0.67,0.67 -1.02,0.98 -0.04,0.12 -0.12,0.2 -0.19,0.24 0.07,-0.04 0.15,-0.12 0.19,-0.24 0.35,-0.31 0.67,-0.66 1.02,-0.98 m -1.25,1.29 c -0.08,0.04 -0.16,0.12 -0.24,0.2 0.08,-0.08 0.16,-0.16 0.24,-0.2 m -0.28,0.28 c -0.07,0.04 -0.11,0.11 -0.15,0.15 0.04,-0.04 0.08,-0.11 0.15,-0.15 m -0.27,0.27 c -0.04,0.08 -0.08,0.08 -0.12,0.12 0.04,-0.04 0.08,-0.04 0.12,-0.12"
         style="fill:#b71d24;fill-opacity:1;fill-rule:nonzero;stroke:none"
         id="path2997" />
      <path
         d="m 2482.5,1895.47 c -0.04,0 -0.04,0 -0.04,0 -29.18,0 -58.71,11.56 -81.09,34.33 -0.35,0.32 -0.67,0.67 -1.02,0.98 -0.04,0.12 -0.12,0.2 -0.19,0.24 0,0.03 -0.04,0.03 -0.04,0.07 -0.08,0.04 -0.16,0.12 -0.24,0.2 0,0.04 -0.04,0.04 -0.04,0.08 -0.07,0.04 -0.11,0.11 -0.15,0.15 -0.04,0.04 -0.08,0.08 -0.12,0.12 -0.04,0.08 -0.08,0.08 -0.12,0.12 -24.68,26.33 -34.33,60.97 -29.22,93.12 5.28,-13.12 13.13,-25.58 23.64,-36.52 22.5,-23.44 52.5,-35.35 82.11,-35.35 26.17,0 51.99,9.29 72.03,28.12 17.19,16.14 27.34,36.76 30.82,58.6 15.27,-38.09 8.51,-82 -20.31,-112.15 -0.24,-0.28 -0.43,-0.47 -0.67,-0.74 -0.04,0 -0.04,0 -0.04,-0.04 -0.15,-0.16 -0.35,-0.32 -0.51,-0.47 0,-0.04 0,-0.04 -0.03,-0.04 -0.04,-0.08 -0.08,-0.12 -0.12,-0.16 -0.04,-0.04 -0.04,-0.04 -0.08,-0.08 -0.04,-0.03 -0.08,-0.07 -0.16,-0.11 0,-0.04 -0.03,-0.08 -0.07,-0.08 -0.04,-0.08 -0.12,-0.16 -0.2,-0.24 -0.04,-0.03 -0.08,-0.03 -0.12,-0.07 -0.04,-0.04 -0.07,-0.08 -0.11,-0.12 0,-0.04 -0.04,-0.08 -0.08,-0.12 -0.04,-0.04 -0.08,-0.08 -0.12,-0.11 -0.04,-0.04 -0.08,-0.08 -0.16,-0.12 -0.03,-0.04 -0.07,-0.08 -0.11,-0.12 -0.04,-0.08 -0.08,-0.12 -0.16,-0.16 0,-0.03 -0.04,-0.03 -0.08,-0.07 -0.04,-0.04 -0.08,-0.08 -0.11,-0.12 -0.04,-0.04 -0.08,-0.08 -0.12,-0.12 -0.04,-0.04 -0.12,-0.11 -0.2,-0.19 0,0 0,0 -0.04,-0.04 -0.03,-0.04 -0.11,-0.12 -0.19,-0.16 0,-0.04 -0.04,-0.08 -0.08,-0.08 -0.04,-0.04 -0.08,-0.11 -0.16,-0.15 0,0 -0.03,-0.04 -0.07,-0.08 -0.04,-0.08 -0.12,-0.12 -0.2,-0.2 -0.23,-0.19 -0.43,-0.39 -0.62,-0.58 -13.56,-12.5 -29.65,-20.71 -46.64,-24.69 -8.13,-1.91 -16.41,-2.85 -24.73,-2.85 -0.04,0 -0.04,0 -0.04,0"
         style="fill:#cb1e25;fill-opacity:1;fill-rule:nonzero;stroke:none"
         id="path2999" />
    </g>
  </g>
</svg>
