<?xml version="1.0" encoding="UTF-8" standalone="no"?>
<!-- Created with Inkscape (http://www.inkscape.org/) -->

<svg
   version="1.1"
   id="svg2"
   width="707.84723"
   height="766.25958"
   viewBox="0 0 707.84722 766.25957"
   sodipodi:docname="tomato.eps"
   xmlns:inkscape="http://www.inkscape.org/namespaces/inkscape"
   xmlns:sodipodi="http://sodipodi.sourceforge.net/DTD/sodipodi-0.dtd"
   xmlns="http://www.w3.org/2000/svg"
   xmlns:svg="http://www.w3.org/2000/svg">
  <defs
     id="defs6" />
  <sodipodi:namedview
     id="namedview4"
     pagecolor="#ffffff"
     bordercolor="#000000"
     borderopacity="0.25"
     inkscape:showpageshadow="2"
     inkscape:pageopacity="0.0"
     inkscape:pagecheckerboard="0"
     inkscape:deskcolor="#d1d1d1"
     showgrid="false" />
  <g
     id="g10"
     inkscape:groupmode="layer"
     inkscape:label="Page 1"
     transform="matrix(1.3333333,0,0,-1.3333333,-95.245438,2573.7866)">
    <g
       id="g12"
       transform="scale(0.1)">
      <path
         d="m 6017.5,15862.1 c -93.56,-1307.7 -1322.36,-2270.5 -2572.11,-2304.7 -1326.88,-36.3 -2625.202,975.7 -2724.886,2304.7 -87.856,1171.2 779.426,2264.7 1589.466,2469.5 323.05,81.6 898.85,88.1 1059.03,89.9 157.36,1.7 656.78,7.3 942.26,-51 824.71,-168.4 1795.2,-1264.8 1706.24,-2508.4"
         style="fill:#e62823;fill-opacity:1;fill-rule:nonzero;stroke:none"
         id="path454" />
      <path
         d="m 5984.59,15608.5 v 0.1 -0.1 m 0.53,2.9 c 0.01,0 0.01,0 0.03,0.1 -0.02,-0.1 -0.02,-0.1 -0.03,-0.1 m 2.09,11.3 c 0.03,0.1 0.05,0.2 0.08,0.4 -0.02,-0.1 -0.06,-0.3 -0.08,-0.4 m 0.55,3 0.02,0.1 -0.02,-0.1 m 1.46,8.1 c 0.05,0.3 0.09,0.6 0.15,0.9 -0.06,-0.3 -0.1,-0.6 -0.15,-0.9 m 0.54,3.1 c 0.06,0.3 0.11,0.7 0.16,1 -0.06,-0.4 -0.09,-0.6 -0.16,-1 m 1.4,8.1 c 0.07,0.4 0.13,0.8 0.2,1.2 -0.07,-0.5 -0.12,-0.8 -0.2,-1.2 m 0.55,3.2 c 0.06,0.4 0.14,0.8 0.2,1.2 -0.07,-0.4 -0.13,-0.8 -0.2,-1.2 m 0.54,3.2 c 0.07,0.4 0.15,0.9 0.22,1.3 -0.07,-0.4 -0.14,-0.9 -0.22,-1.3 m 0.81,4.8 c 0.07,0.5 0.14,0.9 0.22,1.3 -0.07,-0.4 -0.15,-0.9 -0.22,-1.3 m 0.53,3.2 c 0.09,0.6 0.15,1 0.24,1.5 -0.08,-0.5 -0.16,-1 -0.24,-1.5 m 0.53,3.3 c 0.09,0.5 0.18,1 0.26,1.6 -0.08,-0.6 -0.17,-1.1 -0.26,-1.6 m 0.65,4 c 0.13,0.7 0.25,1.5 0.38,2.3 -0.13,-0.8 -0.25,-1.6 -0.38,-2.3 m 0.62,3.8 c 0.1,0.6 0.2,1.2 0.29,1.9 -0.09,-0.7 -0.19,-1.3 -0.29,-1.9 m 0.54,3.4 c 0.11,0.7 0.19,1.2 0.3,1.9 -0.09,-0.6 -0.21,-1.3 -0.3,-1.9 m 0.53,3.4 c 0.13,0.8 0.25,1.5 0.37,2.3 -0.12,-0.8 -0.24,-1.5 -0.37,-2.3 m 0.68,4.4 c 0.11,0.7 0.21,1.3 0.32,2 -0.1,-0.6 -0.22,-1.4 -0.32,-2 m 0.55,3.5 c 0.09,0.6 0.2,1.3 0.3,2 -0.1,-0.7 -0.2,-1.3 -0.3,-2 m 0.52,3.4 c 0.1,0.7 0.23,1.6 0.34,2.3 -0.12,-0.8 -0.23,-1.5 -0.34,-2.3 m 0.5,3.3 c 0.16,1.1 0.31,2.2 0.48,3.3 -0.16,-1.1 -0.33,-2.2 -0.48,-3.3 m 0.65,4.5 c 0.11,0.7 0.23,1.5 0.34,2.2 -0.11,-0.7 -0.23,-1.5 -0.34,-2.2 m 0.52,3.5 c 0.11,0.7 0.22,1.5 0.33,2.2 -0.11,-0.7 -0.22,-1.5 -0.33,-2.2 m 0.5,3.4 c 0.16,1.1 0.31,2.2 0.47,3.3 -0.16,-1.1 -0.31,-2.2 -0.47,-3.3 m 0.59,4.1 c 0.12,0.9 0.24,1.7 0.36,2.6 -0.12,-0.9 -0.24,-1.7 -0.36,-2.6 m 0.54,3.9 c 0.11,0.7 0.21,1.4 0.31,2.2 -0.1,-0.7 -0.21,-1.5 -0.31,-2.2 m 0.48,3.4 c 0.13,0.9 0.26,1.9 0.39,2.8 -0.13,-1 -0.26,-1.9 -0.39,-2.8 m 0.47,3.4 c 0.16,1.1 0.31,2.2 0.47,3.4 -0.15,-1.1 -0.32,-2.3 -0.47,-3.4 m 0.59,4.3 c 0.1,0.8 0.23,1.7 0.33,2.5 -0.11,-0.9 -0.22,-1.7 -0.33,-2.5 m 0.49,3.7 c 0.12,0.8 0.22,1.6 0.33,2.4 -0.1,-0.7 -0.22,-1.6 -0.33,-2.4 m 0.46,3.4 c 0.15,1.1 0.3,2.3 0.44,3.4 -0.15,-1.2 -0.29,-2.3 -0.44,-3.4 m 0.54,4.1 c 0.11,0.9 0.24,1.8 0.35,2.7 -0.12,-0.9 -0.23,-1.8 -0.35,-2.7 m 0.5,3.8 c 0.1,0.8 0.2,1.6 0.3,2.4 -0.1,-0.8 -0.2,-1.6 -0.3,-2.4 m 0.44,3.5 c 0.29,2.3 0.57,4.6 0.86,6.8 -0.29,-2.3 -0.56,-4.4 -0.86,-6.8 m 0.98,7.9 c 0.1,0.7 0.21,1.7 0.31,2.5 -0.11,-0.9 -0.2,-1.7 -0.31,-2.5 m 0.44,3.5 c 0.11,1 0.23,1.9 0.34,2.9 -0.1,-0.9 -0.23,-2 -0.34,-2.9 m 0.41,3.4 c 0.14,1.2 0.28,2.4 0.42,3.6 -0.14,-1.2 -0.27,-2.3 -0.42,-3.6 m 0.48,4.1 c 0.11,0.9 0.25,2.1 0.36,3 -0.12,-1 -0.24,-2 -0.36,-3 m 0.45,3.8 c 0.11,1 0.24,2 0.35,3 -0.12,-1 -0.23,-1.9 -0.35,-3 m 0.41,3.5 c 0.27,2.4 0.54,4.8 0.81,7.2 -0.27,-2.4 -0.54,-4.8 -0.81,-7.2 m 0.89,7.9 c 0.1,0.9 0.2,1.9 0.31,2.8 -0.1,-0.9 -0.21,-1.9 -0.31,-2.8 m 0.41,3.7 c 0.11,1 0.23,2.1 0.34,3.1 -0.11,-1 -0.23,-2.1 -0.34,-3.1 m 0.37,3.5 c 0.13,1.1 0.26,2.3 0.39,3.5 -0.13,-1.1 -0.26,-2.4 -0.39,-3.5 m 0.45,4.1 c 0.1,1 0.22,2.1 0.31,3 -0.1,-1 -0.2,-1.9 -0.31,-3 m 0.39,3.8 c 0.1,0.9 0.21,2 0.31,2.9 -0.1,-0.9 -0.21,-2 -0.31,-2.9 m 0.38,3.6 c 0.23,2.3 0.48,4.7 0.7,7 -0.23,-2.3 -0.47,-4.7 -0.7,-7 m 0.8,8 c 0.1,0.9 0.18,1.7 0.27,2.7 -0.09,-1 -0.18,-1.8 -0.27,-2.7 m 0.35,3.5 c 0.11,1.1 0.21,2.2 0.32,3.3 -0.11,-1.1 -0.21,-2.2 -0.32,-3.3 m 0.34,3.5 c 0.11,1.2 0.23,2.4 0.34,3.6 -0.11,-1.2 -0.22,-2.4 -0.34,-3.6 m 0.39,4.2 c 0.09,0.9 0.19,2 0.28,2.9 -0.09,-0.9 -0.18,-1.9 -0.28,-2.9 m 0.36,3.8 c 0.09,1 0.19,2 0.27,3 -0.09,-1.1 -0.17,-1.9 -0.27,-3 m 0.32,3.5 c 0.11,1.2 0.22,2.4 0.33,3.6 -0.11,-1.1 -0.22,-2.4 -0.33,-3.6 m 0.36,4 c 0.09,1 0.18,2.1 0.27,3.1 -0.09,-1 -0.18,-2.1 -0.27,-3.1 m 0.35,4.1 c 0.08,0.8 0.16,1.7 0.23,2.6 -0.07,-0.9 -0.15,-1.8 -0.23,-2.6 m 0.32,3.6 c 0.09,1.1 0.19,2.3 0.28,3.4 -0.09,-1.1 -0.19,-2.3 -0.28,-3.4 m 0.29,3.4 c 0.1,1.2 0.2,2.4 0.29,3.6 -0.1,-1.2 -0.19,-2.3 -0.29,-3.6 m 0.36,4.4 c 0.08,1 0.14,1.8 0.22,2.7 -0.07,-0.9 -0.14,-1.8 -0.22,-2.7 m 0.3,3.7 c 0.07,0.9 0.15,1.9 0.22,2.8 -0.08,-1 -0.14,-1.8 -0.22,-2.8 m 0.28,3.6 c 0.09,1.1 0.19,2.4 0.27,3.5 -0.08,-1.1 -0.18,-2.4 -0.27,-3.5 m 0.32,4.1 c 0.07,1 0.15,1.9 0.22,2.9 -0.07,-1 -0.15,-2 -0.22,-2.9 m 0.3,4 c 0.06,0.8 0.13,1.7 0.19,2.5 -0.06,-0.9 -0.12,-1.7 -0.19,-2.5 m 0.26,3.5 c 0.09,1.2 0.17,2.3 0.26,3.5 3.82,53.4 5.68,106.6 5.69,159.4 -0.01,-52.8 -1.87,-106 -5.69,-159.4 -0.09,-1.2 -0.17,-2.3 -0.26,-3.5 m -3725.45,2468.2 c 0.06,0 0.09,0 0.15,0.1 -0.05,-0.1 -0.1,-0.1 -0.15,-0.1 m 7.36,2 c 0.32,0 0.65,0.1 0.96,0.2 -0.34,-0.1 -0.61,-0.1 -0.96,-0.2 m 2.1,0.5 c 0.36,0.1 0.71,0.2 1.06,0.3 -0.34,-0.1 -0.72,-0.2 -1.06,-0.3 m 2.14,0.6 c 0.4,0.1 0.86,0.2 1.26,0.3 -0.4,-0.1 -0.86,-0.2 -1.26,-0.3 m 2.17,0.5 c 0.48,0.2 0.98,0.3 1.47,0.4 -0.5,-0.1 -0.98,-0.2 -1.47,-0.4 m 2.19,0.6 c 0.73,0.2 1.48,0.4 2.22,0.6 -0.75,-0.2 -1.48,-0.4 -2.22,-0.6 m 1994.7,41.3 c -2.19,0.4 -4.37,0.9 -6.59,1.3 2.22,-0.4 4.4,-0.9 6.59,-1.3 m -10.51,2 c -1.08,0.2 -2.16,0.4 -3.25,0.6 1.09,-0.2 2.17,-0.4 3.25,-0.6 m -6.07,1.1 c -2.12,0.4 -4.28,0.8 -6.42,1.2 2.14,-0.4 4.3,-0.8 6.42,-1.2 m -6.5,1.2 c -0.68,0.2 -1.33,0.3 -2.01,0.4 0.68,-0.1 1.33,-0.2 2.01,-0.4 m -910.37,44.9 c 35.84,0.4 89.39,1 154.16,1 -64.74,0 -118.33,-0.6 -154.16,-1 m 186.03,0.9 c -10.85,0.1 -21.46,0.1 -31.77,0.1 v 0 c 10.31,0 20.92,0 31.77,-0.1"
         style="fill:#f1c1c6;fill-opacity:1;fill-rule:nonzero;stroke:none"
         id="path456" />
      <path
         d="m 4274.22,13715.4 c 279.28,144.9 536.07,331.2 754.5,557.8 451.26,468 729.95,1109.5 719.18,1759.6 -10.77,650.1 -324.11,1297.8 -853.42,1675.4 -122.07,87 -263.99,161.9 -412.07,161.9 -14.45,0 -28.95,-0.7 -43.5,-2.2 -170.23,-17.3 -313.27,-136.2 -479.21,-178 -132,-33.2 -272.98,-16.1 -404.33,-51.8 -208.29,-56.5 -381.59,-241.7 -594.38,-241.7 -7.02,0 -14.1,0.2 -21.21,0.6 -173.09,10.1 -316.37,146.8 -488.1,170.8 -20.47,2.8 -40.94,4 -61.43,4 -104.31,0 -208.82,-31.2 -314.05,-34.1 -3.31,-0.1 -6.63,-0.1 -9.97,-0.1 -123.62,0 -264.66,62.2 -281.73,183.6 -10.07,71.6 -86.22,113.6 -160.15,113.6 -15.34,0 -30.59,-1.8 -45.13,-5.5 -84.6,-21.7 -150.2,-86.2 -215.4,-144.4 -12.17,-10.8 -24.86,-21.5 -37.81,-31.9 281.83,338.6 628.01,583 965.78,673.8 0.05,0 0.1,0 0.15,0.1 2.39,0.6 4.82,1.2 7.21,1.9 0.35,0.1 0.62,0.1 0.96,0.2 0.38,0.1 0.76,0.2 1.14,0.3 0.34,0.1 0.72,0.2 1.06,0.3 0.38,0.1 0.7,0.2 1.08,0.3 0.4,0.1 0.86,0.2 1.26,0.3 0.31,0.1 0.59,0.1 0.91,0.2 0.49,0.2 0.97,0.3 1.47,0.4 0.25,0.1 0.47,0.1 0.72,0.2 0.74,0.2 1.47,0.4 2.22,0.6 v 0 c 323.05,81.6 898.85,88.1 1059.03,89.9 v 0 c 35.83,0.4 89.42,1 154.16,1 0.04,0 0.07,0 0.1,0 10.31,0 20.92,0 31.77,-0.1 208.69,-0.6 512.35,-8.1 722.33,-45.4 0.68,-0.1 1.33,-0.2 2.01,-0.4 0.01,0 0.06,0 0.08,0 2.14,-0.4 4.3,-0.8 6.42,-1.2 0.95,-0.1 1.88,-0.3 2.82,-0.5 1.09,-0.2 2.17,-0.4 3.25,-0.6 1.32,-0.2 2.62,-0.5 3.92,-0.7 2.22,-0.4 4.4,-0.9 6.59,-1.3 2.96,-0.6 5.9,-1.2 8.81,-1.8 789.28,-161.2 1712.07,-1172.3 1711.93,-2349 -0.01,-52.8 -1.87,-106 -5.69,-159.4 -0.09,-1.2 -0.17,-2.3 -0.26,-3.5 -0.02,-0.3 -0.05,-0.7 -0.07,-1 -0.06,-0.8 -0.13,-1.7 -0.19,-2.5 -0.03,-0.4 -0.05,-0.8 -0.08,-1.1 -0.07,-1 -0.15,-1.9 -0.22,-2.9 -0.02,-0.2 -0.03,-0.3 -0.05,-0.6 -0.08,-1.1 -0.18,-2.4 -0.27,-3.5 -0.02,-0.3 -0.04,-0.5 -0.06,-0.8 -0.07,-0.9 -0.15,-1.9 -0.22,-2.8 -0.02,-0.3 -0.05,-0.6 -0.08,-1 -0.08,-0.9 -0.14,-1.7 -0.22,-2.7 -0.02,-0.2 -0.05,-0.5 -0.07,-0.8 -0.09,-1.2 -0.19,-2.4 -0.29,-3.6 h -0.01 c -0.09,-1.1 -0.19,-2.3 -0.28,-3.4 -0.03,-0.4 -0.06,-0.6 -0.09,-1 -0.07,-0.9 -0.15,-1.8 -0.23,-2.6 -0.02,-0.4 -0.05,-0.7 -0.08,-1 -0.09,-1 -0.18,-2.1 -0.27,-3.1 -0.01,-0.1 -0.02,-0.3 -0.03,-0.4 -0.11,-1.2 -0.22,-2.4 -0.33,-3.6 -0.01,-0.2 -0.03,-0.3 -0.05,-0.5 -0.08,-1 -0.18,-2 -0.27,-3 -0.02,-0.2 -0.06,-0.6 -0.08,-0.9 -0.09,-0.9 -0.19,-2 -0.28,-2.9 -0.01,-0.2 -0.03,-0.4 -0.05,-0.6 -0.11,-1.2 -0.23,-2.4 -0.34,-3.6 -0.01,-0.1 -0.01,-0.1 -0.02,-0.2 -0.11,-1.1 -0.21,-2.2 -0.32,-3.3 -0.03,-0.3 -0.06,-0.6 -0.08,-0.8 -0.09,-1 -0.17,-1.8 -0.27,-2.7 -0.03,-0.4 -0.06,-0.6 -0.1,-1 -0.22,-2.3 -0.47,-4.7 -0.7,-7 -0.02,-0.2 -0.05,-0.5 -0.07,-0.7 -0.1,-0.9 -0.21,-2 -0.31,-2.9 -0.02,-0.3 -0.05,-0.5 -0.08,-0.8 -0.09,-0.9 -0.21,-2 -0.31,-3 -0.02,-0.2 -0.04,-0.4 -0.06,-0.6 -0.13,-1.2 -0.26,-2.4 -0.39,-3.5 -0.01,-0.2 -0.02,-0.2 -0.03,-0.4 -0.11,-1 -0.23,-2.1 -0.34,-3.1 -0.04,-0.3 -0.07,-0.6 -0.1,-0.9 -0.11,-0.9 -0.21,-1.9 -0.31,-2.8 -0.03,-0.2 -0.06,-0.5 -0.08,-0.7 -0.27,-2.4 -0.54,-4.8 -0.81,-7.2 -0.02,-0.2 -0.04,-0.3 -0.06,-0.5 -0.11,-1 -0.24,-2 -0.35,-3 -0.03,-0.2 -0.06,-0.5 -0.09,-0.8 -0.11,-0.9 -0.25,-2.1 -0.36,-3 -0.01,-0.1 -0.04,-0.4 -0.06,-0.5 -0.14,-1.2 -0.28,-2.4 -0.42,-3.6 -0.02,-0.1 -0.04,-0.3 -0.07,-0.5 -0.11,-1 -0.23,-1.9 -0.34,-2.9 -0.05,-0.4 -0.09,-0.7 -0.13,-1 -0.1,-0.8 -0.21,-1.8 -0.31,-2.5 -0.04,-0.4 -0.09,-0.7 -0.12,-1.1 -0.29,-2.2 -0.57,-4.5 -0.86,-6.8 -0.04,-0.3 -0.1,-0.7 -0.14,-1.1 -0.1,-0.8 -0.2,-1.6 -0.3,-2.4 -0.05,-0.3 -0.1,-0.7 -0.15,-1.1 -0.11,-0.9 -0.24,-1.8 -0.35,-2.7 -0.03,-0.2 -0.06,-0.5 -0.1,-0.7 -0.14,-1.1 -0.29,-2.3 -0.44,-3.4 -0.04,-0.3 -0.09,-0.7 -0.13,-1 -0.11,-0.8 -0.21,-1.6 -0.33,-2.4 -0.05,-0.5 -0.1,-0.8 -0.16,-1.2 -0.1,-0.8 -0.23,-1.7 -0.33,-2.5 -0.04,-0.3 -0.08,-0.6 -0.12,-0.9 -0.16,-1.2 -0.31,-2.3 -0.47,-3.4 -0.03,-0.2 -0.05,-0.4 -0.08,-0.6 -0.13,-0.9 -0.26,-1.9 -0.39,-2.8 -0.06,-0.5 -0.11,-0.8 -0.17,-1.2 -0.1,-0.8 -0.2,-1.5 -0.31,-2.2 -0.06,-0.5 -0.12,-0.9 -0.18,-1.3 -0.12,-0.9 -0.24,-1.7 -0.36,-2.6 -0.04,-0.3 -0.08,-0.5 -0.12,-0.8 -0.16,-1.1 -0.31,-2.2 -0.47,-3.3 -0.05,-0.4 -0.12,-0.8 -0.17,-1.2 -0.11,-0.7 -0.22,-1.5 -0.33,-2.2 -0.07,-0.5 -0.11,-0.8 -0.18,-1.3 -0.11,-0.7 -0.23,-1.5 -0.34,-2.2 -0.06,-0.5 -0.11,-0.8 -0.17,-1.2 -0.17,-1.1 -0.32,-2.2 -0.48,-3.3 -0.06,-0.3 -0.11,-0.7 -0.16,-1 -0.11,-0.7 -0.24,-1.6 -0.34,-2.3 -0.08,-0.5 -0.15,-1 -0.22,-1.4 -0.1,-0.7 -0.21,-1.4 -0.3,-2 -0.08,-0.5 -0.15,-1 -0.23,-1.5 -0.11,-0.7 -0.21,-1.3 -0.32,-2 -0.1,-0.7 -0.21,-1.4 -0.31,-2.1 -0.12,-0.8 -0.24,-1.5 -0.37,-2.3 -0.08,-0.5 -0.14,-1 -0.23,-1.5 -0.11,-0.7 -0.19,-1.2 -0.3,-1.9 -0.09,-0.5 -0.16,-1 -0.25,-1.5 -0.09,-0.7 -0.19,-1.3 -0.29,-1.9 -0.08,-0.5 -0.17,-1 -0.24,-1.5 -0.13,-0.8 -0.25,-1.6 -0.38,-2.3 -0.13,-0.9 -0.25,-1.6 -0.39,-2.4 -0.08,-0.6 -0.17,-1.1 -0.26,-1.6 -0.09,-0.6 -0.2,-1.3 -0.29,-1.8 -0.09,-0.5 -0.15,-0.9 -0.24,-1.5 -0.11,-0.6 -0.2,-1.2 -0.31,-1.9 -0.08,-0.4 -0.15,-0.8 -0.22,-1.3 -0.2,-1.2 -0.39,-2.3 -0.59,-3.5 -0.07,-0.4 -0.15,-0.9 -0.22,-1.3 -0.11,-0.6 -0.23,-1.4 -0.34,-2 -0.06,-0.4 -0.14,-0.8 -0.2,-1.2 -0.11,-0.7 -0.24,-1.4 -0.35,-2 -0.07,-0.4 -0.13,-0.8 -0.2,-1.2 -0.4,-2.3 -0.83,-4.8 -1.24,-7.1 -0.05,-0.3 -0.1,-0.7 -0.16,-1 -0.12,-0.7 -0.27,-1.5 -0.39,-2.2 -0.06,-0.3 -0.1,-0.6 -0.15,-0.9 -0.48,-2.7 -0.95,-5.3 -1.44,-8 l -0.02,-0.1 c -0.16,-0.9 -0.31,-1.7 -0.47,-2.6 -0.03,-0.2 -0.05,-0.3 -0.08,-0.4 -0.67,-3.7 -1.37,-7.5 -2.06,-11.2 -0.02,-0.1 -0.02,-0.1 -0.03,-0.1 -0.18,-1 -0.35,-1.9 -0.53,-2.8 v -0.1 c -168.83,-892.9 -871.27,-1593.2 -1710.37,-1893.1"
         style="fill:#d82425;fill-opacity:1;fill-rule:nonzero;stroke:none"
         id="path458" />
      <path
         d="m 3835.32,18977.4 c 36.76,122.2 103.89,235.3 193.7,326 -77.44,-116.6 -253.78,-121.3 -349.72,-223.2 -31.51,-33.5 -52.25,-75.5 -71,-117.5 -112.17,-251.1 -191.48,-552.1 -435.06,-679.8 -201.17,-105.5 -446.1,-52.3 -663.37,14 -149.88,45.8 -299.81,97.3 -432.35,180.9 -208.5,131.5 -396.15,348.1 -642.26,334.5 138.81,-165.8 307.1,-306.8 494.61,-414.4 156.22,-89.7 331.86,-161.5 441.15,-304.7 23.69,-31.1 44.38,-71.9 28.93,-107.8 -16.32,-37.9 -63.3,-49.7 -103.94,-56.7 -164.21,-28.4 -354.17,-50 -478.1,61.4 -114.5,103 -128.64,285 -241.57,389.6 29.06,-109.2 58.12,-218.4 87.18,-327.6 43.16,-162.2 110.19,-349.9 271.65,-395.8 142.27,-40.4 300.77,52 439.09,-0.4 53.04,-20.1 96.11,-59.3 143.04,-91.1 180.28,-122.3 431.82,-129.4 618.74,-17.6 73.87,44.3 136.99,104.5 209.83,150.4 312.08,196.8 747.34,102.4 1052.74,309.3 53.97,36.6 102.97,83 132.41,141.1 27.39,54.1 36.54,115.7 39.73,176.2 15.43,293.2 -107.67,590.7 -325.75,787.3 52.2,-70.2 146.95,-218.6 162.58,-424.7 6.14,-80.8 13.55,-178.5 -36.32,-278.5 -115.65,-231.7 -465.79,-327.3 -646.78,-219.8 -19.88,11.8 -92.19,56.7 -113.13,136 -14.33,54.3 -2.28,114.7 34.2,179.3 92.6,163.9 135.35,292.5 189.77,473.6"
         style="fill:#6b9c2f;fill-opacity:1;fill-rule:nonzero;stroke:none"
         id="path460" />
      <path
         d="m 3052.55,18908.8 c -21.2,55.6 -45.26,113.2 -91.3,150.9 -46.05,37.7 -120.84,47.1 -162.47,4.6 112.44,-325.6 173.44,-668.8 180.05,-1013.2 51.83,-29.2 105.52,-59 164.67,-65.3 220.66,-23.5 113.64,227.2 85.84,345.8 -45.96,196 -105.04,389 -176.79,577.2"
         style="fill:#6b9c2f;fill-opacity:1;fill-rule:nonzero;stroke:none"
         id="path462" />
      <path
         d="m 3372.95,17724.4 c -100.67,-104 -262.12,-126.7 -404.54,-100.7 -142.42,26 -273.37,93.1 -407.89,146.6 -134.52,53.6 -281.43,94.3 -423.08,64.4 92.82,-48.6 177.91,-111.6 252.23,-185.4 46.13,-21.3 85.34,-55.9 127.63,-84.5 180.28,-122.3 431.82,-129.4 618.74,-17.6 73.87,44.3 136.99,104.5 209.83,150.4 8.77,5.6 17.67,10.8 26.63,15.9 l 0.45,10.9"
         style="fill:#88b744;fill-opacity:1;fill-rule:nonzero;stroke:none"
         id="path464" />
      <path
         d="m 3052.55,18908.8 c -21.2,55.6 -45.26,113.2 -91.3,150.9 -15.37,12.6 -34.02,21.6 -53.49,27 199.26,-322.8 272.91,-721.9 203.28,-1094.8 10.66,-2.7 21.44,-4.9 32.46,-6.1 220.66,-23.5 113.64,227.2 85.84,345.8 -45.96,196 -105.04,389 -176.79,577.2"
         style="fill:#5d842b;fill-opacity:1;fill-rule:nonzero;stroke:none"
         id="path466" />
      <path
         d="m 5074.73,16318.8 c 39.47,147.2 87.59,390.2 10.51,681.4 -58.71,221.8 -200.61,428 -406.23,529.7 -183.58,90.9 -399.78,92.3 -601.46,56.4 -201.67,-35.9 -395.42,-106.5 -594.63,-154.2 -391.33,-93.7 -803.85,-97.9 -1196.99,-11.9 -256.09,55.9 -521.76,149.6 -773.15,75.3 -286.54,-84.7 -472.17,-371.1 -543.167,-661.4 -140.211,-573.2 103.167,-1220.7 586.227,-1559.6 280.8,-197 623.84,-290.7 965.7,-318.8 448.38,-36.8 969.87,-144.2 1528.03,132.1 528,261.4 894.88,745.4 1025.16,1231"
         style="fill:#ef3723;fill-opacity:1;fill-rule:nonzero;stroke:none"
         id="path468" />
      <path
         d="m 5048.93,15901 c -26.62,0 -53.1,1 -78.94,2.7 -20.79,1.4 -41.71,3.1 -62.69,5.2 73.88,133.1 130.28,271.4 167.43,409.9 39.47,147.2 87.59,390.2 10.51,681.4 -58.71,221.8 -200.61,428 -406.23,529.7 -25.25,12.5 -51.11,23.4 -77.47,32.6 19.68,16.2 42.51,23.4 67.62,23.4 187.99,0 503.07,-406.6 568.57,-502.8 163.11,-239.3 269.28,-527.1 246.87,-815.8 -6.46,-83.4 -24.98,-169.2 -76.65,-234.9 -82.03,-104.2 -222.61,-131.5 -359.02,-131.4"
         style="fill:#eb4040;fill-opacity:1;fill-rule:nonzero;stroke:none"
         id="path470" />
      <path
         d="m 4907.3,15908.9 c -209.22,20.9 -423.32,81.1 -558.91,238.6 -154.24,179.2 -165.93,455.8 -57.53,665.9 76.43,148.2 206.75,273.5 234.42,437.9 13.18,78.4 1.71,161.1 28.32,235.9 12.38,34.9 28.62,59.4 47.94,75.3 26.36,-9.2 52.22,-20.1 77.47,-32.6 205.62,-101.7 347.52,-307.9 406.23,-529.7 77.08,-291.2 28.96,-534.2 -10.51,-681.4 -37.15,-138.5 -93.55,-276.8 -167.43,-409.9"
         style="fill:#f25145;fill-opacity:1;fill-rule:nonzero;stroke:none"
         id="path472" />
      <path
         d="m 2011.33,15785.7 c -153.29,0 -306.37,29.9 -447.04,91.3 -80.03,35 -157.25,80.2 -215.87,145 -135.43,149.6 -147.63,374.3 -114.61,573.4 21.47,129.5 62.56,262.6 157.21,353.5 100.1,96.2 235.03,126 376.62,126 100.58,0 204.55,-15.1 301.69,-32 192.88,-33.7 386.23,-65.3 578.75,-100.9 96.03,-17.7 207.9,-28.4 280.23,-101.7 232.49,-235.4 28,-618.8 -174.73,-790 -205.18,-173.3 -474.09,-264.6 -742.25,-264.6"
         style="fill:#f46e64;fill-opacity:1;fill-rule:nonzero;stroke:none"
         id="path474" />
    </g>
  </g>
</svg>
