<?xml version="1.0" encoding="UTF-8" standalone="no"?>
<!-- Created with Inkscape (http://www.inkscape.org/) -->

<svg
   version="1.1"
   id="svg26267"
   width="698.4668"
   height="786.15015"
   viewBox="0 0 698.4668 786.15016"
   sodipodi:docname="fruit_set.eps"
   xmlns:inkscape="http://www.inkscape.org/namespaces/inkscape"
   xmlns:sodipodi="http://sodipodi.sourceforge.net/DTD/sodipodi-0.dtd"
   xmlns="http://www.w3.org/2000/svg"
   xmlns:svg="http://www.w3.org/2000/svg">
  <defs
     id="defs26271" />
  <sodipodi:namedview
     id="namedview26269"
     pagecolor="#ffffff"
     bordercolor="#000000"
     borderopacity="0.25"
     inkscape:showpageshadow="2"
     inkscape:pageopacity="0.0"
     inkscape:pagecheckerboard="0"
     inkscape:deskcolor="#d1d1d1"
     showgrid="false" />
  <g
     id="g26275"
     inkscape:groupmode="layer"
     inkscape:label="Page 1"
     transform="matrix(1.3333333,0,0,-1.3333333,-2527.7332,2035.7901)">
    <g
       id="g26277"
       transform="scale(0.1)">
      <path
         d="m 22753.6,14991.5 c -5.6,11.3 -15.8,19.4 -28.2,22.1 -9,2 -18.5,0.8 -26.7,-3.2 l -0.6,-0.3 c -83.2,-40.4 -152.5,-65 -217.7,-77.3 l -30.5,-5.3 c -2.9,-0.6 -6.6,-0.9 -10.6,-1.3 l -14.7,-1.3 -1.4,-0.2 c -12.6,-1.7 -26,-1.8 -40.1,-1.8 -4.4,-0.1 -8.8,-0.1 -13.2,-0.2 -25.8,1.1 -50.8,4.3 -74.3,9.4 -9.6,2.1 -19.2,4.6 -28.3,7.3 -58.5,17.8 -116.8,52.3 -183.4,108.7 -20.1,16.9 -39.7,34.5 -60.4,53.3 -9.8,8.8 -19.7,17.7 -29.9,26.8 -33.9,29.9 -67.8,58.8 -110.2,85.2 l -16.5,10.1 -17.3,8.9 c -12.1,6.5 -24.6,11.3 -36.7,16 l -5.4,2 c -2.5,1 -5.7,2.2 -9.8,3.4 l -10.2,2.8 -20.4,5.3 -0.9,0.2 c -6.1,1.3 -12,2.1 -17.3,2.8 l -6.8,0.9 c -1.8,0.2 -3.5,0.5 -5.3,0.7 -5.2,0.8 -11.5,1.7 -18.6,1.7 -31.5,1.1 -61.5,-1.8 -91.9,-9 -32.3,-7.9 -63.8,-21.7 -90.9,-39.6 -26.9,-17.7 -51.2,-39.8 -72.3,-65.8 -17.8,-22.1 -33.7,-47.4 -47.4,-75.3 -21.2,-43.8 -36.4,-91 -47.7,-148.9 -15.5,-82.4 -20.5,-167.7 -16.4,-276.8 0.5,-11.9 1.1,-23.8 1.9,-35.7 -34.7,21.7 -72.1,38.7 -109.8,44.8 -142.9,23.1 -34.1,-100 76.9,-219.8 20.2,-21.7 39.7,-34.9 58.3,-42.1 0.8,-4.6 1.6,-9.1 2.8,-15 l 1.6,-7.6 c 1.6,-7.4 3.7,-14.8 6.3,-21.9 19.1,-51.9 62.8,-90 116.9,-101.8 29.9,-6.5 61,-4.3 89.8,6.2 40.3,14.9 72.5,44.5 90.6,83.6 14.1,30.5 18.2,63.9 12.2,96.3 145.3,105.6 352.4,262.8 166.9,235 -76,-11.4 -147.9,-41.9 -208.8,-76.3 -6.3,28.4 -11.6,56.2 -16.1,83.1 -13.5,82.8 -18.2,152.5 -14.4,213 2.3,34.3 7.5,63.8 15.6,87.8 4,11.9 8.7,22.4 13.8,31.1 4.8,7.8 10,14.3 16.2,19.9 5.4,4.9 11.7,8.8 19.3,11.8 l 0.8,0.4 0.9,0.3 c 1,0.5 4,1.3 6.3,1.9 2.6,0.6 5.3,1.3 7.7,2.1 l 1.7,0.5 2.1,0.2 c 3.3,0.4 6.7,0.9 10.1,1.4 8.1,0.8 17.3,0 27.5,-2.2 11.6,-2.5 24.7,-7.1 38.8,-13.5 29.9,-13.6 61.4,-34.4 91,-54.8 10.4,-7.2 20.8,-14.5 31.4,-22 23.1,-16.2 46.9,-32.9 71.8,-49.2 42.5,-27.7 81.2,-49.4 118.3,-66.2 39.8,-17.9 77,-30.5 113.8,-38.5 7,-1.5 14,-2.9 20.8,-4 44.6,-7.8 91.7,-9.6 139.9,-5.6 l 1,0.1 1,0.1 c 4.3,0.6 8.6,1.1 12.9,1.7 17.5,2.3 35.7,4.6 54,9.2 l 14.6,3.2 c 6,1.2 12.4,2.7 19.1,4.9 l 30.4,9.2 c 72.8,23.2 146.3,59.6 231.4,114.6 17.4,11.2 23.7,33.8 14.7,52.5"
         style="fill:#004e00;fill-opacity:1;fill-rule:nonzero;stroke:none"
         id="path26361" />
      <path
         d="m 22374.5,14796 1,0.1 1,0.1 c 4.3,0.6 8.6,1.1 12.9,1.7 4.1,0.5 8.3,1.1 12.4,1.6 -130.9,20.5 -277.6,72.5 -361.5,151.8 -147.4,139.1 -311.9,277.9 -475.5,83.3 -113.9,-135.3 -141.1,-511.2 -147.1,-727.5 22.6,-26.7 53.4,-45.7 88.8,-53.4 29.9,-6.5 61,-4.3 89.8,6.2 40.3,14.9 72.5,44.5 90.6,83.6 14.1,30.5 18.2,63.9 12.2,96.3 145.3,105.6 352.4,262.8 166.9,235 -76,-11.4 -147.9,-41.9 -208.8,-76.3 -6.3,28.4 -11.6,56.2 -16.1,83.1 -13.5,82.8 -18.2,152.5 -14.4,213 2.3,34.3 7.5,63.8 15.6,87.8 4,11.9 8.7,22.4 13.8,31.1 4.8,7.8 10,14.3 16.2,19.9 5.4,4.9 11.7,8.8 19.3,11.8 l 0.8,0.4 0.9,0.3 c 1,0.5 4,1.3 6.3,1.9 2.6,0.6 5.3,1.3 7.7,2.1 l 1.7,0.5 2.1,0.2 c 3.3,0.4 6.7,0.9 10.1,1.4 8.1,0.8 17.3,0 27.5,-2.2 11.6,-2.5 24.7,-7.1 38.8,-13.5 29.9,-13.6 61.4,-34.4 91,-54.8 10.4,-7.2 20.8,-14.5 31.4,-22 23.1,-16.2 46.9,-32.9 71.8,-49.2 42.5,-27.7 81.2,-49.4 118.3,-66.2 39.8,-17.9 77,-30.5 113.8,-38.5 7,-1.5 14,-2.9 20.8,-4 44.6,-7.8 91.7,-9.6 139.9,-5.6"
         style="fill:#003500;fill-opacity:1;fill-rule:nonzero;stroke:none"
         id="path26363" />
      <path
         d="m 24196.5,11942.8 c 0,-1419.7 -1172.7,-2570.5 -2619.2,-2570.5 -1446.6,0 -2619.3,1150.8 -2619.3,2570.5 0,1419.6 1172.7,2570.5 2619.3,2570.5 1446.5,0 2619.2,-1150.9 2619.2,-2570.5"
         style="fill:#009e00;fill-opacity:1;fill-rule:nonzero;stroke:none"
         id="path26365" />
      <path
         d="m 19647.2,12584.9 c -45.3,148.2 -12.4,415.9 177,551.7 189.4,135.9 107.1,317 78.3,502.3 -12.9,82.8 0.5,196 19.3,295.9 -182.9,-146.6 -345.3,-316.9 -482.2,-506.3 3.6,-78.6 0.3,-158.7 -18.8,-217.8 -53.6,-164.7 -271.8,-382.9 -197.7,-510.5 74.1,-127.6 57.7,-341.7 -57.6,-613.5 -115.3,-271.7 140,-564 65.9,-691.6 -31.2,-53.6 -68.1,-209.7 -100.5,-372.6 109,-278.8 266,-534.2 461.1,-756.5 45.5,83.7 101.9,213.4 84,318 -28.8,168.8 -279.9,234.7 -164.7,457 115.3,222.3 119.4,382.9 12.4,564 -107.1,181.2 -41.2,321.2 105.4,518.8 146.6,197.6 63.4,312.9 18.1,461.1"
         style="fill:#008700;fill-opacity:1;fill-rule:nonzero;stroke:none"
         id="path26367" />
      <path
         d="m 24003.7,10972.9 c -6.4,76.5 -20.4,151.9 -45.8,220.4 -123.6,333.5 -230.6,477.6 -115.3,671.1 115.3,193.5 90.5,312.9 0,448.8 -81.6,122.3 -142,541.5 80.5,774.2 -126.2,248.7 -292.4,474.6 -490.1,669.4 -68.7,-130.4 -126.4,-343.7 14.3,-595.5 234.7,-419.9 -263.5,-617.5 -20.6,-922.2 243,-304.7 -139.9,-712.3 53.6,-885.2 193.5,-172.9 251.1,-226.5 102.9,-395.2 -148.2,-168.9 -65.9,-313 0,-481.8 23.2,-59.5 25.4,-116.3 18.6,-165.1 165.7,197.8 301.8,420.3 401.9,661.1"
         style="fill:#008700;fill-opacity:1;fill-rule:nonzero;stroke:none"
         id="path26369" />
      <path
         d="m 21209.9,9397.3 c 120,-16.5 242.7,-25 367.4,-25 107.6,0 213.8,6.4 318,18.8 45.9,85.9 91.8,207.9 74,332.4 -33,230.6 -90.6,304.7 -24.7,457 65.8,152.3 -271.8,193.5 -103,448.8 168.8,255.2 205.5,415.8 131.6,592.9 -73.9,177 -312.7,325.2 -185.1,535.2 127.6,209.9 214.1,284.1 144.1,477.6 -70,193.5 -284.1,226.4 0,695.8 284.1,469.3 -193.5,292.3 -271.7,502.3 -78.2,209.9 329.4,419.9 222.3,596.9 -85.2,141 -235.7,342 -181.3,480.4 -41.1,1.9 -82.6,2.9 -124.2,2.9 -90,0 -178.9,-4.5 -266.5,-13.2 1.4,-34.5 -8.7,-76.7 -37.3,-128.3 -123.5,-222.4 -210,-292.3 -57.7,-457 152.4,-164.7 162.1,-214.1 6.9,-395.3 -155.1,-181.1 236,-428.2 145.5,-749.3 -90.6,-321.1 -242.9,-428.2 -214.1,-576.4 28.8,-148.2 271.7,-280 160.5,-489.9 -111.1,-210 -259.3,-292.4 -107,-436.5 152.3,-144.1 341.7,-271.7 284.1,-440.5 -57.7,-168.8 -411.7,-358.2 -230.6,-597 181.2,-238.8 317.6,-226.4 241.2,-387 -60.3,-126.6 -277.7,-271.1 -292.4,-445.6"
         style="fill:#008700;fill-opacity:1;fill-rule:nonzero;stroke:none"
         id="path26371" />
      <path
         d="m 20132.5,9798.4 c 211.3,-137.4 444.1,-245.5 692.3,-318.5 -7.2,76.4 -32.2,181.8 -103,301.2 -144.1,243 -234.7,333.5 -70,506.4 164.7,173 -135.9,267.7 -135.9,539.4 0,271.7 255.3,374.7 218.2,671.1 -37,296.4 -341.7,358.2 -230.5,555.8 111.1,197.6 375.8,251.2 323.7,531.1 -52,280 -307.3,494.1 -196.1,687.6 111.2,193.5 317,325.2 280,551.7 -28.6,174.6 -152.7,400.1 -145.6,563.3 -127.6,-40.8 -250.9,-91 -369.1,-149.7 20.9,-68.3 32.5,-146.8 4.1,-203.6 -61.7,-123.6 -185.2,-226.5 -164.7,-461.2 20.6,-234.6 123.6,-242.9 20.6,-473.4 -102.9,-230.6 -148.2,-230.6 -78.2,-473.5 70,-242.9 89.1,-337.6 -33.7,-506.4 -122.7,-168.8 -242.1,-374.7 -93.9,-527 148.2,-152.4 185.2,-271.7 115.3,-522.9 -70,-251.1 -234.7,-259.4 -135.9,-494.1 98.8,-234.6 226.4,-251.1 218.2,-494 -5.2,-154.8 -78.9,-217.6 -115.8,-283.3"
         style="fill:#008700;fill-opacity:1;fill-rule:nonzero;stroke:none"
         id="path26373" />
      <path
         d="m 22912.3,9730.8 c 8.9,77.3 11.4,156.5 -0.2,223.3 -37,214.1 -82.3,349.9 94.7,457 177,107 -238.8,312.9 -49.4,547.6 189.4,234.6 -37.1,279.9 131.7,617.5 168.8,337.6 -358.2,364.4 -172.9,686.6 185.3,322.1 259.4,429.2 78.2,696.8 -181.1,267.6 -234.6,395.2 -86.4,568.2 148.2,172.9 -490,321.1 -312.9,539.3 52.3,64.5 110,121.3 165.3,169.6 -166.5,82.9 -343.2,148.8 -527.9,195.5 -66.3,-119.9 -137.5,-326.6 -3.9,-529.8 205.9,-312.9 329.4,-387 164.7,-699.9 -164.7,-312.9 168.8,-399.4 152.4,-667 -16.5,-267.6 -181.2,-395.2 -53.5,-518.7 127.6,-123.6 226.4,-300.6 102.9,-564.1 -123.5,-263.5 -271.7,-210 -127.7,-485.8 144.1,-275.9 177.1,-382.9 24.8,-531.1 -152.4,-148.3 -181.2,-210 -53.6,-304.7 84.5,-62.7 93.2,-374 46.5,-600.2 149.3,54.1 292.2,121.2 427.2,199.9"
         style="fill:#008700;fill-opacity:1;fill-rule:nonzero;stroke:none"
         id="path26375" />
      <path
         d="m 21573,9372.3 c -0.2,0 -0.4,0 -0.6,0 h 0.1 c 0.2,0 0.3,0 0.5,0 m -4.3,0 c -0.1,0 -0.1,0 -0.2,0 0.1,0 0.1,0 0.2,0 v 0 m -4.3,0 c -0.2,0 -0.5,0 -0.7,0 0.1,0 0.2,0 0.4,0 0,0 0.2,0 0.3,0 m -4.3,0 c -0.1,0 -0.2,0 -0.3,0 0.1,0 0.2,0 0.3,0 v 0 m -4.3,0 c -0.3,0 -0.6,0 -0.9,0 0.2,0 0.3,0 0.5,0 0.2,0 0.3,0 0.4,0 m -4.3,0.1 c -0.2,0 -0.5,0 -0.7,0 0.2,0 0.4,0 0.6,0 0.1,0 0.1,0 0.1,0 m -4.3,0 c -0.4,0 -0.8,0 -1.3,0 0.2,0 0.4,0 0.6,0 0.2,0 0.5,0 0.7,0 m -4.3,0.1 c -0.4,0 -0.9,0 -1.3,0 0.3,0 0.7,0 1.1,0 0.1,0 0.2,0 0.2,0 m -4.2,0 c -0.5,0 -1,0 -1.5,0 0.3,0 0.5,0 0.8,0 0.2,0 0.5,0 0.7,0 m -4.4,0.1 c -0.4,0 -0.7,0 -1.1,0 0.3,0 0.6,0 0.9,0 0.1,0 0.2,0 0.2,0 m -4.3,0.1 c -0.5,0 -1,0 -1.5,0 0.2,0 0.4,0 0.6,0 0.2,0 0.7,0 0.9,0 m -4.3,0 c -0.6,0.1 -1.2,0.1 -1.7,0.1 0.1,0 0.1,0 0.2,0 0.3,0 0.7,0 1,0 0.2,-0.1 0.3,-0.1 0.5,-0.1 m -4.3,0.1 c -0.5,0 -1.1,0.1 -1.7,0.1 0.6,0 1.1,-0.1 1.7,-0.1 m -4.3,0.1 c -0.5,0 -1.1,0 -1.7,0.1 0.2,0 0.4,-0.1 0.6,-0.1 h 0.1 c 0.3,0 0.8,0 1,0 m -4.3,0.1 c -0.5,0 -1.1,0 -1.6,0.1 0.5,-0.1 1.1,-0.1 1.6,-0.1 m -4.2,0.1 c -0.6,0 -1.2,0.1 -1.8,0.1 0.6,0 1.1,-0.1 1.8,-0.1 m -4.4,0.1 c -0.5,0 -1,0.1 -1.6,0.1 0.6,0 1.1,-0.1 1.6,-0.1 m -4.2,0.2 c -0.6,0 -1.1,0 -1.7,0 0.6,0 1.1,0 1.7,0 m -4.4,0.1 c -0.5,0 -1,0 -1.5,0 0.6,0 1,0 1.5,0 m -4.2,0.1 c -0.6,0 -1.1,0 -1.6,0.1 0.5,-0.1 1,-0.1 1.6,-0.1 m -4.3,0.2 c -0.5,0 -1,0 -1.5,0 0.5,0 0.9,0 1.5,0 m -4.3,0.1 c -0.5,0 -1,0 -1.5,0.1 0.5,-0.1 0.9,-0.1 1.5,-0.1 m -4.4,0.2 c -0.4,0 -0.9,0 -1.3,0 0.4,0 0.9,0 1.3,0 m -4.3,0.1 c -0.5,0 -0.9,0 -1.3,0.1 0.4,-0.1 0.8,-0.1 1.3,-0.1 m -4.4,0.2 c -0.4,0 -0.8,0 -1.1,0 0.3,0 0.7,0 1.1,0 m -4.2,0.2 c -0.4,0 -0.8,0 -1.2,0 0.4,0 0.7,0 1.2,0 m -4.5,0.1 c -0.3,0.1 -0.6,0.1 -0.9,0.1 0.3,0 0.5,0 0.9,-0.1 m -4.4,0.2 c -0.3,0 -0.5,0.1 -0.8,0.1 0.2,0 0.6,-0.1 0.8,-0.1 m -4.6,0.2 c -0.2,0.1 -0.3,0.1 -0.4,0.1 0.1,0 0.3,-0.1 0.4,-0.1 m -4.4,0.2 c -0.1,0.1 -0.2,0.1 -0.3,0.1 0.2,0 0.1,0 0.3,-0.1 m 2748.9,2571.7 c 0,0.5 0,1.1 0,1.6 0,-0.5 0,-1 0,-1.6 m 0,4.3 c 0,0.5 0,1.2 0,1.7 0,-0.5 0,-1.2 0,-1.7 m 0,4.2 c 0,0.6 0,1.2 0,1.8 0,-0.6 0,-1.2 0,-1.8 m 0,4.3 c 0,0.6 0,1.2 -0.1,1.8 0.1,-0.6 0.1,-1.2 0.1,-1.8 m -0.1,4.2 c 0,0.6 0,1.3 0,1.9 0,-0.6 0,-1.2 0,-1.9 m 0,4.3 c 0,0.7 0,1.3 0,2 0,-0.7 0,-1.3 0,-2 m -0.1,4.2 c 0,0.6 0,1.4 0,2 0,-0.7 0,-1.3 0,-2 m 0,4.2 c 0,0.7 0,1.4 0,2.1 0,-0.7 0,-1.3 0,-2.1 m -0.1,4.3 c 0,0.7 0,1.3 0,2 0,-0.6 0,-1.4 0,-2 m 0,4.2 c 0,0.6 -0.1,1.4 -0.1,2 0,-0.6 0.1,-1.3 0.1,-2 m -0.1,4.3 c 0,0.7 0,1.3 0,1.9 0,-0.6 0,-1.2 0,-1.9 m -0.1,4.3 c 0,0.6 0,1.3 0,1.9 0,-0.6 0,-1.3 0,-1.9 m -0.1,4.2 c 0,0.6 0,1.3 0,1.9 0,-0.6 0,-1.2 0,-1.9 m -0.1,4.3 c 0,0.6 0,1.3 0,1.9 0,-0.7 0,-1.3 0,-1.9 m -0.1,4.2 c 0,0.7 0,1.3 0,1.9 0,-0.6 0,-1.3 0,-1.9 m -0.1,4.3 c 0,0.7 0,1.2 0,1.9 0,-0.7 0,-1.3 0,-1.9 m -0.1,4.2 c 0,0.6 0,1.3 -0.1,1.9 0.1,-0.6 0.1,-1.3 0.1,-1.9 m -0.1,4.3 c 0,0.6 -0.1,1.2 -0.1,1.8 0,-0.6 0.1,-1.2 0.1,-1.8 m -0.2,4.5 c 0,0.5 0,1 0,1.5 0,-0.5 0,-1 0,-1.5 m -0.1,4.4 c 0,0.4 0,0.9 0,1.3 0,-0.4 0,-0.8 0,-1.3 m -0.2,5.2 c 0,0.1 0,0.2 0,0.3 0,-0.1 0,-0.2 0,-0.3 m -0.5,13.1 c 0,0.3 0,0.6 0,0.8 0,-0.3 0,-0.5 0,-0.8 m -0.2,4.3 c 0,0.2 0,0.6 0,0.9 0,-0.4 0,-0.6 0,-0.9 m -0.1,4.2 c 0,0.3 -0.1,0.8 -0.1,1.2 0,-0.4 0.1,-0.8 0.1,-1.2 m -0.2,4.3 c 0,0.3 -0.1,0.7 -0.1,1.1 0,-0.4 0.1,-0.8 0.1,-1.1 m -0.2,4.1 c 0,0.5 -0.1,0.9 -0.1,1.3 0,-0.4 0.1,-0.8 0.1,-1.3 m -0.2,4.3 c 0,0.4 -0.1,0.9 -0.1,1.2 0,-0.4 0.1,-0.8 0.1,-1.2 m -0.2,4.2 c -0.1,0.5 -0.1,0.9 -0.1,1.3 0,-0.5 0,-0.8 0.1,-1.3 m -0.3,4.3 c 0,0.4 0,0.9 0,1.2 0,-0.3 0,-0.8 0,-1.2 m -0.2,4.2 c 0,0.4 0,0.9 0,1.3 0,-0.5 0,-0.8 0,-1.3 m -0.2,4.2 c 0,0.5 -0.1,0.9 -0.1,1.3 0,-0.4 0.1,-0.8 0.1,-1.3 m -0.2,4.3 c -0.1,0.4 -0.1,0.8 -0.1,1.2 0,-0.4 0,-0.8 0.1,-1.2 m -0.3,4.4 c 0,0.3 0,0.6 -0.1,1 0.1,-0.3 0.1,-0.7 0.1,-1 m -0.3,4.2 c 0,0.3 0,0.7 0,1 0,-0.4 0,-0.6 0,-1 m -0.2,4.4 c 0,0.3 -0.1,0.5 -0.1,0.8 0.1,-0.3 0.1,-0.5 0.1,-0.8 m -0.3,4.3 c 0,0.3 0,0.4 0,0.7 0,-0.3 0,-0.4 0,-0.7 m -0.3,4.4 c 0,0.2 0,0.3 0,0.5 0,-0.2 0,-0.3 0,-0.5 m -0.3,4.4 c 0,0.1 0,0.2 0,0.3 0,-0.1 0,-0.2 0,-0.3"
         style="fill:#b2d0b2;fill-opacity:1;fill-rule:nonzero;stroke:none"
         id="path26377" />
      <path
         d="m 21577.3,9372.3 c 1.5,0 3.1,0 4.7,0 -1.6,0 -3.1,0 -4.7,0 m -3.9,0 c -0.1,0 -0.3,0 -0.4,0 -0.2,0 -0.3,0 -0.5,0 0.3,0 0.6,0 0.9,0 m 9.9,0 c 1.2,0 2.3,0 3.5,0 -1.2,0 -2.3,0 -3.5,0 m -14.6,0 v 0 0 0 m 19.6,0 c 1.1,0 2.2,0 3.3,0 -1,0 -2.3,0 -3.3,0 m -23.6,0 c -0.1,0 -0.2,0 -0.3,0 -0.1,0 -0.3,0 -0.3,0 0.2,0 0.4,0 0.6,0 m 28.2,0 c 1.4,0 2.8,0 4.2,0 -1.4,0 -2.7,0 -4.2,0 m -32.6,0 c -0.1,0 -0.1,0 -0.2,0 v 0 c 0.1,0 0.1,0 0.2,0 m 37.3,0 c 100.7,0.8 200,7.2 297.7,18.8 45.9,85.9 91.8,207.9 74,332.4 -4.1,28.7 -8.6,54.9 -13.2,79.2 182.7,76.7 355.8,171.3 517,281.3 51.4,-111.9 51.3,-362.7 12,-553.1 149.3,54.1 292.2,121.2 427.2,199.9 8.9,77.3 11.4,156.5 -0.2,223.3 -37,214.1 -82.3,349.9 94.7,457 65.8,39.8 49.7,93.2 13.2,156.8 199.4,227.1 363.2,485.1 482.7,765.9 175.3,-157.3 222.8,-213.1 80.5,-375.1 -148.2,-168.9 -65.9,-313 0,-481.8 23.2,-59.5 25.4,-116.3 18.6,-165.1 165.7,197.8 301.8,420.3 401.9,661.1 -6.4,76.5 -20.4,151.9 -45.8,220.4 -123.6,333.5 -230.6,477.6 -115.3,671.1 115.3,193.5 90.5,312.9 0,448.8 -81.6,122.3 -142,541.5 80.5,774.2 -126.2,248.7 -292.4,474.6 -490.1,669.4 -5.5,-10.3 -10.9,-21.2 -16.1,-32.6 -17,33 -34.6,65.7 -52.8,98 472.1,-432.5 781.2,-1034.3 826.6,-1706.9 0,-0.1 0,-0.2 0,-0.3 0.1,-1.3 0.2,-2.6 0.3,-3.9 0,-0.2 0,-0.3 0,-0.5 0.1,-1.2 0.2,-2.5 0.3,-3.7 0,-0.3 0,-0.4 0,-0.7 0.1,-1.2 0.2,-2.4 0.2,-3.5 0,-0.3 0.1,-0.5 0.1,-0.8 0.1,-1.1 0.1,-2.3 0.2,-3.4 0,-0.3 0,-0.7 0,-1 0.1,-1.1 0.2,-2.1 0.2,-3.2 0.1,-0.4 0.1,-0.7 0.1,-1 0.1,-1.1 0.1,-2.1 0.2,-3.2 0,-0.4 0,-0.8 0.1,-1.2 0,-1 0.1,-2 0.1,-3 0,-0.4 0.1,-0.8 0.1,-1.3 0,-0.9 0.1,-1.9 0.2,-2.9 0,-0.4 0,-0.9 0,-1.3 0.1,-1 0.1,-2 0.2,-3 0,-0.3 0,-0.8 0,-1.2 0.1,-1 0.2,-2 0.2,-3 0,-0.4 0,-0.8 0.1,-1.3 0,-1 0.1,-2 0.1,-3 0,-0.3 0.1,-0.8 0.1,-1.2 0,-0.9 0.1,-2 0.1,-3 0,-0.4 0.1,-0.8 0.1,-1.3 0,-1 0.1,-2 0.1,-3 0,-0.4 0.1,-0.8 0.1,-1.1 0,-1.1 0.1,-2.1 0.1,-3.1 0,-0.4 0.1,-0.9 0.1,-1.2 0,-1.1 0.1,-2.3 0.1,-3.3 0,-0.3 0,-0.7 0,-0.9 0.1,-1.2 0.1,-2.3 0.2,-3.5 0,-0.2 0,-0.5 0,-0.8 0.2,-4.2 0.4,-8.5 0.5,-12.8 0,-0.1 0,-0.2 0,-0.3 0.1,-1.3 0.1,-2.6 0.2,-3.9 0,-0.4 0,-0.9 0,-1.3 0,-0.9 0.1,-2 0.1,-2.9 0,-0.5 0,-1 0,-1.5 0.1,-0.9 0.1,-1.8 0.1,-2.7 0,-0.6 0.1,-1.2 0.1,-1.8 0,-0.8 0,-1.6 0,-2.4 0.1,-0.6 0.1,-1.3 0.1,-1.9 0,-0.8 0,-1.6 0.1,-2.3 0,-0.7 0,-1.2 0,-1.9 0,-0.8 0.1,-1.6 0.1,-2.4 0,-0.6 0,-1.2 0,-1.9 0,-0.8 0.1,-1.5 0.1,-2.3 0,-0.6 0,-1.3 0,-1.9 0,-0.8 0.1,-1.6 0.1,-2.4 0,-0.6 0,-1.3 0,-1.9 0,-0.7 0.1,-1.5 0.1,-2.3 0,-0.6 0,-1.3 0,-1.9 0,-0.8 0,-1.6 0.1,-2.4 0,-0.6 0,-1.2 0,-1.9 0,-0.7 0,-1.5 0,-2.3 0,-0.6 0.1,-1.4 0.1,-2 0,-0.7 0,-1.4 0,-2.2 0,-0.7 0,-1.3 0,-2 0,-0.8 0.1,-1.4 0.1,-2.2 0,-0.7 0,-1.4 0,-2.1 0,-0.7 0,-1.5 0,-2.2 0,-0.6 0,-1.4 0,-2 0.1,-0.7 0.1,-1.5 0.1,-2.2 0,-0.7 0,-1.3 0,-2 0,-0.8 0,-1.6 0,-2.4 0,-0.6 0,-1.3 0,-1.9 0,-0.8 0,-1.6 0,-2.4 0.1,-0.6 0.1,-1.2 0.1,-1.8 0,-0.8 0,-1.7 0,-2.5 0,-0.6 0,-1.2 0,-1.8 0,-0.8 0,-1.6 0,-2.5 0,-0.5 0,-1.2 0,-1.7 0,-0.9 0,-1.8 0,-2.7 0,-0.5 0,-1.1 0,-1.6 0,-1.4 0,-2.8 0,-4.2 0,-1413 -1161.8,-2559.7 -2598.9,-2570.5 m -41.5,0 c -0.1,0 -0.2,0 -0.3,0 -0.1,0 -0.2,0 -0.4,0 0.2,0 0.5,0 0.7,0 m -4.2,0.1 c -0.2,0 -0.2,0 -0.4,0 0,0 0,0 -0.1,0 0.2,0 0.3,0 0.5,0 m -4.4,0 c -0.1,0 -0.2,0 -0.3,0 -0.2,0 -0.5,0 -0.7,0 0.4,0 0.7,0 1,0 m -3.9,0.1 c -0.2,0 -0.4,0 -0.7,0 0,0 -0.1,0 -0.2,0 0.3,0 0.6,0 0.9,0 m -4.7,0 c -0.1,0 -0.2,0 -0.2,0 -0.2,0 -0.5,0 -0.7,0 0.3,0 0.6,0 0.9,0 m -4,0.1 c -0.2,0 -0.4,0 -0.6,0 0,0 -0.1,0 -0.2,0 0.3,0 0.5,0 0.8,0 m -4.7,0.1 c -0.1,0 -0.1,0 -0.2,0 -0.2,0 -0.7,0 -0.9,0 0.3,0 0.7,0 1.1,0 m -3.7,0 c -0.3,0 -0.5,0 -0.8,0 -0.2,0 -0.3,0 -0.5,0.1 0.4,-0.1 0.9,-0.1 1.3,-0.1 m -2.3,0.1 c -0.1,0 -0.1,0 -0.2,0 -0.3,0 -0.5,0 -0.8,0 0.4,0 0.7,0 1,0 m -2.5,0 c -0.1,0 -0.2,0 -0.3,0 -0.6,0 -1.1,0.1 -1.7,0.1 -0.1,0 -0.2,0 -0.2,0 0.7,0 1.5,-0.1 2.2,-0.1 m -3.4,0.1 c -0.4,0 -0.8,0 -1.2,0 -0.2,0 -0.7,0 -1,0 0.8,0 1.5,0 2.2,0 m -2.3,0 c -0.2,0 -0.4,0.1 -0.6,0.1 -0.9,0 -1.7,0 -2.6,0 -0.5,0 -1.1,0 -1.6,0.1 -0.3,0 -0.6,0 -0.9,0 1.9,-0.1 3.8,-0.1 5.7,-0.2 m -5.9,0.2 c -0.5,0 -1,0 -1.5,0 -0.7,0 -1.2,0.1 -1.8,0.1 -0.8,0 -1.7,0 -2.6,0 -0.5,0 -1,0.1 -1.6,0.1 -0.9,0 -1.7,0 -2.6,0.1 -0.6,0 -1.1,0 -1.7,0 -0.9,0 -1.8,0.1 -2.7,0.1 -0.5,0 -0.9,0 -1.5,0 -0.9,0.1 -1.8,0.1 -2.7,0.1 -0.6,0 -1.1,0 -1.6,0.1 -0.9,0 -1.8,0 -2.7,0.1 -0.6,0 -1,0 -1.5,0 -1,0 -1.9,0.1 -2.8,0.1 -0.6,0 -1,0 -1.5,0.1 -1,0 -1.9,0 -2.9,0.1 -0.4,0 -0.9,0 -1.3,0 -1,0 -2,0.1 -3,0.1 -0.5,0 -0.9,0 -1.3,0.1 -1,0 -2.1,0 -3.1,0.1 -0.4,0 -0.8,0 -1.1,0 -1.1,0.1 -2.1,0.1 -3.1,0.2 -0.5,0 -0.8,0 -1.2,0 -1.1,0.1 -2.2,0.1 -3.3,0.1 -0.4,0.1 -0.6,0.1 -0.9,0.1 -1.2,0 -2.3,0.1 -3.5,0.1 -0.2,0 -0.6,0.1 -0.8,0.1 -1.3,0 -2.6,0.1 -3.8,0.1 -0.1,0 -0.3,0.1 -0.4,0.1 -1.3,0 -2.7,0.1 -4,0.1 -0.2,0.1 -0.1,0.1 -0.3,0.1 -324.2,15.5 -632.9,88.9 -915.7,209.9 0.1,0 0.1,0 0.1,0 94.9,-40.6 192.7,-75.9 293.1,-105.4 -2.6,27.4 -7.4,58.5 -15.9,92.7 174.7,0 345.7,15.1 511.9,44 -56.2,-67.7 -104.3,-140.4 -110.9,-219.3 98.4,-13.5 198.6,-21.7 300.2,-24.2"
         style="fill:#008c00;fill-opacity:1;fill-rule:nonzero;stroke:none"
         id="path26379" />
      <path
         d="m 23601.8,10311.8 c 6.8,48.8 4.6,105.6 -18.6,165.1 -65.9,168.8 -148.2,312.9 0,481.8 142.3,162 94.8,217.8 -80.5,375.1 144.6,339.7 224.5,712.6 224.5,1103.7 0,462.7 -111.8,899.8 -310.3,1286.7 5.2,11.4 10.6,22.3 16.1,32.6 197.7,-194.8 363.9,-420.7 490.1,-669.4 -222.5,-232.7 -162.1,-651.9 -80.5,-774.2 90.5,-135.9 115.3,-255.3 0,-448.8 -115.3,-193.5 -8.3,-337.6 115.3,-671.1 25.4,-68.5 39.4,-143.9 45.8,-220.4 -100.1,-240.8 -236.2,-463.3 -401.9,-661.1"
         style="fill:#007c00;fill-opacity:1;fill-rule:nonzero;stroke:none"
         id="path26381" />
      <path
         d="m 21577.3,9372.3 v 0 c -1.3,0 -2.6,0 -3.9,0 -0.3,0 -0.6,0 -0.9,0 h -0.1 c -1.2,0 -2.4,0 -3.7,0 v 0 c -0.1,0 -0.1,0 -0.2,0 -1.2,0 -2.5,0 -3.8,0 -0.2,0 -0.4,0 -0.6,0 -0.2,0 -0.3,0 -0.4,0 -1.2,0 -2.3,0 -3.4,0 -0.1,0 -0.1,0 -0.2,0 -0.1,0 -0.2,0 -0.3,0 -1.3,0 -2.5,0 -3.7,0 -0.2,0 -0.5,0 -0.7,0 -0.2,0 -0.3,0 -0.5,0 -1,0.1 -2,0.1 -3,0.1 -0.2,0 -0.3,0 -0.5,0 -0.2,0 -0.4,0 -0.6,0 -1.1,0 -2.2,0 -3.3,0 -0.3,0 -0.6,0 -1,0 -0.2,0 -0.4,0 -0.6,0 -0.7,0 -1.5,0.1 -2.3,0.1 -0.3,0 -0.6,0 -0.9,0 -0.4,0 -0.8,0 -1.1,0 -0.9,0 -1.8,0 -2.7,0 -0.3,0 -0.6,0 -0.9,0 -0.3,0 -0.5,0 -0.8,0 -0.7,0.1 -1.5,0.1 -2.3,0.1 -0.3,0 -0.5,0 -0.8,0 -0.3,0 -0.6,0 -0.9,0 -1,0 -2.1,0 -3,0.1 -0.4,0 -0.8,0 -1.1,0 -0.2,0 -0.4,0 -0.6,0 -0.7,0 -1.3,0 -2,0 -0.4,0 -0.9,0 -1.3,0.1 -0.3,0 -0.7,0 -1,0 -0.3,0 -0.6,0 -1,0 -0.4,0 -1,0 -1.5,0 -0.7,0 -1.5,0.1 -2.2,0.1 -0.4,0 -0.8,0 -1.2,0 -0.7,0 -1.4,0 -2.2,0 h -0.1 c -1.9,0.1 -3.8,0.1 -5.7,0.2 0,0 -0.1,0 -0.2,0 -101.6,2.5 -201.8,10.7 -300.2,24.2 6.6,78.9 54.7,151.6 110.9,219.3 221.5,38.5 434.1,101.5 635.3,186.1 4.6,-24.3 9.1,-50.5 13.2,-79.2 17.8,-124.5 -28.1,-246.5 -74,-332.4 -97.7,-11.6 -197,-18 -297.7,-18.8 v 0 c -0.2,0 -0.3,0 -0.5,0 v 0 c -1.4,0 -2.8,0 -4.2,0 v 0 c -0.4,0 -0.8,0 -1.3,0 v 0 c -1.1,0 -2.2,0 -3.3,0 v 0 c -0.6,0 -1,0 -1.5,0 v 0 c -1.2,0 -2.3,0 -3.5,0 v 0 c -0.4,0 -0.9,0 -1.3,0 v 0 c -1.6,0 -3.2,0 -4.7,0 v 0"
         style="fill:#007c00;fill-opacity:1;fill-rule:nonzero;stroke:none"
         id="path26383" />
      <path
         d="m 20824.8,9479.9 c -100.4,29.5 -198.2,64.8 -293.1,105.4 90.9,-8.4 183.1,-12.7 276.2,-12.7 0.3,0 0.7,0 1,0 8.5,-34.2 13.3,-65.3 15.9,-92.7"
         style="fill:#007c00;fill-opacity:1;fill-rule:nonzero;stroke:none"
         id="path26385" />
      <path
         d="m 22485.1,9530.9 c 39.3,190.4 39.4,441.2 -12,553.1 202.4,138.3 386.2,301 546.9,483.9 36.5,-63.6 52.6,-117 -13.2,-156.8 -177,-107.1 -131.7,-242.9 -94.7,-457 11.6,-66.8 9.1,-146 0.2,-223.3 -135,-78.7 -277.9,-145.8 -427.2,-199.9"
         style="fill:#007c00;fill-opacity:1;fill-rule:nonzero;stroke:none"
         id="path26387" />
      <path
         d="m 20072,10303.2 c -31.9,0 -63,10.7 -86,30.2 -15.8,13.4 -31.6,27 -47.1,40.7 -15.6,13.8 -31.3,27.5 -46.1,41.8 -29.7,28.7 -60,57.2 -87.7,87.5 -14.1,14.9 -28.7,29.7 -42.3,45.1 l -40.4,46.4 c -6.7,7.8 -13.6,15.5 -20.1,23.4 l -19.1,24 -38.2,48.1 c -12.2,16.3 -24,32.9 -36,49.4 l -17.9,24.8 -17.1,25.3 c -11.4,16.8 -22.6,33.8 -33.7,50.8 l -31.6,51.9 -15.7,26.1 -11.6,20.8 c 1.2,30.1 10.2,63.5 29.9,101.5 115.3,222.3 119.4,382.9 12.4,564 -107.1,181.2 -41.2,321.2 105.4,518.8 146.6,197.6 63.4,312.9 18.1,461.1 -45.3,148.2 -12.4,415.9 177,551.7 189.4,135.9 107.1,317 78.3,502.3 -0.5,2.8 -0.9,5.7 -1.2,8.5 11.5,12.5 23.1,25 35.1,37.4 l 22.1,22.3 24,23.3 c 23.9,23.2 57.4,35 91,35 28.4,0 57,-8.4 80,-25.7 41,-30.7 51.8,-79.7 30.5,-120 l -3.9,-7.2 -24.4,-45.9 c -8.4,-16 -16.9,-32 -25.1,-48.1 -16.7,-32.1 -32.8,-64.6 -48.7,-97.1 -15.6,-32.7 -31.7,-65.1 -46.5,-97.9 -15,-32.8 -30,-65.5 -44,-98.5 -57.3,-131.6 -108.2,-264.3 -151,-398 -10.8,-33.4 -21,-66.9 -30.6,-100.4 l -14.4,-50.2 -13.5,-50.4 c -16.9,-67.3 -33,-134.5 -45.3,-202 -12.7,-67.5 -23.5,-135 -31.6,-202.6 -8.1,-67.5 -13.3,-135.1 -16.1,-202.6 -3,-67.5 -2.8,-134.9 0.2,-202.2 0.6,-16.8 1.3,-33.6 2.7,-50.3 1.4,-16.8 2.1,-33.6 3.7,-50.4 l 5,-50.2 c 1.6,-16.8 4,-33.4 6,-50.1 17.6,-133.6 46.8,-266 88.8,-396.4 10.1,-32.7 21.8,-65.1 33,-97.6 6.1,-16.2 12.6,-32.2 18.8,-48.4 l 9.2,-24.3 10.1,-24 20.3,-48.2 c 7.4,-15.9 14.8,-31.8 21.9,-47.8 l 10.8,-24 11.8,-23.7 c 7.8,-15.8 15.8,-31.6 23.4,-47.6 l 24.9,-47.2 12.5,-23.7 11.4,-20.3 c -9.2,-43.1 -3.9,-94.1 26.7,-166.7 45.9,-108.9 98,-170.8 139.8,-230.2 -10.4,-12.1 -24.1,-22.5 -40.7,-30.1 -18.2,-8.3 -37.8,-12.2 -57.2,-12.2"
         style="fill:#66c566;fill-opacity:1;fill-rule:nonzero;stroke:none"
         id="path26389" />
      <path
         d="m 19481.4,10939.5 -3.2,5.7 c -9.6,17.7 -19.4,35.4 -28.8,53.2 -17.7,36.1 -37,71.8 -52.5,108.7 l -12.2,27.6 c -4.1,9.2 -8,18.4 -11.7,27.7 l -22.3,55.8 c -7.4,18.6 -13.5,37.6 -20.2,56.4 l -9.8,28.3 -8.9,28.5 c -24.7,75.9 -42.7,153.2 -57.7,230.9 -15.5,77.7 -24.8,156.1 -30.5,234.6 -3.4,39.2 -4.1,78.5 -5.3,117.7 v 58.9 c -0.1,19.6 1,39.2 1.5,58.7 3.1,78.4 10.2,156.4 21.2,233.8 11.4,77.4 26.3,154.3 45.2,230.2 37.8,151.8 89.1,300.3 154.2,443.6 64.8,143.4 141.7,281.9 231,414.1 44.7,66.1 92.2,130.7 143.3,193.3 25.5,31.3 52,62.1 79.4,92.5 2.4,2.6 4.8,5.1 7.2,7.7 0.3,-2.8 0.7,-5.7 1.2,-8.5 28.8,-185.3 111.1,-366.4 -78.3,-502.3 -189.4,-135.8 -222.3,-403.5 -177,-551.7 45.3,-148.2 128.5,-263.5 -18.1,-461.1 -146.6,-197.6 -212.5,-337.6 -105.4,-518.8 107,-181.1 102.9,-341.7 -12.4,-564 -19.7,-38 -28.7,-71.4 -29.9,-101.5"
         style="fill:#66b766;fill-opacity:1;fill-rule:nonzero;stroke:none"
         id="path26391" />
      <path
         d="m 20169.9,10345.5 c -41.8,59.4 -93.9,121.3 -139.8,230.2 -30.6,72.6 -35.9,123.6 -26.7,166.7 l 1.8,-3.1 26.3,-47 27.8,-46.6 c 18.1,-31.4 38,-62 57.4,-93.2 9.3,-15.8 19.9,-30.8 29.9,-46.4 10.1,-15.4 20.1,-31 30,-46.7 l 2.4,-3.8 c 22.8,-36.3 17.6,-79 -9.1,-110.1"
         style="fill:#66b766;fill-opacity:1;fill-rule:nonzero;stroke:none"
         id="path26393" />
      <path
         d="m 20989.7,13198.7 c 0,-22.2 -17.9,-40.2 -40.1,-40.2 -22.2,0 -40.2,18 -40.2,40.2 0,22.2 18,40.2 40.2,40.2 22.2,0 40.1,-18 40.1,-40.2"
         style="fill:#008700;fill-opacity:1;fill-rule:nonzero;stroke:none"
         id="path26395" />
      <path
         d="m 21165.3,11872.2 c 0,-15.7 -12.8,-28.5 -28.6,-28.5 -15.7,0 -28.5,12.8 -28.5,28.5 0,15.8 12.8,28.6 28.5,28.6 15.8,0 28.6,-12.8 28.6,-28.6"
         style="fill:#008700;fill-opacity:1;fill-rule:nonzero;stroke:none"
         id="path26397" />
      <path
         d="m 20750.2,10820.7 c 0,-18.3 -14.8,-33.1 -33.1,-33.1 -18.2,0 -33.1,14.8 -33.1,33.1 0,18.2 14.9,33 33.1,33 18.3,0 33.1,-14.8 33.1,-33"
         style="fill:#008700;fill-opacity:1;fill-rule:nonzero;stroke:none"
         id="path26399" />
      <path
         d="m 22340.2,10963.6 c 0,-21.3 -17.3,-38.6 -38.6,-38.6 -21.3,0 -38.6,17.3 -38.6,38.6 0,21.4 17.3,38.6 38.6,38.6 21.3,0 38.6,-17.2 38.6,-38.6"
         style="fill:#008700;fill-opacity:1;fill-rule:nonzero;stroke:none"
         id="path26401" />
      <path
         d="m 22060.4,12616.3 c 0,-10.8 -8.7,-19.5 -19.4,-19.5 -10.8,0 -19.5,8.7 -19.5,19.5 0,10.7 8.7,19.4 19.5,19.4 10.7,0 19.4,-8.7 19.4,-19.4"
         style="fill:#008700;fill-opacity:1;fill-rule:nonzero;stroke:none"
         id="path26403" />
      <path
         d="m 23294.4,13251.8 c 0,-24.8 -20.1,-44.8 -44.8,-44.8 -24.7,0 -44.8,20 -44.8,44.8 0,24.7 20.1,44.7 44.8,44.7 24.7,0 44.8,-20 44.8,-44.7"
         style="fill:#008700;fill-opacity:1;fill-rule:nonzero;stroke:none"
         id="path26405" />
      <path
         d="m 20044,11051.7 c 0,-27.3 -22.1,-49.5 -49.4,-49.5 -27.3,0 -49.4,22.2 -49.4,49.5 0,27.2 22.1,49.4 49.4,49.4 27.3,0 49.4,-22.2 49.4,-49.4"
         style="fill:#008700;fill-opacity:1;fill-rule:nonzero;stroke:none"
         id="path26407" />
      <path
         d="m 20981.6,9808.8 c 0,-26.4 -21.5,-47.9 -47.9,-47.9 -26.4,0 -47.9,21.5 -47.9,47.9 0,26.4 21.5,47.9 47.9,47.9 26.4,0 47.9,-21.5 47.9,-47.9"
         style="fill:#008700;fill-opacity:1;fill-rule:nonzero;stroke:none"
         id="path26409" />
      <path
         d="m 22490.4,11856.5 c 0,-24.4 -19.8,-44.3 -44.3,-44.3 -24.4,0 -44.3,19.9 -44.3,44.3 0,24.5 19.9,44.3 44.3,44.3 24.5,0 44.3,-19.8 44.3,-44.3"
         style="fill:#008700;fill-opacity:1;fill-rule:nonzero;stroke:none"
         id="path26411" />
      <path
         d="m 21932.6,14344.3 c 0,-23.9 -19.4,-43.2 -43.2,-43.2 -23.9,0 -43.2,19.3 -43.2,43.2 0,23.8 19.3,43.2 43.2,43.2 23.8,0 43.2,-19.4 43.2,-43.2"
         style="fill:#008700;fill-opacity:1;fill-rule:nonzero;stroke:none"
         id="path26413" />
      <path
         d="m 19994.6,12637.8 c 0,-13.7 -11.1,-24.7 -24.7,-24.7 -13.7,0 -24.7,11 -24.7,24.7 0,13.6 11,24.7 24.7,24.7 13.6,0 24.7,-11.1 24.7,-24.7"
         style="fill:#008700;fill-opacity:1;fill-rule:nonzero;stroke:none"
         id="path26415" />
    </g>
  </g>
</svg>
